<?xml version="1.0" encoding="utf-8" standalone="no"?>
<!DOCTYPE svg PUBLIC "-//W3C//DTD SVG 1.1//EN"
  "http://www.w3.org/Graphics/SVG/1.1/DTD/svg11.dtd">
<svg xmlns:xlink="http://www.w3.org/1999/xlink" width="460.8pt" height="345.6pt" viewBox="0 0 460.8 345.6" xmlns="http://www.w3.org/2000/svg" version="1.1">
 <metadata>
  <rdf:RDF xmlns:dc="http://purl.org/dc/elements/1.1/" xmlns:cc="http://creativecommons.org/ns#" xmlns:rdf="http://www.w3.org/1999/02/22-rdf-syntax-ns#">
   <cc:Work>
    <dc:type rdf:resource="http://purl.org/dc/dcmitype/StillImage"/>
    <dc:date>2023-04-25T12:20:21.971406</dc:date>
    <dc:format>image/svg+xml</dc:format>
    <dc:creator>
     <cc:Agent>
      <dc:title>Matplotlib v3.7.1, https://matplotlib.org/</dc:title>
     </cc:Agent>
    </dc:creator>
   </cc:Work>
  </rdf:RDF>
 </metadata>
 <defs>
  <style type="text/css">*{stroke-linejoin: round; stroke-linecap: butt}</style>
 </defs>
 <g id="figure_1">
  <g id="patch_1">
   <path d="M 0 345.6 
L 460.8 345.6 
L 460.8 0 
L 0 0 
z
" style="fill: #ffffff"/>
  </g>
  <g id="axes_1">
   <g id="patch_2">
    <path d="M 43.767966 146.895749 
Q 82.814742 227.356518 121.373389 306.811439 
" clip-path="url(#pc1c85c7e95)" style="fill: none; stroke: #000000; stroke-linecap: round"/>
    <path d="M 121.426327 302.339616 
L 121.373389 306.811439 
L 117.827694 304.085996 
z
" clip-path="url(#pc1c85c7e95)" style="stroke: #000000; stroke-linecap: round"/>
   </g>
   <g id="patch_3">
    <path d="M 48.154068 141.985721 
Q 230.399441 206.285593 411.590479 270.213474 
" clip-path="url(#pc1c85c7e95)" style="fill: none; stroke: #000000; stroke-linecap: round"/>
    <path d="M 408.483812 266.996547 
L 411.590479 270.213474 
L 407.152937 270.768651 
z
" clip-path="url(#pc1c85c7e95)" style="stroke: #000000; stroke-linecap: round"/>
   </g>
   <g id="patch_4">
    <path d="M 48.122436 136.132202 
Q 189.336461 84.547126 329.500326 33.345669 
" clip-path="url(#pc1c85c7e95)" style="fill: none; stroke: #000000; stroke-linecap: round"/>
    <path d="M 325.056919 32.839568 
L 329.500326 33.345669 
L 326.429401 36.596734 
z
" clip-path="url(#pc1c85c7e95)" style="stroke: #000000; stroke-linecap: round"/>
   </g>
   <g id="patch_5">
    <path d="M 121.86201 307.818303 
Q 82.815235 227.357534 44.256587 147.902613 
" clip-path="url(#pc1c85c7e95)" style="fill: none; stroke: #000000; stroke-linecap: round"/>
    <path d="M 44.20365 152.374436 
L 44.256587 147.902613 
L 47.802283 150.628057 
z
" clip-path="url(#pc1c85c7e95)" style="stroke: #000000; stroke-linecap: round"/>
   </g>
   <g id="patch_6">
    <path d="M 134.214192 314.386206 
Q 273.22583 294.539022 411.130658 274.84986 
" clip-path="url(#pc1c85c7e95)" style="fill: none; stroke: #000000; stroke-linecap: round"/>
    <path d="M 406.888133 273.435299 
L 411.130658 274.84986 
L 407.453494 277.395143 
z
" clip-path="url(#pc1c85c7e95)" style="stroke: #000000; stroke-linecap: round"/>
   </g>
   <g id="patch_7">
    <path d="M 130.820065 308.669463 
Q 232.16418 172.800721 332.839831 37.828168 
" clip-path="url(#pc1c85c7e95)" style="fill: none; stroke: #000000; stroke-linecap: round"/>
    <path d="M 328.845107 39.838684 
L 332.839831 37.828168 
L 332.05141 42.230257 
z
" clip-path="url(#pc1c85c7e95)" style="stroke: #000000; stroke-linecap: round"/>
   </g>
   <g id="patch_8">
    <path d="M 412.645932 270.585859 
Q 230.400559 206.285988 49.209521 142.358107 
" clip-path="url(#pc1c85c7e95)" style="fill: none; stroke: #000000; stroke-linecap: round"/>
    <path d="M 52.316188 145.575034 
L 49.209521 142.358107 
L 53.647063 141.80293 
z
" clip-path="url(#pc1c85c7e95)" style="stroke: #000000; stroke-linecap: round"/>
   </g>
   <g id="patch_9">
    <path d="M 412.242231 274.691157 
Q 273.230593 294.538342 135.325765 314.227503 
" clip-path="url(#pc1c85c7e95)" style="fill: none; stroke: #000000; stroke-linecap: round"/>
    <path d="M 139.56829 315.642064 
L 135.325765 314.227503 
L 139.002929 311.68222 
z
" clip-path="url(#pc1c85c7e95)" style="stroke: #000000; stroke-linecap: round"/>
   </g>
   <g id="patch_10">
    <path d="M 418.044996 265.260636 
Q 379.749091 151.72687 341.810527 39.252494 
" clip-path="url(#pc1c85c7e95)" style="fill: none; stroke: #000000; stroke-linecap: round"/>
    <path d="M 341.193895 43.681915 
L 341.810527 39.252494 
L 344.984084 42.403452 
z
" clip-path="url(#pc1c85c7e95)" style="stroke: #000000; stroke-linecap: round"/>
   </g>
   <g id="patch_11">
    <path d="M 330.550578 32.962015 
Q 189.336553 84.547092 49.172688 135.748548 
" clip-path="url(#pc1c85c7e95)" style="fill: none; stroke: #000000; stroke-linecap: round"/>
    <path d="M 53.616094 136.254649 
L 49.172688 135.748548 
L 52.243612 132.497484 
z
" clip-path="url(#pc1c85c7e95)" style="stroke: #000000; stroke-linecap: round"/>
   </g>
   <g id="PathCollection_1">
    <defs>
     <path id="m71ac6aae45" d="M 0 8.660254 
C 2.296726 8.660254 4.499694 7.747755 6.123724 6.123724 
C 7.747755 4.499694 8.660254 2.296726 8.660254 0 
C 8.660254 -2.296726 7.747755 -4.499694 6.123724 -6.123724 
C 4.499694 -7.747755 2.296726 -8.660254 0 -8.660254 
C -2.296726 -8.660254 -4.499694 -7.747755 -6.123724 -6.123724 
C -7.747755 -4.499694 -8.660254 -2.296726 -8.660254 0 
C -8.660254 2.296726 -7.747755 4.499694 -6.123724 6.123724 
C -4.499694 7.747755 -2.296726 8.660254 0 8.660254 
z
" style="stroke: #1f78b4"/>
    </defs>
    <g clip-path="url(#pc1c85c7e95)">
     <use xlink:href="#m71ac6aae45" x="39.986777" y="139.104135" style="fill: #1f78b4; stroke: #1f78b4"/>
     <use xlink:href="#m71ac6aae45" x="125.6432" y="315.609917" style="fill: #1f78b4; stroke: #1f78b4"/>
     <use xlink:href="#m71ac6aae45" x="420.813223" y="273.467446" style="fill: #1f78b4; stroke: #1f78b4"/>
     <use xlink:href="#m71ac6aae45" x="338.686237" y="29.990083" style="fill: #1f78b4; stroke: #1f78b4"/>
    </g>
   </g>
  </g>
 </g>
 <defs>
  <clipPath id="pc1c85c7e95">
   <rect x="0" y="0" width="460.8" height="345.6"/>
  </clipPath>
 </defs>
</svg>
