<?xml version="1.0" encoding="utf-8" standalone="no"?>
<!DOCTYPE svg PUBLIC "-//W3C//DTD SVG 1.1//EN"
  "http://www.w3.org/Graphics/SVG/1.1/DTD/svg11.dtd">
<svg xmlns:xlink="http://www.w3.org/1999/xlink" width="460.8pt" height="345.6pt" viewBox="0 0 460.8 345.6" xmlns="http://www.w3.org/2000/svg" version="1.1">
 <metadata>
  <rdf:RDF xmlns:dc="http://purl.org/dc/elements/1.1/" xmlns:cc="http://creativecommons.org/ns#" xmlns:rdf="http://www.w3.org/1999/02/22-rdf-syntax-ns#">
   <cc:Work>
    <dc:type rdf:resource="http://purl.org/dc/dcmitype/StillImage"/>
    <dc:date>2023-04-25T12:20:22.224246</dc:date>
    <dc:format>image/svg+xml</dc:format>
    <dc:creator>
     <cc:Agent>
      <dc:title>Matplotlib v3.7.1, https://matplotlib.org/</dc:title>
     </cc:Agent>
    </dc:creator>
   </cc:Work>
  </rdf:RDF>
 </metadata>
 <defs>
  <style type="text/css">*{stroke-linejoin: round; stroke-linecap: butt}</style>
 </defs>
 <g id="figure_1">
  <g id="patch_1">
   <path d="M 0 345.6 
L 460.8 345.6 
L 460.8 0 
L 0 0 
z
" style="fill: #ffffff"/>
  </g>
  <g id="axes_1">
   <g id="patch_2">
    <path d="M 324.631624 308.576898 
Q 370.194457 245.198011 415.104678 182.726922 
" clip-path="url(#p18bc5f48d8)" style="fill: none; stroke: #000000; stroke-linecap: round"/>
    <path d="M 411.145903 184.80733 
L 415.104678 182.726922 
L 414.393739 187.142187 
z
" clip-path="url(#p18bc5f48d8)" style="stroke: #000000; stroke-linecap: round"/>
   </g>
   <g id="patch_3">
    <path d="M 311.218153 313.341986 
Q 179.780444 277.674256 49.421747 242.299332 
" clip-path="url(#p18bc5f48d8)" style="fill: none; stroke: #000000; stroke-linecap: round"/>
    <path d="M 52.758344 245.277103 
L 49.421747 242.299332 
L 53.805922 241.416716 
z
" clip-path="url(#p18bc5f48d8)" style="stroke: #000000; stroke-linecap: round"/>
   </g>
   <g id="patch_4">
    <path d="M 317.049247 307.324955 
Q 276.027509 172.798329 235.331874 39.341123 
" clip-path="url(#p18bc5f48d8)" style="fill: none; stroke: #000000; stroke-linecap: round"/>
    <path d="M 234.585538 43.750543 
L 235.331874 39.341123 
L 238.411608 42.583844 
z
" clip-path="url(#p18bc5f48d8)" style="stroke: #000000; stroke-linecap: round"/>
   </g>
   <g id="patch_5">
    <path d="M 415.757213 181.819232 
Q 370.194379 245.198119 325.284158 307.669208 
" clip-path="url(#p18bc5f48d8)" style="fill: none; stroke: #000000; stroke-linecap: round"/>
    <path d="M 329.242934 305.588799 
L 325.284158 307.669208 
L 325.995097 303.253942 
z
" clip-path="url(#p18bc5f48d8)" style="stroke: #000000; stroke-linecap: round"/>
   </g>
   <g id="patch_6">
    <path d="M 412.274032 176.242635 
Q 230.397995 207.262949 49.624076 238.095288 
" clip-path="url(#p18bc5f48d8)" style="fill: none; stroke: #000000; stroke-linecap: round"/>
    <path d="M 53.903395 239.3943 
L 49.624076 238.095288 
L 53.230877 235.45124 
z
" clip-path="url(#p18bc5f48d8)" style="stroke: #000000; stroke-linecap: round"/>
   </g>
   <g id="patch_7">
    <path d="M 413.947881 169.507923 
Q 326.646295 102.387741 240.231061 35.949014 
" clip-path="url(#p18bc5f48d8)" style="fill: none; stroke: #000000; stroke-linecap: round"/>
    <path d="M 242.183146 39.972615 
L 240.231061 35.949014 
L 244.621193 36.801507 
z
" clip-path="url(#p18bc5f48d8)" style="stroke: #000000; stroke-linecap: round"/>
   </g>
   <g id="patch_8">
    <path d="M 48.344237 242.006932 
Q 179.781946 277.674663 310.140643 313.049587 
" clip-path="url(#p18bc5f48d8)" style="fill: none; stroke: #000000; stroke-linecap: round"/>
    <path d="M 306.804046 310.071816 
L 310.140643 313.049587 
L 305.756468 313.932202 
z
" clip-path="url(#p18bc5f48d8)" style="stroke: #000000; stroke-linecap: round"/>
   </g>
   <g id="patch_9">
    <path d="M 45.840656 233.360376 
Q 136.231478 134.866854 225.86634 37.197058 
" clip-path="url(#p18bc5f48d8)" style="fill: none; stroke: #000000; stroke-linecap: round"/>
    <path d="M 221.688208 38.791805 
L 225.86634 37.197058 
L 224.635258 41.496412 
z
" clip-path="url(#p18bc5f48d8)" style="stroke: #000000; stroke-linecap: round"/>
   </g>
   <g id="patch_10">
    <path d="M 239.345766 35.268372 
Q 326.647352 102.388554 413.062586 168.827281 
" clip-path="url(#p18bc5f48d8)" style="fill: none; stroke: #000000; stroke-linecap: round"/>
    <path d="M 411.110501 164.80368 
L 413.062586 168.827281 
L 408.672454 167.974788 
z
" clip-path="url(#p18bc5f48d8)" style="stroke: #000000; stroke-linecap: round"/>
   </g>
   <g id="patch_11">
    <path d="M 226.626545 36.368708 
Q 136.235723 134.86223 46.600861 232.532026 
" clip-path="url(#p18bc5f48d8)" style="fill: none; stroke: #000000; stroke-linecap: round"/>
    <path d="M 50.778993 230.937279 
L 46.600861 232.532026 
L 47.831943 228.232672 
z
" clip-path="url(#p18bc5f48d8)" style="stroke: #000000; stroke-linecap: round"/>
   </g>
   <g id="PathCollection_1">
    <defs>
     <path id="md0e449c183" d="M 0 8.660254 
C 2.296726 8.660254 4.499694 7.747755 6.123724 6.123724 
C 7.747755 4.499694 8.660254 2.296726 8.660254 0 
C 8.660254 -2.296726 7.747755 -4.499694 6.123724 -6.123724 
C 4.499694 -7.747755 2.296726 -8.660254 0 -8.660254 
C -2.296726 -8.660254 -4.499694 -7.747755 -6.123724 -6.123724 
C -7.747755 -4.499694 -8.660254 -2.296726 -8.660254 0 
C -8.660254 2.296726 -7.747755 4.499694 -6.123724 6.123724 
C -4.499694 7.747755 -2.296726 8.660254 0 8.660254 
z
" style="stroke: #1f78b4"/>
    </defs>
    <g clip-path="url(#p18bc5f48d8)">
     <use xlink:href="#md0e449c183" x="319.575613" y="315.609917" style="fill: #1f78b4; stroke: #1f78b4"/>
     <use xlink:href="#md0e449c183" x="420.813223" y="174.786212" style="fill: #1f78b4; stroke: #1f78b4"/>
     <use xlink:href="#md0e449c183" x="39.986777" y="239.739001" style="fill: #1f78b4; stroke: #1f78b4"/>
     <use xlink:href="#md0e449c183" x="232.480424" y="29.990083" style="fill: #1f78b4; stroke: #1f78b4"/>
    </g>
   </g>
  </g>
 </g>
 <defs>
  <clipPath id="p18bc5f48d8">
   <rect x="0" y="0" width="460.8" height="345.6"/>
  </clipPath>
 </defs>
</svg>
