<?xml version="1.0" encoding="utf-8" standalone="no"?>
<!DOCTYPE svg PUBLIC "-//W3C//DTD SVG 1.1//EN"
  "http://www.w3.org/Graphics/SVG/1.1/DTD/svg11.dtd">
<svg xmlns:xlink="http://www.w3.org/1999/xlink" width="460.8pt" height="345.6pt" viewBox="0 0 460.8 345.6" xmlns="http://www.w3.org/2000/svg" version="1.1">
 <metadata>
  <rdf:RDF xmlns:dc="http://purl.org/dc/elements/1.1/" xmlns:cc="http://creativecommons.org/ns#" xmlns:rdf="http://www.w3.org/1999/02/22-rdf-syntax-ns#">
   <cc:Work>
    <dc:type rdf:resource="http://purl.org/dc/dcmitype/StillImage"/>
    <dc:date>2023-04-25T12:20:08.630756</dc:date>
    <dc:format>image/svg+xml</dc:format>
    <dc:creator>
     <cc:Agent>
      <dc:title>Matplotlib v3.7.1, https://matplotlib.org/</dc:title>
     </cc:Agent>
    </dc:creator>
   </cc:Work>
  </rdf:RDF>
 </metadata>
 <defs>
  <style type="text/css">*{stroke-linejoin: round; stroke-linecap: butt}</style>
 </defs>
 <g id="figure_1">
  <g id="patch_1">
   <path d="M 0 345.6 
L 460.8 345.6 
L 460.8 0 
L 0 0 
z
" style="fill: #ffffff"/>
  </g>
  <g id="axes_1">
   <g id="patch_2">
    <path d="M 236.985302 291.183284 
Q 237.129835 305.077514 237.262739 317.853771 
" clip-path="url(#pbcd315f095)" style="fill: none; stroke: #000000; stroke-linecap: round"/>
    <path d="M 239.221023 313.833184 
L 237.262739 317.853771 
L 235.22124 313.874791 
z
" clip-path="url(#pbcd315f095)" style="stroke: #000000; stroke-linecap: round"/>
   </g>
   <g id="patch_3">
    <path d="M 237.274412 318.975944 
Q 237.129879 305.081713 236.996975 292.305456 
" clip-path="url(#pbcd315f095)" style="fill: none; stroke: #000000; stroke-linecap: round"/>
    <path d="M 235.038691 296.326043 
L 236.996975 292.305456 
L 239.038474 296.284436 
z
" clip-path="url(#pbcd315f095)" style="stroke: #000000; stroke-linecap: round"/>
   </g>
   <g id="PathCollection_1">
    <defs>
     <path id="ma6b4be0a22" d="M 0 8.660254 
C 2.296726 8.660254 4.499694 7.747755 6.123724 6.123724 
C 7.747755 4.499694 8.660254 2.296726 8.660254 0 
C 8.660254 -2.296726 7.747755 -4.499694 6.123724 -6.123724 
C 4.499694 -7.747755 2.296726 -8.660254 0 -8.660254 
C -2.296726 -8.660254 -4.499694 -7.747755 -6.123724 -6.123724 
C -7.747755 -4.499694 -8.660254 -2.296726 -8.660254 0 
C -8.660254 2.296726 -7.747755 4.499694 -6.123724 6.123724 
C -4.499694 7.747755 -2.296726 8.660254 0 8.660254 
z
" style="stroke: #1f78b4"/>
    </defs>
    <g clip-path="url(#pbcd315f095)">
     <use xlink:href="#ma6b4be0a22" x="236.895223" y="282.52389" style="fill: #1f78b4; stroke: #1f78b4"/>
     <use xlink:href="#ma6b4be0a22" x="237.364491" y="327.635337" style="fill: #1f78b4; stroke: #1f78b4"/>
     <use xlink:href="#ma6b4be0a22" x="20.945455" y="15.709091" style="fill: #1f78b4; stroke: #1f78b4"/>
     <use xlink:href="#ma6b4be0a22" x="439.854545" y="17.861086" style="fill: #1f78b4; stroke: #1f78b4"/>
    </g>
   </g>
  </g>
 </g>
 <defs>
  <clipPath id="pbcd315f095">
   <rect x="0" y="0" width="460.8" height="345.6"/>
  </clipPath>
 </defs>
</svg>
