<?xml version="1.0" encoding="utf-8" standalone="no"?>
<!DOCTYPE svg PUBLIC "-//W3C//DTD SVG 1.1//EN"
  "http://www.w3.org/Graphics/SVG/1.1/DTD/svg11.dtd">
<svg xmlns:xlink="http://www.w3.org/1999/xlink" width="460.8pt" height="345.6pt" viewBox="0 0 460.8 345.6" xmlns="http://www.w3.org/2000/svg" version="1.1">
 <metadata>
  <rdf:RDF xmlns:dc="http://purl.org/dc/elements/1.1/" xmlns:cc="http://creativecommons.org/ns#" xmlns:rdf="http://www.w3.org/1999/02/22-rdf-syntax-ns#">
   <cc:Work>
    <dc:type rdf:resource="http://purl.org/dc/dcmitype/StillImage"/>
    <dc:date>2023-04-25T12:20:08.729118</dc:date>
    <dc:format>image/svg+xml</dc:format>
    <dc:creator>
     <cc:Agent>
      <dc:title>Matplotlib v3.7.1, https://matplotlib.org/</dc:title>
     </cc:Agent>
    </dc:creator>
   </cc:Work>
  </rdf:RDF>
 </metadata>
 <defs>
  <style type="text/css">*{stroke-linejoin: round; stroke-linecap: butt}</style>
 </defs>
 <g id="figure_1">
  <g id="patch_1">
   <path d="M 0 345.6 
L 460.8 345.6 
L 460.8 0 
L 0 0 
z
" style="fill: #ffffff"/>
  </g>
  <g id="axes_1">
   <g id="patch_2">
    <path d="M 25.354308 48.826957 
Q 34.861814 121.531503 44.224349 193.127454 
" clip-path="url(#p3c4b69a76b)" style="fill: none; stroke: #000000; stroke-linecap: round"/>
    <path d="M 45.688804 188.901892 
L 44.224349 193.127454 
L 41.722573 189.420552 
z
" clip-path="url(#p3c4b69a76b)" style="stroke: #000000; stroke-linecap: round"/>
   </g>
   <g id="patch_3">
    <path d="M 86.787372 308.033091 
Q 67.721964 259.458756 49.065045 211.925161 
" clip-path="url(#p3c4b69a76b)" style="fill: none; stroke: #000000; stroke-linecap: round"/>
    <path d="M 48.664772 216.379348 
L 49.065045 211.925161 
L 52.388231 214.917891 
z
" clip-path="url(#p3c4b69a76b)" style="stroke: #000000; stroke-linecap: round"/>
   </g>
   <g id="PathCollection_1">
    <defs>
     <path id="m1de30e2b42" d="M 0 8.660254 
C 2.296726 8.660254 4.499694 7.747755 6.123724 6.123724 
C 7.747755 4.499694 8.660254 2.296726 8.660254 0 
C 8.660254 -2.296726 7.747755 -4.499694 6.123724 -6.123724 
C 4.499694 -7.747755 2.296726 -8.660254 0 -8.660254 
C -2.296726 -8.660254 -4.499694 -7.747755 -6.123724 -6.123724 
C -7.747755 -4.499694 -8.660254 -2.296726 -8.660254 0 
C -8.660254 2.296726 -7.747755 4.499694 -6.123724 6.123724 
C -4.499694 7.747755 -2.296726 8.660254 0 8.660254 
z
" style="stroke: #1f78b4"/>
    </defs>
    <g clip-path="url(#p3c4b69a76b)">
     <use xlink:href="#m1de30e2b42" x="24.231522" y="40.240934" style="fill: #1f78b4; stroke: #1f78b4"/>
     <use xlink:href="#m1de30e2b42" x="45.492115" y="202.822146" style="fill: #1f78b4; stroke: #1f78b4"/>
     <use xlink:href="#m1de30e2b42" x="89.952867" y="316.098053" style="fill: #1f78b4; stroke: #1f78b4"/>
     <use xlink:href="#m1de30e2b42" x="439.854545" y="15.709091" style="fill: #1f78b4; stroke: #1f78b4"/>
    </g>
   </g>
  </g>
 </g>
 <defs>
  <clipPath id="p3c4b69a76b">
   <rect x="0" y="0" width="460.8" height="345.6"/>
  </clipPath>
 </defs>
</svg>
