<?xml version="1.0" encoding="utf-8" standalone="no"?>
<!DOCTYPE svg PUBLIC "-//W3C//DTD SVG 1.1//EN"
  "http://www.w3.org/Graphics/SVG/1.1/DTD/svg11.dtd">
<svg xmlns:xlink="http://www.w3.org/1999/xlink" width="460.8pt" height="345.6pt" viewBox="0 0 460.8 345.6" xmlns="http://www.w3.org/2000/svg" version="1.1">
 <metadata>
  <rdf:RDF xmlns:dc="http://purl.org/dc/elements/1.1/" xmlns:cc="http://creativecommons.org/ns#" xmlns:rdf="http://www.w3.org/1999/02/22-rdf-syntax-ns#">
   <cc:Work>
    <dc:type rdf:resource="http://purl.org/dc/dcmitype/StillImage"/>
    <dc:date>2023-04-25T12:20:08.878224</dc:date>
    <dc:format>image/svg+xml</dc:format>
    <dc:creator>
     <cc:Agent>
      <dc:title>Matplotlib v3.7.1, https://matplotlib.org/</dc:title>
     </cc:Agent>
    </dc:creator>
   </cc:Work>
  </rdf:RDF>
 </metadata>
 <defs>
  <style type="text/css">*{stroke-linejoin: round; stroke-linecap: butt}</style>
 </defs>
 <g id="figure_1">
  <g id="patch_1">
   <path d="M 0 345.6 
L 460.8 345.6 
L 460.8 0 
L 0 0 
z
" style="fill: #ffffff"/>
  </g>
  <g id="axes_1">
   <g id="patch_2">
    <path d="M 223.282145 153.99899 
Q 317.829472 131.9992 411.287856 110.252791 
" clip-path="url(#pdeb55e9c8e)" style="fill: none; stroke: #000000; stroke-linecap: round"/>
    <path d="M 406.938671 109.211355 
L 411.287856 110.252791 
L 407.845195 113.107277 
z
" clip-path="url(#pdeb55e9c8e)" style="stroke: #000000; stroke-linecap: round"/>
   </g>
   <g id="patch_3">
    <path d="M 207.824775 150.899935 
Q 127.418194 92.975341 47.918765 35.704257 
" clip-path="url(#pdeb55e9c8e)" style="fill: none; stroke: #000000; stroke-linecap: round"/>
    <path d="M 49.99526 39.665086 
L 47.918765 35.704257 
L 52.333325 36.419558 
z
" clip-path="url(#pdeb55e9c8e)" style="stroke: #000000; stroke-linecap: round"/>
   </g>
   <g id="patch_4">
    <path d="M 215.810499 164.56999 
Q 223.754858 235.787104 231.575267 305.893076 
" clip-path="url(#pdeb55e9c8e)" style="fill: none; stroke: #000000; stroke-linecap: round"/>
    <path d="M 233.119484 301.696007 
L 231.575267 305.893076 
L 229.144141 302.139461 
z
" clip-path="url(#pdeb55e9c8e)" style="stroke: #000000; stroke-linecap: round"/>
   </g>
   <g id="PathCollection_1">
    <defs>
     <path id="m4035dda939" d="M 0 8.660254 
C 2.296726 8.660254 4.499694 7.747755 6.123724 6.123724 
C 7.747755 4.499694 8.660254 2.296726 8.660254 0 
C 8.660254 -2.296726 7.747755 -4.499694 6.123724 -6.123724 
C 4.499694 -7.747755 2.296726 -8.660254 0 -8.660254 
C -2.296726 -8.660254 -4.499694 -7.747755 -6.123724 -6.123724 
C -7.747755 -4.499694 -8.660254 -2.296726 -8.660254 0 
C -8.660254 2.296726 -7.747755 4.499694 -6.123724 6.123724 
C -4.499694 7.747755 -2.296726 8.660254 0 8.660254 
z
" style="stroke: #1f78b4"/>
    </defs>
    <g clip-path="url(#pdeb55e9c8e)">
     <use xlink:href="#m4035dda939" x="214.850155" y="155.960991" style="fill: #1f78b4; stroke: #1f78b4"/>
     <use xlink:href="#m4035dda939" x="420.813223" y="108.036377" style="fill: #1f78b4; stroke: #1f78b4"/>
     <use xlink:href="#m4035dda939" x="39.986777" y="29.990083" style="fill: #1f78b4; stroke: #1f78b4"/>
     <use xlink:href="#m4035dda939" x="232.659193" y="315.609917" style="fill: #1f78b4; stroke: #1f78b4"/>
    </g>
   </g>
  </g>
 </g>
 <defs>
  <clipPath id="pdeb55e9c8e">
   <rect x="0" y="0" width="460.8" height="345.6"/>
  </clipPath>
 </defs>
</svg>
