<?xml version="1.0" encoding="utf-8" standalone="no"?>
<!DOCTYPE svg PUBLIC "-//W3C//DTD SVG 1.1//EN"
  "http://www.w3.org/Graphics/SVG/1.1/DTD/svg11.dtd">
<svg xmlns:xlink="http://www.w3.org/1999/xlink" width="460.8pt" height="345.6pt" viewBox="0 0 460.8 345.6" xmlns="http://www.w3.org/2000/svg" version="1.1">
 <metadata>
  <rdf:RDF xmlns:dc="http://purl.org/dc/elements/1.1/" xmlns:cc="http://creativecommons.org/ns#" xmlns:rdf="http://www.w3.org/1999/02/22-rdf-syntax-ns#">
   <cc:Work>
    <dc:type rdf:resource="http://purl.org/dc/dcmitype/StillImage"/>
    <dc:date>2023-04-25T12:20:08.933292</dc:date>
    <dc:format>image/svg+xml</dc:format>
    <dc:creator>
     <cc:Agent>
      <dc:title>Matplotlib v3.7.1, https://matplotlib.org/</dc:title>
     </cc:Agent>
    </dc:creator>
   </cc:Work>
  </rdf:RDF>
 </metadata>
 <defs>
  <style type="text/css">*{stroke-linejoin: round; stroke-linecap: butt}</style>
 </defs>
 <g id="figure_1">
  <g id="patch_1">
   <path d="M 0 345.6 
L 460.8 345.6 
L 460.8 0 
L 0 0 
z
" style="fill: #ffffff"/>
  </g>
  <g id="axes_1">
   <g id="patch_2">
    <path d="M 240.8578 327.110968 
Q 326.506598 327.993371 411.03742 328.864256 
" clip-path="url(#pec523723e5)" style="fill: none; stroke: #000000; stroke-linecap: round"/>
    <path d="M 407.058236 326.823154 
L 411.03742 328.864256 
L 407.017028 330.822942 
z
" clip-path="url(#pec523723e5)" style="stroke: #000000; stroke-linecap: round"/>
   </g>
   <g id="patch_3">
    <path d="M 223.572088 326.277903 
Q 136.094819 318.734211 49.73145 311.286578 
" clip-path="url(#pec523723e5)" style="fill: none; stroke: #000000; stroke-linecap: round"/>
    <path d="M 53.544825 313.622851 
L 49.73145 311.286578 
L 53.888493 309.637642 
z
" clip-path="url(#pec523723e5)" style="stroke: #000000; stroke-linecap: round"/>
   </g>
   <g id="patch_4">
    <path d="M 412.15319 328.875752 
Q 326.504393 327.993348 241.973571 327.122463 
" clip-path="url(#pec523723e5)" style="fill: none; stroke: #000000; stroke-linecap: round"/>
    <path d="M 245.952755 329.163565 
L 241.973571 327.122463 
L 245.993963 325.163778 
z
" clip-path="url(#pec523723e5)" style="stroke: #000000; stroke-linecap: round"/>
   </g>
   <g id="PathCollection_1">
    <defs>
     <path id="m19285022d8" d="M 0 8.660254 
C 2.296726 8.660254 4.499694 7.747755 6.123724 6.123724 
C 7.747755 4.499694 8.660254 2.296726 8.660254 0 
C 8.660254 -2.296726 7.747755 -4.499694 6.123724 -6.123724 
C 4.499694 -7.747755 2.296726 -8.660254 0 -8.660254 
C -2.296726 -8.660254 -4.499694 -7.747755 -6.123724 -6.123724 
C -7.747755 -4.499694 -8.660254 -2.296726 -8.660254 0 
C -8.660254 2.296726 -7.747755 4.499694 -6.123724 6.123724 
C -4.499694 7.747755 -2.296726 8.660254 0 8.660254 
z
" style="stroke: #1f78b4"/>
    </defs>
    <g clip-path="url(#pec523723e5)">
     <use xlink:href="#m19285022d8" x="232.197768" y="327.021747" style="fill: #1f78b4; stroke: #1f78b4"/>
     <use xlink:href="#m19285022d8" x="420.813223" y="328.964972" style="fill: #1f78b4; stroke: #1f78b4"/>
     <use xlink:href="#m19285022d8" x="39.986777" y="310.446236" style="fill: #1f78b4; stroke: #1f78b4"/>
     <use xlink:href="#m19285022d8" x="396.179112" y="15.709091" style="fill: #1f78b4; stroke: #1f78b4"/>
    </g>
   </g>
  </g>
 </g>
 <defs>
  <clipPath id="pec523723e5">
   <rect x="0" y="0" width="460.8" height="345.6"/>
  </clipPath>
 </defs>
</svg>
