<?xml version="1.0" encoding="utf-8" standalone="no"?>
<!DOCTYPE svg PUBLIC "-//W3C//DTD SVG 1.1//EN"
  "http://www.w3.org/Graphics/SVG/1.1/DTD/svg11.dtd">
<svg xmlns:xlink="http://www.w3.org/1999/xlink" width="460.8pt" height="345.6pt" viewBox="0 0 460.8 345.6" xmlns="http://www.w3.org/2000/svg" version="1.1">
 <metadata>
  <rdf:RDF xmlns:dc="http://purl.org/dc/elements/1.1/" xmlns:cc="http://creativecommons.org/ns#" xmlns:rdf="http://www.w3.org/1999/02/22-rdf-syntax-ns#">
   <cc:Work>
    <dc:type rdf:resource="http://purl.org/dc/dcmitype/StillImage"/>
    <dc:date>2023-04-25T12:20:09.416305</dc:date>
    <dc:format>image/svg+xml</dc:format>
    <dc:creator>
     <cc:Agent>
      <dc:title>Matplotlib v3.7.1, https://matplotlib.org/</dc:title>
     </cc:Agent>
    </dc:creator>
   </cc:Work>
  </rdf:RDF>
 </metadata>
 <defs>
  <style type="text/css">*{stroke-linejoin: round; stroke-linecap: butt}</style>
 </defs>
 <g id="figure_1">
  <g id="patch_1">
   <path d="M 0 345.6 
L 460.8 345.6 
L 460.8 0 
L 0 0 
z
" style="fill: #ffffff"/>
  </g>
  <g id="axes_1">
   <g id="patch_2">
    <path d="M 46.966648 35.11712 
Q 118.936164 87.98205 190.004612 140.185104 
" clip-path="url(#p73ab788692)" style="fill: none; stroke: #000000; stroke-linecap: round"/>
    <path d="M 187.964856 136.205231 
L 190.004612 140.185104 
L 185.59686 139.428985 
z
" clip-path="url(#p73ab788692)" style="stroke: #000000; stroke-linecap: round"/>
   </g>
   <g id="patch_3">
    <path d="M 206.345381 144.132948 
Q 309.349571 121.716251 411.261298 99.537306 
" clip-path="url(#p73ab788692)" style="fill: none; stroke: #000000; stroke-linecap: round"/>
    <path d="M 406.927482 98.433655 
L 411.261298 99.537306 
L 407.778088 102.342167 
z
" clip-path="url(#p73ab788692)" style="stroke: #000000; stroke-linecap: round"/>
   </g>
   <g id="patch_4">
    <path d="M 112.367395 307.950729 
Q 153.104543 230.792082 193.319693 154.622129 
" clip-path="url(#p73ab788692)" style="fill: none; stroke: #000000; stroke-linecap: round"/>
    <path d="M 189.683505 157.225616 
L 193.319693 154.622129 
L 193.220769 159.093171 
z
" clip-path="url(#p73ab788692)" style="stroke: #000000; stroke-linecap: round"/>
   </g>
   <g id="PathCollection_1">
    <defs>
     <path id="m20f8adbb52" d="M 0 8.660254 
C 2.296726 8.660254 4.499694 7.747755 6.123724 6.123724 
C 7.747755 4.499694 8.660254 2.296726 8.660254 0 
C 8.660254 -2.296726 7.747755 -4.499694 6.123724 -6.123724 
C 4.499694 -7.747755 2.296726 -8.660254 0 -8.660254 
C -2.296726 -8.660254 -4.499694 -7.747755 -6.123724 -6.123724 
C -7.747755 -4.499694 -8.660254 -2.296726 -8.660254 0 
C -8.660254 2.296726 -7.747755 4.499694 -6.123724 6.123724 
C -4.499694 7.747755 -2.296726 8.660254 0 8.660254 
z
" style="stroke: #1f78b4"/>
    </defs>
    <g clip-path="url(#p73ab788692)">
     <use xlink:href="#m20f8adbb52" x="39.986777" y="29.990083" style="fill: #1f78b4; stroke: #1f78b4"/>
     <use xlink:href="#m20f8adbb52" x="197.885588" y="145.974044" style="fill: #1f78b4; stroke: #1f78b4"/>
     <use xlink:href="#m20f8adbb52" x="420.813223" y="97.45853" style="fill: #1f78b4; stroke: #1f78b4"/>
     <use xlink:href="#m20f8adbb52" x="108.323604" y="315.609917" style="fill: #1f78b4; stroke: #1f78b4"/>
    </g>
   </g>
  </g>
 </g>
 <defs>
  <clipPath id="p73ab788692">
   <rect x="0" y="0" width="460.8" height="345.6"/>
  </clipPath>
 </defs>
</svg>
