<?xml version="1.0" encoding="utf-8" standalone="no"?>
<!DOCTYPE svg PUBLIC "-//W3C//DTD SVG 1.1//EN"
  "http://www.w3.org/Graphics/SVG/1.1/DTD/svg11.dtd">
<svg xmlns:xlink="http://www.w3.org/1999/xlink" width="460.8pt" height="345.6pt" viewBox="0 0 460.8 345.6" xmlns="http://www.w3.org/2000/svg" version="1.1">
 <metadata>
  <rdf:RDF xmlns:dc="http://purl.org/dc/elements/1.1/" xmlns:cc="http://creativecommons.org/ns#" xmlns:rdf="http://www.w3.org/1999/02/22-rdf-syntax-ns#">
   <cc:Work>
    <dc:type rdf:resource="http://purl.org/dc/dcmitype/StillImage"/>
    <dc:date>2023-04-25T12:20:09.464815</dc:date>
    <dc:format>image/svg+xml</dc:format>
    <dc:creator>
     <cc:Agent>
      <dc:title>Matplotlib v3.7.1, https://matplotlib.org/</dc:title>
     </cc:Agent>
    </dc:creator>
   </cc:Work>
  </rdf:RDF>
 </metadata>
 <defs>
  <style type="text/css">*{stroke-linejoin: round; stroke-linecap: butt}</style>
 </defs>
 <g id="figure_1">
  <g id="patch_1">
   <path d="M 0 345.6 
L 460.8 345.6 
L 460.8 0 
L 0 0 
z
" style="fill: #ffffff"/>
  </g>
  <g id="axes_1">
   <g id="patch_2">
    <path d="M 409.767304 37.082466 
Q 369.811895 94.013791 330.498751 150.02997 
" clip-path="url(#pb0f1818afd)" style="fill: none; stroke: #000000; stroke-linecap: round"/>
    <path d="M 334.433658 147.904762 
L 330.498751 150.02997 
L 331.159529 145.60692 
z
" clip-path="url(#pb0f1818afd)" style="stroke: #000000; stroke-linecap: round"/>
   </g>
   <g id="patch_3">
    <path d="M 317.30299 162.226774 
Q 182.4342 236.822481 48.543767 310.87706 
" clip-path="url(#pb0f1818afd)" style="fill: none; stroke: #000000; stroke-linecap: round"/>
    <path d="M 53.012039 310.691201 
L 48.543767 310.87706 
L 51.076043 307.190927 
z
" clip-path="url(#pb0f1818afd)" style="stroke: #000000; stroke-linecap: round"/>
   </g>
   <g id="patch_4">
    <path d="M 412.221733 267.593613 
Q 230.399645 291.047683 49.686404 314.358718 
" clip-path="url(#pb0f1818afd)" style="fill: none; stroke: #000000; stroke-linecap: round"/>
    <path d="M 53.909403 315.830544 
L 49.686404 314.358718 
L 53.397665 311.863414 
z
" clip-path="url(#pb0f1818afd)" style="stroke: #000000; stroke-linecap: round"/>
   </g>
   <g id="PathCollection_1">
    <defs>
     <path id="me186f7a965" d="M 0 8.660254 
C 2.296726 8.660254 4.499694 7.747755 6.123724 6.123724 
C 7.747755 4.499694 8.660254 2.296726 8.660254 0 
C 8.660254 -2.296726 7.747755 -4.499694 6.123724 -6.123724 
C 4.499694 -7.747755 2.296726 -8.660254 0 -8.660254 
C -2.296726 -8.660254 -4.499694 -7.747755 -6.123724 -6.123724 
C -7.747755 -4.499694 -8.660254 -2.296726 -8.660254 0 
C -8.660254 2.296726 -7.747755 4.499694 -6.123724 6.123724 
C -4.499694 7.747755 -2.296726 8.660254 0 8.660254 
z
" style="stroke: #1f78b4"/>
    </defs>
    <g clip-path="url(#pb0f1818afd)">
     <use xlink:href="#me186f7a965" x="414.744863" y="29.990083" style="fill: #1f78b4; stroke: #1f78b4"/>
     <use xlink:href="#me186f7a965" x="324.880031" y="158.035925" style="fill: #1f78b4; stroke: #1f78b4"/>
     <use xlink:href="#me186f7a965" x="39.986777" y="315.609917" style="fill: #1f78b4; stroke: #1f78b4"/>
     <use xlink:href="#me186f7a965" x="420.813223" y="266.485357" style="fill: #1f78b4; stroke: #1f78b4"/>
    </g>
   </g>
  </g>
 </g>
 <defs>
  <clipPath id="pb0f1818afd">
   <rect x="0" y="0" width="460.8" height="345.6"/>
  </clipPath>
 </defs>
</svg>
