<?xml version="1.0" encoding="utf-8" standalone="no"?>
<!DOCTYPE svg PUBLIC "-//W3C//DTD SVG 1.1//EN"
  "http://www.w3.org/Graphics/SVG/1.1/DTD/svg11.dtd">
<svg xmlns:xlink="http://www.w3.org/1999/xlink" width="460.8pt" height="345.6pt" viewBox="0 0 460.8 345.6" xmlns="http://www.w3.org/2000/svg" version="1.1">
 <metadata>
  <rdf:RDF xmlns:dc="http://purl.org/dc/elements/1.1/" xmlns:cc="http://creativecommons.org/ns#" xmlns:rdf="http://www.w3.org/1999/02/22-rdf-syntax-ns#">
   <cc:Work>
    <dc:type rdf:resource="http://purl.org/dc/dcmitype/StillImage"/>
    <dc:date>2023-04-25T12:20:09.512165</dc:date>
    <dc:format>image/svg+xml</dc:format>
    <dc:creator>
     <cc:Agent>
      <dc:title>Matplotlib v3.7.1, https://matplotlib.org/</dc:title>
     </cc:Agent>
    </dc:creator>
   </cc:Work>
  </rdf:RDF>
 </metadata>
 <defs>
  <style type="text/css">*{stroke-linejoin: round; stroke-linecap: butt}</style>
 </defs>
 <g id="figure_1">
  <g id="patch_1">
   <path d="M 0 345.6 
L 460.8 345.6 
L 460.8 0 
L 0 0 
z
" style="fill: #ffffff"/>
  </g>
  <g id="axes_1">
   <g id="patch_2">
    <path d="M 318.343631 312.622528 
Q 183.227831 262.951947 49.161405 213.667132 
" clip-path="url(#pb1ef8f4fbc)" style="fill: none; stroke: #000000; stroke-linecap: round"/>
    <path d="M 52.22568 216.924464 
L 49.161405 213.667132 
L 53.605836 213.170111 
z
" clip-path="url(#pb1ef8f4fbc)" style="stroke: #000000; stroke-linecap: round"/>
   </g>
   <g id="patch_3">
    <path d="M 159.918185 37.107503 
Q 102.418417 120.140019 45.555162 202.253377 
" clip-path="url(#pb1ef8f4fbc)" style="fill: none; stroke: #000000; stroke-linecap: round"/>
    <path d="M 49.476662 200.10353 
L 45.555162 202.253377 
L 46.188184 197.826269 
z
" clip-path="url(#pb1ef8f4fbc)" style="stroke: #000000; stroke-linecap: round"/>
   </g>
   <g id="patch_4">
    <path d="M 412.291464 142.865572 
Q 230.40123 175.808068 49.611132 208.551316 
" clip-path="url(#pb1ef8f4fbc)" style="fill: none; stroke: #000000; stroke-linecap: round"/>
    <path d="M 53.903525 209.806449 
L 49.611132 208.551316 
L 53.190674 205.870481 
z
" clip-path="url(#pb1ef8f4fbc)" style="stroke: #000000; stroke-linecap: round"/>
   </g>
   <g id="PathCollection_1">
    <defs>
     <path id="m35b7ff7392" d="M 0 8.660254 
C 2.296726 8.660254 4.499694 7.747755 6.123724 6.123724 
C 7.747755 4.499694 8.660254 2.296726 8.660254 0 
C 8.660254 -2.296726 7.747755 -4.499694 6.123724 -6.123724 
C 4.499694 -7.747755 2.296726 -8.660254 0 -8.660254 
C -2.296726 -8.660254 -4.499694 -7.747755 -6.123724 -6.123724 
C -7.747755 -4.499694 -8.660254 -2.296726 -8.660254 0 
C -8.660254 2.296726 -7.747755 4.499694 -6.123724 6.123724 
C -4.499694 7.747755 -2.296726 8.660254 0 8.660254 
z
" style="stroke: #1f78b4"/>
    </defs>
    <g clip-path="url(#pb1ef8f4fbc)">
     <use xlink:href="#m35b7ff7392" x="326.47004" y="315.609917" style="fill: #1f78b4; stroke: #1f78b4"/>
     <use xlink:href="#m35b7ff7392" x="39.986777" y="210.294402" style="fill: #1f78b4; stroke: #1f78b4"/>
     <use xlink:href="#m35b7ff7392" x="164.846977" y="29.990083" style="fill: #1f78b4; stroke: #1f78b4"/>
     <use xlink:href="#m35b7ff7392" x="420.813223" y="141.32218" style="fill: #1f78b4; stroke: #1f78b4"/>
    </g>
   </g>
  </g>
 </g>
 <defs>
  <clipPath id="pb1ef8f4fbc">
   <rect x="0" y="0" width="460.8" height="345.6"/>
  </clipPath>
 </defs>
</svg>
