<?xml version="1.0" encoding="utf-8" standalone="no"?>
<!DOCTYPE svg PUBLIC "-//W3C//DTD SVG 1.1//EN"
  "http://www.w3.org/Graphics/SVG/1.1/DTD/svg11.dtd">
<svg xmlns:xlink="http://www.w3.org/1999/xlink" width="460.8pt" height="345.6pt" viewBox="0 0 460.8 345.6" xmlns="http://www.w3.org/2000/svg" version="1.1">
 <metadata>
  <rdf:RDF xmlns:dc="http://purl.org/dc/elements/1.1/" xmlns:cc="http://creativecommons.org/ns#" xmlns:rdf="http://www.w3.org/1999/02/22-rdf-syntax-ns#">
   <cc:Work>
    <dc:type rdf:resource="http://purl.org/dc/dcmitype/StillImage"/>
    <dc:date>2023-04-25T12:20:08.981992</dc:date>
    <dc:format>image/svg+xml</dc:format>
    <dc:creator>
     <cc:Agent>
      <dc:title>Matplotlib v3.7.1, https://matplotlib.org/</dc:title>
     </cc:Agent>
    </dc:creator>
   </cc:Work>
  </rdf:RDF>
 </metadata>
 <defs>
  <style type="text/css">*{stroke-linejoin: round; stroke-linecap: butt}</style>
 </defs>
 <g id="figure_1">
  <g id="patch_1">
   <path d="M 0 345.6 
L 460.8 345.6 
L 460.8 0 
L 0 0 
z
" style="fill: #ffffff"/>
  </g>
  <g id="axes_1">
   <g id="patch_2">
    <path d="M 53.991155 255.34944 
Q 69.354904 262.799172 83.712646 269.761102 
" clip-path="url(#pa0f928a3c0)" style="fill: none; stroke: #000000; stroke-linecap: round"/>
    <path d="M 80.986056 266.216287 
L 83.712646 269.761102 
L 79.24084 269.815485 
z
" clip-path="url(#pa0f928a3c0)" style="stroke: #000000; stroke-linecap: round"/>
   </g>
   <g id="patch_3">
    <path d="M 43.764305 259.878999 
Q 35.276191 288.863372 27.102297 316.774775 
" clip-path="url(#pa0f928a3c0)" style="fill: none; stroke: #000000; stroke-linecap: round"/>
    <path d="M 30.145876 313.498095 
L 27.102297 316.774775 
L 26.307101 312.373905 
z
" clip-path="url(#pa0f928a3c0)" style="stroke: #000000; stroke-linecap: round"/>
   </g>
   <g id="patch_4">
    <path d="M 85.63404 279.289571 
Q 58.432911 300.094935 32.119831 320.221056 
" clip-path="url(#pa0f928a3c0)" style="fill: none; stroke: #000000; stroke-linecap: round"/>
    <path d="M 36.512075 319.379513 
L 32.119831 320.221056 
L 34.081943 316.202335 
z
" clip-path="url(#pa0f928a3c0)" style="stroke: #000000; stroke-linecap: round"/>
   </g>
   <g id="PathCollection_1">
    <defs>
     <path id="m09d6e5a8d3" d="M 0 8.660254 
C 2.296726 8.660254 4.499694 7.747755 6.123724 6.123724 
C 7.747755 4.499694 8.660254 2.296726 8.660254 0 
C 8.660254 -2.296726 7.747755 -4.499694 6.123724 -6.123724 
C 4.499694 -7.747755 2.296726 -8.660254 0 -8.660254 
C -2.296726 -8.660254 -4.499694 -7.747755 -6.123724 -6.123724 
C -7.747755 -4.499694 -8.660254 -2.296726 -8.660254 0 
C -8.660254 2.296726 -7.747755 4.499694 -6.123724 6.123724 
C -4.499694 7.747755 -2.296726 8.660254 0 8.660254 
z
" style="stroke: #1f78b4"/>
    </defs>
    <g clip-path="url(#pa0f928a3c0)">
     <use xlink:href="#m09d6e5a8d3" x="46.197499" y="251.570371" style="fill: #1f78b4; stroke: #1f78b4"/>
     <use xlink:href="#m09d6e5a8d3" x="92.512794" y="274.028209" style="fill: #1f78b4; stroke: #1f78b4"/>
     <use xlink:href="#m09d6e5a8d3" x="24.353423" y="326.16136" style="fill: #1f78b4; stroke: #1f78b4"/>
     <use xlink:href="#m09d6e5a8d3" x="439.854545" y="15.709091" style="fill: #1f78b4; stroke: #1f78b4"/>
    </g>
   </g>
  </g>
 </g>
 <defs>
  <clipPath id="pa0f928a3c0">
   <rect x="0" y="0" width="460.8" height="345.6"/>
  </clipPath>
 </defs>
</svg>
