<?xml version="1.0" encoding="utf-8" standalone="no"?>
<!DOCTYPE svg PUBLIC "-//W3C//DTD SVG 1.1//EN"
  "http://www.w3.org/Graphics/SVG/1.1/DTD/svg11.dtd">
<svg xmlns:xlink="http://www.w3.org/1999/xlink" width="460.8pt" height="345.6pt" viewBox="0 0 460.8 345.6" xmlns="http://www.w3.org/2000/svg" version="1.1">
 <metadata>
  <rdf:RDF xmlns:dc="http://purl.org/dc/elements/1.1/" xmlns:cc="http://creativecommons.org/ns#" xmlns:rdf="http://www.w3.org/1999/02/22-rdf-syntax-ns#">
   <cc:Work>
    <dc:type rdf:resource="http://purl.org/dc/dcmitype/StillImage"/>
    <dc:date>2023-04-25T12:20:09.039111</dc:date>
    <dc:format>image/svg+xml</dc:format>
    <dc:creator>
     <cc:Agent>
      <dc:title>Matplotlib v3.7.1, https://matplotlib.org/</dc:title>
     </cc:Agent>
    </dc:creator>
   </cc:Work>
  </rdf:RDF>
 </metadata>
 <defs>
  <style type="text/css">*{stroke-linejoin: round; stroke-linecap: butt}</style>
 </defs>
 <g id="figure_1">
  <g id="patch_1">
   <path d="M 0 345.6 
L 460.8 345.6 
L 460.8 0 
L 0 0 
z
" style="fill: #ffffff"/>
  </g>
  <g id="axes_1">
   <g id="patch_2">
    <path d="M 382.961003 164.999032 
Q 400.585828 220.960633 417.874796 275.855839 
" clip-path="url(#p69d9083d95)" style="fill: none; stroke: #000000; stroke-linecap: round"/>
    <path d="M 418.580828 271.439786 
L 417.874796 275.855839 
L 414.765573 272.641381 
z
" clip-path="url(#p69d9083d95)" style="stroke: #000000; stroke-linecap: round"/>
   </g>
   <g id="patch_3">
    <path d="M 377.200064 148.674908 
Q 355.530519 93.365563 334.268822 39.097208 
" clip-path="url(#p69d9083d95)" style="fill: none; stroke: #000000; stroke-linecap: round"/>
    <path d="M 333.865802 43.551147 
L 334.268822 39.097208 
L 337.590162 42.091987 
z
" clip-path="url(#p69d9083d95)" style="stroke: #000000; stroke-linecap: round"/>
   </g>
   <g id="patch_4">
    <path d="M 412.181056 285.87543 
Q 230.401554 300.397739 49.736535 314.831012 
" clip-path="url(#p69d9083d95)" style="fill: none; stroke: #000000; stroke-linecap: round"/>
    <path d="M 53.883103 316.506116 
L 49.736535 314.831012 
L 53.564559 312.51882 
z
" clip-path="url(#p69d9083d95)" style="stroke: #000000; stroke-linecap: round"/>
   </g>
   <g id="PathCollection_1">
    <defs>
     <path id="m7f74d745d3" d="M 0 8.660254 
C 2.296726 8.660254 4.499694 7.747755 6.123724 6.123724 
C 7.747755 4.499694 8.660254 2.296726 8.660254 0 
C 8.660254 -2.296726 7.747755 -4.499694 6.123724 -6.123724 
C 4.499694 -7.747755 2.296726 -8.660254 0 -8.660254 
C -2.296726 -8.660254 -4.499694 -7.747755 -6.123724 -6.123724 
C -7.747755 -4.499694 -8.660254 -2.296726 -8.660254 0 
C -8.660254 2.296726 -7.747755 4.499694 -6.123724 6.123724 
C -4.499694 7.747755 -2.296726 8.660254 0 8.660254 
z
" style="stroke: #1f78b4"/>
    </defs>
    <g clip-path="url(#p69d9083d95)">
     <use xlink:href="#m7f74d745d3" x="380.359828" y="156.73989" style="fill: #1f78b4; stroke: #1f78b4"/>
     <use xlink:href="#m7f74d745d3" x="420.813223" y="285.185809" style="fill: #1f78b4; stroke: #1f78b4"/>
     <use xlink:href="#m7f74d745d3" x="330.700759" y="29.990083" style="fill: #1f78b4; stroke: #1f78b4"/>
     <use xlink:href="#m7f74d745d3" x="39.986777" y="315.609917" style="fill: #1f78b4; stroke: #1f78b4"/>
    </g>
   </g>
  </g>
 </g>
 <defs>
  <clipPath id="p69d9083d95">
   <rect x="0" y="0" width="460.8" height="345.6"/>
  </clipPath>
 </defs>
</svg>
