<?xml version="1.0" encoding="utf-8" standalone="no"?>
<!DOCTYPE svg PUBLIC "-//W3C//DTD SVG 1.1//EN"
  "http://www.w3.org/Graphics/SVG/1.1/DTD/svg11.dtd">
<svg xmlns:xlink="http://www.w3.org/1999/xlink" width="460.8pt" height="345.6pt" viewBox="0 0 460.8 345.6" xmlns="http://www.w3.org/2000/svg" version="1.1">
 <metadata>
  <rdf:RDF xmlns:dc="http://purl.org/dc/elements/1.1/" xmlns:cc="http://creativecommons.org/ns#" xmlns:rdf="http://www.w3.org/1999/02/22-rdf-syntax-ns#">
   <cc:Work>
    <dc:type rdf:resource="http://purl.org/dc/dcmitype/StillImage"/>
    <dc:date>2023-04-25T12:20:09.100879</dc:date>
    <dc:format>image/svg+xml</dc:format>
    <dc:creator>
     <cc:Agent>
      <dc:title>Matplotlib v3.7.1, https://matplotlib.org/</dc:title>
     </cc:Agent>
    </dc:creator>
   </cc:Work>
  </rdf:RDF>
 </metadata>
 <defs>
  <style type="text/css">*{stroke-linejoin: round; stroke-linecap: butt}</style>
 </defs>
 <g id="figure_1">
  <g id="patch_1">
   <path d="M 0 345.6 
L 460.8 345.6 
L 460.8 0 
L 0 0 
z
" style="fill: #ffffff"/>
  </g>
  <g id="axes_1">
   <g id="patch_2">
    <path d="M 224.32183 104.127535 
Q 136.172288 68.674796 49.060029 33.639241 
" clip-path="url(#p65cc02c7e2)" style="fill: none; stroke: #000000; stroke-linecap: round"/>
    <path d="M 52.024848 36.987353 
L 49.060029 33.639241 
L 53.51741 33.276253 
z
" clip-path="url(#p65cc02c7e2)" style="stroke: #000000; stroke-linecap: round"/>
   </g>
   <g id="patch_3">
    <path d="M 239.565006 112.15667 
Q 326.584118 170.070735 412.672483 227.365357 
" clip-path="url(#p65cc02c7e2)" style="fill: none; stroke: #000000; stroke-linecap: round"/>
    <path d="M 410.450633 223.4842 
L 412.672483 227.365357 
L 408.234447 226.814143 
z
" clip-path="url(#p65cc02c7e2)" style="stroke: #000000; stroke-linecap: round"/>
   </g>
   <g id="patch_4">
    <path d="M 218.498259 306.969856 
Q 225.127087 211.484783 231.678484 117.115058 
" clip-path="url(#p65cc02c7e2)" style="fill: none; stroke: #000000; stroke-linecap: round"/>
    <path d="M 229.406263 120.966942 
L 231.678484 117.115058 
L 233.396658 121.243966 
z
" clip-path="url(#p65cc02c7e2)" style="stroke: #000000; stroke-linecap: round"/>
   </g>
   <g id="PathCollection_1">
    <defs>
     <path id="m47f0abb7ce" d="M 0 8.660254 
C 2.296726 8.660254 4.499694 7.747755 6.123724 6.123724 
C 7.747755 4.499694 8.660254 2.296726 8.660254 0 
C 8.660254 -2.296726 7.747755 -4.499694 6.123724 -6.123724 
C 4.499694 -7.747755 2.296726 -8.660254 0 -8.660254 
C -2.296726 -8.660254 -4.499694 -7.747755 -6.123724 -6.123724 
C -7.747755 -4.499694 -8.660254 -2.296726 -8.660254 0 
C -8.660254 2.296726 -7.747755 4.499694 -6.123724 6.123724 
C -4.499694 7.747755 -2.296726 8.660254 0 8.660254 
z
" style="stroke: #1f78b4"/>
    </defs>
    <g clip-path="url(#p65cc02c7e2)">
     <use xlink:href="#m47f0abb7ce" x="232.355796" y="107.358705" style="fill: #1f78b4; stroke: #1f78b4"/>
     <use xlink:href="#m47f0abb7ce" x="39.986777" y="29.990083" style="fill: #1f78b4; stroke: #1f78b4"/>
     <use xlink:href="#m47f0abb7ce" x="420.813223" y="232.783286" style="fill: #1f78b4; stroke: #1f78b4"/>
     <use xlink:href="#m47f0abb7ce" x="217.898443" y="315.609917" style="fill: #1f78b4; stroke: #1f78b4"/>
    </g>
   </g>
  </g>
 </g>
 <defs>
  <clipPath id="p65cc02c7e2">
   <rect x="0" y="0" width="460.8" height="345.6"/>
  </clipPath>
 </defs>
</svg>
