<?xml version="1.0" encoding="utf-8" standalone="no"?>
<!DOCTYPE svg PUBLIC "-//W3C//DTD SVG 1.1//EN"
  "http://www.w3.org/Graphics/SVG/1.1/DTD/svg11.dtd">
<svg xmlns:xlink="http://www.w3.org/1999/xlink" width="460.8pt" height="345.6pt" viewBox="0 0 460.8 345.6" xmlns="http://www.w3.org/2000/svg" version="1.1">
 <metadata>
  <rdf:RDF xmlns:dc="http://purl.org/dc/elements/1.1/" xmlns:cc="http://creativecommons.org/ns#" xmlns:rdf="http://www.w3.org/1999/02/22-rdf-syntax-ns#">
   <cc:Work>
    <dc:type rdf:resource="http://purl.org/dc/dcmitype/StillImage"/>
    <dc:date>2023-04-25T12:20:09.202486</dc:date>
    <dc:format>image/svg+xml</dc:format>
    <dc:creator>
     <cc:Agent>
      <dc:title>Matplotlib v3.7.1, https://matplotlib.org/</dc:title>
     </cc:Agent>
    </dc:creator>
   </cc:Work>
  </rdf:RDF>
 </metadata>
 <defs>
  <style type="text/css">*{stroke-linejoin: round; stroke-linecap: butt}</style>
 </defs>
 <g id="figure_1">
  <g id="patch_1">
   <path d="M 0 345.6 
L 460.8 345.6 
L 460.8 0 
L 0 0 
z
" style="fill: #ffffff"/>
  </g>
  <g id="axes_1">
   <g id="patch_2">
    <path d="M 385.91839 208.952719 
Q 407.614082 232.17178 428.546458 254.573929 
" clip-path="url(#pc271928d72)" style="fill: none; stroke: #000000; stroke-linecap: round"/>
    <path d="M 427.276872 250.285788 
L 428.546458 254.573929 
L 424.354194 253.016713 
z
" clip-path="url(#pc271928d72)" style="stroke: #000000; stroke-linecap: round"/>
   </g>
   <g id="patch_3">
    <path d="M 429.308143 255.389095 
Q 407.61245 232.170033 386.680074 209.767885 
" clip-path="url(#pc271928d72)" style="fill: none; stroke: #000000; stroke-linecap: round"/>
    <path d="M 387.94966 214.056026 
L 386.680074 209.767885 
L 390.872338 211.3251 
z
" clip-path="url(#pc271928d72)" style="stroke: #000000; stroke-linecap: round"/>
   </g>
   <g id="patch_4">
    <path d="M 344.402904 35.895611 
Q 361.298982 115.024461 377.961594 193.059925 
" clip-path="url(#pc271928d72)" style="fill: none; stroke: #000000; stroke-linecap: round"/>
    <path d="M 379.082227 188.73047 
L 377.961594 193.059925 
L 375.17041 189.565745 
z
" clip-path="url(#pc271928d72)" style="stroke: #000000; stroke-linecap: round"/>
   </g>
   <g id="PathCollection_1">
    <defs>
     <path id="m96fada2997" d="M 0 8.660254 
C 2.296726 8.660254 4.499694 7.747755 6.123724 6.123724 
C 7.747755 4.499694 8.660254 2.296726 8.660254 0 
C 8.660254 -2.296726 7.747755 -4.499694 6.123724 -6.123724 
C 4.499694 -7.747755 2.296726 -8.660254 0 -8.660254 
C -2.296726 -8.660254 -4.499694 -7.747755 -6.123724 -6.123724 
C -7.747755 -4.499694 -8.660254 -2.296726 -8.660254 0 
C -8.660254 2.296726 -7.747755 4.499694 -6.123724 6.123724 
C -4.499694 7.747755 -2.296726 8.660254 0 8.660254 
z
" style="stroke: #1f78b4"/>
    </defs>
    <g clip-path="url(#pc271928d72)">
     <use xlink:href="#m96fada2997" x="380.003443" y="202.622453" style="fill: #1f78b4; stroke: #1f78b4"/>
     <use xlink:href="#m96fada2997" x="435.223089" y="261.719361" style="fill: #1f78b4; stroke: #1f78b4"/>
     <use xlink:href="#m96fada2997" x="342.593965" y="27.423866" style="fill: #1f78b4; stroke: #1f78b4"/>
     <use xlink:href="#m96fada2997" x="20.945455" y="329.890909" style="fill: #1f78b4; stroke: #1f78b4"/>
    </g>
   </g>
  </g>
 </g>
 <defs>
  <clipPath id="pc271928d72">
   <rect x="0" y="0" width="460.8" height="345.6"/>
  </clipPath>
 </defs>
</svg>
