<?xml version="1.0" encoding="utf-8" standalone="no"?>
<!DOCTYPE svg PUBLIC "-//W3C//DTD SVG 1.1//EN"
  "http://www.w3.org/Graphics/SVG/1.1/DTD/svg11.dtd">
<svg xmlns:xlink="http://www.w3.org/1999/xlink" width="460.8pt" height="345.6pt" viewBox="0 0 460.8 345.6" xmlns="http://www.w3.org/2000/svg" version="1.1">
 <metadata>
  <rdf:RDF xmlns:dc="http://purl.org/dc/elements/1.1/" xmlns:cc="http://creativecommons.org/ns#" xmlns:rdf="http://www.w3.org/1999/02/22-rdf-syntax-ns#">
   <cc:Work>
    <dc:type rdf:resource="http://purl.org/dc/dcmitype/StillImage"/>
    <dc:date>2023-04-25T12:20:09.251928</dc:date>
    <dc:format>image/svg+xml</dc:format>
    <dc:creator>
     <cc:Agent>
      <dc:title>Matplotlib v3.7.1, https://matplotlib.org/</dc:title>
     </cc:Agent>
    </dc:creator>
   </cc:Work>
  </rdf:RDF>
 </metadata>
 <defs>
  <style type="text/css">*{stroke-linejoin: round; stroke-linecap: butt}</style>
 </defs>
 <g id="figure_1">
  <g id="patch_1">
   <path d="M 0 345.6 
L 460.8 345.6 
L 460.8 0 
L 0 0 
z
" style="fill: #ffffff"/>
  </g>
  <g id="axes_1">
   <g id="patch_2">
    <path d="M 48.640282 30.273356 
Q 83.865736 31.426464 117.973755 32.542993 
" clip-path="url(#p2744ad99f5)" style="fill: none; stroke: #000000; stroke-linecap: round"/>
    <path d="M 114.041332 30.413193 
L 117.973755 32.542993 
L 113.910462 34.411052 
z
" clip-path="url(#p2744ad99f5)" style="stroke: #000000; stroke-linecap: round"/>
   </g>
   <g id="patch_3">
    <path d="M 119.094973 32.579696 
Q 83.869518 31.426588 49.7615 30.310059 
" clip-path="url(#p2744ad99f5)" style="fill: none; stroke: #000000; stroke-linecap: round"/>
    <path d="M 53.693923 32.439859 
L 49.7615 30.310059 
L 53.824793 28.442 
z
" clip-path="url(#p2744ad99f5)" style="stroke: #000000; stroke-linecap: round"/>
   </g>
   <g id="patch_4">
    <path d="M 297.310381 296.305651 
Q 354.782094 305.288839 411.149185 314.099368 
" clip-path="url(#p2744ad99f5)" style="fill: none; stroke: #000000; stroke-linecap: round"/>
    <path d="M 407.506033 311.505636 
L 411.149185 314.099368 
L 406.888309 315.45765 
z
" clip-path="url(#p2744ad99f5)" style="stroke: #000000; stroke-linecap: round"/>
   </g>
   <g id="PathCollection_1">
    <defs>
     <path id="ma2705b406c" d="M 0 8.660254 
C 2.296726 8.660254 4.499694 7.747755 6.123724 6.123724 
C 7.747755 4.499694 8.660254 2.296726 8.660254 0 
C 8.660254 -2.296726 7.747755 -4.499694 6.123724 -6.123724 
C 4.499694 -7.747755 2.296726 -8.660254 0 -8.660254 
C -2.296726 -8.660254 -4.499694 -7.747755 -6.123724 -6.123724 
C -7.747755 -4.499694 -8.660254 -2.296726 -8.660254 0 
C -8.660254 2.296726 -7.747755 4.499694 -6.123724 6.123724 
C -4.499694 7.747755 -2.296726 8.660254 0 8.660254 
z
" style="stroke: #1f78b4"/>
    </defs>
    <g clip-path="url(#p2744ad99f5)">
     <use xlink:href="#ma2705b406c" x="39.986777" y="29.990083" style="fill: #1f78b4; stroke: #1f78b4"/>
     <use xlink:href="#ma2705b406c" x="127.748478" y="32.862969" style="fill: #1f78b4; stroke: #1f78b4"/>
     <use xlink:href="#ma2705b406c" x="288.754449" y="294.968305" style="fill: #1f78b4; stroke: #1f78b4"/>
     <use xlink:href="#ma2705b406c" x="420.813223" y="315.609917" style="fill: #1f78b4; stroke: #1f78b4"/>
    </g>
   </g>
  </g>
 </g>
 <defs>
  <clipPath id="p2744ad99f5">
   <rect x="0" y="0" width="460.8" height="345.6"/>
  </clipPath>
 </defs>
</svg>
