<?xml version="1.0" encoding="utf-8" standalone="no"?>
<!DOCTYPE svg PUBLIC "-//W3C//DTD SVG 1.1//EN"
  "http://www.w3.org/Graphics/SVG/1.1/DTD/svg11.dtd">
<svg xmlns:xlink="http://www.w3.org/1999/xlink" width="460.8pt" height="345.6pt" viewBox="0 0 460.8 345.6" xmlns="http://www.w3.org/2000/svg" version="1.1">
 <metadata>
  <rdf:RDF xmlns:dc="http://purl.org/dc/elements/1.1/" xmlns:cc="http://creativecommons.org/ns#" xmlns:rdf="http://www.w3.org/1999/02/22-rdf-syntax-ns#">
   <cc:Work>
    <dc:type rdf:resource="http://purl.org/dc/dcmitype/StillImage"/>
    <dc:date>2023-04-25T12:20:09.300166</dc:date>
    <dc:format>image/svg+xml</dc:format>
    <dc:creator>
     <cc:Agent>
      <dc:title>Matplotlib v3.7.1, https://matplotlib.org/</dc:title>
     </cc:Agent>
    </dc:creator>
   </cc:Work>
  </rdf:RDF>
 </metadata>
 <defs>
  <style type="text/css">*{stroke-linejoin: round; stroke-linecap: butt}</style>
 </defs>
 <g id="figure_1">
  <g id="patch_1">
   <path d="M 0 345.6 
L 460.8 345.6 
L 460.8 0 
L 0 0 
z
" style="fill: #ffffff"/>
  </g>
  <g id="axes_1">
   <g id="patch_2">
    <path d="M 218.419109 277.984987 
Q 206.694542 298.752893 195.51962 318.547202 
" clip-path="url(#p593ceedaee)" style="fill: none; stroke: #000000; stroke-linecap: round"/>
    <path d="M 199.227715 316.047195 
L 195.51962 318.547202 
L 195.744471 314.080722 
z
" clip-path="url(#p593ceedaee)" style="stroke: #000000; stroke-linecap: round"/>
   </g>
   <g id="patch_3">
    <path d="M 199.341513 326.293752 
Q 309.352068 316.52397 418.248972 306.853089 
" clip-path="url(#p593ceedaee)" style="fill: none; stroke: #000000; stroke-linecap: round"/>
    <path d="M 414.087734 305.214768 
L 418.248972 306.853089 
L 414.441572 309.199087 
z
" clip-path="url(#p593ceedaee)" style="stroke: #000000; stroke-linecap: round"/>
   </g>
   <g id="patch_4">
    <path d="M 419.46002 304.510989 
Q 325.334294 288.214515 232.310213 272.108774 
" clip-path="url(#p593ceedaee)" style="fill: none; stroke: #000000; stroke-linecap: round"/>
    <path d="M 235.910382 274.761845 
L 232.310213 272.108774 
L 236.59277 270.820481 
z
" clip-path="url(#p593ceedaee)" style="stroke: #000000; stroke-linecap: round"/>
   </g>
   <g id="PathCollection_1">
    <defs>
     <path id="m4af1d4e39f" d="M 0 8.660254 
C 2.296726 8.660254 4.499694 7.747755 6.123724 6.123724 
C 7.747755 4.499694 8.660254 2.296726 8.660254 0 
C 8.660254 -2.296726 7.747755 -4.499694 6.123724 -6.123724 
C 4.499694 -7.747755 2.296726 -8.660254 0 -8.660254 
C -2.296726 -8.660254 -4.499694 -7.747755 -6.123724 -6.123724 
C -7.747755 -4.499694 -8.660254 -2.296726 -8.660254 0 
C -8.660254 2.296726 -7.747755 4.499694 -6.123724 6.123724 
C -4.499694 7.747755 -2.296726 8.660254 0 8.660254 
z
" style="stroke: #1f78b4"/>
    </defs>
    <g clip-path="url(#p593ceedaee)">
     <use xlink:href="#m4af1d4e39f" x="222.678025" y="270.441104" style="fill: #1f78b4; stroke: #1f78b4"/>
     <use xlink:href="#m4af1d4e39f" x="190.71372" y="327.059966" style="fill: #1f78b4; stroke: #1f78b4"/>
     <use xlink:href="#m4af1d4e39f" x="427.990697" y="305.987949" style="fill: #1f78b4; stroke: #1f78b4"/>
     <use xlink:href="#m4af1d4e39f" x="20.945455" y="15.709091" style="fill: #1f78b4; stroke: #1f78b4"/>
    </g>
   </g>
  </g>
 </g>
 <defs>
  <clipPath id="p593ceedaee">
   <rect x="0" y="0" width="460.8" height="345.6"/>
  </clipPath>
 </defs>
</svg>
