<?xml version="1.0" encoding="utf-8" standalone="no"?>
<!DOCTYPE svg PUBLIC "-//W3C//DTD SVG 1.1//EN"
  "http://www.w3.org/Graphics/SVG/1.1/DTD/svg11.dtd">
<svg xmlns:xlink="http://www.w3.org/1999/xlink" width="460.8pt" height="345.6pt" viewBox="0 0 460.8 345.6" xmlns="http://www.w3.org/2000/svg" version="1.1">
 <metadata>
  <rdf:RDF xmlns:dc="http://purl.org/dc/elements/1.1/" xmlns:cc="http://creativecommons.org/ns#" xmlns:rdf="http://www.w3.org/1999/02/22-rdf-syntax-ns#">
   <cc:Work>
    <dc:type rdf:resource="http://purl.org/dc/dcmitype/StillImage"/>
    <dc:date>2023-04-25T12:20:09.369911</dc:date>
    <dc:format>image/svg+xml</dc:format>
    <dc:creator>
     <cc:Agent>
      <dc:title>Matplotlib v3.7.1, https://matplotlib.org/</dc:title>
     </cc:Agent>
    </dc:creator>
   </cc:Work>
  </rdf:RDF>
 </metadata>
 <defs>
  <style type="text/css">*{stroke-linejoin: round; stroke-linecap: butt}</style>
 </defs>
 <g id="figure_1">
  <g id="patch_1">
   <path d="M 0 345.6 
L 460.8 345.6 
L 460.8 0 
L 0 0 
z
" style="fill: #ffffff"/>
  </g>
  <g id="axes_1">
   <g id="patch_2">
    <path d="M 413.195031 251.297582 
Q 357.486496 281.395904 302.76161 310.962779 
" clip-path="url(#pb32dcfbe46)" style="fill: none; stroke: #000000; stroke-linecap: round"/>
    <path d="M 307.231498 310.821018 
L 302.76161 310.962779 
L 305.330134 307.301811 
z
" clip-path="url(#pb32dcfbe46)" style="stroke: #000000; stroke-linecap: round"/>
   </g>
   <g id="patch_3">
    <path d="M 286.713026 311.187015 
Q 219.00279 270.974154 152.253838 231.332196 
" clip-path="url(#pb32dcfbe46)" style="fill: none; stroke: #000000; stroke-linecap: round"/>
    <path d="M 154.671773 235.094322 
L 152.253838 231.332196 
L 156.7143 231.655124 
z
" clip-path="url(#pb32dcfbe46)" style="stroke: #000000; stroke-linecap: round"/>
   </g>
   <g id="patch_4">
    <path d="M 139.798879 218.685081 
Q 91.917672 128.165554 44.559231 38.634317 
" clip-path="url(#pb32dcfbe46)" style="fill: none; stroke: #000000; stroke-linecap: round"/>
    <path d="M 44.661628 43.105281 
L 44.559231 38.634317 
L 48.19744 41.234977 
z
" clip-path="url(#pb32dcfbe46)" style="stroke: #000000; stroke-linecap: round"/>
   </g>
   <g id="PathCollection_1">
    <defs>
     <path id="mcec81f92b1" d="M 0 8.660254 
C 2.296726 8.660254 4.499694 7.747755 6.123724 6.123724 
C 7.747755 4.499694 8.660254 2.296726 8.660254 0 
C 8.660254 -2.296726 7.747755 -4.499694 6.123724 -6.123724 
C 4.499694 -7.747755 2.296726 -8.660254 0 -8.660254 
C -2.296726 -8.660254 -4.499694 -7.747755 -6.123724 -6.123724 
C -7.747755 -4.499694 -8.660254 -2.296726 -8.660254 0 
C -8.660254 2.296726 -7.747755 4.499694 -6.123724 6.123724 
C -4.499694 7.747755 -2.296726 8.660254 0 8.660254 
z
" style="stroke: #1f78b4"/>
    </defs>
    <g clip-path="url(#pb32dcfbe46)">
     <use xlink:href="#mcec81f92b1" x="420.813223" y="247.181609" style="fill: #1f78b4; stroke: #1f78b4"/>
     <use xlink:href="#mcec81f92b1" x="294.16029" y="315.609917" style="fill: #1f78b4; stroke: #1f78b4"/>
     <use xlink:href="#mcec81f92b1" x="143.848035" y="226.340021" style="fill: #1f78b4; stroke: #1f78b4"/>
     <use xlink:href="#mcec81f92b1" x="39.986777" y="29.990083" style="fill: #1f78b4; stroke: #1f78b4"/>
    </g>
   </g>
  </g>
 </g>
 <defs>
  <clipPath id="pb32dcfbe46">
   <rect x="0" y="0" width="460.8" height="345.6"/>
  </clipPath>
 </defs>
</svg>
