<?xml version="1.0" encoding="utf-8" standalone="no"?>
<!DOCTYPE svg PUBLIC "-//W3C//DTD SVG 1.1//EN"
  "http://www.w3.org/Graphics/SVG/1.1/DTD/svg11.dtd">
<svg xmlns:xlink="http://www.w3.org/1999/xlink" width="460.8pt" height="345.6pt" viewBox="0 0 460.8 345.6" xmlns="http://www.w3.org/2000/svg" version="1.1">
 <metadata>
  <rdf:RDF xmlns:dc="http://purl.org/dc/elements/1.1/" xmlns:cc="http://creativecommons.org/ns#" xmlns:rdf="http://www.w3.org/1999/02/22-rdf-syntax-ns#">
   <cc:Work>
    <dc:type rdf:resource="http://purl.org/dc/dcmitype/StillImage"/>
    <dc:date>2023-04-25T12:20:09.767025</dc:date>
    <dc:format>image/svg+xml</dc:format>
    <dc:creator>
     <cc:Agent>
      <dc:title>Matplotlib v3.7.1, https://matplotlib.org/</dc:title>
     </cc:Agent>
    </dc:creator>
   </cc:Work>
  </rdf:RDF>
 </metadata>
 <defs>
  <style type="text/css">*{stroke-linejoin: round; stroke-linecap: butt}</style>
 </defs>
 <g id="figure_1">
  <g id="patch_1">
   <path d="M 0 345.6 
L 460.8 345.6 
L 460.8 0 
L 0 0 
z
" style="fill: #ffffff"/>
  </g>
  <g id="axes_1">
   <g id="patch_2">
    <path d="M 248.923029 194.492069 
Q 297.579334 251.752114 345.511674 308.160176 
" clip-path="url(#pd552d4c9af)" style="fill: none; stroke: #000000; stroke-linecap: round"/>
    <path d="M 344.445608 303.816963 
L 345.511674 308.160176 
L 341.397463 306.407101 
z
" clip-path="url(#pd552d4c9af)" style="stroke: #000000; stroke-linecap: round"/>
   </g>
   <g id="patch_3">
    <path d="M 250.943764 191.994443 
Q 332.064362 235.61951 412.200284 278.715037 
" clip-path="url(#pd552d4c9af)" style="fill: none; stroke: #000000; stroke-linecap: round"/>
    <path d="M 409.624668 275.059056 
L 412.200284 278.715037 
L 407.730129 278.581941 
z
" clip-path="url(#pd552d4c9af)" style="stroke: #000000; stroke-linecap: round"/>
   </g>
   <g id="patch_4">
    <path d="M 236.473065 182.578693 
Q 141.649303 108.939834 47.708573 35.986726 
" clip-path="url(#pd552d4c9af)" style="fill: none; stroke: #000000; stroke-linecap: round"/>
    <path d="M 49.641096 40.019758 
L 47.708573 35.986726 
L 52.094513 36.860527 
z
" clip-path="url(#pd552d4c9af)" style="stroke: #000000; stroke-linecap: round"/>
   </g>
   <g id="patch_5">
    <path d="M 359.684647 311.941339 
Q 386.325797 299.47927 411.954234 287.490923 
" clip-path="url(#pd552d4c9af)" style="fill: none; stroke: #000000; stroke-linecap: round"/>
    <path d="M 407.483622 287.374166 
L 411.954234 287.490923 
L 409.178461 290.997358 
z
" clip-path="url(#pd552d4c9af)" style="stroke: #000000; stroke-linecap: round"/>
   </g>
   <g id="PathCollection_1">
    <defs>
     <path id="m744cef2501" d="M 0 8.660254 
C 2.296726 8.660254 4.499694 7.747755 6.123724 6.123724 
C 7.747755 4.499694 8.660254 2.296726 8.660254 0 
C 8.660254 -2.296726 7.747755 -4.499694 6.123724 -6.123724 
C 4.499694 -7.747755 2.296726 -8.660254 0 -8.660254 
C -2.296726 -8.660254 -4.499694 -7.747755 -6.123724 -6.123724 
C -7.747755 -4.499694 -8.660254 -2.296726 -8.660254 0 
C -8.660254 2.296726 -7.747755 4.499694 -6.123724 6.123724 
C -4.499694 7.747755 -2.296726 8.660254 0 8.660254 
z
" style="stroke: #1f78b4"/>
    </defs>
    <g clip-path="url(#pd552d4c9af)">
     <use xlink:href="#m744cef2501" x="243.314142" y="187.891382" style="fill: #1f78b4; stroke: #1f78b4"/>
     <use xlink:href="#m744cef2501" x="351.842037" y="315.609917" style="fill: #1f78b4; stroke: #1f78b4"/>
     <use xlink:href="#m744cef2501" x="420.813223" y="283.346907" style="fill: #1f78b4; stroke: #1f78b4"/>
     <use xlink:href="#m744cef2501" x="39.986777" y="29.990083" style="fill: #1f78b4; stroke: #1f78b4"/>
    </g>
   </g>
  </g>
 </g>
 <defs>
  <clipPath id="pd552d4c9af">
   <rect x="0" y="0" width="460.8" height="345.6"/>
  </clipPath>
 </defs>
</svg>
