<?xml version="1.0" encoding="utf-8" standalone="no"?>
<!DOCTYPE svg PUBLIC "-//W3C//DTD SVG 1.1//EN"
  "http://www.w3.org/Graphics/SVG/1.1/DTD/svg11.dtd">
<svg xmlns:xlink="http://www.w3.org/1999/xlink" width="460.8pt" height="345.6pt" viewBox="0 0 460.8 345.6" xmlns="http://www.w3.org/2000/svg" version="1.1">
 <metadata>
  <rdf:RDF xmlns:dc="http://purl.org/dc/elements/1.1/" xmlns:cc="http://creativecommons.org/ns#" xmlns:rdf="http://www.w3.org/1999/02/22-rdf-syntax-ns#">
   <cc:Work>
    <dc:type rdf:resource="http://purl.org/dc/dcmitype/StillImage"/>
    <dc:date>2023-04-25T12:20:10.258150</dc:date>
    <dc:format>image/svg+xml</dc:format>
    <dc:creator>
     <cc:Agent>
      <dc:title>Matplotlib v3.7.1, https://matplotlib.org/</dc:title>
     </cc:Agent>
    </dc:creator>
   </cc:Work>
  </rdf:RDF>
 </metadata>
 <defs>
  <style type="text/css">*{stroke-linejoin: round; stroke-linecap: butt}</style>
 </defs>
 <g id="figure_1">
  <g id="patch_1">
   <path d="M 0 345.6 
L 460.8 345.6 
L 460.8 0 
L 0 0 
z
" style="fill: #ffffff"/>
  </g>
  <g id="axes_1">
   <g id="patch_2">
    <path d="M 318.808216 106.493838 
Q 277.333583 137.599813 236.753378 168.034967 
" clip-path="url(#p84d2eff9b1)" style="fill: none; stroke: #000000; stroke-linecap: round"/>
    <path d="M 241.153378 167.234967 
L 236.753378 168.034967 
L 238.753378 164.034967 
z
" clip-path="url(#p84d2eff9b1)" style="stroke: #000000; stroke-linecap: round"/>
   </g>
   <g id="patch_3">
    <path d="M 332.661709 96.103719 
Q 373.273871 65.644597 412.991606 35.856295 
" clip-path="url(#p84d2eff9b1)" style="fill: none; stroke: #000000; stroke-linecap: round"/>
    <path d="M 408.591606 36.656295 
L 412.991606 35.856295 
L 410.991606 39.856295 
z
" clip-path="url(#p84d2eff9b1)" style="stroke: #000000; stroke-linecap: round"/>
   </g>
   <g id="patch_4">
    <path d="M 235.863711 168.702217 
Q 324.874332 101.944251 412.990527 35.857105 
" clip-path="url(#p84d2eff9b1)" style="fill: none; stroke: #000000; stroke-linecap: round"/>
    <path d="M 408.590527 36.657105 
L 412.990527 35.857105 
L 410.990527 39.857105 
z
" clip-path="url(#p84d2eff9b1)" style="stroke: #000000; stroke-linecap: round"/>
   </g>
   <g id="patch_5">
    <path d="M 222.005399 179.09595 
Q 134.460874 244.754344 47.810777 309.741918 
" clip-path="url(#p84d2eff9b1)" style="fill: none; stroke: #000000; stroke-linecap: round"/>
    <path d="M 52.210777 308.941918 
L 47.810777 309.741918 
L 49.810777 305.741918 
z
" clip-path="url(#p84d2eff9b1)" style="stroke: #000000; stroke-linecap: round"/>
   </g>
   <g id="PathCollection_1">
    <defs>
     <path id="mc31c9cd6f4" d="M 0 8.660254 
C 2.296726 8.660254 4.499694 7.747755 6.123724 6.123724 
C 7.747755 4.499694 8.660254 2.296726 8.660254 0 
C 8.660254 -2.296726 7.747755 -4.499694 6.123724 -6.123724 
C 4.499694 -7.747755 2.296726 -8.660254 0 -8.660254 
C -2.296726 -8.660254 -4.499694 -7.747755 -6.123724 -6.123724 
C -7.747755 -4.499694 -8.660254 -2.296726 -8.660254 0 
C -8.660254 2.296726 -7.747755 4.499694 -6.123724 6.123724 
C -4.499694 7.747755 -2.296726 8.660254 0 8.660254 
z
" style="stroke: #1f78b4"/>
    </defs>
    <g clip-path="url(#p84d2eff9b1)">
     <use xlink:href="#mc31c9cd6f4" x="325.735746" y="101.298191" style="fill: #1f78b4; stroke: #1f78b4"/>
     <use xlink:href="#mc31c9cd6f4" x="228.933484" y="173.899887" style="fill: #1f78b4; stroke: #1f78b4"/>
     <use xlink:href="#mc31c9cd6f4" x="420.813223" y="29.990083" style="fill: #1f78b4; stroke: #1f78b4"/>
     <use xlink:href="#mc31c9cd6f4" x="39.986777" y="315.609917" style="fill: #1f78b4; stroke: #1f78b4"/>
    </g>
   </g>
  </g>
 </g>
 <defs>
  <clipPath id="p84d2eff9b1">
   <rect x="0" y="0" width="460.8" height="345.6"/>
  </clipPath>
 </defs>
</svg>
