<?xml version="1.0" encoding="utf-8" standalone="no"?>
<!DOCTYPE svg PUBLIC "-//W3C//DTD SVG 1.1//EN"
  "http://www.w3.org/Graphics/SVG/1.1/DTD/svg11.dtd">
<svg xmlns:xlink="http://www.w3.org/1999/xlink" width="460.8pt" height="345.6pt" viewBox="0 0 460.8 345.6" xmlns="http://www.w3.org/2000/svg" version="1.1">
 <metadata>
  <rdf:RDF xmlns:dc="http://purl.org/dc/elements/1.1/" xmlns:cc="http://creativecommons.org/ns#" xmlns:rdf="http://www.w3.org/1999/02/22-rdf-syntax-ns#">
   <cc:Work>
    <dc:type rdf:resource="http://purl.org/dc/dcmitype/StillImage"/>
    <dc:date>2023-04-25T12:20:10.310140</dc:date>
    <dc:format>image/svg+xml</dc:format>
    <dc:creator>
     <cc:Agent>
      <dc:title>Matplotlib v3.7.1, https://matplotlib.org/</dc:title>
     </cc:Agent>
    </dc:creator>
   </cc:Work>
  </rdf:RDF>
 </metadata>
 <defs>
  <style type="text/css">*{stroke-linejoin: round; stroke-linecap: butt}</style>
 </defs>
 <g id="figure_1">
  <g id="patch_1">
   <path d="M 0 345.6 
L 460.8 345.6 
L 460.8 0 
L 0 0 
z
" style="fill: #ffffff"/>
  </g>
  <g id="axes_1">
   <g id="patch_2">
    <path d="M 302.177029 59.311143 
Q 361.121764 43.283347 418.987637 27.548907 
" clip-path="url(#pc71b412523)" style="fill: none; stroke: #000000; stroke-linecap: round"/>
    <path d="M 414.603014 26.668521 
L 418.987637 27.548907 
L 415.652555 30.528374 
z
" clip-path="url(#pc71b412523)" style="stroke: #000000; stroke-linecap: round"/>
   </g>
   <g id="patch_3">
    <path d="M 285.964054 57.934853 
Q 246.806144 39.739235 208.66215 22.014757 
" clip-path="url(#pc71b412523)" style="fill: none; stroke: #000000; stroke-linecap: round"/>
    <path d="M 211.446849 25.514108 
L 208.66215 22.014757 
L 213.13245 21.886608 
z
" clip-path="url(#pc71b412523)" style="stroke: #000000; stroke-linecap: round"/>
   </g>
   <g id="patch_4">
    <path d="M 419.767804 24.714906 
Q 314.10879 21.43848 209.567274 18.196706 
" clip-path="url(#pc71b412523)" style="fill: none; stroke: #000000; stroke-linecap: round"/>
    <path d="M 213.503363 20.319723 
L 209.567274 18.196706 
L 213.627341 16.321645 
z
" clip-path="url(#pc71b412523)" style="stroke: #000000; stroke-linecap: round"/>
   </g>
   <g id="patch_5">
    <path d="M 208.448498 18.162013 
Q 314.107511 21.43844 418.649028 24.680214 
" clip-path="url(#pc71b412523)" style="fill: none; stroke: #000000; stroke-linecap: round"/>
    <path d="M 414.712939 22.557196 
L 418.649028 24.680214 
L 414.58896 26.555275 
z
" clip-path="url(#pc71b412523)" style="stroke: #000000; stroke-linecap: round"/>
   </g>
   <g id="PathCollection_1">
    <defs>
     <path id="m241582c324" d="M 0 8.660254 
C 2.296726 8.660254 4.499694 7.747755 6.123724 6.123724 
C 7.747755 4.499694 8.660254 2.296726 8.660254 0 
C 8.660254 -2.296726 7.747755 -4.499694 6.123724 -6.123724 
C 4.499694 -7.747755 2.296726 -8.660254 0 -8.660254 
C -2.296726 -8.660254 -4.499694 -7.747755 -6.123724 -6.123724 
C -7.747755 -4.499694 -8.660254 -2.296726 -8.660254 0 
C -8.660254 2.296726 -7.747755 4.499694 -6.123724 6.123724 
C -4.499694 7.747755 -2.296726 8.660254 0 8.660254 
z
" style="stroke: #1f78b4"/>
    </defs>
    <g clip-path="url(#pc71b412523)">
     <use xlink:href="#m241582c324" x="293.817589" y="61.584177" style="fill: #1f78b4; stroke: #1f78b4"/>
     <use xlink:href="#m241582c324" x="428.423055" y="24.983301" style="fill: #1f78b4; stroke: #1f78b4"/>
     <use xlink:href="#m241582c324" x="199.793247" y="17.893619" style="fill: #1f78b4; stroke: #1f78b4"/>
     <use xlink:href="#m241582c324" x="20.945455" y="329.890909" style="fill: #1f78b4; stroke: #1f78b4"/>
    </g>
   </g>
  </g>
 </g>
 <defs>
  <clipPath id="pc71b412523">
   <rect x="0" y="0" width="460.8" height="345.6"/>
  </clipPath>
 </defs>
</svg>
