<?xml version="1.0" encoding="utf-8" standalone="no"?>
<!DOCTYPE svg PUBLIC "-//W3C//DTD SVG 1.1//EN"
  "http://www.w3.org/Graphics/SVG/1.1/DTD/svg11.dtd">
<svg xmlns:xlink="http://www.w3.org/1999/xlink" width="460.8pt" height="345.6pt" viewBox="0 0 460.8 345.6" xmlns="http://www.w3.org/2000/svg" version="1.1">
 <metadata>
  <rdf:RDF xmlns:dc="http://purl.org/dc/elements/1.1/" xmlns:cc="http://creativecommons.org/ns#" xmlns:rdf="http://www.w3.org/1999/02/22-rdf-syntax-ns#">
   <cc:Work>
    <dc:type rdf:resource="http://purl.org/dc/dcmitype/StillImage"/>
    <dc:date>2023-04-25T12:20:10.362283</dc:date>
    <dc:format>image/svg+xml</dc:format>
    <dc:creator>
     <cc:Agent>
      <dc:title>Matplotlib v3.7.1, https://matplotlib.org/</dc:title>
     </cc:Agent>
    </dc:creator>
   </cc:Work>
  </rdf:RDF>
 </metadata>
 <defs>
  <style type="text/css">*{stroke-linejoin: round; stroke-linecap: butt}</style>
 </defs>
 <g id="figure_1">
  <g id="patch_1">
   <path d="M 0 345.6 
L 460.8 345.6 
L 460.8 0 
L 0 0 
z
" style="fill: #ffffff"/>
  </g>
  <g id="axes_1">
   <g id="patch_2">
    <path d="M 376.676243 33.067862 
Q 262.441157 76.487559 149.251159 119.510028 
" clip-path="url(#pa2fb1d723d)" style="fill: none; stroke: #000000; stroke-linecap: round"/>
    <path d="M 153.700765 119.958371 
L 149.251159 119.510028 
L 152.279597 116.219349 
z
" clip-path="url(#pa2fb1d723d)" style="stroke: #000000; stroke-linecap: round"/>
   </g>
   <g id="patch_3">
    <path d="M 386.818327 38.407113 
Q 402.793376 104.171828 418.504516 168.850102 
" clip-path="url(#pa2fb1d723d)" style="fill: none; stroke: #000000; stroke-linecap: round"/>
    <path d="M 419.503807 164.491041 
L 418.504516 168.850102 
L 415.616842 165.435232 
z
" clip-path="url(#pa2fb1d723d)" style="stroke: #000000; stroke-linecap: round"/>
   </g>
   <g id="patch_4">
    <path d="M 148.603048 124.660087 
Q 280.461082 150.669495 411.222218 176.462536 
" clip-path="url(#pa2fb1d723d)" style="fill: none; stroke: #000000; stroke-linecap: round"/>
    <path d="M 407.684884 173.726248 
L 411.222218 176.462536 
L 406.910787 177.65063 
z
" clip-path="url(#pa2fb1d723d)" style="stroke: #000000; stroke-linecap: round"/>
   </g>
   <g id="patch_5">
    <path d="M 412.663365 181.291722 
Q 230.398094 246.982842 49.184627 312.294875 
" clip-path="url(#pa2fb1d723d)" style="fill: none; stroke: #000000; stroke-linecap: round"/>
    <path d="M 53.625809 312.820141 
L 49.184627 312.294875 
L 52.269549 309.057089 
z
" clip-path="url(#pa2fb1d723d)" style="stroke: #000000; stroke-linecap: round"/>
   </g>
   <g id="PathCollection_1">
    <defs>
     <path id="m415149f4e1" d="M 0 8.660254 
C 2.296726 8.660254 4.499694 7.747755 6.123724 6.123724 
C 7.747755 4.499694 8.660254 2.296726 8.660254 0 
C 8.660254 -2.296726 7.747755 -4.499694 6.123724 -6.123724 
C 4.499694 -7.747755 2.296726 -8.660254 0 -8.660254 
C -2.296726 -8.660254 -4.499694 -7.747755 -6.123724 -6.123724 
C -7.747755 -4.499694 -8.660254 -2.296726 -8.660254 0 
C -8.660254 2.296726 -7.747755 4.499694 -6.123724 6.123724 
C -4.499694 7.747755 -2.296726 8.660254 0 8.660254 
z
" style="stroke: #1f78b4"/>
    </defs>
    <g clip-path="url(#pa2fb1d723d)">
     <use xlink:href="#m415149f4e1" x="384.773728" y="29.990083" style="fill: #1f78b4; stroke: #1f78b4"/>
     <use xlink:href="#m415149f4e1" x="140.109463" y="122.984701" style="fill: #1f78b4; stroke: #1f78b4"/>
     <use xlink:href="#m415149f4e1" x="420.813223" y="178.354391" style="fill: #1f78b4; stroke: #1f78b4"/>
     <use xlink:href="#m415149f4e1" x="39.986777" y="315.609917" style="fill: #1f78b4; stroke: #1f78b4"/>
    </g>
   </g>
  </g>
 </g>
 <defs>
  <clipPath id="pa2fb1d723d">
   <rect x="0" y="0" width="460.8" height="345.6"/>
  </clipPath>
 </defs>
</svg>
