<?xml version="1.0" encoding="utf-8" standalone="no"?>
<!DOCTYPE svg PUBLIC "-//W3C//DTD SVG 1.1//EN"
  "http://www.w3.org/Graphics/SVG/1.1/DTD/svg11.dtd">
<svg xmlns:xlink="http://www.w3.org/1999/xlink" width="460.8pt" height="345.6pt" viewBox="0 0 460.8 345.6" xmlns="http://www.w3.org/2000/svg" version="1.1">
 <metadata>
  <rdf:RDF xmlns:dc="http://purl.org/dc/elements/1.1/" xmlns:cc="http://creativecommons.org/ns#" xmlns:rdf="http://www.w3.org/1999/02/22-rdf-syntax-ns#">
   <cc:Work>
    <dc:type rdf:resource="http://purl.org/dc/dcmitype/StillImage"/>
    <dc:date>2023-04-25T12:20:10.472105</dc:date>
    <dc:format>image/svg+xml</dc:format>
    <dc:creator>
     <cc:Agent>
      <dc:title>Matplotlib v3.7.1, https://matplotlib.org/</dc:title>
     </cc:Agent>
    </dc:creator>
   </cc:Work>
  </rdf:RDF>
 </metadata>
 <defs>
  <style type="text/css">*{stroke-linejoin: round; stroke-linecap: butt}</style>
 </defs>
 <g id="figure_1">
  <g id="patch_1">
   <path d="M 0 345.6 
L 460.8 345.6 
L 460.8 0 
L 0 0 
z
" style="fill: #ffffff"/>
  </g>
  <g id="axes_1">
   <g id="patch_2">
    <path d="M 280.816419 132.172005 
Q 228.51168 171.603435 177.099703 210.361831 
" clip-path="url(#p038328ee38)" style="fill: none; stroke: #000000; stroke-linecap: round"/>
    <path d="M 181.497707 209.550931 
L 177.099703 210.361831 
L 179.089786 206.356888 
z
" clip-path="url(#p038328ee38)" style="stroke: #000000; stroke-linecap: round"/>
   </g>
   <g id="patch_3">
    <path d="M 294.730476 121.859151 
Q 354.27233 78.474511 412.910578 35.748274 
" clip-path="url(#p038328ee38)" style="fill: none; stroke: #000000; stroke-linecap: round"/>
    <path d="M 408.49995 36.487434 
L 412.910578 35.748274 
L 410.855529 39.720273 
z
" clip-path="url(#p038328ee38)" style="stroke: #000000; stroke-linecap: round"/>
   </g>
   <g id="patch_4">
    <path d="M 176.252745 211.09325 
Q 295.053177 123.118551 412.955112 35.809211 
" clip-path="url(#p038328ee38)" style="fill: none; stroke: #000000; stroke-linecap: round"/>
    <path d="M 408.55032 36.582394 
L 412.955112 35.809211 
L 410.930783 39.796954 
z
" clip-path="url(#p038328ee38)" style="stroke: #000000; stroke-linecap: round"/>
   </g>
   <g id="patch_5">
    <path d="M 46.857049 310.330596 
Q 104.643894 265.925462 161.544215 222.20156 
" clip-path="url(#p038328ee38)" style="fill: none; stroke: #000000; stroke-linecap: round"/>
    <path d="M 157.153868 223.052945 
L 161.544215 222.20156 
L 159.591115 226.224668 
z
" clip-path="url(#p038328ee38)" style="stroke: #000000; stroke-linecap: round"/>
   </g>
   <g id="PathCollection_1">
    <defs>
     <path id="m9bcba8f5bf" d="M 0 8.660254 
C 2.296726 8.660254 4.499694 7.747755 6.123724 6.123724 
C 7.747755 4.499694 8.660254 2.296726 8.660254 0 
C 8.660254 -2.296726 7.747755 -4.499694 6.123724 -6.123724 
C 4.499694 -7.747755 2.296726 -8.660254 0 -8.660254 
C -2.296726 -8.660254 -4.499694 -7.747755 -6.123724 -6.123724 
C -7.747755 -4.499694 -8.660254 -2.296726 -8.660254 0 
C -8.660254 2.296726 -7.747755 4.499694 -6.123724 6.123724 
C -4.499694 7.747755 -2.296726 8.660254 0 8.660254 
z
" style="stroke: #1f78b4"/>
    </defs>
    <g clip-path="url(#p038328ee38)">
     <use xlink:href="#m9bcba8f5bf" x="287.73073" y="126.959453" style="fill: #1f78b4; stroke: #1f78b4"/>
     <use xlink:href="#m9bcba8f5bf" x="169.29469" y="216.245864" style="fill: #1f78b4; stroke: #1f78b4"/>
     <use xlink:href="#m9bcba8f5bf" x="420.813223" y="29.990083" style="fill: #1f78b4; stroke: #1f78b4"/>
     <use xlink:href="#m9bcba8f5bf" x="39.986777" y="315.609917" style="fill: #1f78b4; stroke: #1f78b4"/>
    </g>
   </g>
  </g>
 </g>
 <defs>
  <clipPath id="p038328ee38">
   <rect x="0" y="0" width="460.8" height="345.6"/>
  </clipPath>
 </defs>
</svg>
