<?xml version="1.0" encoding="utf-8" standalone="no"?>
<!DOCTYPE svg PUBLIC "-//W3C//DTD SVG 1.1//EN"
  "http://www.w3.org/Graphics/SVG/1.1/DTD/svg11.dtd">
<svg xmlns:xlink="http://www.w3.org/1999/xlink" width="460.8pt" height="345.6pt" viewBox="0 0 460.8 345.6" xmlns="http://www.w3.org/2000/svg" version="1.1">
 <metadata>
  <rdf:RDF xmlns:dc="http://purl.org/dc/elements/1.1/" xmlns:cc="http://creativecommons.org/ns#" xmlns:rdf="http://www.w3.org/1999/02/22-rdf-syntax-ns#">
   <cc:Work>
    <dc:type rdf:resource="http://purl.org/dc/dcmitype/StillImage"/>
    <dc:date>2023-04-25T12:20:10.528026</dc:date>
    <dc:format>image/svg+xml</dc:format>
    <dc:creator>
     <cc:Agent>
      <dc:title>Matplotlib v3.7.1, https://matplotlib.org/</dc:title>
     </cc:Agent>
    </dc:creator>
   </cc:Work>
  </rdf:RDF>
 </metadata>
 <defs>
  <style type="text/css">*{stroke-linejoin: round; stroke-linecap: butt}</style>
 </defs>
 <g id="figure_1">
  <g id="patch_1">
   <path d="M 0 345.6 
L 460.8 345.6 
L 460.8 0 
L 0 0 
z
" style="fill: #ffffff"/>
  </g>
  <g id="axes_1">
   <g id="patch_2">
    <path d="M 318.821203 228.294515 
Q 366.528805 269.137009 413.387094 309.252406 
" clip-path="url(#p7c3497f264)" style="fill: none; stroke: #000000; stroke-linecap: round"/>
    <path d="M 411.649172 305.131771 
L 413.387094 309.252406 
L 409.047834 308.170363 
z
" clip-path="url(#p7c3497f264)" style="stroke: #000000; stroke-linecap: round"/>
   </g>
   <g id="patch_3">
    <path d="M 303.582626 222.548549 
Q 176.114549 220.848093 49.764408 219.162549 
" clip-path="url(#p7c3497f264)" style="fill: none; stroke: #000000; stroke-linecap: round"/>
    <path d="M 53.737374 221.215728 
L 49.764408 219.162549 
L 53.79073 217.216083 
z
" clip-path="url(#p7c3497f264)" style="stroke: #000000; stroke-linecap: round"/>
   </g>
   <g id="patch_4">
    <path d="M 412.419305 313.481215 
Q 230.401261 267.321335 49.466944 221.436289 
" clip-path="url(#p7c3497f264)" style="fill: none; stroke: #000000; stroke-linecap: round"/>
    <path d="M 52.852569 224.358197 
L 49.466944 221.436289 
L 53.835845 220.480934 
z
" clip-path="url(#p7c3497f264)" style="stroke: #000000; stroke-linecap: round"/>
   </g>
   <g id="patch_5">
    <path d="M 290.655858 35.115932 
Q 168.811545 124.513239 47.868662 213.249166 
" clip-path="url(#p7c3497f264)" style="fill: none; stroke: #000000; stroke-linecap: round"/>
    <path d="M 52.276829 212.495467 
L 47.868662 213.249166 
L 49.910603 209.270413 
z
" clip-path="url(#p7c3497f264)" style="stroke: #000000; stroke-linecap: round"/>
   </g>
   <g id="PathCollection_1">
    <defs>
     <path id="mb974faac6b" d="M 0 8.660254 
C 2.296726 8.660254 4.499694 7.747755 6.123724 6.123724 
C 7.747755 4.499694 8.660254 2.296726 8.660254 0 
C 8.660254 -2.296726 7.747755 -4.499694 6.123724 -6.123724 
C 4.499694 -7.747755 2.296726 -8.660254 0 -8.660254 
C -2.296726 -8.660254 -4.499694 -7.747755 -6.123724 -6.123724 
C -7.747755 -4.499694 -8.660254 -2.296726 -8.660254 0 
C -8.660254 2.296726 -7.747755 4.499694 -6.123724 6.123724 
C -4.499694 7.747755 -2.296726 8.660254 0 8.660254 
z
" style="stroke: #1f78b4"/>
    </defs>
    <g clip-path="url(#p7c3497f264)">
     <use xlink:href="#mb974faac6b" x="312.244386" y="222.6641" style="fill: #1f78b4; stroke: #1f78b4"/>
     <use xlink:href="#mb974faac6b" x="420.813223" y="315.609917" style="fill: #1f78b4; stroke: #1f78b4"/>
     <use xlink:href="#mb974faac6b" x="39.986777" y="219.032113" style="fill: #1f78b4; stroke: #1f78b4"/>
     <use xlink:href="#mb974faac6b" x="297.64215" y="29.990083" style="fill: #1f78b4; stroke: #1f78b4"/>
    </g>
   </g>
  </g>
 </g>
 <defs>
  <clipPath id="p7c3497f264">
   <rect x="0" y="0" width="460.8" height="345.6"/>
  </clipPath>
 </defs>
</svg>
