<?xml version="1.0" encoding="utf-8" standalone="no"?>
<!DOCTYPE svg PUBLIC "-//W3C//DTD SVG 1.1//EN"
  "http://www.w3.org/Graphics/SVG/1.1/DTD/svg11.dtd">
<svg xmlns:xlink="http://www.w3.org/1999/xlink" width="460.8pt" height="345.6pt" viewBox="0 0 460.8 345.6" xmlns="http://www.w3.org/2000/svg" version="1.1">
 <metadata>
  <rdf:RDF xmlns:dc="http://purl.org/dc/elements/1.1/" xmlns:cc="http://creativecommons.org/ns#" xmlns:rdf="http://www.w3.org/1999/02/22-rdf-syntax-ns#">
   <cc:Work>
    <dc:type rdf:resource="http://purl.org/dc/dcmitype/StillImage"/>
    <dc:date>2023-04-25T12:20:10.634657</dc:date>
    <dc:format>image/svg+xml</dc:format>
    <dc:creator>
     <cc:Agent>
      <dc:title>Matplotlib v3.7.1, https://matplotlib.org/</dc:title>
     </cc:Agent>
    </dc:creator>
   </cc:Work>
  </rdf:RDF>
 </metadata>
 <defs>
  <style type="text/css">*{stroke-linejoin: round; stroke-linecap: butt}</style>
 </defs>
 <g id="figure_1">
  <g id="patch_1">
   <path d="M 0 345.6 
L 460.8 345.6 
L 460.8 0 
L 0 0 
z
" style="fill: #ffffff"/>
  </g>
  <g id="axes_1">
   <g id="patch_2">
    <path d="M 227.093036 33.12507 
Q 137.57547 67.883388 49.10013 102.237026 
" clip-path="url(#p74bfc4c204)" style="fill: none; stroke: #000000; stroke-linecap: round"/>
    <path d="M 53.552823 102.653587 
L 49.10013 102.237026 
L 52.104994 98.924808 
z
" clip-path="url(#p74bfc4c204)" style="stroke: #000000; stroke-linecap: round"/>
   </g>
   <g id="patch_3">
    <path d="M 243.820984 30.279533 
Q 327.989252 33.094708 411.040111 35.872508 
" clip-path="url(#p74bfc4c204)" style="fill: none; stroke: #000000; stroke-linecap: round"/>
    <path d="M 407.109204 33.739913 
L 411.040111 35.872508 
L 406.97549 37.737677 
z
" clip-path="url(#p74bfc4c204)" style="stroke: #000000; stroke-linecap: round"/>
   </g>
   <g id="patch_4">
    <path d="M 43.642208 113.623258 
Q 88.856541 210.691569 133.598796 306.7464 
" clip-path="url(#p74bfc4c204)" style="fill: none; stroke: #000000; stroke-linecap: round"/>
    <path d="M 133.722806 302.275984 
L 133.598796 306.7464 
L 130.096869 303.964942 
z
" clip-path="url(#p74bfc4c204)" style="stroke: #000000; stroke-linecap: round"/>
   </g>
   <g id="patch_5">
    <path d="M 140.524104 307.412119 
Q 186.446893 172.800882 232.008692 39.247797 
" clip-path="url(#p74bfc4c204)" style="fill: none; stroke: #000000; stroke-linecap: round"/>
    <path d="M 228.824295 42.387799 
L 232.008692 39.247797 
L 232.610056 43.679316 
z
" clip-path="url(#p74bfc4c204)" style="stroke: #000000; stroke-linecap: round"/>
   </g>
   <g id="PathCollection_1">
    <defs>
     <path id="mcdb746042b" d="M 0 8.660254 
C 2.296726 8.660254 4.499694 7.747755 6.123724 6.123724 
C 7.747755 4.499694 8.660254 2.296726 8.660254 0 
C 8.660254 -2.296726 7.747755 -4.499694 6.123724 -6.123724 
C 4.499694 -7.747755 2.296726 -8.660254 0 -8.660254 
C -2.296726 -8.660254 -4.499694 -7.747755 -6.123724 -6.123724 
C -7.747755 -4.499694 -8.660254 -2.296726 -8.660254 0 
C -8.660254 2.296726 -7.747755 4.499694 -6.123724 6.123724 
C -4.499694 7.747755 -2.296726 8.660254 0 8.660254 
z
" style="stroke: #1f78b4"/>
    </defs>
    <g clip-path="url(#p74bfc4c204)">
     <use xlink:href="#mcdb746042b" x="235.166973" y="29.990083" style="fill: #1f78b4; stroke: #1f78b4"/>
     <use xlink:href="#mcdb746042b" x="39.986777" y="105.775603" style="fill: #1f78b4; stroke: #1f78b4"/>
     <use xlink:href="#mcdb746042b" x="420.813223" y="36.199389" style="fill: #1f78b4; stroke: #1f78b4"/>
     <use xlink:href="#mcdb746042b" x="137.727415" y="315.609917" style="fill: #1f78b4; stroke: #1f78b4"/>
    </g>
   </g>
  </g>
 </g>
 <defs>
  <clipPath id="p74bfc4c204">
   <rect x="0" y="0" width="460.8" height="345.6"/>
  </clipPath>
 </defs>
</svg>
