<?xml version="1.0" encoding="utf-8" standalone="no"?>
<!DOCTYPE svg PUBLIC "-//W3C//DTD SVG 1.1//EN"
  "http://www.w3.org/Graphics/SVG/1.1/DTD/svg11.dtd">
<svg xmlns:xlink="http://www.w3.org/1999/xlink" width="460.8pt" height="345.6pt" viewBox="0 0 460.8 345.6" xmlns="http://www.w3.org/2000/svg" version="1.1">
 <metadata>
  <rdf:RDF xmlns:dc="http://purl.org/dc/elements/1.1/" xmlns:cc="http://creativecommons.org/ns#" xmlns:rdf="http://www.w3.org/1999/02/22-rdf-syntax-ns#">
   <cc:Work>
    <dc:type rdf:resource="http://purl.org/dc/dcmitype/StillImage"/>
    <dc:date>2023-04-25T12:20:10.690118</dc:date>
    <dc:format>image/svg+xml</dc:format>
    <dc:creator>
     <cc:Agent>
      <dc:title>Matplotlib v3.7.1, https://matplotlib.org/</dc:title>
     </cc:Agent>
    </dc:creator>
   </cc:Work>
  </rdf:RDF>
 </metadata>
 <defs>
  <style type="text/css">*{stroke-linejoin: round; stroke-linecap: butt}</style>
 </defs>
 <g id="figure_1">
  <g id="patch_1">
   <path d="M 0 345.6 
L 460.8 345.6 
L 460.8 0 
L 0 0 
z
" style="fill: #ffffff"/>
  </g>
  <g id="axes_1">
   <g id="patch_2">
    <path d="M 196.384098 171.879431 
Q 265.649599 108.477325 334.090396 45.830111 
" clip-path="url(#pdea6414bdf)" style="fill: none; stroke: #000000; stroke-linecap: round"/>
    <path d="M 329.789451 47.05562 
L 334.090396 45.830111 
L 332.490236 50.006172 
z
" clip-path="url(#pdea6414bdf)" style="stroke: #000000; stroke-linecap: round"/>
   </g>
   <g id="patch_3">
    <path d="M 183.620981 183.58646 
Q 114.991683 246.668072 47.185524 308.993085 
" clip-path="url(#pdea6414bdf)" style="fill: none; stroke: #000000; stroke-linecap: round"/>
    <path d="M 51.483921 307.758666 
L 47.185524 308.993085 
L 48.777027 304.813716 
z
" clip-path="url(#pdea6414bdf)" style="stroke: #000000; stroke-linecap: round"/>
   </g>
   <g id="patch_4">
    <path d="M 349.9077 38.227936 
Q 381.060862 34.60854 411.10346 31.11817 
" clip-path="url(#pdea6414bdf)" style="fill: none; stroke: #000000; stroke-linecap: round"/>
    <path d="M 406.899377 29.59315 
L 411.10346 31.11817 
L 407.360995 33.566425 
z
" clip-path="url(#pdea6414bdf)" style="stroke: #000000; stroke-linecap: round"/>
   </g>
   <g id="patch_5">
    <path d="M 412.209056 30.989721 
Q 381.055893 34.609117 351.013295 38.099487 
" clip-path="url(#pdea6414bdf)" style="fill: none; stroke: #000000; stroke-linecap: round"/>
    <path d="M 355.217378 39.624507 
L 351.013295 38.099487 
L 354.755761 35.651232 
z
" clip-path="url(#pdea6414bdf)" style="stroke: #000000; stroke-linecap: round"/>
   </g>
   <g id="PathCollection_1">
    <defs>
     <path id="md810201856" d="M 0 8.660254 
C 2.296726 8.660254 4.499694 7.747755 6.123724 6.123724 
C 7.747755 4.499694 8.660254 2.296726 8.660254 0 
C 8.660254 -2.296726 7.747755 -4.499694 6.123724 -6.123724 
C 4.499694 -7.747755 2.296726 -8.660254 0 -8.660254 
C -2.296726 -8.660254 -4.499694 -7.747755 -6.123724 -6.123724 
C -7.747755 -4.499694 -8.660254 -2.296726 -8.660254 0 
C -8.660254 2.296726 -7.747755 4.499694 -6.123724 6.123724 
C -4.499694 7.747755 -2.296726 8.660254 0 8.660254 
z
" style="stroke: #1f78b4"/>
    </defs>
    <g clip-path="url(#pdea6414bdf)">
     <use xlink:href="#md810201856" x="189.99572" y="177.727026" style="fill: #1f78b4; stroke: #1f78b4"/>
     <use xlink:href="#md810201856" x="341.303532" y="39.227574" style="fill: #1f78b4; stroke: #1f78b4"/>
     <use xlink:href="#md810201856" x="39.986777" y="315.609917" style="fill: #1f78b4; stroke: #1f78b4"/>
     <use xlink:href="#md810201856" x="420.813223" y="29.990083" style="fill: #1f78b4; stroke: #1f78b4"/>
    </g>
   </g>
  </g>
 </g>
 <defs>
  <clipPath id="pdea6414bdf">
   <rect x="0" y="0" width="460.8" height="345.6"/>
  </clipPath>
 </defs>
</svg>
