<?xml version="1.0" encoding="utf-8" standalone="no"?>
<!DOCTYPE svg PUBLIC "-//W3C//DTD SVG 1.1//EN"
  "http://www.w3.org/Graphics/SVG/1.1/DTD/svg11.dtd">
<svg xmlns:xlink="http://www.w3.org/1999/xlink" width="460.8pt" height="345.6pt" viewBox="0 0 460.8 345.6" xmlns="http://www.w3.org/2000/svg" version="1.1">
 <metadata>
  <rdf:RDF xmlns:dc="http://purl.org/dc/elements/1.1/" xmlns:cc="http://creativecommons.org/ns#" xmlns:rdf="http://www.w3.org/1999/02/22-rdf-syntax-ns#">
   <cc:Work>
    <dc:type rdf:resource="http://purl.org/dc/dcmitype/StillImage"/>
    <dc:date>2023-04-25T12:20:10.740389</dc:date>
    <dc:format>image/svg+xml</dc:format>
    <dc:creator>
     <cc:Agent>
      <dc:title>Matplotlib v3.7.1, https://matplotlib.org/</dc:title>
     </cc:Agent>
    </dc:creator>
   </cc:Work>
  </rdf:RDF>
 </metadata>
 <defs>
  <style type="text/css">*{stroke-linejoin: round; stroke-linecap: butt}</style>
 </defs>
 <g id="figure_1">
  <g id="patch_1">
   <path d="M 0 345.6 
L 460.8 345.6 
L 460.8 0 
L 0 0 
z
" style="fill: #ffffff"/>
  </g>
  <g id="axes_1">
   <g id="patch_2">
    <path d="M 211.663855 280.844653 
Q 311.966896 297.517243 411.167035 314.006507 
" clip-path="url(#p52d0bc9a77)" style="fill: none; stroke: #000000; stroke-linecap: round"/>
    <path d="M 407.54912 311.377688 
L 411.167035 314.006507 
L 406.89323 315.323547 
z
" clip-path="url(#p52d0bc9a77)" style="stroke: #000000; stroke-linecap: round"/>
   </g>
   <g id="patch_3">
    <path d="M 198.381758 272.174535 
Q 121.554053 154.705689 45.33831 38.172527 
" clip-path="url(#p52d0bc9a77)" style="fill: none; stroke: #000000; stroke-linecap: round"/>
    <path d="M 45.853928 42.614839 
L 45.33831 38.172527 
L 49.201531 40.425419 
z
" clip-path="url(#p52d0bc9a77)" style="stroke: #000000; stroke-linecap: round"/>
   </g>
   <g id="patch_4">
    <path d="M 415.299356 308.935499 
Q 334.241686 210.816921 253.896089 113.560291 
" clip-path="url(#p52d0bc9a77)" style="fill: none; stroke: #000000; stroke-linecap: round"/>
    <path d="M 254.901776 117.917882 
L 253.896089 113.560291 
L 257.985573 115.370296 
z
" clip-path="url(#p52d0bc9a77)" style="stroke: #000000; stroke-linecap: round"/>
   </g>
   <g id="patch_5">
    <path d="M 239.532009 103.041706 
Q 143.825748 68.004548 49.169378 33.351746 
" clip-path="url(#p52d0bc9a77)" style="fill: none; stroke: #000000; stroke-linecap: round"/>
    <path d="M 52.238027 36.604959 
L 49.169378 33.351746 
L 53.613138 32.848755 
z
" clip-path="url(#p52d0bc9a77)" style="stroke: #000000; stroke-linecap: round"/>
   </g>
   <g id="PathCollection_1">
    <defs>
     <path id="m6fcb6bef47" d="M 0 8.660254 
C 2.296726 8.660254 4.499694 7.747755 6.123724 6.123724 
C 7.747755 4.499694 8.660254 2.296726 8.660254 0 
C 8.660254 -2.296726 7.747755 -4.499694 6.123724 -6.123724 
C 4.499694 -7.747755 2.296726 -8.660254 0 -8.660254 
C -2.296726 -8.660254 -4.499694 -7.747755 -6.123724 -6.123724 
C -7.747755 -4.499694 -8.660254 -2.296726 -8.660254 0 
C -8.660254 2.296726 -7.747755 4.499694 -6.123724 6.123724 
C -4.499694 7.747755 -2.296726 8.660254 0 8.660254 
z
" style="stroke: #1f78b4"/>
    </defs>
    <g clip-path="url(#p52d0bc9a77)">
     <use xlink:href="#m6fcb6bef47" x="203.123824" y="279.425111" style="fill: #1f78b4; stroke: #1f78b4"/>
     <use xlink:href="#m6fcb6bef47" x="420.813223" y="315.609917" style="fill: #1f78b4; stroke: #1f78b4"/>
     <use xlink:href="#m6fcb6bef47" x="39.986777" y="29.990083" style="fill: #1f78b4; stroke: #1f78b4"/>
     <use xlink:href="#m6fcb6bef47" x="247.666688" y="106.019735" style="fill: #1f78b4; stroke: #1f78b4"/>
    </g>
   </g>
  </g>
 </g>
 <defs>
  <clipPath id="p52d0bc9a77">
   <rect x="0" y="0" width="460.8" height="345.6"/>
  </clipPath>
 </defs>
</svg>
