<?xml version="1.0" encoding="utf-8" standalone="no"?>
<!DOCTYPE svg PUBLIC "-//W3C//DTD SVG 1.1//EN"
  "http://www.w3.org/Graphics/SVG/1.1/DTD/svg11.dtd">
<svg xmlns:xlink="http://www.w3.org/1999/xlink" width="460.8pt" height="345.6pt" viewBox="0 0 460.8 345.6" xmlns="http://www.w3.org/2000/svg" version="1.1">
 <metadata>
  <rdf:RDF xmlns:dc="http://purl.org/dc/elements/1.1/" xmlns:cc="http://creativecommons.org/ns#" xmlns:rdf="http://www.w3.org/1999/02/22-rdf-syntax-ns#">
   <cc:Work>
    <dc:type rdf:resource="http://purl.org/dc/dcmitype/StillImage"/>
    <dc:date>2023-04-25T12:20:10.788927</dc:date>
    <dc:format>image/svg+xml</dc:format>
    <dc:creator>
     <cc:Agent>
      <dc:title>Matplotlib v3.7.1, https://matplotlib.org/</dc:title>
     </cc:Agent>
    </dc:creator>
   </cc:Work>
  </rdf:RDF>
 </metadata>
 <defs>
  <style type="text/css">*{stroke-linejoin: round; stroke-linecap: butt}</style>
 </defs>
 <g id="figure_1">
  <g id="patch_1">
   <path d="M 0 345.6 
L 460.8 345.6 
L 460.8 0 
L 0 0 
z
" style="fill: #ffffff"/>
  </g>
  <g id="axes_1">
   <g id="patch_2">
    <path d="M 241.021819 168.750869 
Q 327.563715 239.440903 413.239728 309.423658 
" clip-path="url(#p6110c00513)" style="fill: none; stroke: #000000; stroke-linecap: round"/>
    <path d="M 411.407069 305.344276 
L 413.239728 309.423658 
L 408.876627 308.442156 
z
" clip-path="url(#p6110c00513)" style="stroke: #000000; stroke-linecap: round"/>
   </g>
   <g id="patch_3">
    <path d="M 227.171218 158.372808 
Q 137.150685 96.631131 48.052164 35.521827 
" clip-path="url(#p6110c00513)" style="fill: none; stroke: #000000; stroke-linecap: round"/>
    <path d="M 50.219629 39.433616 
L 48.052164 35.521827 
L 52.482075 36.134928 
z
" clip-path="url(#p6110c00513)" style="stroke: #000000; stroke-linecap: round"/>
   </g>
   <g id="patch_4">
    <path d="M 233.420165 187.11128 
Q 323.546744 248.912623 412.75125 310.081684 
" clip-path="url(#p6110c00513)" style="fill: none; stroke: #000000; stroke-linecap: round"/>
    <path d="M 410.583399 306.170108 
L 412.75125 310.081684 
L 408.321279 309.469019 
z
" clip-path="url(#p6110c00513)" style="stroke: #000000; stroke-linecap: round"/>
   </g>
   <g id="patch_5">
    <path d="M 219.569649 176.732552 
Q 133.130869 106.100871 47.557845 36.176626 
" clip-path="url(#p6110c00513)" style="fill: none; stroke: #000000; stroke-linecap: round"/>
    <path d="M 49.389772 40.256337 
L 47.557845 36.176626 
L 51.92077 37.158911 
z
" clip-path="url(#p6110c00513)" style="stroke: #000000; stroke-linecap: round"/>
   </g>
   <g id="PathCollection_1">
    <defs>
     <path id="mdddc475474" d="M 0 8.660254 
C 2.296726 8.660254 4.499694 7.747755 6.123724 6.123724 
C 7.747755 4.499694 8.660254 2.296726 8.660254 0 
C 8.660254 -2.296726 7.747755 -4.499694 6.123724 -6.123724 
C 4.499694 -7.747755 2.296726 -8.660254 0 -8.660254 
C -2.296726 -8.660254 -4.499694 -7.747755 -6.123724 -6.123724 
C -7.747755 -4.499694 -8.660254 -2.296726 -8.660254 0 
C -8.660254 2.296726 -7.747755 4.499694 -6.123724 6.123724 
C -4.499694 7.747755 -2.296726 8.660254 0 8.660254 
z
" style="stroke: #1f78b4"/>
    </defs>
    <g clip-path="url(#p6110c00513)">
     <use xlink:href="#mdddc475474" x="234.314395" y="163.272042" style="fill: #1f78b4; stroke: #1f78b4"/>
     <use xlink:href="#mdddc475474" x="420.813223" y="315.609917" style="fill: #1f78b4; stroke: #1f78b4"/>
     <use xlink:href="#mdddc475474" x="39.986777" y="29.990083" style="fill: #1f78b4; stroke: #1f78b4"/>
     <use xlink:href="#mdddc475474" x="226.27519" y="182.211848" style="fill: #1f78b4; stroke: #1f78b4"/>
    </g>
   </g>
  </g>
 </g>
 <defs>
  <clipPath id="p6110c00513">
   <rect x="0" y="0" width="460.8" height="345.6"/>
  </clipPath>
 </defs>
</svg>
