<?xml version="1.0" encoding="utf-8" standalone="no"?>
<!DOCTYPE svg PUBLIC "-//W3C//DTD SVG 1.1//EN"
  "http://www.w3.org/Graphics/SVG/1.1/DTD/svg11.dtd">
<svg xmlns:xlink="http://www.w3.org/1999/xlink" width="460.8pt" height="345.6pt" viewBox="0 0 460.8 345.6" xmlns="http://www.w3.org/2000/svg" version="1.1">
 <metadata>
  <rdf:RDF xmlns:dc="http://purl.org/dc/elements/1.1/" xmlns:cc="http://creativecommons.org/ns#" xmlns:rdf="http://www.w3.org/1999/02/22-rdf-syntax-ns#">
   <cc:Work>
    <dc:type rdf:resource="http://purl.org/dc/dcmitype/StillImage"/>
    <dc:date>2023-04-25T12:20:10.837574</dc:date>
    <dc:format>image/svg+xml</dc:format>
    <dc:creator>
     <cc:Agent>
      <dc:title>Matplotlib v3.7.1, https://matplotlib.org/</dc:title>
     </cc:Agent>
    </dc:creator>
   </cc:Work>
  </rdf:RDF>
 </metadata>
 <defs>
  <style type="text/css">*{stroke-linejoin: round; stroke-linecap: butt}</style>
 </defs>
 <g id="figure_1">
  <g id="patch_1">
   <path d="M 0 345.6 
L 460.8 345.6 
L 460.8 0 
L 0 0 
z
" style="fill: #ffffff"/>
  </g>
  <g id="axes_1">
   <g id="patch_2">
    <path d="M 153.113798 145.458402 
Q 99.579736 90.816389 46.828105 36.973 
" clip-path="url(#pf8f19d4448)" style="fill: none; stroke: #000000; stroke-linecap: round"/>
    <path d="M 48.198793 41.229902 
L 46.828105 36.973 
L 51.056039 38.430591 
z
" clip-path="url(#pf8f19d4448)" style="stroke: #000000; stroke-linecap: round"/>
   </g>
   <g id="patch_3">
    <path d="M 46.04842 36.177178 
Q 99.582482 90.819192 152.334113 144.662581 
" clip-path="url(#pf8f19d4448)" style="fill: none; stroke: #000000; stroke-linecap: round"/>
    <path d="M 150.963425 140.405679 
L 152.334113 144.662581 
L 148.106178 143.20499 
z
" clip-path="url(#pf8f19d4448)" style="stroke: #000000; stroke-linecap: round"/>
   </g>
   <g id="patch_4">
    <path d="M 92.230691 307.651378 
Q 123.995636 233.627378 155.319691 160.630811 
" clip-path="url(#pf8f19d4448)" style="fill: none; stroke: #000000; stroke-linecap: round"/>
    <path d="M 151.904394 163.517979 
L 155.319691 160.630811 
L 155.580248 165.09535 
z
" clip-path="url(#pf8f19d4448)" style="stroke: #000000; stroke-linecap: round"/>
   </g>
   <g id="patch_5">
    <path d="M 412.209869 181.368402 
Q 289.991877 167.011962 168.884285 152.785955 
" clip-path="url(#pf8f19d4448)" style="fill: none; stroke: #000000; stroke-linecap: round"/>
    <path d="M 172.623643 155.238953 
L 168.884285 152.785955 
L 173.090298 151.266267 
z
" clip-path="url(#pf8f19d4448)" style="stroke: #000000; stroke-linecap: round"/>
   </g>
   <g id="PathCollection_1">
    <defs>
     <path id="ma510d64261" d="M 0 8.660254 
C 2.296726 8.660254 4.499694 7.747755 6.123724 6.123724 
C 7.747755 4.499694 8.660254 2.296726 8.660254 0 
C 8.660254 -2.296726 7.747755 -4.499694 6.123724 -6.123724 
C 4.499694 -7.747755 2.296726 -8.660254 0 -8.660254 
C -2.296726 -8.660254 -4.499694 -7.747755 -6.123724 -6.123724 
C -7.747755 -4.499694 -8.660254 -2.296726 -8.660254 0 
C -8.660254 2.296726 -7.747755 4.499694 -6.123724 6.123724 
C -4.499694 7.747755 -2.296726 8.660254 0 8.660254 
z
" style="stroke: #1f78b4"/>
    </defs>
    <g clip-path="url(#pf8f19d4448)">
     <use xlink:href="#ma510d64261" x="159.17544" y="151.645498" style="fill: #1f78b4; stroke: #1f78b4"/>
     <use xlink:href="#ma510d64261" x="39.986777" y="29.990083" style="fill: #1f78b4; stroke: #1f78b4"/>
     <use xlink:href="#ma510d64261" x="88.815548" y="315.609917" style="fill: #1f78b4; stroke: #1f78b4"/>
     <use xlink:href="#ma510d64261" x="420.813223" y="182.379003" style="fill: #1f78b4; stroke: #1f78b4"/>
    </g>
   </g>
  </g>
 </g>
 <defs>
  <clipPath id="pf8f19d4448">
   <rect x="0" y="0" width="460.8" height="345.6"/>
  </clipPath>
 </defs>
</svg>
