<?xml version="1.0" encoding="utf-8" standalone="no"?>
<!DOCTYPE svg PUBLIC "-//W3C//DTD SVG 1.1//EN"
  "http://www.w3.org/Graphics/SVG/1.1/DTD/svg11.dtd">
<svg xmlns:xlink="http://www.w3.org/1999/xlink" width="460.8pt" height="345.6pt" viewBox="0 0 460.8 345.6" xmlns="http://www.w3.org/2000/svg" version="1.1">
 <metadata>
  <rdf:RDF xmlns:dc="http://purl.org/dc/elements/1.1/" xmlns:cc="http://creativecommons.org/ns#" xmlns:rdf="http://www.w3.org/1999/02/22-rdf-syntax-ns#">
   <cc:Work>
    <dc:type rdf:resource="http://purl.org/dc/dcmitype/StillImage"/>
    <dc:date>2023-04-25T12:20:10.888069</dc:date>
    <dc:format>image/svg+xml</dc:format>
    <dc:creator>
     <cc:Agent>
      <dc:title>Matplotlib v3.7.1, https://matplotlib.org/</dc:title>
     </cc:Agent>
    </dc:creator>
   </cc:Work>
  </rdf:RDF>
 </metadata>
 <defs>
  <style type="text/css">*{stroke-linejoin: round; stroke-linecap: butt}</style>
 </defs>
 <g id="figure_1">
  <g id="patch_1">
   <path d="M 0 345.6 
L 460.8 345.6 
L 460.8 0 
L 0 0 
z
" style="fill: #ffffff"/>
  </g>
  <g id="axes_1">
   <g id="patch_2">
    <path d="M 406.694712 306.958865 
Q 413.533474 172.799998 420.315317 39.757715 
" clip-path="url(#pd7910e6e4c)" style="fill: none; stroke: #000000; stroke-linecap: round"/>
    <path d="M 418.114275 43.65071 
L 420.315317 39.757715 
L 422.109088 43.854346 
z
" clip-path="url(#pd7910e6e4c)" style="stroke: #000000; stroke-linecap: round"/>
   </g>
   <g id="patch_3">
    <path d="M 420.372235 38.641135 
Q 413.533473 172.800002 406.75163 305.842285 
" clip-path="url(#pd7910e6e4c)" style="fill: none; stroke: #000000; stroke-linecap: round"/>
    <path d="M 408.952673 301.94929 
L 406.75163 305.842285 
L 404.957859 301.745654 
z
" clip-path="url(#pd7910e6e4c)" style="stroke: #000000; stroke-linecap: round"/>
   </g>
   <g id="patch_4">
    <path d="M 47.584737 119.368963 
Q 223.119701 215.410578 397.673843 310.91555 
" clip-path="url(#pd7910e6e4c)" style="fill: none; stroke: #000000; stroke-linecap: round"/>
    <path d="M 395.124723 307.241045 
L 397.673843 310.91555 
L 393.204767 310.750143 
z
" clip-path="url(#pd7910e6e4c)" style="stroke: #000000; stroke-linecap: round"/>
   </g>
   <g id="patch_5">
    <path d="M 142.960205 273.809707 
Q 278.631684 154.756226 413.462804 36.440171 
" clip-path="url(#pd7910e6e4c)" style="fill: none; stroke: #000000; stroke-linecap: round"/>
    <path d="M 409.137097 37.575186 
L 413.462804 36.440171 
L 411.775392 40.581745 
z
" clip-path="url(#pd7910e6e4c)" style="stroke: #000000; stroke-linecap: round"/>
   </g>
   <g id="PathCollection_1">
    <defs>
     <path id="maf31dbbd86" d="M 0 8.660254 
C 2.296726 8.660254 4.499694 7.747755 6.123724 6.123724 
C 7.747755 4.499694 8.660254 2.296726 8.660254 0 
C 8.660254 -2.296726 7.747755 -4.499694 6.123724 -6.123724 
C 4.499694 -7.747755 2.296726 -8.660254 0 -8.660254 
C -2.296726 -8.660254 -4.499694 -7.747755 -6.123724 -6.123724 
C -7.747755 -4.499694 -8.660254 -2.296726 -8.660254 0 
C -8.660254 2.296726 -7.747755 4.499694 -6.123724 6.123724 
C -4.499694 7.747755 -2.296726 8.660254 0 8.660254 
z
" style="stroke: #1f78b4"/>
    </defs>
    <g clip-path="url(#pd7910e6e4c)">
     <use xlink:href="#maf31dbbd86" x="406.253724" y="315.609917" style="fill: #1f78b4; stroke: #1f78b4"/>
     <use xlink:href="#maf31dbbd86" x="420.813223" y="29.990083" style="fill: #1f78b4; stroke: #1f78b4"/>
     <use xlink:href="#maf31dbbd86" x="39.986777" y="115.21184" style="fill: #1f78b4; stroke: #1f78b4"/>
     <use xlink:href="#maf31dbbd86" x="136.449466" y="279.522965" style="fill: #1f78b4; stroke: #1f78b4"/>
    </g>
   </g>
  </g>
 </g>
 <defs>
  <clipPath id="pd7910e6e4c">
   <rect x="0" y="0" width="460.8" height="345.6"/>
  </clipPath>
 </defs>
</svg>
