<?xml version="1.0" encoding="utf-8" standalone="no"?>
<!DOCTYPE svg PUBLIC "-//W3C//DTD SVG 1.1//EN"
  "http://www.w3.org/Graphics/SVG/1.1/DTD/svg11.dtd">
<svg xmlns:xlink="http://www.w3.org/1999/xlink" width="460.8pt" height="345.6pt" viewBox="0 0 460.8 345.6" xmlns="http://www.w3.org/2000/svg" version="1.1">
 <metadata>
  <rdf:RDF xmlns:dc="http://purl.org/dc/elements/1.1/" xmlns:cc="http://creativecommons.org/ns#" xmlns:rdf="http://www.w3.org/1999/02/22-rdf-syntax-ns#">
   <cc:Work>
    <dc:type rdf:resource="http://purl.org/dc/dcmitype/StillImage"/>
    <dc:date>2023-04-25T12:20:11.089314</dc:date>
    <dc:format>image/svg+xml</dc:format>
    <dc:creator>
     <cc:Agent>
      <dc:title>Matplotlib v3.7.1, https://matplotlib.org/</dc:title>
     </cc:Agent>
    </dc:creator>
   </cc:Work>
  </rdf:RDF>
 </metadata>
 <defs>
  <style type="text/css">*{stroke-linejoin: round; stroke-linecap: butt}</style>
 </defs>
 <g id="figure_1">
  <g id="patch_1">
   <path d="M 0 345.6 
L 460.8 345.6 
L 460.8 0 
L 0 0 
z
" style="fill: #ffffff"/>
  </g>
  <g id="axes_1">
   <g id="patch_2">
    <path d="M 256.824203 33.813241 
Q 152.291531 85.250698 48.76202 136.194529 
" clip-path="url(#pe2e478e276)" style="fill: none; stroke: #000000; stroke-linecap: round"/>
    <path d="M 53.234065 136.222988 
L 48.76202 136.194529 
L 51.468014 132.633968 
z
" clip-path="url(#pe2e478e276)" style="stroke: #000000; stroke-linecap: round"/>
   </g>
   <g id="patch_3">
    <path d="M 45.743973 146.980932 
Q 117.908565 228.059784 189.329832 308.30349 
" clip-path="url(#pe2e478e276)" style="fill: none; stroke: #000000; stroke-linecap: round"/>
    <path d="M 188.164386 303.985883 
L 189.329832 308.30349 
L 185.176478 306.645283 
z
" clip-path="url(#pe2e478e276)" style="stroke: #000000; stroke-linecap: round"/>
   </g>
   <g id="patch_4">
    <path d="M 203.608528 311.794017 
Q 308.324882 260.403994 412.037551 209.506533 
" clip-path="url(#pe2e478e276)" style="fill: none; stroke: #000000; stroke-linecap: round"/>
    <path d="M 407.565538 209.473333 
L 412.037551 209.506533 
L 409.327784 213.064223 
z
" clip-path="url(#pe2e478e276)" style="stroke: #000000; stroke-linecap: round"/>
   </g>
   <g id="patch_5">
    <path d="M 415.051771 198.73801 
Q 342.705139 117.59682 271.102558 37.290128 
" clip-path="url(#pe2e478e276)" style="fill: none; stroke: #000000; stroke-linecap: round"/>
    <path d="M 272.271758 41.60672 
L 271.102558 37.290128 
L 275.257352 38.944723 
z
" clip-path="url(#pe2e478e276)" style="stroke: #000000; stroke-linecap: round"/>
   </g>
   <g id="PathCollection_1">
    <defs>
     <path id="md810f0d210" d="M 0 8.660254 
C 2.296726 8.660254 4.499694 7.747755 6.123724 6.123724 
C 7.747755 4.499694 8.660254 2.296726 8.660254 0 
C 8.660254 -2.296726 7.747755 -4.499694 6.123724 -6.123724 
C 4.499694 -7.747755 2.296726 -8.660254 0 -8.660254 
C -2.296726 -8.660254 -4.499694 -7.747755 -6.123724 -6.123724 
C -7.747755 -4.499694 -8.660254 -2.296726 -8.660254 0 
C -8.660254 2.296726 -7.747755 4.499694 -6.123724 6.123724 
C -4.499694 7.747755 -2.296726 8.660254 0 8.660254 
z
" style="stroke: #1f78b4"/>
    </defs>
    <g clip-path="url(#pe2e478e276)">
     <use xlink:href="#md810f0d210" x="264.593734" y="29.990083" style="fill: #1f78b4; stroke: #1f78b4"/>
     <use xlink:href="#md810f0d210" x="39.986777" y="140.512568" style="fill: #1f78b4; stroke: #1f78b4"/>
     <use xlink:href="#md810f0d210" x="195.83295" y="315.609917" style="fill: #1f78b4; stroke: #1f78b4"/>
     <use xlink:href="#md810f0d210" x="420.813223" y="205.199832" style="fill: #1f78b4; stroke: #1f78b4"/>
    </g>
   </g>
  </g>
 </g>
 <defs>
  <clipPath id="pe2e478e276">
   <rect x="0" y="0" width="460.8" height="345.6"/>
  </clipPath>
 </defs>
</svg>
