<?xml version="1.0" encoding="utf-8" standalone="no"?>
<!DOCTYPE svg PUBLIC "-//W3C//DTD SVG 1.1//EN"
  "http://www.w3.org/Graphics/SVG/1.1/DTD/svg11.dtd">
<svg xmlns:xlink="http://www.w3.org/1999/xlink" width="460.8pt" height="345.6pt" viewBox="0 0 460.8 345.6" xmlns="http://www.w3.org/2000/svg" version="1.1">
 <metadata>
  <rdf:RDF xmlns:dc="http://purl.org/dc/elements/1.1/" xmlns:cc="http://creativecommons.org/ns#" xmlns:rdf="http://www.w3.org/1999/02/22-rdf-syntax-ns#">
   <cc:Work>
    <dc:type rdf:resource="http://purl.org/dc/dcmitype/StillImage"/>
    <dc:date>2023-04-25T12:20:09.867186</dc:date>
    <dc:format>image/svg+xml</dc:format>
    <dc:creator>
     <cc:Agent>
      <dc:title>Matplotlib v3.7.1, https://matplotlib.org/</dc:title>
     </cc:Agent>
    </dc:creator>
   </cc:Work>
  </rdf:RDF>
 </metadata>
 <defs>
  <style type="text/css">*{stroke-linejoin: round; stroke-linecap: butt}</style>
 </defs>
 <g id="figure_1">
  <g id="patch_1">
   <path d="M 0 345.6 
L 460.8 345.6 
L 460.8 0 
L 0 0 
z
" style="fill: #ffffff"/>
  </g>
  <g id="axes_1">
   <g id="patch_2">
    <path d="M 287.144321 215.358267 
Q 230.455547 172.841679 174.661199 130.99591 
" clip-path="url(#p06dfd64690)" style="fill: none; stroke: #000000; stroke-linecap: round"/>
    <path d="M 176.661199 134.995911 
L 174.661199 130.99591 
L 179.061199 131.795911 
z
" clip-path="url(#p06dfd64690)" style="stroke: #000000; stroke-linecap: round"/>
   </g>
   <g id="patch_3">
    <path d="M 301.0025 225.751901 
Q 357.443486 268.082628 412.990045 309.742535 
" clip-path="url(#p06dfd64690)" style="fill: none; stroke: #000000; stroke-linecap: round"/>
    <path d="M 410.990044 305.742535 
L 412.990045 309.742535 
L 408.590045 308.942536 
z
" clip-path="url(#p06dfd64690)" style="stroke: #000000; stroke-linecap: round"/>
   </g>
   <g id="patch_4">
    <path d="M 173.769848 130.327397 
Q 230.458623 172.843986 286.25297 214.689754 
" clip-path="url(#p06dfd64690)" style="fill: none; stroke: #000000; stroke-linecap: round"/>
    <path d="M 284.25297 210.689754 
L 286.25297 214.689754 
L 281.85297 213.889753 
z
" clip-path="url(#p06dfd64690)" style="stroke: #000000; stroke-linecap: round"/>
   </g>
   <g id="patch_5">
    <path d="M 159.913172 119.934888 
Q 103.414035 77.560531 47.809325 35.856994 
" clip-path="url(#p06dfd64690)" style="fill: none; stroke: #000000; stroke-linecap: round"/>
    <path d="M 49.809325 39.856994 
L 47.809325 35.856994 
L 52.209325 36.656994 
z
" clip-path="url(#p06dfd64690)" style="stroke: #000000; stroke-linecap: round"/>
   </g>
   <g id="PathCollection_1">
    <defs>
     <path id="m577f5bff02" d="M 0 8.660254 
C 2.296726 8.660254 4.499694 7.747755 6.123724 6.123724 
C 7.747755 4.499694 8.660254 2.296726 8.660254 0 
C 8.660254 -2.296726 7.747755 -4.499694 6.123724 -6.123724 
C 4.499694 -7.747755 2.296726 -8.660254 0 -8.660254 
C -2.296726 -8.660254 -4.499694 -7.747755 -6.123724 -6.123724 
C -7.747755 -4.499694 -8.660254 -2.296726 -8.660254 0 
C -8.660254 2.296726 -7.747755 4.499694 -6.123724 6.123724 
C -4.499694 7.747755 -2.296726 8.660254 0 8.660254 
z
" style="stroke: #1f78b4"/>
    </defs>
    <g clip-path="url(#p06dfd64690)">
     <use xlink:href="#m577f5bff02" x="294.075393" y="220.556572" style="fill: #1f78b4; stroke: #1f78b4"/>
     <use xlink:href="#m577f5bff02" x="166.838777" y="125.129092" style="fill: #1f78b4; stroke: #1f78b4"/>
     <use xlink:href="#m577f5bff02" x="420.813223" y="315.609917" style="fill: #1f78b4; stroke: #1f78b4"/>
     <use xlink:href="#m577f5bff02" x="39.986777" y="29.990083" style="fill: #1f78b4; stroke: #1f78b4"/>
    </g>
   </g>
  </g>
 </g>
 <defs>
  <clipPath id="p06dfd64690">
   <rect x="0" y="0" width="460.8" height="345.6"/>
  </clipPath>
 </defs>
</svg>
