<?xml version="1.0" encoding="utf-8" standalone="no"?>
<!DOCTYPE svg PUBLIC "-//W3C//DTD SVG 1.1//EN"
  "http://www.w3.org/Graphics/SVG/1.1/DTD/svg11.dtd">
<svg xmlns:xlink="http://www.w3.org/1999/xlink" width="460.8pt" height="345.6pt" viewBox="0 0 460.8 345.6" xmlns="http://www.w3.org/2000/svg" version="1.1">
 <metadata>
  <rdf:RDF xmlns:dc="http://purl.org/dc/elements/1.1/" xmlns:cc="http://creativecommons.org/ns#" xmlns:rdf="http://www.w3.org/1999/02/22-rdf-syntax-ns#">
   <cc:Work>
    <dc:type rdf:resource="http://purl.org/dc/dcmitype/StillImage"/>
    <dc:date>2023-04-25T12:20:10.016971</dc:date>
    <dc:format>image/svg+xml</dc:format>
    <dc:creator>
     <cc:Agent>
      <dc:title>Matplotlib v3.7.1, https://matplotlib.org/</dc:title>
     </cc:Agent>
    </dc:creator>
   </cc:Work>
  </rdf:RDF>
 </metadata>
 <defs>
  <style type="text/css">*{stroke-linejoin: round; stroke-linecap: butt}</style>
 </defs>
 <g id="figure_1">
  <g id="patch_1">
   <path d="M 0 345.6 
L 460.8 345.6 
L 460.8 0 
L 0 0 
z
" style="fill: #ffffff"/>
  </g>
  <g id="axes_1">
   <g id="patch_2">
    <path d="M 138.115119 105.090701 
Q 92.490291 70.172627 47.753315 35.934051 
" clip-path="url(#p2e048d5736)" style="fill: none; stroke: #000000; stroke-linecap: round"/>
    <path d="M 49.714262 39.953341 
L 47.753315 35.934051 
L 52.145315 36.776867 
z
" clip-path="url(#p2e048d5736)" style="stroke: #000000; stroke-linecap: round"/>
   </g>
   <g id="patch_3">
    <path d="M 151.884791 115.605275 
Q 205.068059 156.124511 257.361998 195.966184 
" clip-path="url(#p2e048d5736)" style="fill: none; stroke: #000000; stroke-linecap: round"/>
    <path d="M 255.392293 191.951179 
L 257.361998 195.966184 
L 252.968171 195.132945 
z
" clip-path="url(#p2e048d5736)" style="stroke: #000000; stroke-linecap: round"/>
   </g>
   <g id="patch_4">
    <path d="M 46.867073 35.255784 
Q 92.491901 70.173858 137.228878 104.412434 
" clip-path="url(#p2e048d5736)" style="fill: none; stroke: #000000; stroke-linecap: round"/>
    <path d="M 135.26793 100.393144 
L 137.228878 104.412434 
L 132.836878 103.569618 
z
" clip-path="url(#p2e048d5736)" style="stroke: #000000; stroke-linecap: round"/>
   </g>
   <g id="patch_5">
    <path d="M 272.130436 206.998521 
Q 342.974599 258.749525 412.915951 309.841033 
" clip-path="url(#p2e048d5736)" style="fill: none; stroke: #000000; stroke-linecap: round"/>
    <path d="M 410.865698 305.866557 
L 412.915951 309.841033 
L 408.506218 309.09655 
z
" clip-path="url(#p2e048d5736)" style="stroke: #000000; stroke-linecap: round"/>
   </g>
   <g id="PathCollection_1">
    <defs>
     <path id="mb8660b5dab" d="M 0 8.660254 
C 2.296726 8.660254 4.499694 7.747755 6.123724 6.123724 
C 7.747755 4.499694 8.660254 2.296726 8.660254 0 
C 8.660254 -2.296726 7.747755 -4.499694 6.123724 -6.123724 
C 4.499694 -7.747755 2.296726 -8.660254 0 -8.660254 
C -2.296726 -8.660254 -4.499694 -7.747755 -6.123724 -6.123724 
C -7.747755 -4.499694 -8.660254 -2.296726 -8.660254 0 
C -8.660254 2.296726 -7.747755 4.499694 -6.123724 6.123724 
C -4.499694 7.747755 -2.296726 8.660254 0 8.660254 
z
" style="stroke: #1f78b4"/>
    </defs>
    <g clip-path="url(#p2e048d5736)">
     <use xlink:href="#mb8660b5dab" x="144.995415" y="110.356402" style="fill: #1f78b4; stroke: #1f78b4"/>
     <use xlink:href="#mb8660b5dab" x="39.986777" y="29.990083" style="fill: #1f78b4; stroke: #1f78b4"/>
     <use xlink:href="#mb8660b5dab" x="265.139663" y="201.891827" style="fill: #1f78b4; stroke: #1f78b4"/>
     <use xlink:href="#mb8660b5dab" x="420.813223" y="315.609917" style="fill: #1f78b4; stroke: #1f78b4"/>
    </g>
   </g>
  </g>
 </g>
 <defs>
  <clipPath id="p2e048d5736">
   <rect x="0" y="0" width="460.8" height="345.6"/>
  </clipPath>
 </defs>
</svg>
