<?xml version="1.0" encoding="utf-8" standalone="no"?>
<!DOCTYPE svg PUBLIC "-//W3C//DTD SVG 1.1//EN"
  "http://www.w3.org/Graphics/SVG/1.1/DTD/svg11.dtd">
<svg xmlns:xlink="http://www.w3.org/1999/xlink" width="460.8pt" height="345.6pt" viewBox="0 0 460.8 345.6" xmlns="http://www.w3.org/2000/svg" version="1.1">
 <metadata>
  <rdf:RDF xmlns:dc="http://purl.org/dc/elements/1.1/" xmlns:cc="http://creativecommons.org/ns#" xmlns:rdf="http://www.w3.org/1999/02/22-rdf-syntax-ns#">
   <cc:Work>
    <dc:type rdf:resource="http://purl.org/dc/dcmitype/StillImage"/>
    <dc:date>2023-04-25T12:20:10.065834</dc:date>
    <dc:format>image/svg+xml</dc:format>
    <dc:creator>
     <cc:Agent>
      <dc:title>Matplotlib v3.7.1, https://matplotlib.org/</dc:title>
     </cc:Agent>
    </dc:creator>
   </cc:Work>
  </rdf:RDF>
 </metadata>
 <defs>
  <style type="text/css">*{stroke-linejoin: round; stroke-linecap: butt}</style>
 </defs>
 <g id="figure_1">
  <g id="patch_1">
   <path d="M 0 345.6 
L 460.8 345.6 
L 460.8 0 
L 0 0 
z
" style="fill: #ffffff"/>
  </g>
  <g id="axes_1">
   <g id="patch_2">
    <path d="M 243.314412 32.917057 
Q 327.989004 63.327317 411.611365 93.359677 
" clip-path="url(#p0618244289)" style="fill: none; stroke: #000000; stroke-linecap: round"/>
    <path d="M 408.522798 90.125368 
L 411.611365 93.359677 
L 407.170778 93.889945 
z
" clip-path="url(#p0618244289)" style="stroke: #000000; stroke-linecap: round"/>
   </g>
   <g id="patch_3">
    <path d="M 227.072816 33.069249 
Q 137.576343 67.125671 49.124804 100.784461 
" clip-path="url(#p0618244289)" style="fill: none; stroke: #000000; stroke-linecap: round"/>
    <path d="M 53.574583 101.231083 
L 49.124804 100.784461 
L 52.151968 97.492611 
z
" clip-path="url(#p0618244289)" style="stroke: #000000; stroke-linecap: round"/>
   </g>
   <g id="patch_4">
    <path d="M 412.663331 93.737482 
Q 327.988739 63.327222 244.366378 33.294863 
" clip-path="url(#p0618244289)" style="fill: none; stroke: #000000; stroke-linecap: round"/>
    <path d="M 247.454945 36.529171 
L 244.366378 33.294863 
L 248.806965 32.764594 
z
" clip-path="url(#p0618244289)" style="stroke: #000000; stroke-linecap: round"/>
   </g>
   <g id="patch_5">
    <path d="M 237.968276 306.950149 
Q 236.610228 172.79973 235.263498 39.767287 
" clip-path="url(#p0618244289)" style="fill: none; stroke: #000000; stroke-linecap: round"/>
    <path d="M 233.304092 43.787328 
L 235.263498 39.767287 
L 237.303887 43.746837 
z
" clip-path="url(#p0618244289)" style="stroke: #000000; stroke-linecap: round"/>
   </g>
   <g id="PathCollection_1">
    <defs>
     <path id="mad0cff5f1e" d="M 0 8.660254 
C 2.296726 8.660254 4.499694 7.747755 6.123724 6.123724 
C 7.747755 4.499694 8.660254 2.296726 8.660254 0 
C 8.660254 -2.296726 7.747755 -4.499694 6.123724 -6.123724 
C 4.499694 -7.747755 2.296726 -8.660254 0 -8.660254 
C -2.296726 -8.660254 -4.499694 -7.747755 -6.123724 -6.123724 
C -7.747755 -4.499694 -8.660254 -2.296726 -8.660254 0 
C -8.660254 2.296726 -7.747755 4.499694 -6.123724 6.123724 
C -4.499694 7.747755 -2.296726 8.660254 0 8.660254 
z
" style="stroke: #1f78b4"/>
    </defs>
    <g clip-path="url(#p0618244289)">
     <use xlink:href="#mad0cff5f1e" x="235.16452" y="29.990083" style="fill: #1f78b4; stroke: #1f78b4"/>
     <use xlink:href="#mad0cff5f1e" x="420.813223" y="96.664457" style="fill: #1f78b4; stroke: #1f78b4"/>
     <use xlink:href="#mad0cff5f1e" x="39.986777" y="104.261788" style="fill: #1f78b4; stroke: #1f78b4"/>
     <use xlink:href="#mad0cff5f1e" x="238.055941" y="315.609917" style="fill: #1f78b4; stroke: #1f78b4"/>
    </g>
   </g>
  </g>
 </g>
 <defs>
  <clipPath id="p0618244289">
   <rect x="0" y="0" width="460.8" height="345.6"/>
  </clipPath>
 </defs>
</svg>
