<?xml version="1.0" encoding="utf-8" standalone="no"?>
<!DOCTYPE svg PUBLIC "-//W3C//DTD SVG 1.1//EN"
  "http://www.w3.org/Graphics/SVG/1.1/DTD/svg11.dtd">
<svg xmlns:xlink="http://www.w3.org/1999/xlink" width="460.8pt" height="345.6pt" viewBox="0 0 460.8 345.6" xmlns="http://www.w3.org/2000/svg" version="1.1">
 <metadata>
  <rdf:RDF xmlns:dc="http://purl.org/dc/elements/1.1/" xmlns:cc="http://creativecommons.org/ns#" xmlns:rdf="http://www.w3.org/1999/02/22-rdf-syntax-ns#">
   <cc:Work>
    <dc:type rdf:resource="http://purl.org/dc/dcmitype/StillImage"/>
    <dc:date>2023-04-25T12:20:10.114579</dc:date>
    <dc:format>image/svg+xml</dc:format>
    <dc:creator>
     <cc:Agent>
      <dc:title>Matplotlib v3.7.1, https://matplotlib.org/</dc:title>
     </cc:Agent>
    </dc:creator>
   </cc:Work>
  </rdf:RDF>
 </metadata>
 <defs>
  <style type="text/css">*{stroke-linejoin: round; stroke-linecap: butt}</style>
 </defs>
 <g id="figure_1">
  <g id="patch_1">
   <path d="M 0 345.6 
L 460.8 345.6 
L 460.8 0 
L 0 0 
z
" style="fill: #ffffff"/>
  </g>
  <g id="axes_1">
   <g id="patch_2">
    <path d="M 236.421594 148.40676 
Q 156.469547 184.35239 77.537216 219.839566 
" clip-path="url(#p62fc132e32)" style="fill: none; stroke: #000000; stroke-linecap: round"/>
    <path d="M 82.005569 220.023475 
L 77.537216 219.839566 
L 80.365355 216.375229 
z
" clip-path="url(#p62fc132e32)" style="stroke: #000000; stroke-linecap: round"/>
   </g>
   <g id="patch_3">
    <path d="M 251.580321 140.131043 
Q 332.567365 87.422671 412.617353 35.324158 
" clip-path="url(#p62fc132e32)" style="fill: none; stroke: #000000; stroke-linecap: round"/>
    <path d="M 408.173894 35.829799 
L 412.617353 35.324158 
L 410.355791 39.18231 
z
" clip-path="url(#p62fc132e32)" style="stroke: #000000; stroke-linecap: round"/>
   </g>
   <g id="patch_4">
    <path d="M 76.519445 220.297146 
Q 156.471492 184.351516 235.403822 148.86434 
" clip-path="url(#p62fc132e32)" style="fill: none; stroke: #000000; stroke-linecap: round"/>
    <path d="M 230.935469 148.680432 
L 235.403822 148.86434 
L 232.575684 152.328677 
z
" clip-path="url(#p62fc132e32)" style="stroke: #000000; stroke-linecap: round"/>
   </g>
   <g id="patch_5">
    <path d="M 42.567017 307.340602 
Q 54.302799 269.729029 65.705561 233.184742 
" clip-path="url(#p62fc132e32)" style="fill: none; stroke: #000000; stroke-linecap: round"/>
    <path d="M 62.604893 236.407452 
L 65.705561 233.184742 
L 66.423328 237.598902 
z
" clip-path="url(#p62fc132e32)" style="stroke: #000000; stroke-linecap: round"/>
   </g>
   <g id="PathCollection_1">
    <defs>
     <path id="m6b1a05a1f1" d="M 0 8.660254 
C 2.296726 8.660254 4.499694 7.747755 6.123724 6.123724 
C 7.747755 4.499694 8.660254 2.296726 8.660254 0 
C 8.660254 -2.296726 7.747755 -4.499694 6.123724 -6.123724 
C 4.499694 -7.747755 2.296726 -8.660254 0 -8.660254 
C -2.296726 -8.660254 -4.499694 -7.747755 -6.123724 -6.123724 
C -7.747755 -4.499694 -8.660254 -2.296726 -8.660254 0 
C -8.660254 2.296726 -7.747755 4.499694 -6.123724 6.123724 
C -4.499694 7.747755 -2.296726 8.660254 0 8.660254 
z
" style="stroke: #1f78b4"/>
    </defs>
    <g clip-path="url(#p62fc132e32)">
     <use xlink:href="#m6b1a05a1f1" x="244.322597" y="144.854549" style="fill: #1f78b4; stroke: #1f78b4"/>
     <use xlink:href="#m6b1a05a1f1" x="68.618442" y="223.849357" style="fill: #1f78b4; stroke: #1f78b4"/>
     <use xlink:href="#m6b1a05a1f1" x="420.813223" y="29.990083" style="fill: #1f78b4; stroke: #1f78b4"/>
     <use xlink:href="#m6b1a05a1f1" x="39.986777" y="315.609917" style="fill: #1f78b4; stroke: #1f78b4"/>
    </g>
   </g>
  </g>
 </g>
 <defs>
  <clipPath id="p62fc132e32">
   <rect x="0" y="0" width="460.8" height="345.6"/>
  </clipPath>
 </defs>
</svg>
