<?xml version="1.0" encoding="utf-8" standalone="no"?>
<!DOCTYPE svg PUBLIC "-//W3C//DTD SVG 1.1//EN"
  "http://www.w3.org/Graphics/SVG/1.1/DTD/svg11.dtd">
<svg xmlns:xlink="http://www.w3.org/1999/xlink" width="460.8pt" height="345.6pt" viewBox="0 0 460.8 345.6" xmlns="http://www.w3.org/2000/svg" version="1.1">
 <metadata>
  <rdf:RDF xmlns:dc="http://purl.org/dc/elements/1.1/" xmlns:cc="http://creativecommons.org/ns#" xmlns:rdf="http://www.w3.org/1999/02/22-rdf-syntax-ns#">
   <cc:Work>
    <dc:type rdf:resource="http://purl.org/dc/dcmitype/StillImage"/>
    <dc:date>2023-04-25T12:20:10.207989</dc:date>
    <dc:format>image/svg+xml</dc:format>
    <dc:creator>
     <cc:Agent>
      <dc:title>Matplotlib v3.7.1, https://matplotlib.org/</dc:title>
     </cc:Agent>
    </dc:creator>
   </cc:Work>
  </rdf:RDF>
 </metadata>
 <defs>
  <style type="text/css">*{stroke-linejoin: round; stroke-linecap: butt}</style>
 </defs>
 <g id="figure_1">
  <g id="patch_1">
   <path d="M 0 345.6 
L 460.8 345.6 
L 460.8 0 
L 0 0 
z
" style="fill: #ffffff"/>
  </g>
  <g id="axes_1">
   <g id="patch_2">
    <path d="M 263.150267 170.147044 
Q 338.278099 124.678564 412.449433 79.788971 
" clip-path="url(#p192a5fb63d)" style="fill: none; stroke: #000000; stroke-linecap: round"/>
    <path d="M 407.991815 80.149024 
L 412.449433 79.788971 
L 410.062905 83.571098 
z
" clip-path="url(#p192a5fb63d)" style="stroke: #000000; stroke-linecap: round"/>
   </g>
   <g id="patch_3">
    <path d="M 248.489884 179.369356 
Q 147.863655 245.120769 48.173369 310.260616 
" clip-path="url(#p192a5fb63d)" style="fill: none; stroke: #000000; stroke-linecap: round"/>
    <path d="M 52.615899 309.746878 
L 48.173369 310.260616 
L 50.427896 306.398349 
z
" clip-path="url(#p192a5fb63d)" style="stroke: #000000; stroke-linecap: round"/>
   </g>
   <g id="patch_4">
    <path d="M 413.405495 79.210349 
Q 338.277662 124.678828 264.106328 169.568421 
" clip-path="url(#p192a5fb63d)" style="fill: none; stroke: #000000; stroke-linecap: round"/>
    <path d="M 268.563947 169.208368 
L 264.106328 169.568421 
L 266.492857 165.786294 
z
" clip-path="url(#p192a5fb63d)" style="stroke: #000000; stroke-linecap: round"/>
   </g>
   <g id="patch_5">
    <path d="M 69.805646 38.597553 
Q 55.359629 172.798665 41.033271 305.888164 
" clip-path="url(#p192a5fb63d)" style="fill: none; stroke: #000000; stroke-linecap: round"/>
    <path d="M 43.449888 302.125192 
L 41.033271 305.888164 
L 39.472863 301.697087 
z
" clip-path="url(#p192a5fb63d)" style="stroke: #000000; stroke-linecap: round"/>
   </g>
   <g id="PathCollection_1">
    <defs>
     <path id="mba64a1dbdd" d="M 0 8.660254 
C 2.296726 8.660254 4.499694 7.747755 6.123724 6.123724 
C 7.747755 4.499694 8.660254 2.296726 8.660254 0 
C 8.660254 -2.296726 7.747755 -4.499694 6.123724 -6.123724 
C 4.499694 -7.747755 2.296726 -8.660254 0 -8.660254 
C -2.296726 -8.660254 -4.499694 -7.747755 -6.123724 -6.123724 
C -7.747755 -4.499694 -8.660254 -2.296726 -8.660254 0 
C -8.660254 2.296726 -7.747755 4.499694 -6.123724 6.123724 
C -4.499694 7.747755 -2.296726 8.660254 0 8.660254 
z
" style="stroke: #1f78b4"/>
    </defs>
    <g clip-path="url(#p192a5fb63d)">
     <use xlink:href="#mba64a1dbdd" x="255.742538" y="174.630311" style="fill: #1f78b4; stroke: #1f78b4"/>
     <use xlink:href="#mba64a1dbdd" x="420.813223" y="74.727082" style="fill: #1f78b4; stroke: #1f78b4"/>
     <use xlink:href="#mba64a1dbdd" x="39.986777" y="315.609917" style="fill: #1f78b4; stroke: #1f78b4"/>
     <use xlink:href="#mba64a1dbdd" x="70.732193" y="29.990083" style="fill: #1f78b4; stroke: #1f78b4"/>
    </g>
   </g>
  </g>
 </g>
 <defs>
  <clipPath id="p192a5fb63d">
   <rect x="0" y="0" width="460.8" height="345.6"/>
  </clipPath>
 </defs>
</svg>
