<?xml version="1.0" encoding="utf-8" standalone="no"?>
<!DOCTYPE svg PUBLIC "-//W3C//DTD SVG 1.1//EN"
  "http://www.w3.org/Graphics/SVG/1.1/DTD/svg11.dtd">
<svg xmlns:xlink="http://www.w3.org/1999/xlink" width="460.8pt" height="345.6pt" viewBox="0 0 460.8 345.6" xmlns="http://www.w3.org/2000/svg" version="1.1">
 <metadata>
  <rdf:RDF xmlns:dc="http://purl.org/dc/elements/1.1/" xmlns:cc="http://creativecommons.org/ns#" xmlns:rdf="http://www.w3.org/1999/02/22-rdf-syntax-ns#">
   <cc:Work>
    <dc:type rdf:resource="http://purl.org/dc/dcmitype/StillImage"/>
    <dc:date>2023-04-25T12:20:12.049037</dc:date>
    <dc:format>image/svg+xml</dc:format>
    <dc:creator>
     <cc:Agent>
      <dc:title>Matplotlib v3.7.1, https://matplotlib.org/</dc:title>
     </cc:Agent>
    </dc:creator>
   </cc:Work>
  </rdf:RDF>
 </metadata>
 <defs>
  <style type="text/css">*{stroke-linejoin: round; stroke-linecap: butt}</style>
 </defs>
 <g id="figure_1">
  <g id="patch_1">
   <path d="M 0 345.6 
L 460.8 345.6 
L 460.8 0 
L 0 0 
z
" style="fill: #ffffff"/>
  </g>
  <g id="axes_1">
   <g id="patch_2">
    <path d="M 420.371216 134.453238 
Q 416.606526 208.099502 412.898913 280.629191 
" clip-path="url(#p7f089b1f4a)" style="fill: none; stroke: #000000; stroke-linecap: round"/>
    <path d="M 415.100512 276.736511 
L 412.898913 280.629191 
L 411.105728 276.532303 
z
" clip-path="url(#p7f089b1f4a)" style="stroke: #000000; stroke-linecap: round"/>
   </g>
   <g id="patch_3">
    <path d="M 412.457827 123.52502 
Q 245.363122 77.898265 79.346965 32.566017 
" clip-path="url(#p7f089b1f4a)" style="fill: none; stroke: #000000; stroke-linecap: round"/>
    <path d="M 82.678864 35.549044 
L 79.346965 32.566017 
L 83.732526 31.690314 
z
" clip-path="url(#p7f089b1f4a)" style="stroke: #000000; stroke-linecap: round"/>
   </g>
   <g id="patch_4">
    <path d="M 412.841824 281.745979 
Q 416.606515 208.099714 420.314128 135.570025 
" clip-path="url(#p7f089b1f4a)" style="fill: none; stroke: #000000; stroke-linecap: round"/>
    <path d="M 418.112528 139.462705 
L 420.314128 135.570025 
L 422.107312 139.666913 
z
" clip-path="url(#p7f089b1f4a)" style="stroke: #000000; stroke-linecap: round"/>
   </g>
   <g id="patch_5">
    <path d="M 405.504205 285.149739 
Q 241.156298 160.191161 77.698387 35.909272 
" clip-path="url(#p7f089b1f4a)" style="fill: none; stroke: #000000; stroke-linecap: round"/>
    <path d="M 79.672031 39.922342 
L 77.698387 35.909272 
L 82.093029 36.738199 
z
" clip-path="url(#p7f089b1f4a)" style="stroke: #000000; stroke-linecap: round"/>
   </g>
   <g id="patch_6">
    <path d="M 40.889561 306.993731 
Q 54.950397 172.796842 68.894727 39.711899 
" clip-path="url(#p7f089b1f4a)" style="fill: none; stroke: #000000; stroke-linecap: round"/>
    <path d="M 66.488786 43.481707 
L 68.894727 39.711899 
L 70.467009 43.898536 
z
" clip-path="url(#p7f089b1f4a)" style="stroke: #000000; stroke-linecap: round"/>
   </g>
   <g id="PathCollection_1">
    <defs>
     <path id="mab09042f56" d="M 0 8.660254 
C 2.296726 8.660254 4.499694 7.747755 6.123724 6.123724 
C 7.747755 4.499694 8.660254 2.296726 8.660254 0 
C 8.660254 -2.296726 7.747755 -4.499694 6.123724 -6.123724 
C 4.499694 -7.747755 2.296726 -8.660254 0 -8.660254 
C -2.296726 -8.660254 -4.499694 -7.747755 -6.123724 -6.123724 
C -7.747755 -4.499694 -8.660254 -2.296726 -8.660254 0 
C -8.660254 2.296726 -7.747755 4.499694 -6.123724 6.123724 
C -4.499694 7.747755 -2.296726 8.660254 0 8.660254 
z
" style="stroke: #1f78b4"/>
    </defs>
    <g clip-path="url(#p7f089b1f4a)">
     <use xlink:href="#mab09042f56" x="420.813223" y="125.806538" style="fill: #1f78b4; stroke: #1f78b4"/>
     <use xlink:href="#mab09042f56" x="412.399817" y="290.392678" style="fill: #1f78b4; stroke: #1f78b4"/>
     <use xlink:href="#mab09042f56" x="69.913356" y="29.990083" style="fill: #1f78b4; stroke: #1f78b4"/>
     <use xlink:href="#mab09042f56" x="39.986777" y="315.609917" style="fill: #1f78b4; stroke: #1f78b4"/>
    </g>
   </g>
  </g>
 </g>
 <defs>
  <clipPath id="p7f089b1f4a">
   <rect x="0" y="0" width="460.8" height="345.6"/>
  </clipPath>
 </defs>
</svg>
