<?xml version="1.0" encoding="utf-8" standalone="no"?>
<!DOCTYPE svg PUBLIC "-//W3C//DTD SVG 1.1//EN"
  "http://www.w3.org/Graphics/SVG/1.1/DTD/svg11.dtd">
<svg xmlns:xlink="http://www.w3.org/1999/xlink" width="460.8pt" height="345.6pt" viewBox="0 0 460.8 345.6" xmlns="http://www.w3.org/2000/svg" version="1.1">
 <metadata>
  <rdf:RDF xmlns:dc="http://purl.org/dc/elements/1.1/" xmlns:cc="http://creativecommons.org/ns#" xmlns:rdf="http://www.w3.org/1999/02/22-rdf-syntax-ns#">
   <cc:Work>
    <dc:type rdf:resource="http://purl.org/dc/dcmitype/StillImage"/>
    <dc:date>2023-04-25T12:20:12.102460</dc:date>
    <dc:format>image/svg+xml</dc:format>
    <dc:creator>
     <cc:Agent>
      <dc:title>Matplotlib v3.7.1, https://matplotlib.org/</dc:title>
     </cc:Agent>
    </dc:creator>
   </cc:Work>
  </rdf:RDF>
 </metadata>
 <defs>
  <style type="text/css">*{stroke-linejoin: round; stroke-linecap: butt}</style>
 </defs>
 <g id="figure_1">
  <g id="patch_1">
   <path d="M 0 345.6 
L 460.8 345.6 
L 460.8 0 
L 0 0 
z
" style="fill: #ffffff"/>
  </g>
  <g id="axes_1">
   <g id="patch_2">
    <path d="M 157.316467 117.959273 
Q 217.348952 162.984981 276.487018 207.339855 
" clip-path="url(#pd6b7b3fb24)" style="fill: none; stroke: #000000; stroke-linecap: round"/>
    <path d="M 274.487076 203.339827 
L 276.487018 207.339855 
L 272.08703 206.539792 
z
" clip-path="url(#pd6b7b3fb24)" style="stroke: #000000; stroke-linecap: round"/>
   </g>
   <g id="patch_3">
    <path d="M 143.456775 107.566121 
Q 95.187301 71.376359 47.812364 35.857272 
" clip-path="url(#pd6b7b3fb24)" style="fill: none; stroke: #000000; stroke-linecap: round"/>
    <path d="M 49.813019 39.856944 
L 47.812364 35.857272 
L 52.212495 36.656551 
z
" clip-path="url(#pd6b7b3fb24)" style="stroke: #000000; stroke-linecap: round"/>
   </g>
   <g id="patch_4">
    <path d="M 277.377496 208.007734 
Q 217.345012 162.982026 158.206945 118.627152 
" clip-path="url(#pd6b7b3fb24)" style="fill: none; stroke: #000000; stroke-linecap: round"/>
    <path d="M 160.206888 122.627181 
L 158.206945 118.627152 
L 162.606934 119.427215 
z
" clip-path="url(#pd6b7b3fb24)" style="stroke: #000000; stroke-linecap: round"/>
   </g>
   <g id="patch_5">
    <path d="M 291.232561 218.400467 
Q 352.560738 264.407937 412.994567 309.74448 
" clip-path="url(#pd6b7b3fb24)" style="fill: none; stroke: #000000; stroke-linecap: round"/>
    <path d="M 410.99504 305.744243 
L 412.994567 309.74448 
L 408.594662 308.943959 
z
" clip-path="url(#pd6b7b3fb24)" style="stroke: #000000; stroke-linecap: round"/>
   </g>
   <g id="patch_6">
    <path d="M 46.917121 35.186068 
Q 95.186595 71.37583 142.561532 106.894918 
" clip-path="url(#pd6b7b3fb24)" style="fill: none; stroke: #000000; stroke-linecap: round"/>
    <path d="M 140.560877 102.895245 
L 142.561532 106.894918 
L 138.161401 106.095638 
z
" clip-path="url(#pd6b7b3fb24)" style="stroke: #000000; stroke-linecap: round"/>
   </g>
   <g id="PathCollection_1">
    <defs>
     <path id="mbabb7f79fd" d="M 0 8.660254 
C 2.296726 8.660254 4.499694 7.747755 6.123724 6.123724 
C 7.747755 4.499694 8.660254 2.296726 8.660254 0 
C 8.660254 -2.296726 7.747755 -4.499694 6.123724 -6.123724 
C 4.499694 -7.747755 2.296726 -8.660254 0 -8.660254 
C -2.296726 -8.660254 -4.499694 -7.747755 -6.123724 -6.123724 
C -7.747755 -4.499694 -8.660254 -2.296726 -8.660254 0 
C -8.660254 2.296726 -7.747755 4.499694 -6.123724 6.123724 
C -4.499694 7.747755 -2.296726 8.660254 0 8.660254 
z
" style="stroke: #1f78b4"/>
    </defs>
    <g clip-path="url(#pd6b7b3fb24)">
     <use xlink:href="#mbabb7f79fd" x="150.387119" y="112.762107" style="fill: #1f78b4; stroke: #1f78b4"/>
     <use xlink:href="#mbabb7f79fd" x="284.306845" y="213.2049" style="fill: #1f78b4; stroke: #1f78b4"/>
     <use xlink:href="#mbabb7f79fd" x="39.986777" y="29.990083" style="fill: #1f78b4; stroke: #1f78b4"/>
     <use xlink:href="#mbabb7f79fd" x="420.813223" y="315.609917" style="fill: #1f78b4; stroke: #1f78b4"/>
    </g>
   </g>
  </g>
 </g>
 <defs>
  <clipPath id="pd6b7b3fb24">
   <rect x="0" y="0" width="460.8" height="345.6"/>
  </clipPath>
 </defs>
</svg>
