<?xml version="1.0" encoding="utf-8" standalone="no"?>
<!DOCTYPE svg PUBLIC "-//W3C//DTD SVG 1.1//EN"
  "http://www.w3.org/Graphics/SVG/1.1/DTD/svg11.dtd">
<svg xmlns:xlink="http://www.w3.org/1999/xlink" width="460.8pt" height="345.6pt" viewBox="0 0 460.8 345.6" xmlns="http://www.w3.org/2000/svg" version="1.1">
 <metadata>
  <rdf:RDF xmlns:dc="http://purl.org/dc/elements/1.1/" xmlns:cc="http://creativecommons.org/ns#" xmlns:rdf="http://www.w3.org/1999/02/22-rdf-syntax-ns#">
   <cc:Work>
    <dc:type rdf:resource="http://purl.org/dc/dcmitype/StillImage"/>
    <dc:date>2023-04-25T12:20:12.152162</dc:date>
    <dc:format>image/svg+xml</dc:format>
    <dc:creator>
     <cc:Agent>
      <dc:title>Matplotlib v3.7.1, https://matplotlib.org/</dc:title>
     </cc:Agent>
    </dc:creator>
   </cc:Work>
  </rdf:RDF>
 </metadata>
 <defs>
  <style type="text/css">*{stroke-linejoin: round; stroke-linecap: butt}</style>
 </defs>
 <g id="figure_1">
  <g id="patch_1">
   <path d="M 0 345.6 
L 460.8 345.6 
L 460.8 0 
L 0 0 
z
" style="fill: #ffffff"/>
  </g>
  <g id="axes_1">
   <g id="patch_2">
    <path d="M 370.971668 168.746379 
Q 278.577682 167.105032 187.301553 165.483544 
" clip-path="url(#pa8a7ce62df)" style="fill: none; stroke: #000000; stroke-linecap: round"/>
    <path d="M 191.265399 167.554276 
L 187.301553 165.483544 
L 191.336446 163.554907 
z
" clip-path="url(#pa8a7ce62df)" style="stroke: #000000; stroke-linecap: round"/>
   </g>
   <g id="patch_3">
    <path d="M 381.96953 177.241229 
Q 400.220779 242.255679 418.169848 306.193706 
" clip-path="url(#pa8a7ce62df)" style="fill: none; stroke: #000000; stroke-linecap: round"/>
    <path d="M 419.0143 301.802021 
L 418.169848 306.193706 
L 415.163171 302.883133 
z
" clip-path="url(#pa8a7ce62df)" style="stroke: #000000; stroke-linecap: round"/>
   </g>
   <g id="patch_4">
    <path d="M 186.182538 165.463665 
Q 278.576524 167.105012 369.852653 168.7265 
" clip-path="url(#pa8a7ce62df)" style="fill: none; stroke: #000000; stroke-linecap: round"/>
    <path d="M 365.888808 166.655768 
L 369.852653 168.7265 
L 365.81776 170.655137 
z
" clip-path="url(#pa8a7ce62df)" style="stroke: #000000; stroke-linecap: round"/>
   </g>
   <g id="patch_5">
    <path d="M 171.353999 159.237264 
Q 108.756323 97.649807 46.955621 36.846462 
" clip-path="url(#pa8a7ce62df)" style="fill: none; stroke: #000000; stroke-linecap: round"/>
    <path d="M 48.4043 41.077458 
L 46.955621 36.846462 
L 51.209625 38.226117 
z
" clip-path="url(#pa8a7ce62df)" style="stroke: #000000; stroke-linecap: round"/>
   </g>
   <g id="patch_6">
    <path d="M 413.444377 311.057525 
Q 299.169726 240.459902 185.846236 170.449895 
" clip-path="url(#pa8a7ce62df)" style="fill: none; stroke: #000000; stroke-linecap: round"/>
    <path d="M 188.198051 174.253704 
L 185.846236 170.449895 
L 190.300373 170.850728 
z
" clip-path="url(#pa8a7ce62df)" style="stroke: #000000; stroke-linecap: round"/>
   </g>
   <g id="PathCollection_1">
    <defs>
     <path id="ma74e82cd55" d="M 0 8.660254 
C 2.296726 8.660254 4.499694 7.747755 6.123724 6.123724 
C 7.747755 4.499694 8.660254 2.296726 8.660254 0 
C 8.660254 -2.296726 7.747755 -4.499694 6.123724 -6.123724 
C 4.499694 -7.747755 2.296726 -8.660254 0 -8.660254 
C -2.296726 -8.660254 -4.499694 -7.747755 -6.123724 -6.123724 
C -7.747755 -4.499694 -8.660254 -2.296726 -8.660254 0 
C -8.660254 2.296726 -7.747755 4.499694 -6.123724 6.123724 
C -4.499694 7.747755 -2.296726 8.660254 0 8.660254 
z
" style="stroke: #1f78b4"/>
    </defs>
    <g clip-path="url(#pa8a7ce62df)">
     <use xlink:href="#ma74e82cd55" x="379.627973" y="168.900155" style="fill: #1f78b4; stroke: #1f78b4"/>
     <use xlink:href="#ma74e82cd55" x="177.526233" y="165.309889" style="fill: #1f78b4; stroke: #1f78b4"/>
     <use xlink:href="#ma74e82cd55" x="420.813223" y="315.609917" style="fill: #1f78b4; stroke: #1f78b4"/>
     <use xlink:href="#ma74e82cd55" x="39.986777" y="29.990083" style="fill: #1f78b4; stroke: #1f78b4"/>
    </g>
   </g>
  </g>
 </g>
 <defs>
  <clipPath id="pa8a7ce62df">
   <rect x="0" y="0" width="460.8" height="345.6"/>
  </clipPath>
 </defs>
</svg>
