<?xml version="1.0" encoding="utf-8" standalone="no"?>
<!DOCTYPE svg PUBLIC "-//W3C//DTD SVG 1.1//EN"
  "http://www.w3.org/Graphics/SVG/1.1/DTD/svg11.dtd">
<svg xmlns:xlink="http://www.w3.org/1999/xlink" width="460.8pt" height="345.6pt" viewBox="0 0 460.8 345.6" xmlns="http://www.w3.org/2000/svg" version="1.1">
 <metadata>
  <rdf:RDF xmlns:dc="http://purl.org/dc/elements/1.1/" xmlns:cc="http://creativecommons.org/ns#" xmlns:rdf="http://www.w3.org/1999/02/22-rdf-syntax-ns#">
   <cc:Work>
    <dc:type rdf:resource="http://purl.org/dc/dcmitype/StillImage"/>
    <dc:date>2023-04-25T12:20:12.310537</dc:date>
    <dc:format>image/svg+xml</dc:format>
    <dc:creator>
     <cc:Agent>
      <dc:title>Matplotlib v3.7.1, https://matplotlib.org/</dc:title>
     </cc:Agent>
    </dc:creator>
   </cc:Work>
  </rdf:RDF>
 </metadata>
 <defs>
  <style type="text/css">*{stroke-linejoin: round; stroke-linecap: butt}</style>
 </defs>
 <g id="figure_1">
  <g id="patch_1">
   <path d="M 0 345.6 
L 460.8 345.6 
L 460.8 0 
L 0 0 
z
" style="fill: #ffffff"/>
  </g>
  <g id="axes_1">
   <g id="patch_2">
    <path d="M 216.850165 110.540594 
Q 143.395957 151.987696 70.915468 192.88537 
" clip-path="url(#pe18ba5868b)" style="fill: none; stroke: #000000; stroke-linecap: round"/>
    <path d="M 75.381998 192.661516 
L 70.915468 192.88537 
L 73.416303 189.177834 
z
" clip-path="url(#pe18ba5868b)" style="stroke: #000000; stroke-linecap: round"/>
   </g>
   <g id="patch_3">
    <path d="M 232.463059 103.150099 
Q 322.601615 68.137981 411.697994 33.530671 
" clip-path="url(#pe18ba5868b)" style="fill: none; stroke: #000000; stroke-linecap: round"/>
    <path d="M 407.24525 33.114654 
L 411.697994 33.530671 
L 408.693534 36.843256 
z
" clip-path="url(#pe18ba5868b)" style="stroke: #000000; stroke-linecap: round"/>
   </g>
   <g id="patch_4">
    <path d="M 69.93933 193.436163 
Q 143.393538 151.989061 215.874026 111.091388 
" clip-path="url(#pe18ba5868b)" style="fill: none; stroke: #000000; stroke-linecap: round"/>
    <path d="M 211.407496 111.315241 
L 215.874026 111.091388 
L 213.373191 114.798924 
z
" clip-path="url(#pe18ba5868b)" style="stroke: #000000; stroke-linecap: round"/>
   </g>
   <g id="patch_5">
    <path d="M 412.741887 33.125196 
Q 322.603331 68.137314 233.506952 102.744624 
" clip-path="url(#pe18ba5868b)" style="fill: none; stroke: #000000; stroke-linecap: round"/>
    <path d="M 237.959696 103.160641 
L 233.506952 102.744624 
L 236.511412 99.432039 
z
" clip-path="url(#pe18ba5868b)" style="stroke: #000000; stroke-linecap: round"/>
   </g>
   <g id="patch_6">
    <path d="M 41.60427 307.099268 
Q 51.192265 256.650782 60.571508 207.300669 
" clip-path="url(#pe18ba5868b)" style="fill: none; stroke: #000000; stroke-linecap: round"/>
    <path d="M 57.859827 210.856901 
L 60.571508 207.300669 
L 61.789486 211.603753 
z
" clip-path="url(#pe18ba5868b)" style="stroke: #000000; stroke-linecap: round"/>
   </g>
   <g id="PathCollection_1">
    <defs>
     <path id="m7d4456789f" d="M 0 8.660254 
C 2.296726 8.660254 4.499694 7.747755 6.123724 6.123724 
C 7.747755 4.499694 8.660254 2.296726 8.660254 0 
C 8.660254 -2.296726 7.747755 -4.499694 6.123724 -6.123724 
C 4.499694 -7.747755 2.296726 -8.660254 0 -8.660254 
C -2.296726 -8.660254 -4.499694 -7.747755 -6.123724 -6.123724 
C -7.747755 -4.499694 -8.660254 -2.296726 -8.660254 0 
C -8.660254 2.296726 -7.747755 4.499694 -6.123724 6.123724 
C -4.499694 7.747755 -2.296726 8.660254 0 8.660254 
z
" style="stroke: #1f78b4"/>
    </defs>
    <g clip-path="url(#pe18ba5868b)">
     <use xlink:href="#m7d4456789f" x="224.391723" y="106.285212" style="fill: #1f78b4; stroke: #1f78b4"/>
     <use xlink:href="#m7d4456789f" x="62.397772" y="197.691546" style="fill: #1f78b4; stroke: #1f78b4"/>
     <use xlink:href="#m7d4456789f" x="420.813223" y="29.990083" style="fill: #1f78b4; stroke: #1f78b4"/>
     <use xlink:href="#m7d4456789f" x="39.986777" y="315.609917" style="fill: #1f78b4; stroke: #1f78b4"/>
    </g>
   </g>
  </g>
 </g>
 <defs>
  <clipPath id="pe18ba5868b">
   <rect x="0" y="0" width="460.8" height="345.6"/>
  </clipPath>
 </defs>
</svg>
