<?xml version="1.0" encoding="utf-8" standalone="no"?>
<!DOCTYPE svg PUBLIC "-//W3C//DTD SVG 1.1//EN"
  "http://www.w3.org/Graphics/SVG/1.1/DTD/svg11.dtd">
<svg xmlns:xlink="http://www.w3.org/1999/xlink" width="460.8pt" height="345.6pt" viewBox="0 0 460.8 345.6" xmlns="http://www.w3.org/2000/svg" version="1.1">
 <metadata>
  <rdf:RDF xmlns:dc="http://purl.org/dc/elements/1.1/" xmlns:cc="http://creativecommons.org/ns#" xmlns:rdf="http://www.w3.org/1999/02/22-rdf-syntax-ns#">
   <cc:Work>
    <dc:type rdf:resource="http://purl.org/dc/dcmitype/StillImage"/>
    <dc:date>2023-04-25T12:20:12.362825</dc:date>
    <dc:format>image/svg+xml</dc:format>
    <dc:creator>
     <cc:Agent>
      <dc:title>Matplotlib v3.7.1, https://matplotlib.org/</dc:title>
     </cc:Agent>
    </dc:creator>
   </cc:Work>
  </rdf:RDF>
 </metadata>
 <defs>
  <style type="text/css">*{stroke-linejoin: round; stroke-linecap: butt}</style>
 </defs>
 <g id="figure_1">
  <g id="patch_1">
   <path d="M 0 345.6 
L 460.8 345.6 
L 460.8 0 
L 0 0 
z
" style="fill: #ffffff"/>
  </g>
  <g id="axes_1">
   <g id="patch_2">
    <path d="M 121.976546 91.48245 
Q 84.44586 63.334416 47.8096 35.857204 
" clip-path="url(#p1d30aff632)" style="fill: none; stroke: #000000; stroke-linecap: round"/>
    <path d="M 49.809598 39.857204 
L 47.8096 35.857204 
L 52.209599 36.657205 
z
" clip-path="url(#p1d30aff632)" style="stroke: #000000; stroke-linecap: round"/>
   </g>
   <g id="patch_3">
    <path d="M 135.831721 101.873831 
Q 180.991209 135.743424 225.256269 168.942197 
" clip-path="url(#p1d30aff632)" style="fill: none; stroke: #000000; stroke-linecap: round"/>
    <path d="M 223.256268 164.942197 
L 225.256269 168.942197 
L 220.856269 168.142198 
z
" clip-path="url(#p1d30aff632)" style="stroke: #000000; stroke-linecap: round"/>
   </g>
   <g id="patch_4">
    <path d="M 46.914458 35.185847 
Q 84.445145 63.33388 121.081405 90.811093 
" clip-path="url(#p1d30aff632)" style="fill: none; stroke: #000000; stroke-linecap: round"/>
    <path d="M 119.081406 86.811093 
L 121.081405 90.811093 
L 116.681405 90.011092 
z
" clip-path="url(#p1d30aff632)" style="stroke: #000000; stroke-linecap: round"/>
   </g>
   <g id="patch_5">
    <path d="M 226.153573 169.61517 
Q 136.534384 102.400783 47.809622 35.857216 
" clip-path="url(#p1d30aff632)" style="fill: none; stroke: #000000; stroke-linecap: round"/>
    <path d="M 49.809622 39.857216 
L 47.809622 35.857216 
L 52.209622 36.657216 
z
" clip-path="url(#p1d30aff632)" style="stroke: #000000; stroke-linecap: round"/>
   </g>
   <g id="patch_6">
    <path d="M 240.009908 180.007422 
Q 326.947842 245.210877 412.99135 309.743512 
" clip-path="url(#p1d30aff632)" style="fill: none; stroke: #000000; stroke-linecap: round"/>
    <path d="M 410.99135 305.743512 
L 412.99135 309.743512 
L 408.59135 308.943512 
z
" clip-path="url(#p1d30aff632)" style="stroke: #000000; stroke-linecap: round"/>
   </g>
   <g id="PathCollection_1">
    <defs>
     <path id="m35a7794062" d="M 0 8.660254 
C 2.296726 8.660254 4.499694 7.747755 6.123724 6.123724 
C 7.747755 4.499694 8.660254 2.296726 8.660254 0 
C 8.660254 -2.296726 7.747755 -4.499694 6.123724 -6.123724 
C 4.499694 -7.747755 2.296726 -8.660254 0 -8.660254 
C -2.296726 -8.660254 -4.499694 -7.747755 -6.123724 -6.123724 
C -7.747755 -4.499694 -8.660254 -2.296726 -8.660254 0 
C -8.660254 2.296726 -7.747755 4.499694 -6.123724 6.123724 
C -4.499694 7.747755 -2.296726 8.660254 0 8.660254 
z
" style="stroke: #1f78b4"/>
    </defs>
    <g clip-path="url(#p1d30aff632)">
     <use xlink:href="#m35a7794062" x="128.904227" y="96.678214" style="fill: #1f78b4; stroke: #1f78b4"/>
     <use xlink:href="#m35a7794062" x="39.986777" y="29.990083" style="fill: #1f78b4; stroke: #1f78b4"/>
     <use xlink:href="#m35a7794062" x="233.080504" y="174.810368" style="fill: #1f78b4; stroke: #1f78b4"/>
     <use xlink:href="#m35a7794062" x="420.813223" y="315.609917" style="fill: #1f78b4; stroke: #1f78b4"/>
    </g>
   </g>
  </g>
 </g>
 <defs>
  <clipPath id="p1d30aff632">
   <rect x="0" y="0" width="460.8" height="345.6"/>
  </clipPath>
 </defs>
</svg>
