<?xml version="1.0" encoding="utf-8" standalone="no"?>
<!DOCTYPE svg PUBLIC "-//W3C//DTD SVG 1.1//EN"
  "http://www.w3.org/Graphics/SVG/1.1/DTD/svg11.dtd">
<svg xmlns:xlink="http://www.w3.org/1999/xlink" width="460.8pt" height="345.6pt" viewBox="0 0 460.8 345.6" xmlns="http://www.w3.org/2000/svg" version="1.1">
 <metadata>
  <rdf:RDF xmlns:dc="http://purl.org/dc/elements/1.1/" xmlns:cc="http://creativecommons.org/ns#" xmlns:rdf="http://www.w3.org/1999/02/22-rdf-syntax-ns#">
   <cc:Work>
    <dc:type rdf:resource="http://purl.org/dc/dcmitype/StillImage"/>
    <dc:date>2023-04-25T12:20:12.438554</dc:date>
    <dc:format>image/svg+xml</dc:format>
    <dc:creator>
     <cc:Agent>
      <dc:title>Matplotlib v3.7.1, https://matplotlib.org/</dc:title>
     </cc:Agent>
    </dc:creator>
   </cc:Work>
  </rdf:RDF>
 </metadata>
 <defs>
  <style type="text/css">*{stroke-linejoin: round; stroke-linecap: butt}</style>
 </defs>
 <g id="figure_1">
  <g id="patch_1">
   <path d="M 0 345.6 
L 460.8 345.6 
L 460.8 0 
L 0 0 
z
" style="fill: #ffffff"/>
  </g>
  <g id="axes_1">
   <g id="patch_2">
    <path d="M 120.499062 105.047489 
Q 266.456345 68.56844 411.328958 32.360482 
" clip-path="url(#p67970db1fb)" style="fill: none; stroke: #000000; stroke-linecap: round"/>
    <path d="M 406.963381 31.39005 
L 411.328958 32.360482 
L 407.933266 35.270684 
z
" clip-path="url(#p67970db1fb)" style="stroke: #000000; stroke-linecap: round"/>
   </g>
   <g id="patch_3">
    <path d="M 119.549662 111.564571 
Q 204.181167 161.75478 287.851028 211.374691 
" clip-path="url(#p67970db1fb)" style="fill: none; stroke: #000000; stroke-linecap: round"/>
    <path d="M 285.430722 207.614089 
L 287.851028 211.374691 
L 283.390363 211.054574 
z
" clip-path="url(#p67970db1fb)" style="stroke: #000000; stroke-linecap: round"/>
   </g>
   <g id="patch_4">
    <path d="M 412.414243 32.089236 
Q 266.45696 68.568286 121.584348 104.776244 
" clip-path="url(#p67970db1fb)" style="fill: none; stroke: #000000; stroke-linecap: round"/>
    <path d="M 125.949925 105.746675 
L 121.584348 104.776244 
L 124.980039 101.866041 
z
" clip-path="url(#p67970db1fb)" style="stroke: #000000; stroke-linecap: round"/>
   </g>
   <g id="patch_5">
    <path d="M 301.073041 209.165574 
Q 358.537768 123.177141 415.38128 38.118273 
" clip-path="url(#p67970db1fb)" style="fill: none; stroke: #000000; stroke-linecap: round"/>
    <path d="M 411.495898 40.332727 
L 415.38128 38.118273 
L 414.821614 42.555251 
z
" clip-path="url(#p67970db1fb)" style="stroke: #000000; stroke-linecap: round"/>
   </g>
   <g id="patch_6">
    <path d="M 42.818008 307.425469 
Q 76.042978 211.379584 108.902441 116.3903 
" clip-path="url(#p67970db1fb)" style="fill: none; stroke: #000000; stroke-linecap: round"/>
    <path d="M 105.704657 119.516668 
L 108.902441 116.3903 
L 109.484865 120.824348 
z
" clip-path="url(#p67970db1fb)" style="stroke: #000000; stroke-linecap: round"/>
   </g>
   <g id="PathCollection_1">
    <defs>
     <path id="m06ecebd26c" d="M 0 8.660254 
C 2.296726 8.660254 4.499694 7.747755 6.123724 6.123724 
C 7.747755 4.499694 8.660254 2.296726 8.660254 0 
C 8.660254 -2.296726 7.747755 -4.499694 6.123724 -6.123724 
C 4.499694 -7.747755 2.296726 -8.660254 0 -8.660254 
C -2.296726 -8.660254 -4.499694 -7.747755 -6.123724 -6.123724 
C -7.747755 -4.499694 -8.660254 -2.296726 -8.660254 0 
C -8.660254 2.296726 -7.747755 4.499694 -6.123724 6.123724 
C -4.499694 7.747755 -2.296726 8.660254 0 8.660254 
z
" style="stroke: #1f78b4"/>
    </defs>
    <g clip-path="url(#p67970db1fb)">
     <use xlink:href="#m06ecebd26c" x="112.100082" y="107.146643" style="fill: #1f78b4; stroke: #1f78b4"/>
     <use xlink:href="#m06ecebd26c" x="420.813223" y="29.990083" style="fill: #1f78b4; stroke: #1f78b4"/>
     <use xlink:href="#m06ecebd26c" x="296.262909" y="216.363307" style="fill: #1f78b4; stroke: #1f78b4"/>
     <use xlink:href="#m06ecebd26c" x="39.986777" y="315.609917" style="fill: #1f78b4; stroke: #1f78b4"/>
    </g>
   </g>
  </g>
 </g>
 <defs>
  <clipPath id="p67970db1fb">
   <rect x="0" y="0" width="460.8" height="345.6"/>
  </clipPath>
 </defs>
</svg>
