<?xml version="1.0" encoding="utf-8" standalone="no"?>
<!DOCTYPE svg PUBLIC "-//W3C//DTD SVG 1.1//EN"
  "http://www.w3.org/Graphics/SVG/1.1/DTD/svg11.dtd">
<svg xmlns:xlink="http://www.w3.org/1999/xlink" width="460.8pt" height="345.6pt" viewBox="0 0 460.8 345.6" xmlns="http://www.w3.org/2000/svg" version="1.1">
 <metadata>
  <rdf:RDF xmlns:dc="http://purl.org/dc/elements/1.1/" xmlns:cc="http://creativecommons.org/ns#" xmlns:rdf="http://www.w3.org/1999/02/22-rdf-syntax-ns#">
   <cc:Work>
    <dc:type rdf:resource="http://purl.org/dc/dcmitype/StillImage"/>
    <dc:date>2023-04-25T12:20:12.538672</dc:date>
    <dc:format>image/svg+xml</dc:format>
    <dc:creator>
     <cc:Agent>
      <dc:title>Matplotlib v3.7.1, https://matplotlib.org/</dc:title>
     </cc:Agent>
    </dc:creator>
   </cc:Work>
  </rdf:RDF>
 </metadata>
 <defs>
  <style type="text/css">*{stroke-linejoin: round; stroke-linecap: butt}</style>
 </defs>
 <g id="figure_1">
  <g id="patch_1">
   <path d="M 0 345.6 
L 460.8 345.6 
L 460.8 0 
L 0 0 
z
" style="fill: #ffffff"/>
  </g>
  <g id="axes_1">
   <g id="patch_2">
    <path d="M 279.175688 31.856269 
Q 345.764953 46.544435 411.26243 60.991776 
" clip-path="url(#p58a63e5cbb)" style="fill: none; stroke: #000000; stroke-linecap: round"/>
    <path d="M 407.787128 58.177122 
L 411.26243 60.991776 
L 406.925525 62.083225 
z
" clip-path="url(#p58a63e5cbb)" style="stroke: #000000; stroke-linecap: round"/>
   </g>
   <g id="patch_3">
    <path d="M 268.289641 38.303943 
Q 246.069036 114.465179 224.16157 189.553129 
" clip-path="url(#p58a63e5cbb)" style="fill: none; stroke: #000000; stroke-linecap: round"/>
    <path d="M 227.201844 186.273384 
L 224.16157 189.553129 
L 223.361938 185.153063 
z
" clip-path="url(#p58a63e5cbb)" style="stroke: #000000; stroke-linecap: round"/>
   </g>
   <g id="patch_4">
    <path d="M 412.352807 61.23229 
Q 345.763542 46.544124 280.266065 32.096783 
" clip-path="url(#p58a63e5cbb)" style="fill: none; stroke: #000000; stroke-linecap: round"/>
    <path d="M 283.741367 34.911437 
L 280.266065 32.096783 
L 284.60297 31.005334 
z
" clip-path="url(#p58a63e5cbb)" style="stroke: #000000; stroke-linecap: round"/>
   </g>
   <g id="patch_5">
    <path d="M 228.582331 194.06086 
Q 321.117793 131.018627 412.729273 68.605882 
" clip-path="url(#p58a63e5cbb)" style="fill: none; stroke: #000000; stroke-linecap: round"/>
    <path d="M 408.297468 69.205135 
L 412.729273 68.605882 
L 410.549592 72.510878 
z
" clip-path="url(#p58a63e5cbb)" style="stroke: #000000; stroke-linecap: round"/>
   </g>
   <g id="patch_6">
    <path d="M 47.270711 310.926023 
Q 130.705171 257.27394 213.199245 204.226568 
" clip-path="url(#p58a63e5cbb)" style="fill: none; stroke: #000000; stroke-linecap: round"/>
    <path d="M 208.753079 204.707831 
L 213.199245 204.226568 
L 210.916556 208.072258 
z
" clip-path="url(#p58a63e5cbb)" style="stroke: #000000; stroke-linecap: round"/>
   </g>
   <g id="PathCollection_1">
    <defs>
     <path id="mabe7c9db05" d="M 0 8.660254 
C 2.296726 8.660254 4.499694 7.747755 6.123724 6.123724 
C 7.747755 4.499694 8.660254 2.296726 8.660254 0 
C 8.660254 -2.296726 7.747755 -4.499694 6.123724 -6.123724 
C 4.499694 -7.747755 2.296726 -8.660254 0 -8.660254 
C -2.296726 -8.660254 -4.499694 -7.747755 -6.123724 -6.123724 
C -7.747755 -4.499694 -8.660254 -2.296726 -8.660254 0 
C -8.660254 2.296726 -7.747755 4.499694 -6.123724 6.123724 
C -4.499694 7.747755 -2.296726 8.660254 0 8.660254 
z
" style="stroke: #1f78b4"/>
    </defs>
    <g clip-path="url(#p58a63e5cbb)">
     <use xlink:href="#mabe7c9db05" x="270.715272" y="29.990083" style="fill: #1f78b4; stroke: #1f78b4"/>
     <use xlink:href="#mabe7c9db05" x="420.813223" y="63.098477" style="fill: #1f78b4; stroke: #1f78b4"/>
     <use xlink:href="#mabe7c9db05" x="221.423454" y="198.938034" style="fill: #1f78b4; stroke: #1f78b4"/>
     <use xlink:href="#mabe7c9db05" x="39.986777" y="315.609917" style="fill: #1f78b4; stroke: #1f78b4"/>
    </g>
   </g>
  </g>
 </g>
 <defs>
  <clipPath id="p58a63e5cbb">
   <rect x="0" y="0" width="460.8" height="345.6"/>
  </clipPath>
 </defs>
</svg>
