<?xml version="1.0" encoding="utf-8" standalone="no"?>
<!DOCTYPE svg PUBLIC "-//W3C//DTD SVG 1.1//EN"
  "http://www.w3.org/Graphics/SVG/1.1/DTD/svg11.dtd">
<svg xmlns:xlink="http://www.w3.org/1999/xlink" width="460.8pt" height="345.6pt" viewBox="0 0 460.8 345.6" xmlns="http://www.w3.org/2000/svg" version="1.1">
 <metadata>
  <rdf:RDF xmlns:dc="http://purl.org/dc/elements/1.1/" xmlns:cc="http://creativecommons.org/ns#" xmlns:rdf="http://www.w3.org/1999/02/22-rdf-syntax-ns#">
   <cc:Work>
    <dc:type rdf:resource="http://purl.org/dc/dcmitype/StillImage"/>
    <dc:date>2023-04-25T12:20:12.588086</dc:date>
    <dc:format>image/svg+xml</dc:format>
    <dc:creator>
     <cc:Agent>
      <dc:title>Matplotlib v3.7.1, https://matplotlib.org/</dc:title>
     </cc:Agent>
    </dc:creator>
   </cc:Work>
  </rdf:RDF>
 </metadata>
 <defs>
  <style type="text/css">*{stroke-linejoin: round; stroke-linecap: butt}</style>
 </defs>
 <g id="figure_1">
  <g id="patch_1">
   <path d="M 0 345.6 
L 460.8 345.6 
L 460.8 0 
L 0 0 
z
" style="fill: #ffffff"/>
  </g>
  <g id="axes_1">
   <g id="patch_2">
    <path d="M 278.012442 75.641835 
Q 347.163049 189.314206 415.732591 302.031399 
" clip-path="url(#pa066542e48)" style="fill: none; stroke: #000000; stroke-linecap: round"/>
    <path d="M 415.362381 297.574613 
L 415.732591 302.031399 
L 411.945036 299.653495 
z
" clip-path="url(#pa066542e48)" style="stroke: #000000; stroke-linecap: round"/>
   </g>
   <g id="patch_3">
    <path d="M 264.962046 66.840952 
Q 156.746594 49.115299 49.634472 31.570372 
" clip-path="url(#pa066542e48)" style="fill: none; stroke: #000000; stroke-linecap: round"/>
    <path d="M 53.258576 34.190651 
L 49.634472 31.570372 
L 53.905158 30.243256 
z
" clip-path="url(#pa066542e48)" style="stroke: #000000; stroke-linecap: round"/>
   </g>
   <g id="patch_4">
    <path d="M 416.311154 302.982462 
Q 347.160547 189.310092 278.591004 76.592899 
" clip-path="url(#pa066542e48)" style="fill: none; stroke: #000000; stroke-linecap: round"/>
    <path d="M 278.961214 81.049685 
L 278.591004 76.592899 
L 282.378559 78.970803 
z
" clip-path="url(#pa066542e48)" style="stroke: #000000; stroke-linecap: round"/>
   </g>
   <g id="patch_5">
    <path d="M 43.521778 37.900239 
Q 103.809279 172.803597 163.640615 306.686213 
" clip-path="url(#pa066542e48)" style="fill: none; stroke: #000000; stroke-linecap: round"/>
    <path d="M 163.834554 302.218284 
L 163.640615 306.686213 
L 160.182636 303.850304 
z
" clip-path="url(#pa066542e48)" style="stroke: #000000; stroke-linecap: round"/>
   </g>
   <g id="patch_6">
    <path d="M 171.035925 307.649396 
Q 220.569567 191.925311 269.663263 77.229061 
" clip-path="url(#pa066542e48)" style="fill: none; stroke: #000000; stroke-linecap: round"/>
    <path d="M 266.250612 80.119358 
L 269.663263 77.229061 
L 269.927909 81.69336 
z
" clip-path="url(#pa066542e48)" style="stroke: #000000; stroke-linecap: round"/>
   </g>
   <g id="PathCollection_1">
    <defs>
     <path id="ma324945af4" d="M 0 8.660254 
C 2.296726 8.660254 4.499694 7.747755 6.123724 6.123724 
C 7.747755 4.499694 8.660254 2.296726 8.660254 0 
C 8.660254 -2.296726 7.747755 -4.499694 6.123724 -6.123724 
C 4.499694 -7.747755 2.296726 -8.660254 0 -8.660254 
C -2.296726 -8.660254 -4.499694 -7.747755 -6.123724 -6.123724 
C -7.747755 -4.499694 -8.660254 -2.296726 -8.660254 0 
C -8.660254 2.296726 -7.747755 4.499694 -6.123724 6.123724 
C -4.499694 7.747755 -2.296726 8.660254 0 8.660254 
z
" style="stroke: #1f78b4"/>
    </defs>
    <g clip-path="url(#pa066542e48)">
     <use xlink:href="#ma324945af4" x="273.510372" y="68.241164" style="fill: #1f78b4; stroke: #1f78b4"/>
     <use xlink:href="#ma324945af4" x="420.813223" y="310.383133" style="fill: #1f78b4; stroke: #1f78b4"/>
     <use xlink:href="#ma324945af4" x="39.986777" y="29.990083" style="fill: #1f78b4; stroke: #1f78b4"/>
     <use xlink:href="#ma324945af4" x="167.628565" y="315.609917" style="fill: #1f78b4; stroke: #1f78b4"/>
    </g>
   </g>
  </g>
 </g>
 <defs>
  <clipPath id="pa066542e48">
   <rect x="0" y="0" width="460.8" height="345.6"/>
  </clipPath>
 </defs>
</svg>
