<?xml version="1.0" encoding="utf-8" standalone="no"?>
<!DOCTYPE svg PUBLIC "-//W3C//DTD SVG 1.1//EN"
  "http://www.w3.org/Graphics/SVG/1.1/DTD/svg11.dtd">
<svg xmlns:xlink="http://www.w3.org/1999/xlink" width="460.8pt" height="345.6pt" viewBox="0 0 460.8 345.6" xmlns="http://www.w3.org/2000/svg" version="1.1">
 <metadata>
  <rdf:RDF xmlns:dc="http://purl.org/dc/elements/1.1/" xmlns:cc="http://creativecommons.org/ns#" xmlns:rdf="http://www.w3.org/1999/02/22-rdf-syntax-ns#">
   <cc:Work>
    <dc:type rdf:resource="http://purl.org/dc/dcmitype/StillImage"/>
    <dc:date>2023-04-25T12:20:12.638015</dc:date>
    <dc:format>image/svg+xml</dc:format>
    <dc:creator>
     <cc:Agent>
      <dc:title>Matplotlib v3.7.1, https://matplotlib.org/</dc:title>
     </cc:Agent>
    </dc:creator>
   </cc:Work>
  </rdf:RDF>
 </metadata>
 <defs>
  <style type="text/css">*{stroke-linejoin: round; stroke-linecap: butt}</style>
 </defs>
 <g id="figure_1">
  <g id="patch_1">
   <path d="M 0 345.6 
L 460.8 345.6 
L 460.8 0 
L 0 0 
z
" style="fill: #ffffff"/>
  </g>
  <g id="axes_1">
   <g id="patch_2">
    <path d="M 286.932857 98.487949 
Q 167.632986 65.396569 49.410471 32.604025 
" clip-path="url(#p0b38728ef2)" style="fill: none; stroke: #000000; stroke-linecap: round"/>
    <path d="M 52.730362 35.60041 
L 49.410471 32.604025 
L 53.799513 31.745943 
z
" clip-path="url(#p0b38728ef2)" style="stroke: #000000; stroke-linecap: round"/>
   </g>
   <g id="patch_3">
    <path d="M 299.673045 108.270375 
Q 358.048097 207.510035 415.856292 305.786018 
" clip-path="url(#p0b38728ef2)" style="fill: none; stroke: #000000; stroke-linecap: round"/>
    <path d="M 415.55212 301.324238 
L 415.856292 305.786018 
L 412.104365 303.352288 
z
" clip-path="url(#p0b38728ef2)" style="stroke: #000000; stroke-linecap: round"/>
   </g>
   <g id="patch_4">
    <path d="M 48.334788 32.305653 
Q 167.634659 65.397033 285.857174 98.189576 
" clip-path="url(#p0b38728ef2)" style="fill: none; stroke: #000000; stroke-linecap: round"/>
    <path d="M 282.537283 95.193192 
L 285.857174 98.189576 
L 281.468132 99.047658 
z
" clip-path="url(#p0b38728ef2)" style="stroke: #000000; stroke-linecap: round"/>
   </g>
   <g id="patch_5">
    <path d="M 412.154518 314.249651 
Q 255.903034 314.911446 100.769575 315.568506 
" clip-path="url(#p0b38728ef2)" style="fill: none; stroke: #000000; stroke-linecap: round"/>
    <path d="M 104.77801 317.551547 
L 100.769575 315.568506 
L 104.761068 313.551582 
z
" clip-path="url(#p0b38728ef2)" style="stroke: #000000; stroke-linecap: round"/>
   </g>
   <g id="patch_6">
    <path d="M 89.469186 307.080895 
Q 65.489441 172.799498 41.706243 39.618723 
" clip-path="url(#p0b38728ef2)" style="fill: none; stroke: #000000; stroke-linecap: round"/>
    <path d="M 40.440579 43.908023 
L 41.706243 39.618723 
L 44.378285 43.204834 
z
" clip-path="url(#p0b38728ef2)" style="stroke: #000000; stroke-linecap: round"/>
   </g>
   <g id="PathCollection_1">
    <defs>
     <path id="m7dfc4c52d7" d="M 0 8.660254 
C 2.296726 8.660254 4.499694 7.747755 6.123724 6.123724 
C 7.747755 4.499694 8.660254 2.296726 8.660254 0 
C 8.660254 -2.296726 7.747755 -4.499694 6.123724 -6.123724 
C 4.499694 -7.747755 2.296726 -8.660254 0 -8.660254 
C -2.296726 -8.660254 -4.499694 -7.747755 -6.123724 -6.123724 
C -7.747755 -4.499694 -8.660254 -2.296726 -8.660254 0 
C -8.660254 2.296726 -7.747755 4.499694 -6.123724 6.123724 
C -4.499694 7.747755 -2.296726 8.660254 0 8.660254 
z
" style="stroke: #1f78b4"/>
    </defs>
    <g clip-path="url(#p0b38728ef2)">
     <use xlink:href="#m7dfc4c52d7" x="295.280868" y="100.803519" style="fill: #1f78b4; stroke: #1f78b4"/>
     <use xlink:href="#m7dfc4c52d7" x="39.986777" y="29.990083" style="fill: #1f78b4; stroke: #1f78b4"/>
     <use xlink:href="#m7dfc4c52d7" x="420.813223" y="314.212978" style="fill: #1f78b4; stroke: #1f78b4"/>
     <use xlink:href="#m7dfc4c52d7" x="90.992285" y="315.609917" style="fill: #1f78b4; stroke: #1f78b4"/>
    </g>
   </g>
  </g>
 </g>
 <defs>
  <clipPath id="p0b38728ef2">
   <rect x="0" y="0" width="460.8" height="345.6"/>
  </clipPath>
 </defs>
</svg>
