<?xml version="1.0" encoding="utf-8" standalone="no"?>
<!DOCTYPE svg PUBLIC "-//W3C//DTD SVG 1.1//EN"
  "http://www.w3.org/Graphics/SVG/1.1/DTD/svg11.dtd">
<svg xmlns:xlink="http://www.w3.org/1999/xlink" width="460.8pt" height="345.6pt" viewBox="0 0 460.8 345.6" xmlns="http://www.w3.org/2000/svg" version="1.1">
 <metadata>
  <rdf:RDF xmlns:dc="http://purl.org/dc/elements/1.1/" xmlns:cc="http://creativecommons.org/ns#" xmlns:rdf="http://www.w3.org/1999/02/22-rdf-syntax-ns#">
   <cc:Work>
    <dc:type rdf:resource="http://purl.org/dc/dcmitype/StillImage"/>
    <dc:date>2023-04-25T12:20:12.741916</dc:date>
    <dc:format>image/svg+xml</dc:format>
    <dc:creator>
     <cc:Agent>
      <dc:title>Matplotlib v3.7.1, https://matplotlib.org/</dc:title>
     </cc:Agent>
    </dc:creator>
   </cc:Work>
  </rdf:RDF>
 </metadata>
 <defs>
  <style type="text/css">*{stroke-linejoin: round; stroke-linecap: butt}</style>
 </defs>
 <g id="figure_1">
  <g id="patch_1">
   <path d="M 0 345.6 
L 460.8 345.6 
L 460.8 0 
L 0 0 
z
" style="fill: #ffffff"/>
  </g>
  <g id="axes_1">
   <g id="patch_2">
    <path d="M 290.761362 167.969093 
Q 352.924746 238.539812 414.349117 308.271568 
" clip-path="url(#p6a140ecf6a)" style="fill: none; stroke: #000000; stroke-linecap: round"/>
    <path d="M 413.205922 303.948016 
L 414.349117 308.271568 
L 410.204358 306.591993 
z
" clip-path="url(#p6a140ecf6a)" style="stroke: #000000; stroke-linecap: round"/>
   </g>
   <g id="patch_3">
    <path d="M 277.405386 157.375851 
Q 162.512618 95.73071 48.605033 34.614165 
" clip-path="url(#p6a140ecf6a)" style="fill: none; stroke: #000000; stroke-linecap: round"/>
    <path d="M 51.184153 38.267675 
L 48.605033 34.614165 
L 53.075313 34.742975 
z
" clip-path="url(#p6a140ecf6a)" style="stroke: #000000; stroke-linecap: round"/>
   </g>
   <g id="patch_4">
    <path d="M 415.088894 309.111397 
Q 352.925509 238.540678 291.501139 168.808922 
" clip-path="url(#p6a140ecf6a)" style="fill: none; stroke: #000000; stroke-linecap: round"/>
    <path d="M 292.644334 173.132474 
L 291.501139 168.808922 
L 295.645898 170.488497 
z
" clip-path="url(#p6a140ecf6a)" style="stroke: #000000; stroke-linecap: round"/>
   </g>
   <g id="patch_5">
    <path d="M 168.378603 248.980522 
Q 223.245589 207.822698 277.218207 167.335773 
" clip-path="url(#p6a140ecf6a)" style="fill: none; stroke: #000000; stroke-linecap: round"/>
    <path d="M 272.818278 168.136162 
L 277.218207 167.335773 
L 275.218561 171.33595 
z
" clip-path="url(#p6a140ecf6a)" style="stroke: #000000; stroke-linecap: round"/>
   </g>
   <g id="patch_6">
    <path d="M 169.875885 256.173443 
Q 291.13074 284.893605 411.297661 313.356082 
" clip-path="url(#p6a140ecf6a)" style="fill: none; stroke: #000000; stroke-linecap: round"/>
    <path d="M 407.866316 310.488005 
L 411.297661 313.356082 
L 406.944392 314.380312 
z
" clip-path="url(#p6a140ecf6a)" style="stroke: #000000; stroke-linecap: round"/>
   </g>
   <g id="PathCollection_1">
    <defs>
     <path id="mef8eb90ffa" d="M 0 8.660254 
C 2.296726 8.660254 4.499694 7.747755 6.123724 6.123724 
C 7.747755 4.499694 8.660254 2.296726 8.660254 0 
C 8.660254 -2.296726 7.747755 -4.499694 6.123724 -6.123724 
C 4.499694 -7.747755 2.296726 -8.660254 0 -8.660254 
C -2.296726 -8.660254 -4.499694 -7.747755 -6.123724 -6.123724 
C -7.747755 -4.499694 -8.660254 -2.296726 -8.660254 0 
C -8.660254 2.296726 -7.747755 4.499694 -6.123724 6.123724 
C -4.499694 7.747755 -2.296726 8.660254 0 8.660254 
z
" style="stroke: #1f78b4"/>
    </defs>
    <g clip-path="url(#p6a140ecf6a)">
     <use xlink:href="#mef8eb90ffa" x="285.037033" y="161.470573" style="fill: #1f78b4; stroke: #1f78b4"/>
     <use xlink:href="#mef8eb90ffa" x="420.813223" y="315.609917" style="fill: #1f78b4; stroke: #1f78b4"/>
     <use xlink:href="#mef8eb90ffa" x="39.986777" y="29.990083" style="fill: #1f78b4; stroke: #1f78b4"/>
     <use xlink:href="#mef8eb90ffa" x="161.450229" y="254.17776" style="fill: #1f78b4; stroke: #1f78b4"/>
    </g>
   </g>
  </g>
 </g>
 <defs>
  <clipPath id="p6a140ecf6a">
   <rect x="0" y="0" width="460.8" height="345.6"/>
  </clipPath>
 </defs>
</svg>
