<?xml version="1.0" encoding="utf-8" standalone="no"?>
<!DOCTYPE svg PUBLIC "-//W3C//DTD SVG 1.1//EN"
  "http://www.w3.org/Graphics/SVG/1.1/DTD/svg11.dtd">
<svg xmlns:xlink="http://www.w3.org/1999/xlink" width="460.8pt" height="345.6pt" viewBox="0 0 460.8 345.6" xmlns="http://www.w3.org/2000/svg" version="1.1">
 <metadata>
  <rdf:RDF xmlns:dc="http://purl.org/dc/elements/1.1/" xmlns:cc="http://creativecommons.org/ns#" xmlns:rdf="http://www.w3.org/1999/02/22-rdf-syntax-ns#">
   <cc:Work>
    <dc:type rdf:resource="http://purl.org/dc/dcmitype/StillImage"/>
    <dc:date>2023-04-25T12:20:12.843837</dc:date>
    <dc:format>image/svg+xml</dc:format>
    <dc:creator>
     <cc:Agent>
      <dc:title>Matplotlib v3.7.1, https://matplotlib.org/</dc:title>
     </cc:Agent>
    </dc:creator>
   </cc:Work>
  </rdf:RDF>
 </metadata>
 <defs>
  <style type="text/css">*{stroke-linejoin: round; stroke-linecap: butt}</style>
 </defs>
 <g id="figure_1">
  <g id="patch_1">
   <path d="M 0 345.6 
L 460.8 345.6 
L 460.8 0 
L 0 0 
z
" style="fill: #ffffff"/>
  </g>
  <g id="axes_1">
   <g id="patch_2">
    <path d="M 264.260521 246.414628 
Q 338.577428 279.262224 411.871735 311.657837 
" clip-path="url(#pe6bc2de512)" style="fill: none; stroke: #000000; stroke-linecap: round"/>
    <path d="M 409.0217 308.211491 
L 411.871735 311.657837 
L 407.404638 311.870057 
z
" clip-path="url(#pe6bc2de512)" style="stroke: #000000; stroke-linecap: round"/>
   </g>
   <g id="patch_3">
    <path d="M 248.219622 239.90073 
Q 148.162304 202.77659 49.153196 166.041367 
" clip-path="url(#pe6bc2de512)" style="fill: none; stroke: #000000; stroke-linecap: round"/>
    <path d="M 52.207672 169.30789 
L 49.153196 166.041367 
L 53.5991 165.5577 
z
" clip-path="url(#pe6bc2de512)" style="stroke: #000000; stroke-linecap: round"/>
   </g>
   <g id="patch_4">
    <path d="M 412.890094 312.107945 
Q 338.573187 279.260349 265.27888 246.864736 
" clip-path="url(#pe6bc2de512)" style="fill: none; stroke: #000000; stroke-linecap: round"/>
    <path d="M 268.128915 250.311082 
L 265.27888 246.864736 
L 269.745977 246.652516 
z
" clip-path="url(#pe6bc2de512)" style="stroke: #000000; stroke-linecap: round"/>
   </g>
   <g id="patch_5">
    <path d="M 254.461291 37.423015 
Q 335.41495 172.800148 415.794807 307.217723 
" clip-path="url(#pe6bc2de512)" style="fill: none; stroke: #000000; stroke-linecap: round"/>
    <path d="M 415.458418 302.758256 
L 415.794807 307.217723 
L 412.0254 304.811154 
z
" clip-path="url(#pe6bc2de512)" style="stroke: #000000; stroke-linecap: round"/>
   </g>
   <g id="patch_6">
    <path d="M 242.693533 34.615111 
Q 145.000791 96.315757 48.253335 157.419381 
" clip-path="url(#pe6bc2de512)" style="fill: none; stroke: #000000; stroke-linecap: round"/>
    <path d="M 52.703276 156.974388 
L 48.253335 157.419381 
L 50.567305 153.592432 
z
" clip-path="url(#pe6bc2de512)" style="stroke: #000000; stroke-linecap: round"/>
   </g>
   <g id="PathCollection_1">
    <defs>
     <path id="m55d74f43b2" d="M 0 8.660254 
C 2.296726 8.660254 4.499694 7.747755 6.123724 6.123724 
C 7.747755 4.499694 8.660254 2.296726 8.660254 0 
C 8.660254 -2.296726 7.747755 -4.499694 6.123724 -6.123724 
C 4.499694 -7.747755 2.296726 -8.660254 0 -8.660254 
C -2.296726 -8.660254 -4.499694 -7.747755 -6.123724 -6.123724 
C -7.747755 -4.499694 -8.660254 -2.296726 -8.660254 0 
C -8.660254 2.296726 -7.747755 4.499694 -6.123724 6.123724 
C -4.499694 7.747755 -2.296726 8.660254 0 8.660254 
z
" style="stroke: #1f78b4"/>
    </defs>
    <g clip-path="url(#pe6bc2de512)">
     <use xlink:href="#m55d74f43b2" x="256.337392" y="242.912656" style="fill: #1f78b4; stroke: #1f78b4"/>
     <use xlink:href="#m55d74f43b2" x="420.813223" y="315.609917" style="fill: #1f78b4; stroke: #1f78b4"/>
     <use xlink:href="#m55d74f43b2" x="39.986777" y="162.640362" style="fill: #1f78b4; stroke: #1f78b4"/>
     <use xlink:href="#m55d74f43b2" x="250.0165" y="29.990083" style="fill: #1f78b4; stroke: #1f78b4"/>
    </g>
   </g>
  </g>
 </g>
 <defs>
  <clipPath id="pe6bc2de512">
   <rect x="0" y="0" width="460.8" height="345.6"/>
  </clipPath>
 </defs>
</svg>
