<?xml version="1.0" encoding="utf-8" standalone="no"?>
<!DOCTYPE svg PUBLIC "-//W3C//DTD SVG 1.1//EN"
  "http://www.w3.org/Graphics/SVG/1.1/DTD/svg11.dtd">
<svg xmlns:xlink="http://www.w3.org/1999/xlink" width="460.8pt" height="345.6pt" viewBox="0 0 460.8 345.6" xmlns="http://www.w3.org/2000/svg" version="1.1">
 <metadata>
  <rdf:RDF xmlns:dc="http://purl.org/dc/elements/1.1/" xmlns:cc="http://creativecommons.org/ns#" xmlns:rdf="http://www.w3.org/1999/02/22-rdf-syntax-ns#">
   <cc:Work>
    <dc:type rdf:resource="http://purl.org/dc/dcmitype/StillImage"/>
    <dc:date>2023-04-25T12:20:12.893135</dc:date>
    <dc:format>image/svg+xml</dc:format>
    <dc:creator>
     <cc:Agent>
      <dc:title>Matplotlib v3.7.1, https://matplotlib.org/</dc:title>
     </cc:Agent>
    </dc:creator>
   </cc:Work>
  </rdf:RDF>
 </metadata>
 <defs>
  <style type="text/css">*{stroke-linejoin: round; stroke-linecap: butt}</style>
 </defs>
 <g id="figure_1">
  <g id="patch_1">
   <path d="M 0 345.6 
L 460.8 345.6 
L 460.8 0 
L 0 0 
z
" style="fill: #ffffff"/>
  </g>
  <g id="axes_1">
   <g id="patch_2">
    <path d="M 412.949171 224.872202 
Q 308.433809 176.695781 204.933804 128.987388 
" clip-path="url(#pe87dd95604)" style="fill: none; stroke: #000000; stroke-linecap: round"/>
    <path d="M 207.729217 132.478185 
L 204.933804 128.987388 
L 209.40369 128.845536 
z
" clip-path="url(#pe87dd95604)" style="stroke: #000000; stroke-linecap: round"/>
   </g>
   <g id="patch_3">
    <path d="M 413.176008 232.579224 
Q 339.324279 272.052884 266.458572 310.999516 
" clip-path="url(#pe87dd95604)" style="fill: none; stroke: #000000; stroke-linecap: round"/>
    <path d="M 270.929052 310.877815 
L 266.458572 310.999516 
L 269.043499 307.350112 
z
" clip-path="url(#pe87dd95604)" style="stroke: #000000; stroke-linecap: round"/>
   </g>
   <g id="patch_4">
    <path d="M 198.720349 133.131618 
Q 226.942146 220.251251 254.819391 306.307266 
" clip-path="url(#pe87dd95604)" style="fill: none; stroke: #000000; stroke-linecap: round"/>
    <path d="M 255.489343 301.885596 
L 254.819391 306.307266 
L 251.684026 303.118302 
z
" clip-path="url(#pe87dd95604)" style="stroke: #000000; stroke-linecap: round"/>
   </g>
   <g id="patch_5">
    <path d="M 188.652656 120.39384 
Q 118.018443 77.441158 48.339505 35.069378 
" clip-path="url(#pe87dd95604)" style="fill: none; stroke: #000000; stroke-linecap: round"/>
    <path d="M 50.718051 38.85653 
L 48.339505 35.069378 
L 52.796354 35.438832 
z
" clip-path="url(#pe87dd95604)" style="stroke: #000000; stroke-linecap: round"/>
   </g>
   <g id="patch_6">
    <path d="M 252.582554 308.72612 
Q 148.911457 172.802109 45.918392 37.767072 
" clip-path="url(#pe87dd95604)" style="fill: none; stroke: #000000; stroke-linecap: round"/>
    <path d="M 46.753949 42.160458 
L 45.918392 37.767072 
L 49.934436 39.734658 
z
" clip-path="url(#pe87dd95604)" style="stroke: #000000; stroke-linecap: round"/>
   </g>
   <g id="PathCollection_1">
    <defs>
     <path id="m1d91aa94a3" d="M 0 8.660254 
C 2.296726 8.660254 4.499694 7.747755 6.123724 6.123724 
C 7.747755 4.499694 8.660254 2.296726 8.660254 0 
C 8.660254 -2.296726 7.747755 -4.499694 6.123724 -6.123724 
C 4.499694 -7.747755 2.296726 -8.660254 0 -8.660254 
C -2.296726 -8.660254 -4.499694 -7.747755 -6.123724 -6.123724 
C -7.747755 -4.499694 -8.660254 -2.296726 -8.660254 0 
C -8.660254 2.296726 -7.747755 4.499694 -6.123724 6.123724 
C -4.499694 7.747755 -2.296726 8.660254 0 8.660254 
z
" style="stroke: #1f78b4"/>
    </defs>
    <g clip-path="url(#pe87dd95604)">
     <use xlink:href="#m1d91aa94a3" x="420.813223" y="228.497142" style="fill: #1f78b4; stroke: #1f78b4"/>
     <use xlink:href="#m1d91aa94a3" x="196.05154" y="124.893103" style="fill: #1f78b4; stroke: #1f78b4"/>
     <use xlink:href="#m1d91aa94a3" x="257.83292" y="315.609917" style="fill: #1f78b4; stroke: #1f78b4"/>
     <use xlink:href="#m1d91aa94a3" x="39.986777" y="29.990083" style="fill: #1f78b4; stroke: #1f78b4"/>
    </g>
   </g>
  </g>
 </g>
 <defs>
  <clipPath id="pe87dd95604">
   <rect x="0" y="0" width="460.8" height="345.6"/>
  </clipPath>
 </defs>
</svg>
