<?xml version="1.0" encoding="utf-8" standalone="no"?>
<!DOCTYPE svg PUBLIC "-//W3C//DTD SVG 1.1//EN"
  "http://www.w3.org/Graphics/SVG/1.1/DTD/svg11.dtd">
<svg xmlns:xlink="http://www.w3.org/1999/xlink" width="460.8pt" height="345.6pt" viewBox="0 0 460.8 345.6" xmlns="http://www.w3.org/2000/svg" version="1.1">
 <metadata>
  <rdf:RDF xmlns:dc="http://purl.org/dc/elements/1.1/" xmlns:cc="http://creativecommons.org/ns#" xmlns:rdf="http://www.w3.org/1999/02/22-rdf-syntax-ns#">
   <cc:Work>
    <dc:type rdf:resource="http://purl.org/dc/dcmitype/StillImage"/>
    <dc:date>2023-04-25T12:20:12.942754</dc:date>
    <dc:format>image/svg+xml</dc:format>
    <dc:creator>
     <cc:Agent>
      <dc:title>Matplotlib v3.7.1, https://matplotlib.org/</dc:title>
     </cc:Agent>
    </dc:creator>
   </cc:Work>
  </rdf:RDF>
 </metadata>
 <defs>
  <style type="text/css">*{stroke-linejoin: round; stroke-linecap: butt}</style>
 </defs>
 <g id="figure_1">
  <g id="patch_1">
   <path d="M 0 345.6 
L 460.8 345.6 
L 460.8 0 
L 0 0 
z
" style="fill: #ffffff"/>
  </g>
  <g id="axes_1">
   <g id="patch_2">
    <path d="M 235.051277 38.649851 
Q 230.966766 172.80027 226.916281 305.833173 
" clip-path="url(#p0831371204)" style="fill: none; stroke: #000000; stroke-linecap: round"/>
    <path d="M 229.037088 301.895892 
L 226.916281 305.833173 
L 225.03894 301.77416 
z
" clip-path="url(#p0831371204)" style="stroke: #000000; stroke-linecap: round"/>
   </g>
   <g id="patch_3">
    <path d="M 243.469553 32.909774 
Q 328.064724 63.198376 411.607296 93.110105 
" clip-path="url(#p0831371204)" style="fill: none; stroke: #000000; stroke-linecap: round"/>
    <path d="M 408.515576 89.87881 
L 411.607296 93.110105 
L 407.167228 93.644704 
z
" clip-path="url(#p0831371204)" style="stroke: #000000; stroke-linecap: round"/>
   </g>
   <g id="patch_4">
    <path d="M 232.364202 309.124383 
Q 323.717522 206.00625 414.329455 103.724983 
" clip-path="url(#p0831371204)" style="fill: none; stroke: #000000; stroke-linecap: round"/>
    <path d="M 410.179955 105.392812 
L 414.329455 103.724983 
L 413.174018 108.04528 
z
" clip-path="url(#p0831371204)" style="stroke: #000000; stroke-linecap: round"/>
   </g>
   <g id="patch_5">
    <path d="M 219.735533 310.359502 
Q 133.304675 244.429961 47.762753 179.178501 
" clip-path="url(#p0831371204)" style="fill: none; stroke: #000000; stroke-linecap: round"/>
    <path d="M 49.730118 183.194653 
L 47.762753 179.178501 
L 52.156094 180.0143 
z
" clip-path="url(#p0831371204)" style="stroke: #000000; stroke-linecap: round"/>
   </g>
   <g id="patch_6">
    <path d="M 46.970021 168.125352 
Q 137.652112 101.617612 227.43265 35.771086 
" clip-path="url(#p0831371204)" style="fill: none; stroke: #000000; stroke-linecap: round"/>
    <path d="M 223.024343 36.523969 
L 227.43265 35.771086 
L 225.389972 39.749461 
z
" clip-path="url(#p0831371204)" style="stroke: #000000; stroke-linecap: round"/>
   </g>
   <g id="PathCollection_1">
    <defs>
     <path id="m50776b96e8" d="M 0 8.660254 
C 2.296726 8.660254 4.499694 7.747755 6.123724 6.123724 
C 7.747755 4.499694 8.660254 2.296726 8.660254 0 
C 8.660254 -2.296726 7.747755 -4.499694 6.123724 -6.123724 
C 4.499694 -7.747755 2.296726 -8.660254 0 -8.660254 
C -2.296726 -8.660254 -4.499694 -7.747755 -6.123724 -6.123724 
C -7.747755 -4.499694 -8.660254 -2.296726 -8.660254 0 
C -8.660254 2.296726 -7.747755 4.499694 -6.123724 6.123724 
C -4.499694 7.747755 -2.296726 8.660254 0 8.660254 
z
" style="stroke: #1f78b4"/>
    </defs>
    <g clip-path="url(#p0831371204)">
     <use xlink:href="#m50776b96e8" x="235.314943" y="29.990083" style="fill: #1f78b4; stroke: #1f78b4"/>
     <use xlink:href="#m50776b96e8" x="226.618606" y="315.609917" style="fill: #1f78b4; stroke: #1f78b4"/>
     <use xlink:href="#m50776b96e8" x="420.813223" y="96.406211" style="fill: #1f78b4; stroke: #1f78b4"/>
     <use xlink:href="#m50776b96e8" x="39.986777" y="173.246978" style="fill: #1f78b4; stroke: #1f78b4"/>
    </g>
   </g>
  </g>
 </g>
 <defs>
  <clipPath id="p0831371204">
   <rect x="0" y="0" width="460.8" height="345.6"/>
  </clipPath>
 </defs>
</svg>
