<?xml version="1.0" encoding="utf-8" standalone="no"?>
<!DOCTYPE svg PUBLIC "-//W3C//DTD SVG 1.1//EN"
  "http://www.w3.org/Graphics/SVG/1.1/DTD/svg11.dtd">
<svg xmlns:xlink="http://www.w3.org/1999/xlink" width="460.8pt" height="345.6pt" viewBox="0 0 460.8 345.6" xmlns="http://www.w3.org/2000/svg" version="1.1">
 <metadata>
  <rdf:RDF xmlns:dc="http://purl.org/dc/elements/1.1/" xmlns:cc="http://creativecommons.org/ns#" xmlns:rdf="http://www.w3.org/1999/02/22-rdf-syntax-ns#">
   <cc:Work>
    <dc:type rdf:resource="http://purl.org/dc/dcmitype/StillImage"/>
    <dc:date>2023-04-25T12:20:13.042569</dc:date>
    <dc:format>image/svg+xml</dc:format>
    <dc:creator>
     <cc:Agent>
      <dc:title>Matplotlib v3.7.1, https://matplotlib.org/</dc:title>
     </cc:Agent>
    </dc:creator>
   </cc:Work>
  </rdf:RDF>
 </metadata>
 <defs>
  <style type="text/css">*{stroke-linejoin: round; stroke-linecap: butt}</style>
 </defs>
 <g id="figure_1">
  <g id="patch_1">
   <path d="M 0 345.6 
L 460.8 345.6 
L 460.8 0 
L 0 0 
z
" style="fill: #ffffff"/>
  </g>
  <g id="axes_1">
   <g id="patch_2">
    <path d="M 308.387665 307.868584 
Q 362.65595 199.833009 416.422382 92.796506 
" clip-path="url(#pd85dab7440)" style="fill: none; stroke: #000000; stroke-linecap: round"/>
    <path d="M 412.839707 95.473153 
L 416.422382 92.796506 
L 416.414095 97.268635 
z
" clip-path="url(#pd85dab7440)" style="stroke: #000000; stroke-linecap: round"/>
   </g>
   <g id="patch_3">
    <path d="M 296.794064 311.648476 
Q 172.240414 247.610457 48.681076 184.083654 
" clip-path="url(#pd85dab7440)" style="fill: none; stroke: #000000; stroke-linecap: round"/>
    <path d="M 51.323947 187.691317 
L 48.681076 184.083654 
L 53.152929 184.133955 
z
" clip-path="url(#pd85dab7440)" style="stroke: #000000; stroke-linecap: round"/>
   </g>
   <g id="patch_4">
    <path d="M 412.413494 86.163048 
Q 230.401131 131.83418 49.473184 177.233206 
" clip-path="url(#pd85dab7440)" style="fill: none; stroke: #000000; stroke-linecap: round"/>
    <path d="M 53.839667 178.199556 
L 49.473184 177.233206 
L 52.866154 174.31983 
z
" clip-path="url(#pd85dab7440)" style="stroke: #000000; stroke-linecap: round"/>
   </g>
   <g id="patch_5">
    <path d="M 48.386506 177.505879 
Q 230.398869 131.834747 411.326816 86.435721 
" clip-path="url(#pd85dab7440)" style="fill: none; stroke: #000000; stroke-linecap: round"/>
    <path d="M 406.960333 85.469371 
L 411.326816 86.435721 
L 407.933846 89.349097 
z
" clip-path="url(#pd85dab7440)" style="stroke: #000000; stroke-linecap: round"/>
   </g>
   <g id="patch_6">
    <path d="M 192.574522 38.022269 
Q 246.916906 172.798578 300.8412 306.537968 
" clip-path="url(#pd85dab7440)" style="fill: none; stroke: #000000; stroke-linecap: round"/>
    <path d="M 301.200292 302.080272 
L 300.8412 306.537968 
L 297.490499 303.576077 
z
" clip-path="url(#pd85dab7440)" style="stroke: #000000; stroke-linecap: round"/>
   </g>
   <g id="PathCollection_1">
    <defs>
     <path id="m77dab6155d" d="M 0 8.660254 
C 2.296726 8.660254 4.499694 7.747755 6.123724 6.123724 
C 7.747755 4.499694 8.660254 2.296726 8.660254 0 
C 8.660254 -2.296726 7.747755 -4.499694 6.123724 -6.123724 
C 4.499694 -7.747755 2.296726 -8.660254 0 -8.660254 
C -2.296726 -8.660254 -4.499694 -7.747755 -6.123724 -6.123724 
C -7.747755 -4.499694 -8.660254 -2.296726 -8.660254 0 
C -8.660254 2.296726 -7.747755 4.499694 -6.123724 6.123724 
C -4.499694 7.747755 -2.296726 8.660254 0 8.660254 
z
" style="stroke: #1f78b4"/>
    </defs>
    <g clip-path="url(#pd85dab7440)">
     <use xlink:href="#m77dab6155d" x="304.499049" y="315.609917" style="fill: #1f78b4; stroke: #1f78b4"/>
     <use xlink:href="#m77dab6155d" x="420.813223" y="84.05536" style="fill: #1f78b4; stroke: #1f78b4"/>
     <use xlink:href="#m77dab6155d" x="39.986777" y="179.613566" style="fill: #1f78b4; stroke: #1f78b4"/>
     <use xlink:href="#m77dab6155d" x="189.33591" y="29.990083" style="fill: #1f78b4; stroke: #1f78b4"/>
    </g>
   </g>
  </g>
 </g>
 <defs>
  <clipPath id="pd85dab7440">
   <rect x="0" y="0" width="460.8" height="345.6"/>
  </clipPath>
 </defs>
</svg>
