<?xml version="1.0" encoding="utf-8" standalone="no"?>
<!DOCTYPE svg PUBLIC "-//W3C//DTD SVG 1.1//EN"
  "http://www.w3.org/Graphics/SVG/1.1/DTD/svg11.dtd">
<svg xmlns:xlink="http://www.w3.org/1999/xlink" width="460.8pt" height="345.6pt" viewBox="0 0 460.8 345.6" xmlns="http://www.w3.org/2000/svg" version="1.1">
 <metadata>
  <rdf:RDF xmlns:dc="http://purl.org/dc/elements/1.1/" xmlns:cc="http://creativecommons.org/ns#" xmlns:rdf="http://www.w3.org/1999/02/22-rdf-syntax-ns#">
   <cc:Work>
    <dc:type rdf:resource="http://purl.org/dc/dcmitype/StillImage"/>
    <dc:date>2023-04-25T12:20:13.095365</dc:date>
    <dc:format>image/svg+xml</dc:format>
    <dc:creator>
     <cc:Agent>
      <dc:title>Matplotlib v3.7.1, https://matplotlib.org/</dc:title>
     </cc:Agent>
    </dc:creator>
   </cc:Work>
  </rdf:RDF>
 </metadata>
 <defs>
  <style type="text/css">*{stroke-linejoin: round; stroke-linecap: butt}</style>
 </defs>
 <g id="figure_1">
  <g id="patch_1">
   <path d="M 0 345.6 
L 460.8 345.6 
L 460.8 0 
L 0 0 
z
" style="fill: #ffffff"/>
  </g>
  <g id="axes_1">
   <g id="patch_2">
    <path d="M 48.642188 191.589454 
Q 230.39898 197.091562 411.03825 202.55984 
" clip-path="url(#p744c987cb1)" style="fill: none; stroke: #000000; stroke-linecap: round"/>
    <path d="M 407.100597 200.439724 
L 411.03825 202.55984 
L 406.979565 204.437892 
z
" clip-path="url(#p744c987cb1)" style="stroke: #000000; stroke-linecap: round"/>
   </g>
   <g id="patch_3">
    <path d="M 47.654568 195.349704 
Q 158.447048 253.467705 268.249446 311.066344 
" clip-path="url(#p744c987cb1)" style="fill: none; stroke: #000000; stroke-linecap: round"/>
    <path d="M 265.636288 307.437101 
L 268.249446 311.066344 
L 263.778157 310.979324 
z
" clip-path="url(#p744c987cb1)" style="stroke: #000000; stroke-linecap: round"/>
   </g>
   <g id="patch_4">
    <path d="M 413.995347 208.197874 
Q 348.861679 259.233181 284.608067 309.578923 
" clip-path="url(#p744c987cb1)" style="fill: none; stroke: #000000; stroke-linecap: round"/>
    <path d="M 288.990185 308.686151 
L 284.608067 309.578923 
L 286.52312 305.537565 
z
" clip-path="url(#p744c987cb1)" style="stroke: #000000; stroke-linecap: round"/>
   </g>
   <g id="patch_5">
    <path d="M 283.728904 310.267789 
Q 348.862572 259.232482 413.116184 208.88674 
" clip-path="url(#p744c987cb1)" style="fill: none; stroke: #000000; stroke-linecap: round"/>
    <path d="M 408.734066 209.779513 
L 413.116184 208.88674 
L 411.201131 212.928098 
z
" clip-path="url(#p744c987cb1)" style="stroke: #000000; stroke-linecap: round"/>
   </g>
   <g id="patch_6">
    <path d="M 330.719712 37.594631 
Q 373.694081 116.423749 416.1333 194.271228 
" clip-path="url(#p744c987cb1)" style="fill: none; stroke: #000000; stroke-linecap: round"/>
    <path d="M 415.974702 189.801905 
L 416.1333 194.271228 
L 412.462683 191.716512 
z
" clip-path="url(#p744c987cb1)" style="stroke: #000000; stroke-linecap: round"/>
   </g>
   <g id="PathCollection_1">
    <defs>
     <path id="mcf932e51eb" d="M 0 8.660254 
C 2.296726 8.660254 4.499694 7.747755 6.123724 6.123724 
C 7.747755 4.499694 8.660254 2.296726 8.660254 0 
C 8.660254 -2.296726 7.747755 -4.499694 6.123724 -6.123724 
C 4.499694 -7.747755 2.296726 -8.660254 0 -8.660254 
C -2.296726 -8.660254 -4.499694 -7.747755 -6.123724 -6.123724 
C -7.747755 -4.499694 -8.660254 -2.296726 -8.660254 0 
C -8.660254 2.296726 -7.747755 4.499694 -6.123724 6.123724 
C -4.499694 7.747755 -2.296726 8.660254 0 8.660254 
z
" style="stroke: #1f78b4"/>
    </defs>
    <g clip-path="url(#p744c987cb1)">
     <use xlink:href="#mcf932e51eb" x="39.986777" y="191.327439" style="fill: #1f78b4; stroke: #1f78b4"/>
     <use xlink:href="#mcf932e51eb" x="420.813223" y="202.855746" style="fill: #1f78b4; stroke: #1f78b4"/>
     <use xlink:href="#mcf932e51eb" x="276.911028" y="315.609917" style="fill: #1f78b4; stroke: #1f78b4"/>
     <use xlink:href="#mcf932e51eb" x="326.574028" y="29.990083" style="fill: #1f78b4; stroke: #1f78b4"/>
    </g>
   </g>
  </g>
 </g>
 <defs>
  <clipPath id="p744c987cb1">
   <rect x="0" y="0" width="460.8" height="345.6"/>
  </clipPath>
 </defs>
</svg>
