<?xml version="1.0" encoding="utf-8" standalone="no"?>
<!DOCTYPE svg PUBLIC "-//W3C//DTD SVG 1.1//EN"
  "http://www.w3.org/Graphics/SVG/1.1/DTD/svg11.dtd">
<svg xmlns:xlink="http://www.w3.org/1999/xlink" width="460.8pt" height="345.6pt" viewBox="0 0 460.8 345.6" xmlns="http://www.w3.org/2000/svg" version="1.1">
 <metadata>
  <rdf:RDF xmlns:dc="http://purl.org/dc/elements/1.1/" xmlns:cc="http://creativecommons.org/ns#" xmlns:rdf="http://www.w3.org/1999/02/22-rdf-syntax-ns#">
   <cc:Work>
    <dc:type rdf:resource="http://purl.org/dc/dcmitype/StillImage"/>
    <dc:date>2023-04-25T12:20:13.199374</dc:date>
    <dc:format>image/svg+xml</dc:format>
    <dc:creator>
     <cc:Agent>
      <dc:title>Matplotlib v3.7.1, https://matplotlib.org/</dc:title>
     </cc:Agent>
    </dc:creator>
   </cc:Work>
  </rdf:RDF>
 </metadata>
 <defs>
  <style type="text/css">*{stroke-linejoin: round; stroke-linecap: butt}</style>
 </defs>
 <g id="figure_1">
  <g id="patch_1">
   <path d="M 0 345.6 
L 460.8 345.6 
L 460.8 0 
L 0 0 
z
" style="fill: #ffffff"/>
  </g>
  <g id="axes_1">
   <g id="patch_2">
    <path d="M 48.419386 107.98844 
Q 210.817973 69.976202 372.127949 32.218772 
" clip-path="url(#p53a853b981)" style="fill: none; stroke: #000000; stroke-linecap: round"/>
    <path d="M 367.777403 31.183037 
L 372.127949 32.218772 
L 368.689033 35.077768 
z
" clip-path="url(#p53a853b981)" style="stroke: #000000; stroke-linecap: round"/>
   </g>
   <g id="patch_3">
    <path d="M 47.607838 114.077641 
Q 230.399378 212.785743 412.207155 310.962609 
" clip-path="url(#p53a853b981)" style="fill: none; stroke: #000000; stroke-linecap: round"/>
    <path d="M 409.637842 307.302195 
L 412.207155 310.962609 
L 407.737236 310.821811 
z
" clip-path="url(#p53a853b981)" style="stroke: #000000; stroke-linecap: round"/>
   </g>
   <g id="patch_4">
    <path d="M 382.826171 38.571404 
Q 401.231656 172.802093 419.485259 305.925112 
" clip-path="url(#p53a853b981)" style="fill: none; stroke: #000000; stroke-linecap: round"/>
    <path d="M 420.92333 301.690499 
L 419.485259 305.925112 
L 416.960411 302.233888 
z
" clip-path="url(#p53a853b981)" style="stroke: #000000; stroke-linecap: round"/>
   </g>
   <g id="patch_5">
    <path d="M 413.512561 310.952044 
Q 316.208706 248.871497 219.84739 187.392297 
" clip-path="url(#p53a853b981)" style="fill: none; stroke: #000000; stroke-linecap: round"/>
    <path d="M 222.143801 191.229809 
L 219.84739 187.392297 
L 224.295246 187.857675 
z
" clip-path="url(#p53a853b981)" style="stroke: #000000; stroke-linecap: round"/>
   </g>
   <g id="patch_6">
    <path d="M 218.059232 176.360775 
Q 296.628048 106.06215 374.363661 36.509024 
" clip-path="url(#p53a853b981)" style="fill: none; stroke: #000000; stroke-linecap: round"/>
    <path d="M 370.049107 37.685728 
L 374.363661 36.509024 
L 372.716291 40.666689 
z
" clip-path="url(#p53a853b981)" style="stroke: #000000; stroke-linecap: round"/>
   </g>
   <g id="PathCollection_1">
    <defs>
     <path id="m22b7084ffc" d="M 0 8.660254 
C 2.296726 8.660254 4.499694 7.747755 6.123724 6.123724 
C 7.747755 4.499694 8.660254 2.296726 8.660254 0 
C 8.660254 -2.296726 7.747755 -4.499694 6.123724 -6.123724 
C 4.499694 -7.747755 2.296726 -8.660254 0 -8.660254 
C -2.296726 -8.660254 -4.499694 -7.747755 -6.123724 -6.123724 
C -7.747755 -4.499694 -8.660254 -2.296726 -8.660254 0 
C -8.660254 2.296726 -7.747755 4.499694 -6.123724 6.123724 
C -4.499694 7.747755 -2.296726 8.660254 0 8.660254 
z
" style="stroke: #1f78b4"/>
    </defs>
    <g clip-path="url(#p53a853b981)">
     <use xlink:href="#m22b7084ffc" x="39.986777" y="109.96224" style="fill: #1f78b4; stroke: #1f78b4"/>
     <use xlink:href="#m22b7084ffc" x="381.649515" y="29.990083" style="fill: #1f78b4; stroke: #1f78b4"/>
     <use xlink:href="#m22b7084ffc" x="420.813223" y="315.609917" style="fill: #1f78b4; stroke: #1f78b4"/>
     <use xlink:href="#m22b7084ffc" x="211.606329" y="182.134442" style="fill: #1f78b4; stroke: #1f78b4"/>
    </g>
   </g>
  </g>
 </g>
 <defs>
  <clipPath id="p53a853b981">
   <rect x="0" y="0" width="460.8" height="345.6"/>
  </clipPath>
 </defs>
</svg>
