<?xml version="1.0" encoding="utf-8" standalone="no"?>
<!DOCTYPE svg PUBLIC "-//W3C//DTD SVG 1.1//EN"
  "http://www.w3.org/Graphics/SVG/1.1/DTD/svg11.dtd">
<svg xmlns:xlink="http://www.w3.org/1999/xlink" width="460.8pt" height="345.6pt" viewBox="0 0 460.8 345.6" xmlns="http://www.w3.org/2000/svg" version="1.1">
 <metadata>
  <rdf:RDF xmlns:dc="http://purl.org/dc/elements/1.1/" xmlns:cc="http://creativecommons.org/ns#" xmlns:rdf="http://www.w3.org/1999/02/22-rdf-syntax-ns#">
   <cc:Work>
    <dc:type rdf:resource="http://purl.org/dc/dcmitype/StillImage"/>
    <dc:date>2023-04-25T12:20:13.251050</dc:date>
    <dc:format>image/svg+xml</dc:format>
    <dc:creator>
     <cc:Agent>
      <dc:title>Matplotlib v3.7.1, https://matplotlib.org/</dc:title>
     </cc:Agent>
    </dc:creator>
   </cc:Work>
  </rdf:RDF>
 </metadata>
 <defs>
  <style type="text/css">*{stroke-linejoin: round; stroke-linecap: butt}</style>
 </defs>
 <g id="figure_1">
  <g id="patch_1">
   <path d="M 0 345.6 
L 460.8 345.6 
L 460.8 0 
L 0 0 
z
" style="fill: #ffffff"/>
  </g>
  <g id="axes_1">
   <g id="patch_2">
    <path d="M 131.810639 37.446656 
Q 88.100569 111.462686 44.959019 184.516019 
" clip-path="url(#p2ba0aba47f)" style="fill: none; stroke: #000000; stroke-linecap: round"/>
    <path d="M 48.715141 182.088768 
L 44.959019 184.516019 
L 45.270892 180.05477 
z
" clip-path="url(#p2ba0aba47f)" style="stroke: #000000; stroke-linecap: round"/>
   </g>
   <g id="patch_3">
    <path d="M 142.125042 36.316137 
Q 210.795199 109.808941 278.702044 182.484828 
" clip-path="url(#p2ba0aba47f)" style="fill: none; stroke: #000000; stroke-linecap: round"/>
    <path d="M 277.432485 178.196679 
L 278.702044 182.484828 
L 274.50979 180.927585 
z
" clip-path="url(#p2ba0aba47f)" style="stroke: #000000; stroke-linecap: round"/>
   </g>
   <g id="patch_4">
    <path d="M 48.647516 192.81904 
Q 162.683574 191.282729 275.6017 189.761479 
" clip-path="url(#p2ba0aba47f)" style="fill: none; stroke: #000000; stroke-linecap: round"/>
    <path d="M 271.575121 187.815545 
L 275.6017 189.761479 
L 271.629005 191.815182 
z
" clip-path="url(#p2ba0aba47f)" style="stroke: #000000; stroke-linecap: round"/>
   </g>
   <g id="patch_5">
    <path d="M 291.72045 195.529322 
Q 353.096445 252.620558 413.653811 308.950316 
" clip-path="url(#p2ba0aba47f)" style="fill: none; stroke: #000000; stroke-linecap: round"/>
    <path d="M 412.087173 304.761564 
L 413.653811 308.950316 
L 409.362827 307.690375 
z
" clip-path="url(#p2ba0aba47f)" style="stroke: #000000; stroke-linecap: round"/>
   </g>
   <g id="patch_6">
    <path d="M 414.470903 309.710365 
Q 353.094909 252.619129 292.537542 196.289372 
" clip-path="url(#p2ba0aba47f)" style="fill: none; stroke: #000000; stroke-linecap: round"/>
    <path d="M 294.10418 200.478124 
L 292.537542 196.289372 
L 296.828527 197.549312 
z
" clip-path="url(#p2ba0aba47f)" style="stroke: #000000; stroke-linecap: round"/>
   </g>
   <g id="PathCollection_1">
    <defs>
     <path id="m33de0c3101" d="M 0 8.660254 
C 2.296726 8.660254 4.499694 7.747755 6.123724 6.123724 
C 7.747755 4.499694 8.660254 2.296726 8.660254 0 
C 8.660254 -2.296726 7.747755 -4.499694 6.123724 -6.123724 
C 4.499694 -7.747755 2.296726 -8.660254 0 -8.660254 
C -2.296726 -8.660254 -4.499694 -7.747755 -6.123724 -6.123724 
C -7.747755 -4.499694 -8.660254 -2.296726 -8.660254 0 
C -8.660254 2.296726 -7.747755 4.499694 -6.123724 6.123724 
C -4.499694 7.747755 -2.296726 8.660254 0 8.660254 
z
" style="stroke: #1f78b4"/>
    </defs>
    <g clip-path="url(#p2ba0aba47f)">
     <use xlink:href="#m33de0c3101" x="136.214108" y="29.990083" style="fill: #1f78b4; stroke: #1f78b4"/>
     <use xlink:href="#m33de0c3101" x="39.986777" y="192.935718" style="fill: #1f78b4; stroke: #1f78b4"/>
     <use xlink:href="#m33de0c3101" x="285.37813" y="189.62977" style="fill: #1f78b4; stroke: #1f78b4"/>
     <use xlink:href="#m33de0c3101" x="420.813223" y="315.609917" style="fill: #1f78b4; stroke: #1f78b4"/>
    </g>
   </g>
  </g>
 </g>
 <defs>
  <clipPath id="p2ba0aba47f">
   <rect x="0" y="0" width="460.8" height="345.6"/>
  </clipPath>
 </defs>
</svg>
