<?xml version="1.0" encoding="utf-8" standalone="no"?>
<!DOCTYPE svg PUBLIC "-//W3C//DTD SVG 1.1//EN"
  "http://www.w3.org/Graphics/SVG/1.1/DTD/svg11.dtd">
<svg xmlns:xlink="http://www.w3.org/1999/xlink" width="460.8pt" height="345.6pt" viewBox="0 0 460.8 345.6" xmlns="http://www.w3.org/2000/svg" version="1.1">
 <metadata>
  <rdf:RDF xmlns:dc="http://purl.org/dc/elements/1.1/" xmlns:cc="http://creativecommons.org/ns#" xmlns:rdf="http://www.w3.org/1999/02/22-rdf-syntax-ns#">
   <cc:Work>
    <dc:type rdf:resource="http://purl.org/dc/dcmitype/StillImage"/>
    <dc:date>2023-04-25T12:20:13.408015</dc:date>
    <dc:format>image/svg+xml</dc:format>
    <dc:creator>
     <cc:Agent>
      <dc:title>Matplotlib v3.7.1, https://matplotlib.org/</dc:title>
     </cc:Agent>
    </dc:creator>
   </cc:Work>
  </rdf:RDF>
 </metadata>
 <defs>
  <style type="text/css">*{stroke-linejoin: round; stroke-linecap: butt}</style>
 </defs>
 <g id="figure_1">
  <g id="patch_1">
   <path d="M 0 345.6 
L 460.8 345.6 
L 460.8 0 
L 0 0 
z
" style="fill: #ffffff"/>
  </g>
  <g id="axes_1">
   <g id="patch_2">
    <path d="M 143.67334 58.793469 
Q 93.833828 154.29356 44.511589 248.802476 
" clip-path="url(#p7ff76261c2)" style="fill: none; stroke: #000000; stroke-linecap: round"/>
    <path d="M 48.135312 246.181667 
L 44.511589 248.802476 
L 44.589176 244.331013 
z
" clip-path="url(#p7ff76261c2)" style="stroke: #000000; stroke-linecap: round"/>
   </g>
   <g id="patch_3">
    <path d="M 156.312549 50.446046 
Q 284.246427 40.551891 411.065599 30.743945 
" clip-path="url(#p7ff76261c2)" style="fill: none; stroke: #000000; stroke-linecap: round"/>
    <path d="M 406.923293 29.05833 
L 411.065599 30.743945 
L 407.231724 33.046421 
z
" clip-path="url(#p7ff76261c2)" style="stroke: #000000; stroke-linecap: round"/>
   </g>
   <g id="patch_4">
    <path d="M 48.403895 259.508608 
Q 160.165084 286.541005 270.839576 313.310556 
" clip-path="url(#p7ff76261c2)" style="fill: none; stroke: #000000; stroke-linecap: round"/>
    <path d="M 267.421882 310.426224 
L 270.839576 313.310556 
L 266.481494 314.314112 
z
" clip-path="url(#p7ff76261c2)" style="stroke: #000000; stroke-linecap: round"/>
   </g>
   <g id="patch_5">
    <path d="M 416.991611 37.760776 
Q 350.579712 172.799715 284.661221 306.835385 
" clip-path="url(#p7ff76261c2)" style="fill: none; stroke: #000000; stroke-linecap: round"/>
    <path d="M 288.221188 304.128609 
L 284.661221 306.835385 
L 284.631781 302.363346 
z
" clip-path="url(#p7ff76261c2)" style="stroke: #000000; stroke-linecap: round"/>
   </g>
   <g id="patch_6">
    <path d="M 271.928804 313.574015 
Q 160.167615 286.541617 49.493123 259.772066 
" clip-path="url(#p7ff76261c2)" style="fill: none; stroke: #000000; stroke-linecap: round"/>
    <path d="M 52.910816 262.656398 
L 49.493123 259.772066 
L 53.851205 258.768511 
z
" clip-path="url(#p7ff76261c2)" style="stroke: #000000; stroke-linecap: round"/>
   </g>
   <g id="PathCollection_1">
    <defs>
     <path id="ma7ff623a6f" d="M 0 8.660254 
C 2.296726 8.660254 4.499694 7.747755 6.123724 6.123724 
C 7.747755 4.499694 8.660254 2.296726 8.660254 0 
C 8.660254 -2.296726 7.747755 -4.499694 6.123724 -6.123724 
C 4.499694 -7.747755 2.296726 -8.660254 0 -8.660254 
C -2.296726 -8.660254 -4.499694 -7.747755 -6.123724 -6.123724 
C -7.747755 -4.499694 -8.660254 -2.296726 -8.660254 0 
C -8.660254 2.296726 -7.747755 4.499694 -6.123724 6.123724 
C -4.499694 7.747755 -2.296726 8.660254 0 8.660254 
z
" style="stroke: #1f78b4"/>
    </defs>
    <g clip-path="url(#p7ff76261c2)">
     <use xlink:href="#ma7ff623a6f" x="147.68132" y="51.113569" style="fill: #1f78b4; stroke: #1f78b4"/>
     <use xlink:href="#ma7ff623a6f" x="39.986777" y="257.472705" style="fill: #1f78b4; stroke: #1f78b4"/>
     <use xlink:href="#ma7ff623a6f" x="420.813223" y="29.990083" style="fill: #1f78b4; stroke: #1f78b4"/>
     <use xlink:href="#ma7ff623a6f" x="280.345922" y="315.609917" style="fill: #1f78b4; stroke: #1f78b4"/>
    </g>
   </g>
  </g>
 </g>
 <defs>
  <clipPath id="p7ff76261c2">
   <rect x="0" y="0" width="460.8" height="345.6"/>
  </clipPath>
 </defs>
</svg>
