<?xml version="1.0" encoding="utf-8" standalone="no"?>
<!DOCTYPE svg PUBLIC "-//W3C//DTD SVG 1.1//EN"
  "http://www.w3.org/Graphics/SVG/1.1/DTD/svg11.dtd">
<svg xmlns:xlink="http://www.w3.org/1999/xlink" width="460.8pt" height="345.6pt" viewBox="0 0 460.8 345.6" xmlns="http://www.w3.org/2000/svg" version="1.1">
 <metadata>
  <rdf:RDF xmlns:dc="http://purl.org/dc/elements/1.1/" xmlns:cc="http://creativecommons.org/ns#" xmlns:rdf="http://www.w3.org/1999/02/22-rdf-syntax-ns#">
   <cc:Work>
    <dc:type rdf:resource="http://purl.org/dc/dcmitype/StillImage"/>
    <dc:date>2023-04-25T12:20:11.686866</dc:date>
    <dc:format>image/svg+xml</dc:format>
    <dc:creator>
     <cc:Agent>
      <dc:title>Matplotlib v3.7.1, https://matplotlib.org/</dc:title>
     </cc:Agent>
    </dc:creator>
   </cc:Work>
  </rdf:RDF>
 </metadata>
 <defs>
  <style type="text/css">*{stroke-linejoin: round; stroke-linecap: butt}</style>
 </defs>
 <g id="figure_1">
  <g id="patch_1">
   <path d="M 0 345.6 
L 460.8 345.6 
L 460.8 0 
L 0 0 
z
" style="fill: #ffffff"/>
  </g>
  <g id="axes_1">
   <g id="patch_2">
    <path d="M 238.417691 171.065087 
Q 229.711132 172.946908 222.097373 174.592532 
" clip-path="url(#p9f5fb0dd9c)" style="fill: none; stroke: #000000; stroke-linecap: round"/>
    <path d="M 226.429613 175.702352 
L 222.097373 174.592532 
L 225.584573 171.792632 
z
" clip-path="url(#p9f5fb0dd9c)" style="stroke: #000000; stroke-linecap: round"/>
   </g>
   <g id="patch_3">
    <path d="M 239.698519 164.402188 
Q 143.433961 99.613199 48.09693 35.448464 
" clip-path="url(#p9f5fb0dd9c)" style="fill: none; stroke: #000000; stroke-linecap: round"/>
    <path d="M 50.298653 39.341074 
L 48.09693 35.448464 
L 52.532052 36.022652 
z
" clip-path="url(#p9f5fb0dd9c)" style="stroke: #000000; stroke-linecap: round"/>
   </g>
   <g id="patch_4">
    <path d="M 253.507619 174.812957 
Q 333.848058 242.4239 413.333069 309.314952 
" clip-path="url(#p9f5fb0dd9c)" style="fill: none; stroke: #000000; stroke-linecap: round"/>
    <path d="M 411.560375 305.209157 
L 413.333069 309.314952 
L 408.984816 308.26963 
z
" clip-path="url(#p9f5fb0dd9c)" style="stroke: #000000; stroke-linecap: round"/>
   </g>
   <g id="patch_5">
    <path d="M 205.941882 171.047051 
Q 126.262616 103.322014 47.435237 36.321055 
" clip-path="url(#p9f5fb0dd9c)" style="fill: none; stroke: #000000; stroke-linecap: round"/>
    <path d="M 49.187767 40.435498 
L 47.435237 36.321055 
L 51.778309 37.387696 
z
" clip-path="url(#p9f5fb0dd9c)" style="stroke: #000000; stroke-linecap: round"/>
   </g>
   <g id="patch_6">
    <path d="M 219.747225 181.464232 
Q 316.676831 246.13299 412.676392 310.181248 
" clip-path="url(#p9f5fb0dd9c)" style="fill: none; stroke: #000000; stroke-linecap: round"/>
    <path d="M 410.458951 306.297571 
L 412.676392 310.181248 
L 408.238985 309.624995 
z
" clip-path="url(#p9f5fb0dd9c)" style="stroke: #000000; stroke-linecap: round"/>
   </g>
   <g id="PathCollection_1">
    <defs>
     <path id="mdd3f18dc85" d="M 0 8.660254 
C 2.296726 8.660254 4.499694 7.747755 6.123724 6.123724 
C 7.747755 4.499694 8.660254 2.296726 8.660254 0 
C 8.660254 -2.296726 7.747755 -4.499694 6.123724 -6.123724 
C 4.499694 -7.747755 2.296726 -8.660254 0 -8.660254 
C -2.296726 -8.660254 -4.499694 -7.747755 -6.123724 -6.123724 
C -7.747755 -4.499694 -8.660254 -2.296726 -8.660254 0 
C -8.660254 2.296726 -7.747755 4.499694 -6.123724 6.123724 
C -4.499694 7.747755 -2.296726 8.660254 0 8.660254 
z
" style="stroke: #1f78b4"/>
    </defs>
    <g clip-path="url(#p9f5fb0dd9c)">
     <use xlink:href="#mdd3f18dc85" x="246.880577" y="169.235933" style="fill: #1f78b4; stroke: #1f78b4"/>
     <use xlink:href="#mdd3f18dc85" x="212.542803" y="176.65764" style="fill: #1f78b4; stroke: #1f78b4"/>
     <use xlink:href="#mdd3f18dc85" x="39.986777" y="29.990083" style="fill: #1f78b4; stroke: #1f78b4"/>
     <use xlink:href="#mdd3f18dc85" x="420.813223" y="315.609917" style="fill: #1f78b4; stroke: #1f78b4"/>
    </g>
   </g>
  </g>
 </g>
 <defs>
  <clipPath id="p9f5fb0dd9c">
   <rect x="0" y="0" width="460.8" height="345.6"/>
  </clipPath>
 </defs>
</svg>
