<?xml version="1.0" encoding="utf-8" standalone="no"?>
<!DOCTYPE svg PUBLIC "-//W3C//DTD SVG 1.1//EN"
  "http://www.w3.org/Graphics/SVG/1.1/DTD/svg11.dtd">
<svg xmlns:xlink="http://www.w3.org/1999/xlink" width="460.8pt" height="345.6pt" viewBox="0 0 460.8 345.6" xmlns="http://www.w3.org/2000/svg" version="1.1">
 <metadata>
  <rdf:RDF xmlns:dc="http://purl.org/dc/elements/1.1/" xmlns:cc="http://creativecommons.org/ns#" xmlns:rdf="http://www.w3.org/1999/02/22-rdf-syntax-ns#">
   <cc:Work>
    <dc:type rdf:resource="http://purl.org/dc/dcmitype/StillImage"/>
    <dc:date>2023-04-25T12:20:11.738565</dc:date>
    <dc:format>image/svg+xml</dc:format>
    <dc:creator>
     <cc:Agent>
      <dc:title>Matplotlib v3.7.1, https://matplotlib.org/</dc:title>
     </cc:Agent>
    </dc:creator>
   </cc:Work>
  </rdf:RDF>
 </metadata>
 <defs>
  <style type="text/css">*{stroke-linejoin: round; stroke-linecap: butt}</style>
 </defs>
 <g id="figure_1">
  <g id="patch_1">
   <path d="M 0 345.6 
L 460.8 345.6 
L 460.8 0 
L 0 0 
z
" style="fill: #ffffff"/>
  </g>
  <g id="axes_1">
   <g id="patch_2">
    <path d="M 206.814901 193.497824 
Q 127.643073 177.196322 49.566308 161.120294 
" clip-path="url(#p8a80386845)" style="fill: none; stroke: #000000; stroke-linecap: round"/>
    <path d="M 53.080783 163.88588 
L 49.566308 161.120294 
L 53.887462 159.968066 
z
" clip-path="url(#p8a80386845)" style="stroke: #000000; stroke-linecap: round"/>
   </g>
   <g id="patch_3">
    <path d="M 210.297736 188.176386 
Q 156.850164 112.618144 104.048248 37.97266 
" clip-path="url(#p8a80386845)" style="fill: none; stroke: #000000; stroke-linecap: round"/>
    <path d="M 104.725429 42.393228 
L 104.048248 37.97266 
L 107.991012 40.083256 
z
" clip-path="url(#p8a80386845)" style="stroke: #000000; stroke-linecap: round"/>
   </g>
   <g id="patch_4">
    <path d="M 222.770318 199.621071 
Q 318.055197 255.427075 412.375328 310.66805 
" clip-path="url(#p8a80386845)" style="fill: none; stroke: #000000; stroke-linecap: round"/>
    <path d="M 409.934492 306.920742 
L 412.375328 310.66805 
L 407.912979 310.372334 
z
" clip-path="url(#p8a80386845)" style="stroke: #000000; stroke-linecap: round"/>
   </g>
   <g id="patch_5">
    <path d="M 43.553919 151.260759 
Q 69.192641 94.572417 94.370635 38.902765 
" clip-path="url(#p8a80386845)" style="fill: none; stroke: #000000; stroke-linecap: round"/>
    <path d="M 90.899996 41.723167 
L 94.370635 38.902765 
L 94.544572 43.371518 
z
" clip-path="url(#p8a80386845)" style="stroke: #000000; stroke-linecap: round"/>
   </g>
   <g id="patch_6">
    <path d="M 94.834477 37.87719 
Q 69.195755 94.565531 44.017761 150.235183 
" clip-path="url(#p8a80386845)" style="fill: none; stroke: #000000; stroke-linecap: round"/>
    <path d="M 47.4884 147.414782 
L 44.017761 150.235183 
L 43.843824 145.766431 
z
" clip-path="url(#p8a80386845)" style="stroke: #000000; stroke-linecap: round"/>
   </g>
   <g id="PathCollection_1">
    <defs>
     <path id="m07a9689fca" d="M 0 8.660254 
C 2.296726 8.660254 4.499694 7.747755 6.123724 6.123724 
C 7.747755 4.499694 8.660254 2.296726 8.660254 0 
C 8.660254 -2.296726 7.747755 -4.499694 6.123724 -6.123724 
C 4.499694 -7.747755 2.296726 -8.660254 0 -8.660254 
C -2.296726 -8.660254 -4.499694 -7.747755 -6.123724 -6.123724 
C -7.747755 -4.499694 -8.660254 -2.296726 -8.660254 0 
C -8.660254 2.296726 -7.747755 4.499694 -6.123724 6.123724 
C -4.499694 7.747755 -2.296726 8.660254 0 8.660254 
z
" style="stroke: #1f78b4"/>
    </defs>
    <g clip-path="url(#p8a80386845)">
     <use xlink:href="#m07a9689fca" x="215.297415" y="195.244376" style="fill: #1f78b4; stroke: #1f78b4"/>
     <use xlink:href="#m07a9689fca" x="39.986777" y="159.147866" style="fill: #1f78b4; stroke: #1f78b4"/>
     <use xlink:href="#m07a9689fca" x="98.401619" y="29.990083" style="fill: #1f78b4; stroke: #1f78b4"/>
     <use xlink:href="#m07a9689fca" x="420.813223" y="315.609917" style="fill: #1f78b4; stroke: #1f78b4"/>
    </g>
   </g>
  </g>
 </g>
 <defs>
  <clipPath id="p8a80386845">
   <rect x="0" y="0" width="460.8" height="345.6"/>
  </clipPath>
 </defs>
</svg>
