<?xml version="1.0" encoding="utf-8" standalone="no"?>
<!DOCTYPE svg PUBLIC "-//W3C//DTD SVG 1.1//EN"
  "http://www.w3.org/Graphics/SVG/1.1/DTD/svg11.dtd">
<svg xmlns:xlink="http://www.w3.org/1999/xlink" width="460.8pt" height="345.6pt" viewBox="0 0 460.8 345.6" xmlns="http://www.w3.org/2000/svg" version="1.1">
 <metadata>
  <rdf:RDF xmlns:dc="http://purl.org/dc/elements/1.1/" xmlns:cc="http://creativecommons.org/ns#" xmlns:rdf="http://www.w3.org/1999/02/22-rdf-syntax-ns#">
   <cc:Work>
    <dc:type rdf:resource="http://purl.org/dc/dcmitype/StillImage"/>
    <dc:date>2023-04-25T12:20:11.791752</dc:date>
    <dc:format>image/svg+xml</dc:format>
    <dc:creator>
     <cc:Agent>
      <dc:title>Matplotlib v3.7.1, https://matplotlib.org/</dc:title>
     </cc:Agent>
    </dc:creator>
   </cc:Work>
  </rdf:RDF>
 </metadata>
 <defs>
  <style type="text/css">*{stroke-linejoin: round; stroke-linecap: butt}</style>
 </defs>
 <g id="figure_1">
  <g id="patch_1">
   <path d="M 0 345.6 
L 460.8 345.6 
L 460.8 0 
L 0 0 
z
" style="fill: #ffffff"/>
  </g>
  <g id="axes_1">
   <g id="patch_2">
    <path d="M 255.295236 159.852444 
Q 334.901013 234.763908 413.692578 308.909173 
" clip-path="url(#p7a8e11a6d9)" style="fill: none; stroke: #000000; stroke-linecap: round"/>
    <path d="M 412.150183 304.711434 
L 413.692578 308.909173 
L 409.408949 307.624446 
z
" clip-path="url(#p7a8e11a6d9)" style="stroke: #000000; stroke-linecap: round"/>
   </g>
   <g id="patch_3">
    <path d="M 243.230516 160.385292 
Q 208.545527 199.329636 174.60413 237.439073 
" clip-path="url(#p7a8e11a6d9)" style="fill: none; stroke: #000000; stroke-linecap: round"/>
    <path d="M 178.758016 235.782198 
L 174.60413 237.439073 
L 175.770962 233.121839 
z
" clip-path="url(#p7a8e11a6d9)" style="stroke: #000000; stroke-linecap: round"/>
   </g>
   <g id="patch_4">
    <path d="M 241.54314 149.503312 
Q 144.490934 91.956022 48.400412 34.978963 
" clip-path="url(#p7a8e11a6d9)" style="fill: none; stroke: #000000; stroke-linecap: round"/>
    <path d="M 50.820973 38.7394 
L 48.400412 34.978963 
L 52.861098 35.298776 
z
" clip-path="url(#p7a8e11a6d9)" style="stroke: #000000; stroke-linecap: round"/>
   </g>
   <g id="patch_5">
    <path d="M 412.472438 313.270987 
Q 294.456247 280.176782 177.516564 247.384453 
" clip-path="url(#p7a8e11a6d9)" style="fill: none; stroke: #000000; stroke-linecap: round"/>
    <path d="M 180.827988 250.390193 
L 177.516564 247.384453 
L 181.908011 246.538758 
z
" clip-path="url(#p7a8e11a6d9)" style="stroke: #000000; stroke-linecap: round"/>
   </g>
   <g id="patch_6">
    <path d="M 163.663109 237.308232 
Q 104.043289 137.367762 44.996258 38.387455 
" clip-path="url(#p7a8e11a6d9)" style="fill: none; stroke: #000000; stroke-linecap: round"/>
    <path d="M 45.327936 42.847275 
L 44.996258 38.387455 
L 48.76312 40.798004 
z
" clip-path="url(#p7a8e11a6d9)" style="stroke: #000000; stroke-linecap: round"/>
   </g>
   <g id="PathCollection_1">
    <defs>
     <path id="ma5045966fe" d="M 0 8.660254 
C 2.296726 8.660254 4.499694 7.747755 6.123724 6.123724 
C 7.747755 4.499694 8.660254 2.296726 8.660254 0 
C 8.660254 -2.296726 7.747755 -4.499694 6.123724 -6.123724 
C 4.499694 -7.747755 2.296726 -8.660254 0 -8.660254 
C -2.296726 -8.660254 -4.499694 -7.747755 -6.123724 -6.123724 
C -7.747755 -4.499694 -8.660254 -2.296726 -8.660254 0 
C -8.660254 2.296726 -7.747755 4.499694 -6.123724 6.123724 
C -4.499694 7.747755 -2.296726 8.660254 0 8.660254 
z
" style="stroke: #1f78b4"/>
    </defs>
    <g clip-path="url(#p7a8e11a6d9)">
     <use xlink:href="#ma5045966fe" x="248.989764" y="153.918803" style="fill: #1f78b4; stroke: #1f78b4"/>
     <use xlink:href="#ma5045966fe" x="420.813223" y="315.609917" style="fill: #1f78b4; stroke: #1f78b4"/>
     <use xlink:href="#ma5045966fe" x="168.098621" y="244.743465" style="fill: #1f78b4; stroke: #1f78b4"/>
     <use xlink:href="#ma5045966fe" x="39.986777" y="29.990083" style="fill: #1f78b4; stroke: #1f78b4"/>
    </g>
   </g>
  </g>
 </g>
 <defs>
  <clipPath id="p7a8e11a6d9">
   <rect x="0" y="0" width="460.8" height="345.6"/>
  </clipPath>
 </defs>
</svg>
