<?xml version="1.0" encoding="utf-8" standalone="no"?>
<!DOCTYPE svg PUBLIC "-//W3C//DTD SVG 1.1//EN"
  "http://www.w3.org/Graphics/SVG/1.1/DTD/svg11.dtd">
<svg xmlns:xlink="http://www.w3.org/1999/xlink" width="460.8pt" height="345.6pt" viewBox="0 0 460.8 345.6" xmlns="http://www.w3.org/2000/svg" version="1.1">
 <metadata>
  <rdf:RDF xmlns:dc="http://purl.org/dc/elements/1.1/" xmlns:cc="http://creativecommons.org/ns#" xmlns:rdf="http://www.w3.org/1999/02/22-rdf-syntax-ns#">
   <cc:Work>
    <dc:type rdf:resource="http://purl.org/dc/dcmitype/StillImage"/>
    <dc:date>2023-04-25T12:20:11.946804</dc:date>
    <dc:format>image/svg+xml</dc:format>
    <dc:creator>
     <cc:Agent>
      <dc:title>Matplotlib v3.7.1, https://matplotlib.org/</dc:title>
     </cc:Agent>
    </dc:creator>
   </cc:Work>
  </rdf:RDF>
 </metadata>
 <defs>
  <style type="text/css">*{stroke-linejoin: round; stroke-linecap: butt}</style>
 </defs>
 <g id="figure_1">
  <g id="patch_1">
   <path d="M 0 345.6 
L 460.8 345.6 
L 460.8 0 
L 0 0 
z
" style="fill: #ffffff"/>
  </g>
  <g id="axes_1">
   <g id="patch_2">
    <path d="M 273.294002 257.573485 
Q 160.842952 285.546291 49.476872 313.249205 
" clip-path="url(#p80b2c0b9b0)" style="fill: none; stroke: #000000; stroke-linecap: round"/>
    <path d="M 53.841374 314.224462 
L 49.476872 313.249205 
L 52.875779 310.342758 
z
" clip-path="url(#p80b2c0b9b0)" style="stroke: #000000; stroke-linecap: round"/>
   </g>
   <g id="patch_3">
    <path d="M 274.094811 251.332664 
Q 191.313343 206.158574 109.51329 161.520045 
" clip-path="url(#p80b2c0b9b0)" style="fill: none; stroke: #000000; stroke-linecap: round"/>
    <path d="M 112.066466 165.191734 
L 109.51329 161.520045 
L 113.982546 161.680518 
z
" clip-path="url(#p80b2c0b9b0)" style="stroke: #000000; stroke-linecap: round"/>
   </g>
   <g id="patch_4">
    <path d="M 48.392284 313.519002 
Q 160.843333 285.546196 272.209413 257.843282 
" clip-path="url(#p80b2c0b9b0)" style="fill: none; stroke: #000000; stroke-linecap: round"/>
    <path d="M 267.844912 256.868025 
L 272.209413 257.843282 
L 268.810507 260.749729 
z
" clip-path="url(#p80b2c0b9b0)" style="stroke: #000000; stroke-linecap: round"/>
   </g>
   <g id="patch_5">
    <path d="M 43.08992 307.525382 
Q 70.457531 236.225287 97.424498 165.968977 
" clip-path="url(#p80b2c0b9b0)" style="fill: none; stroke: #000000; stroke-linecap: round"/>
    <path d="M 94.123937 168.986641 
L 97.424498 165.968977 
L 97.858292 170.420024 
z
" clip-path="url(#p80b2c0b9b0)" style="stroke: #000000; stroke-linecap: round"/>
   </g>
   <g id="patch_6">
    <path d="M 108.981281 153.643495 
Q 260.873023 93.412551 411.725461 33.593731 
" clip-path="url(#p80b2c0b9b0)" style="fill: none; stroke: #000000; stroke-linecap: round"/>
    <path d="M 407.269902 33.209028 
L 411.725461 33.593731 
L 408.744363 36.927356 
z
" clip-path="url(#p80b2c0b9b0)" style="stroke: #000000; stroke-linecap: round"/>
   </g>
   <g id="PathCollection_1">
    <defs>
     <path id="m1c8ec476e6" d="M 0 8.660254 
C 2.296726 8.660254 4.499694 7.747755 6.123724 6.123724 
C 7.747755 4.499694 8.660254 2.296726 8.660254 0 
C 8.660254 -2.296726 7.747755 -4.499694 6.123724 -6.123724 
C 4.499694 -7.747755 2.296726 -8.660254 0 -8.660254 
C -2.296726 -8.660254 -4.499694 -7.747755 -6.123724 -6.123724 
C -7.747755 -4.499694 -8.660254 -2.296726 -8.660254 0 
C -8.660254 2.296726 -7.747755 4.499694 -6.123724 6.123724 
C -4.499694 7.747755 -2.296726 8.660254 0 8.660254 
z
" style="stroke: #1f78b4"/>
    </defs>
    <g clip-path="url(#p80b2c0b9b0)">
     <use xlink:href="#m1c8ec476e6" x="281.699509" y="255.48257" style="fill: #1f78b4; stroke: #1f78b4"/>
     <use xlink:href="#m1c8ec476e6" x="39.986777" y="315.609917" style="fill: #1f78b4; stroke: #1f78b4"/>
     <use xlink:href="#m1c8ec476e6" x="100.930022" y="156.83613" style="fill: #1f78b4; stroke: #1f78b4"/>
     <use xlink:href="#m1c8ec476e6" x="420.813223" y="29.990083" style="fill: #1f78b4; stroke: #1f78b4"/>
    </g>
   </g>
  </g>
 </g>
 <defs>
  <clipPath id="p80b2c0b9b0">
   <rect x="0" y="0" width="460.8" height="345.6"/>
  </clipPath>
 </defs>
</svg>
