<?xml version="1.0" encoding="utf-8" standalone="no"?>
<!DOCTYPE svg PUBLIC "-//W3C//DTD SVG 1.1//EN"
  "http://www.w3.org/Graphics/SVG/1.1/DTD/svg11.dtd">
<svg xmlns:xlink="http://www.w3.org/1999/xlink" width="460.8pt" height="345.6pt" viewBox="0 0 460.8 345.6" xmlns="http://www.w3.org/2000/svg" version="1.1">
 <metadata>
  <rdf:RDF xmlns:dc="http://purl.org/dc/elements/1.1/" xmlns:cc="http://creativecommons.org/ns#" xmlns:rdf="http://www.w3.org/1999/02/22-rdf-syntax-ns#">
   <cc:Work>
    <dc:type rdf:resource="http://purl.org/dc/dcmitype/StillImage"/>
    <dc:date>2023-04-25T12:20:13.967038</dc:date>
    <dc:format>image/svg+xml</dc:format>
    <dc:creator>
     <cc:Agent>
      <dc:title>Matplotlib v3.7.1, https://matplotlib.org/</dc:title>
     </cc:Agent>
    </dc:creator>
   </cc:Work>
  </rdf:RDF>
 </metadata>
 <defs>
  <style type="text/css">*{stroke-linejoin: round; stroke-linecap: butt}</style>
 </defs>
 <g id="figure_1">
  <g id="patch_1">
   <path d="M 0 345.6 
L 460.8 345.6 
L 460.8 0 
L 0 0 
z
" style="fill: #ffffff"/>
  </g>
  <g id="axes_1">
   <g id="patch_2">
    <path d="M 250.88538 171.530505 
Q 230.456103 172.796487 211.142719 173.993318 
" clip-path="url(#pcc0cdaa07f)" style="fill: none; stroke: #000000; stroke-linecap: round"/>
    <path d="M 215.258762 175.742087 
L 211.142719 173.993318 
L 215.01136 171.749745 
z
" clip-path="url(#pcc0cdaa07f)" style="stroke: #000000; stroke-linecap: round"/>
   </g>
   <g id="patch_3">
    <path d="M 265.972264 176.774216 
Q 340.168859 243.301422 413.533035 309.082251 
" clip-path="url(#pcc0cdaa07f)" style="fill: none; stroke: #000000; stroke-linecap: round"/>
    <path d="M 411.890037 304.922857 
L 413.533035 309.082251 
L 409.219721 307.901013 
z
" clip-path="url(#pcc0cdaa07f)" style="stroke: #000000; stroke-linecap: round"/>
   </g>
   <g id="patch_4">
    <path d="M 252.240748 166.315351 
Q 149.755724 100.491855 48.211415 35.272556 
" clip-path="url(#pcc0cdaa07f)" style="fill: none; stroke: #000000; stroke-linecap: round"/>
    <path d="M 50.4962 39.117002 
L 48.211415 35.272556 
L 52.657842 35.751396 
z
" clip-path="url(#pcc0cdaa07f)" style="stroke: #000000; stroke-linecap: round"/>
   </g>
   <g id="patch_5">
    <path d="M 210.023999 174.062644 
Q 230.453276 172.796662 249.76666 171.59983 
" clip-path="url(#pcc0cdaa07f)" style="fill: none; stroke: #000000; stroke-linecap: round"/>
    <path d="M 245.650617 169.851061 
L 249.76666 171.59983 
L 245.898019 173.843403 
z
" clip-path="url(#pcc0cdaa07f)" style="stroke: #000000; stroke-linecap: round"/>
   </g>
   <g id="patch_6">
    <path d="M 208.665002 179.278025 
Q 311.095728 245.102639 412.58589 310.322822 
" clip-path="url(#pcc0cdaa07f)" style="fill: none; stroke: #000000; stroke-linecap: round"/>
    <path d="M 410.302061 306.477808 
L 412.58589 310.322822 
L 408.139582 309.842877 
z
" clip-path="url(#pcc0cdaa07f)" style="stroke: #000000; stroke-linecap: round"/>
   </g>
   <g id="patch_7">
    <path d="M 194.932744 168.819206 
Q 120.685831 102.295153 47.271607 36.517175 
" clip-path="url(#pcc0cdaa07f)" style="fill: none; stroke: #000000; stroke-linecap: round"/>
    <path d="M 48.916104 40.675976 
L 47.271607 36.517175 
L 51.585346 37.696858 
z
" clip-path="url(#pcc0cdaa07f)" style="stroke: #000000; stroke-linecap: round"/>
   </g>
   <g id="PathCollection_1">
    <defs>
     <path id="m23d93b6bdb" d="M 0 8.660254 
C 2.296726 8.660254 4.499694 7.747755 6.123724 6.123724 
C 7.747755 4.499694 8.660254 2.296726 8.660254 0 
C 8.660254 -2.296726 7.747755 -4.499694 6.123724 -6.123724 
C 4.499694 -7.747755 2.296726 -8.660254 0 -8.660254 
C -2.296726 -8.660254 -4.499694 -7.747755 -6.123724 -6.123724 
C -7.747755 -4.499694 -8.660254 -2.296726 -8.660254 0 
C -8.660254 2.296726 -7.747755 4.499694 -6.123724 6.123724 
C -4.499694 7.747755 -2.296726 8.660254 0 8.660254 
z
" style="stroke: #1f78b4"/>
    </defs>
    <g clip-path="url(#pcc0cdaa07f)">
     <use xlink:href="#m23d93b6bdb" x="259.526813" y="170.995003" style="fill: #1f78b4; stroke: #1f78b4"/>
     <use xlink:href="#m23d93b6bdb" x="201.382566" y="174.598145" style="fill: #1f78b4; stroke: #1f78b4"/>
     <use xlink:href="#m23d93b6bdb" x="420.813223" y="315.609917" style="fill: #1f78b4; stroke: #1f78b4"/>
     <use xlink:href="#m23d93b6bdb" x="39.986777" y="29.990083" style="fill: #1f78b4; stroke: #1f78b4"/>
    </g>
   </g>
  </g>
 </g>
 <defs>
  <clipPath id="pcc0cdaa07f">
   <rect x="0" y="0" width="460.8" height="345.6"/>
  </clipPath>
 </defs>
</svg>
