<?xml version="1.0" encoding="utf-8" standalone="no"?>
<!DOCTYPE svg PUBLIC "-//W3C//DTD SVG 1.1//EN"
  "http://www.w3.org/Graphics/SVG/1.1/DTD/svg11.dtd">
<svg xmlns:xlink="http://www.w3.org/1999/xlink" width="460.8pt" height="345.6pt" viewBox="0 0 460.8 345.6" xmlns="http://www.w3.org/2000/svg" version="1.1">
 <metadata>
  <rdf:RDF xmlns:dc="http://purl.org/dc/elements/1.1/" xmlns:cc="http://creativecommons.org/ns#" xmlns:rdf="http://www.w3.org/1999/02/22-rdf-syntax-ns#">
   <cc:Work>
    <dc:type rdf:resource="http://purl.org/dc/dcmitype/StillImage"/>
    <dc:date>2023-04-25T12:20:14.523749</dc:date>
    <dc:format>image/svg+xml</dc:format>
    <dc:creator>
     <cc:Agent>
      <dc:title>Matplotlib v3.7.1, https://matplotlib.org/</dc:title>
     </cc:Agent>
    </dc:creator>
   </cc:Work>
  </rdf:RDF>
 </metadata>
 <defs>
  <style type="text/css">*{stroke-linejoin: round; stroke-linecap: butt}</style>
 </defs>
 <g id="figure_1">
  <g id="patch_1">
   <path d="M 0 345.6 
L 460.8 345.6 
L 460.8 0 
L 0 0 
z
" style="fill: #ffffff"/>
  </g>
  <g id="axes_1">
   <g id="patch_2">
    <path d="M 217.032388 72.078919 
Q 253.431119 189.706665 289.499348 306.266344 
" clip-path="url(#p0b08ba9263)" style="fill: none; stroke: #000000; stroke-linecap: round"/>
    <path d="M 290.227522 301.853889 
L 289.499348 306.266344 
L 286.406288 303.036332 
z
" clip-path="url(#p0b08ba9263)" style="stroke: #000000; stroke-linecap: round"/>
   </g>
   <g id="patch_3">
    <path d="M 207.654096 69.150903 
Q 127.229505 132.186709 47.684867 194.532818 
" clip-path="url(#p0b08ba9263)" style="fill: none; stroke: #000000; stroke-linecap: round"/>
    <path d="M 52.066852 193.639392 
L 47.684867 194.532818 
L 49.599318 190.491175 
z
" clip-path="url(#p0b08ba9263)" style="stroke: #000000; stroke-linecap: round"/>
   </g>
   <g id="patch_4">
    <path d="M 223.020811 62.405695 
Q 317.644935 46.898028 411.165744 31.571179 
" clip-path="url(#p0b08ba9263)" style="fill: none; stroke: #000000; stroke-linecap: round"/>
    <path d="M 406.894945 30.244427 
L 411.165744 31.571179 
L 407.541863 34.191768 
z
" clip-path="url(#p0b08ba9263)" style="stroke: #000000; stroke-linecap: round"/>
   </g>
   <g id="patch_5">
    <path d="M 289.830847 307.337632 
Q 253.432116 189.709886 217.363887 73.150207 
" clip-path="url(#p0b08ba9263)" style="fill: none; stroke: #000000; stroke-linecap: round"/>
    <path d="M 216.635713 77.562662 
L 217.363887 73.150207 
L 220.456947 76.38022 
z
" clip-path="url(#p0b08ba9263)" style="stroke: #000000; stroke-linecap: round"/>
   </g>
   <g id="patch_6">
    <path d="M 47.870546 204.159838 
Q 166.188698 258.088201 283.489508 311.552868 
" clip-path="url(#p0b08ba9263)" style="fill: none; stroke: #000000; stroke-linecap: round"/>
    <path d="M 280.679236 308.074022 
L 283.489508 311.552868 
L 279.020268 311.713778 
z
" clip-path="url(#p0b08ba9263)" style="stroke: #000000; stroke-linecap: round"/>
   </g>
   <g id="patch_7">
    <path d="M 417.260517 37.891522 
Q 356.600416 172.803352 296.398801 306.695481 
" clip-path="url(#p0b08ba9263)" style="fill: none; stroke: #000000; stroke-linecap: round"/>
    <path d="M 299.863228 303.867451 
L 296.398801 306.695481 
L 296.215033 302.227122 
z
" clip-path="url(#p0b08ba9263)" style="stroke: #000000; stroke-linecap: round"/>
   </g>
   <g id="PathCollection_1">
    <defs>
     <path id="mae5c18678e" d="M 0 8.660254 
C 2.296726 8.660254 4.499694 7.747755 6.123724 6.123724 
C 7.747755 4.499694 8.660254 2.296726 8.660254 0 
C 8.660254 -2.296726 7.747755 -4.499694 6.123724 -6.123724 
C 4.499694 -7.747755 2.296726 -8.660254 0 -8.660254 
C -2.296726 -8.660254 -4.499694 -7.747755 -6.123724 -6.123724 
C -7.747755 -4.499694 -8.660254 -2.296726 -8.660254 0 
C -8.660254 2.296726 -7.747755 4.499694 -6.123724 6.123724 
C -4.499694 7.747755 -2.296726 8.660254 0 8.660254 
z
" style="stroke: #1f78b4"/>
    </defs>
    <g clip-path="url(#p0b08ba9263)">
     <use xlink:href="#mae5c18678e" x="214.472612" y="63.806634" style="fill: #1f78b4; stroke: #1f78b4"/>
     <use xlink:href="#mae5c18678e" x="292.390623" y="315.609917" style="fill: #1f78b4; stroke: #1f78b4"/>
     <use xlink:href="#mae5c18678e" x="39.986777" y="200.566486" style="fill: #1f78b4; stroke: #1f78b4"/>
     <use xlink:href="#mae5c18678e" x="420.813223" y="29.990083" style="fill: #1f78b4; stroke: #1f78b4"/>
    </g>
   </g>
  </g>
 </g>
 <defs>
  <clipPath id="p0b08ba9263">
   <rect x="0" y="0" width="460.8" height="345.6"/>
  </clipPath>
 </defs>
</svg>
