<?xml version="1.0" encoding="utf-8" standalone="no"?>
<!DOCTYPE svg PUBLIC "-//W3C//DTD SVG 1.1//EN"
  "http://www.w3.org/Graphics/SVG/1.1/DTD/svg11.dtd">
<svg xmlns:xlink="http://www.w3.org/1999/xlink" width="460.8pt" height="345.6pt" viewBox="0 0 460.8 345.6" xmlns="http://www.w3.org/2000/svg" version="1.1">
 <metadata>
  <rdf:RDF xmlns:dc="http://purl.org/dc/elements/1.1/" xmlns:cc="http://creativecommons.org/ns#" xmlns:rdf="http://www.w3.org/1999/02/22-rdf-syntax-ns#">
   <cc:Work>
    <dc:type rdf:resource="http://purl.org/dc/dcmitype/StillImage"/>
    <dc:date>2023-04-25T12:20:14.575488</dc:date>
    <dc:format>image/svg+xml</dc:format>
    <dc:creator>
     <cc:Agent>
      <dc:title>Matplotlib v3.7.1, https://matplotlib.org/</dc:title>
     </cc:Agent>
    </dc:creator>
   </cc:Work>
  </rdf:RDF>
 </metadata>
 <defs>
  <style type="text/css">*{stroke-linejoin: round; stroke-linecap: butt}</style>
 </defs>
 <g id="figure_1">
  <g id="patch_1">
   <path d="M 0 345.6 
L 460.8 345.6 
L 460.8 0 
L 0 0 
z
" style="fill: #ffffff"/>
  </g>
  <g id="axes_1">
   <g id="patch_2">
    <path d="M 202.461512 177.013026 
Q 267.426706 243.220661 331.608854 308.630275 
" clip-path="url(#pdcaa03091f)" style="fill: none; stroke: #000000; stroke-linecap: round"/>
    <path d="M 330.234888 304.37443 
L 331.608854 308.630275 
L 327.379798 307.175941 
z
" clip-path="url(#pdcaa03091f)" style="stroke: #000000; stroke-linecap: round"/>
   </g>
   <g id="patch_3">
    <path d="M 204.711856 168.425218 
Q 308.602813 138.394576 411.419707 108.674401 
" clip-path="url(#pdcaa03091f)" style="fill: none; stroke: #000000; stroke-linecap: round"/>
    <path d="M 407.021643 107.863823 
L 411.419707 108.674401 
L 408.132406 111.706505 
z
" clip-path="url(#pdcaa03091f)" style="stroke: #000000; stroke-linecap: round"/>
   </g>
   <g id="patch_4">
    <path d="M 189.957453 165.03359 
Q 118.190708 100.410071 47.2548 36.534691 
" clip-path="url(#pdcaa03091f)" style="fill: none; stroke: #000000; stroke-linecap: round"/>
    <path d="M 48.888975 40.697559 
L 47.2548 36.534691 
L 51.565599 37.725071 
z
" clip-path="url(#pdcaa03091f)" style="stroke: #000000; stroke-linecap: round"/>
   </g>
   <g id="patch_5">
    <path d="M 332.390081 309.426442 
Q 267.424887 243.218806 203.242739 177.809193 
" clip-path="url(#pdcaa03091f)" style="fill: none; stroke: #000000; stroke-linecap: round"/>
    <path d="M 204.616705 182.065038 
L 203.242739 177.809193 
L 207.471795 179.263527 
z
" clip-path="url(#pdcaa03091f)" style="stroke: #000000; stroke-linecap: round"/>
   </g>
   <g id="patch_6">
    <path d="M 417.647726 114.017443 
Q 379.63616 210.782507 342.033376 306.506948 
" clip-path="url(#pdcaa03091f)" style="fill: none; stroke: #000000; stroke-linecap: round"/>
    <path d="M 345.357401 303.515149 
L 342.033376 306.506948 
L 341.634352 302.052649 
z
" clip-path="url(#pdcaa03091f)" style="stroke: #000000; stroke-linecap: round"/>
   </g>
   <g id="patch_7">
    <path d="M 48.479481 31.684247 
Q 230.400954 67.974791 411.225997 104.046613 
" clip-path="url(#pdcaa03091f)" style="fill: none; stroke: #000000; stroke-linecap: round"/>
    <path d="M 407.694546 101.302737 
L 411.225997 104.046613 
L 406.912025 105.225448 
z
" clip-path="url(#pdcaa03091f)" style="stroke: #000000; stroke-linecap: round"/>
   </g>
   <g id="PathCollection_1">
    <defs>
     <path id="mf448b6d204" d="M 0 8.660254 
C 2.296726 8.660254 4.499694 7.747755 6.123724 6.123724 
C 7.747755 4.499694 8.660254 2.296726 8.660254 0 
C 8.660254 -2.296726 7.747755 -4.499694 6.123724 -6.123724 
C 4.499694 -7.747755 2.296726 -8.660254 0 -8.660254 
C -2.296726 -8.660254 -4.499694 -7.747755 -6.123724 -6.123724 
C -7.747755 -4.499694 -8.660254 -2.296726 -8.660254 0 
C -8.660254 2.296726 -7.747755 4.499694 -6.123724 6.123724 
C -4.499694 7.747755 -2.296726 8.660254 0 8.660254 
z
" style="stroke: #1f78b4"/>
    </defs>
    <g clip-path="url(#pdcaa03091f)">
     <use xlink:href="#mf448b6d204" x="196.394075" y="170.82955" style="fill: #1f78b4; stroke: #1f78b4"/>
     <use xlink:href="#mf448b6d204" x="338.457518" y="315.609917" style="fill: #1f78b4; stroke: #1f78b4"/>
     <use xlink:href="#mf448b6d204" x="420.813223" y="105.959118" style="fill: #1f78b4; stroke: #1f78b4"/>
     <use xlink:href="#mf448b6d204" x="39.986777" y="29.990083" style="fill: #1f78b4; stroke: #1f78b4"/>
    </g>
   </g>
  </g>
 </g>
 <defs>
  <clipPath id="pdcaa03091f">
   <rect x="0" y="0" width="460.8" height="345.6"/>
  </clipPath>
 </defs>
</svg>
