<?xml version="1.0" encoding="utf-8" standalone="no"?>
<!DOCTYPE svg PUBLIC "-//W3C//DTD SVG 1.1//EN"
  "http://www.w3.org/Graphics/SVG/1.1/DTD/svg11.dtd">
<svg xmlns:xlink="http://www.w3.org/1999/xlink" width="460.8pt" height="345.6pt" viewBox="0 0 460.8 345.6" xmlns="http://www.w3.org/2000/svg" version="1.1">
 <metadata>
  <rdf:RDF xmlns:dc="http://purl.org/dc/elements/1.1/" xmlns:cc="http://creativecommons.org/ns#" xmlns:rdf="http://www.w3.org/1999/02/22-rdf-syntax-ns#">
   <cc:Work>
    <dc:type rdf:resource="http://purl.org/dc/dcmitype/StillImage"/>
    <dc:date>2023-04-25T12:20:14.705201</dc:date>
    <dc:format>image/svg+xml</dc:format>
    <dc:creator>
     <cc:Agent>
      <dc:title>Matplotlib v3.7.1, https://matplotlib.org/</dc:title>
     </cc:Agent>
    </dc:creator>
   </cc:Work>
  </rdf:RDF>
 </metadata>
 <defs>
  <style type="text/css">*{stroke-linejoin: round; stroke-linecap: butt}</style>
 </defs>
 <g id="figure_1">
  <g id="patch_1">
   <path d="M 0 345.6 
L 460.8 345.6 
L 460.8 0 
L 0 0 
z
" style="fill: #ffffff"/>
  </g>
  <g id="axes_1">
   <g id="patch_2">
    <path d="M 192.305033 182.424067 
Q 202.94054 161.493893 213.069566 141.56045 
" clip-path="url(#p727eb535c0)" style="fill: none; stroke: #000000; stroke-linecap: round"/>
    <path d="M 209.474511 144.220447 
L 213.069566 141.56045 
L 213.04053 146.032492 
z
" clip-path="url(#p727eb535c0)" style="stroke: #000000; stroke-linecap: round"/>
   </g>
   <g id="patch_3">
    <path d="M 182.497976 183.79116 
Q 114.185627 110.06704 46.633175 37.163016 
" clip-path="url(#p727eb535c0)" style="fill: none; stroke: #000000; stroke-linecap: round"/>
    <path d="M 47.884831 41.456424 
L 46.633175 37.163016 
L 50.818896 38.737737 
z
" clip-path="url(#p727eb535c0)" style="stroke: #000000; stroke-linecap: round"/>
   </g>
   <g id="patch_4">
    <path d="M 196.004664 194.256638 
Q 304.599588 252.876961 412.210669 310.966197 
" clip-path="url(#p727eb535c0)" style="fill: none; stroke: #000000; stroke-linecap: round"/>
    <path d="M 409.640799 307.306174 
L 412.210669 310.966197 
L 407.740729 310.826079 
z
" clip-path="url(#p727eb535c0)" style="stroke: #000000; stroke-linecap: round"/>
   </g>
   <g id="patch_5">
    <path d="M 210.003978 128.501474 
Q 128.742781 81.4171 48.448962 34.893243 
" clip-path="url(#p727eb535c0)" style="fill: none; stroke: #000000; stroke-linecap: round"/>
    <path d="M 50.907272 38.629111 
L 48.448962 34.893243 
L 52.912643 35.168116 
z
" clip-path="url(#p727eb535c0)" style="stroke: #000000; stroke-linecap: round"/>
   </g>
   <g id="patch_6">
    <path d="M 223.942268 138.636387 
Q 319.158947 224.229672 413.544155 309.075522 
" clip-path="url(#p727eb535c0)" style="fill: none; stroke: #000000; stroke-linecap: round"/>
    <path d="M 411.90645 304.914041 
L 413.544155 309.075522 
L 409.232347 307.888798 
z
" clip-path="url(#p727eb535c0)" style="stroke: #000000; stroke-linecap: round"/>
   </g>
   <g id="patch_7">
    <path d="M 47.481521 34.332688 
Q 128.742718 81.417063 209.036538 127.940919 
" clip-path="url(#p727eb535c0)" style="fill: none; stroke: #000000; stroke-linecap: round"/>
    <path d="M 206.578227 124.205051 
L 209.036538 127.940919 
L 204.572857 127.666047 
z
" clip-path="url(#p727eb535c0)" style="stroke: #000000; stroke-linecap: round"/>
   </g>
   <g id="PathCollection_1">
    <defs>
     <path id="m0dd11691a5" d="M 0 8.660254 
C 2.296726 8.660254 4.499694 7.747755 6.123724 6.123724 
C 7.747755 4.499694 8.660254 2.296726 8.660254 0 
C 8.660254 -2.296726 7.747755 -4.499694 6.123724 -6.123724 
C 4.499694 -7.747755 2.296726 -8.660254 0 -8.660254 
C -2.296726 -8.660254 -4.499694 -7.747755 -6.123724 -6.123724 
C -7.747755 -4.499694 -8.660254 -2.296726 -8.660254 0 
C -8.660254 2.296726 -7.747755 4.499694 -6.123724 6.123724 
C -4.499694 7.747755 -2.296726 8.660254 0 8.660254 
z
" style="stroke: #1f78b4"/>
    </defs>
    <g clip-path="url(#p727eb535c0)">
     <use xlink:href="#m0dd11691a5" x="188.383013" y="190.142416" style="fill: #1f78b4; stroke: #1f78b4"/>
     <use xlink:href="#m0dd11691a5" x="217.498723" y="132.84408" style="fill: #1f78b4; stroke: #1f78b4"/>
     <use xlink:href="#m0dd11691a5" x="39.986777" y="29.990083" style="fill: #1f78b4; stroke: #1f78b4"/>
     <use xlink:href="#m0dd11691a5" x="420.813223" y="315.609917" style="fill: #1f78b4; stroke: #1f78b4"/>
    </g>
   </g>
  </g>
 </g>
 <defs>
  <clipPath id="p727eb535c0">
   <rect x="0" y="0" width="460.8" height="345.6"/>
  </clipPath>
 </defs>
</svg>
