<?xml version="1.0" encoding="utf-8" standalone="no"?>
<!DOCTYPE svg PUBLIC "-//W3C//DTD SVG 1.1//EN"
  "http://www.w3.org/Graphics/SVG/1.1/DTD/svg11.dtd">
<svg xmlns:xlink="http://www.w3.org/1999/xlink" width="460.8pt" height="345.6pt" viewBox="0 0 460.8 345.6" xmlns="http://www.w3.org/2000/svg" version="1.1">
 <metadata>
  <rdf:RDF xmlns:dc="http://purl.org/dc/elements/1.1/" xmlns:cc="http://creativecommons.org/ns#" xmlns:rdf="http://www.w3.org/1999/02/22-rdf-syntax-ns#">
   <cc:Work>
    <dc:type rdf:resource="http://purl.org/dc/dcmitype/StillImage"/>
    <dc:date>2023-04-25T12:20:14.760676</dc:date>
    <dc:format>image/svg+xml</dc:format>
    <dc:creator>
     <cc:Agent>
      <dc:title>Matplotlib v3.7.1, https://matplotlib.org/</dc:title>
     </cc:Agent>
    </dc:creator>
   </cc:Work>
  </rdf:RDF>
 </metadata>
 <defs>
  <style type="text/css">*{stroke-linejoin: round; stroke-linecap: butt}</style>
 </defs>
 <g id="figure_1">
  <g id="patch_1">
   <path d="M 0 345.6 
L 460.8 345.6 
L 460.8 0 
L 0 0 
z
" style="fill: #ffffff"/>
  </g>
  <g id="axes_1">
   <g id="patch_2">
    <path d="M 268.836055 306.976968 
Q 261.06344 203.311764 253.374419 100.761464 
" clip-path="url(#p75a9b9b4a9)" style="fill: none; stroke: #000000; stroke-linecap: round"/>
    <path d="M 251.67909 104.899804 
L 253.374419 100.761464 
L 255.667893 104.600732 
z
" clip-path="url(#p75a9b9b4a9)" style="stroke: #000000; stroke-linecap: round"/>
   </g>
   <g id="patch_3">
    <path d="M 273.799065 308.101323 
Q 345.149251 183.964767 415.942297 60.797538 
" clip-path="url(#p75a9b9b4a9)" style="fill: none; stroke: #000000; stroke-linecap: round"/>
    <path d="M 412.215023 63.268861 
L 415.942297 60.797538 
L 415.682991 65.26215 
z
" clip-path="url(#p75a9b9b4a9)" style="stroke: #000000; stroke-linecap: round"/>
   </g>
   <g id="patch_4">
    <path d="M 264.057236 308.856867 
Q 154.734163 172.798888 46.111381 37.612455 
" clip-path="url(#p75a9b9b4a9)" style="fill: none; stroke: #000000; stroke-linecap: round"/>
    <path d="M 47.057747 41.983312 
L 46.111381 37.612455 
L 50.175886 39.477876 
z
" clip-path="url(#p75a9b9b4a9)" style="stroke: #000000; stroke-linecap: round"/>
   </g>
   <g id="patch_5">
    <path d="M 261.083027 89.067786 
Q 336.727958 71.666211 411.283314 54.515285 
" clip-path="url(#p75a9b9b4a9)" style="fill: none; stroke: #000000; stroke-linecap: round"/>
    <path d="M 406.936755 53.462942 
L 411.283314 54.515285 
L 407.833505 57.361127 
z
" clip-path="url(#p75a9b9b4a9)" style="stroke: #000000; stroke-linecap: round"/>
   </g>
   <g id="patch_6">
    <path d="M 244.320104 88.621084 
Q 146.31425 60.499478 49.383065 32.686235 
" clip-path="url(#p75a9b9b4a9)" style="fill: none; stroke: #000000; stroke-linecap: round"/>
    <path d="M 52.676298 35.711894 
L 49.383065 32.686235 
L 53.779532 31.867043 
z
" clip-path="url(#p75a9b9b4a9)" style="stroke: #000000; stroke-linecap: round"/>
   </g>
   <g id="patch_7">
    <path d="M 412.169434 51.816098 
Q 230.401288 41.156616 49.749257 30.562587 
" clip-path="url(#p75a9b9b4a9)" style="fill: none; stroke: #000000; stroke-linecap: round"/>
    <path d="M 53.625311 32.793327 
L 49.749257 30.562587 
L 53.859482 28.800188 
z
" clip-path="url(#p75a9b9b4a9)" style="stroke: #000000; stroke-linecap: round"/>
   </g>
   <g id="PathCollection_1">
    <defs>
     <path id="m4f2386b8a6" d="M 0 8.660254 
C 2.296726 8.660254 4.499694 7.747755 6.123724 6.123724 
C 7.747755 4.499694 8.660254 2.296726 8.660254 0 
C 8.660254 -2.296726 7.747755 -4.499694 6.123724 -6.123724 
C 4.499694 -7.747755 2.296726 -8.660254 0 -8.660254 
C -2.296726 -8.660254 -4.499694 -7.747755 -6.123724 -6.123724 
C -7.747755 -4.499694 -8.660254 -2.296726 -8.660254 0 
C -8.660254 2.296726 -7.747755 4.499694 -6.123724 6.123724 
C -4.499694 7.747755 -2.296726 8.660254 0 8.660254 
z
" style="stroke: #1f78b4"/>
    </defs>
    <g clip-path="url(#p75a9b9b4a9)">
     <use xlink:href="#m4f2386b8a6" x="269.483337" y="315.609917" style="fill: #1f78b4; stroke: #1f78b4"/>
     <use xlink:href="#m4f2386b8a6" x="252.643221" y="91.009303" style="fill: #1f78b4; stroke: #1f78b4"/>
     <use xlink:href="#m4f2386b8a6" x="420.813223" y="52.322998" style="fill: #1f78b4; stroke: #1f78b4"/>
     <use xlink:href="#m4f2386b8a6" x="39.986777" y="29.990083" style="fill: #1f78b4; stroke: #1f78b4"/>
    </g>
   </g>
  </g>
 </g>
 <defs>
  <clipPath id="p75a9b9b4a9">
   <rect x="0" y="0" width="460.8" height="345.6"/>
  </clipPath>
 </defs>
</svg>
