<?xml version="1.0" encoding="utf-8" standalone="no"?>
<!DOCTYPE svg PUBLIC "-//W3C//DTD SVG 1.1//EN"
  "http://www.w3.org/Graphics/SVG/1.1/DTD/svg11.dtd">
<svg xmlns:xlink="http://www.w3.org/1999/xlink" width="460.8pt" height="345.6pt" viewBox="0 0 460.8 345.6" xmlns="http://www.w3.org/2000/svg" version="1.1">
 <metadata>
  <rdf:RDF xmlns:dc="http://purl.org/dc/elements/1.1/" xmlns:cc="http://creativecommons.org/ns#" xmlns:rdf="http://www.w3.org/1999/02/22-rdf-syntax-ns#">
   <cc:Work>
    <dc:type rdf:resource="http://purl.org/dc/dcmitype/StillImage"/>
    <dc:date>2023-04-25T12:20:14.939153</dc:date>
    <dc:format>image/svg+xml</dc:format>
    <dc:creator>
     <cc:Agent>
      <dc:title>Matplotlib v3.7.1, https://matplotlib.org/</dc:title>
     </cc:Agent>
    </dc:creator>
   </cc:Work>
  </rdf:RDF>
 </metadata>
 <defs>
  <style type="text/css">*{stroke-linejoin: round; stroke-linecap: butt}</style>
 </defs>
 <g id="figure_1">
  <g id="patch_1">
   <path d="M 0 345.6 
L 460.8 345.6 
L 460.8 0 
L 0 0 
z
" style="fill: #ffffff"/>
  </g>
  <g id="axes_1">
   <g id="patch_2">
    <path d="M 430.014998 316.92293 
Q 416.258294 277.245739 402.86784 238.624891 
" clip-path="url(#p7e75020eaa)" style="fill: none; stroke: #000000; stroke-linecap: round"/>
    <path d="M 402.288534 243.059348 
L 402.86784 238.624891 
L 406.067822 241.74901 
z
" clip-path="url(#p7e75020eaa)" style="stroke: #000000; stroke-linecap: round"/>
   </g>
   <g id="patch_3">
    <path d="M 424.410462 323.150873 
Q 362.823402 308.894127 302.325573 294.889527 
" clip-path="url(#p7e75020eaa)" style="fill: none; stroke: #000000; stroke-linecap: round"/>
    <path d="M 305.771472 297.740103 
L 302.325573 294.889527 
L 306.673574 293.843154 
z
" clip-path="url(#p7e75020eaa)" style="stroke: #000000; stroke-linecap: round"/>
   </g>
   <g id="patch_4">
    <path d="M 402.501411 237.568036 
Q 416.258116 277.245226 429.64857 315.866074 
" clip-path="url(#p7e75020eaa)" style="fill: none; stroke: #000000; stroke-linecap: round"/>
    <path d="M 430.227875 311.431618 
L 429.64857 315.866074 
L 426.448588 312.741956 
z
" clip-path="url(#p7e75020eaa)" style="stroke: #000000; stroke-linecap: round"/>
   </g>
   <g id="patch_5">
    <path d="M 392.212459 233.799937 
Q 346.232208 261.034317 301.213914 287.698926 
" clip-path="url(#p7e75020eaa)" style="fill: none; stroke: #000000; stroke-linecap: round"/>
    <path d="M 305.674752 287.381245 
L 301.213914 287.698926 
L 303.636273 283.939647 
z
" clip-path="url(#p7e75020eaa)" style="stroke: #000000; stroke-linecap: round"/>
   </g>
   <g id="patch_6">
    <path d="M 301.239044 294.638007 
Q 362.826103 308.894753 423.323932 322.899353 
" clip-path="url(#p7e75020eaa)" style="fill: none; stroke: #000000; stroke-linecap: round"/>
    <path d="M 419.878034 320.048777 
L 423.323932 322.899353 
L 418.975932 323.945726 
z
" clip-path="url(#p7e75020eaa)" style="stroke: #000000; stroke-linecap: round"/>
   </g>
   <g id="patch_7">
    <path d="M 300.249783 288.269986 
Q 346.230033 261.035606 391.248328 234.370997 
" clip-path="url(#p7e75020eaa)" style="fill: none; stroke: #000000; stroke-linecap: round"/>
    <path d="M 386.787489 234.688678 
L 391.248328 234.370997 
L 388.825969 238.130276 
z
" clip-path="url(#p7e75020eaa)" style="stroke: #000000; stroke-linecap: round"/>
   </g>
   <g id="PathCollection_1">
    <defs>
     <path id="mafb65c3726" d="M 0 8.660254 
C 2.296726 8.660254 4.499694 7.747755 6.123724 6.123724 
C 7.747755 4.499694 8.660254 2.296726 8.660254 0 
C 8.660254 -2.296726 7.747755 -4.499694 6.123724 -6.123724 
C 4.499694 -7.747755 2.296726 -8.660254 0 -8.660254 
C -2.296726 -8.660254 -4.499694 -7.747755 -6.123724 -6.123724 
C -7.747755 -4.499694 -8.660254 -2.296726 -8.660254 0 
C -8.660254 2.296726 -7.747755 4.499694 -6.123724 6.123724 
C -4.499694 7.747755 -2.296726 8.660254 0 8.660254 
z
" style="stroke: #1f78b4"/>
    </defs>
    <g clip-path="url(#p7e75020eaa)">
     <use xlink:href="#mafb65c3726" x="432.851837" y="325.104961" style="fill: #1f78b4; stroke: #1f78b4"/>
     <use xlink:href="#mafb65c3726" x="399.664573" y="229.386004" style="fill: #1f78b4; stroke: #1f78b4"/>
     <use xlink:href="#mafb65c3726" x="292.797669" y="292.683919" style="fill: #1f78b4; stroke: #1f78b4"/>
     <use xlink:href="#mafb65c3726" x="20.945455" y="15.709091" style="fill: #1f78b4; stroke: #1f78b4"/>
    </g>
   </g>
  </g>
 </g>
 <defs>
  <clipPath id="p7e75020eaa">
   <rect x="0" y="0" width="460.8" height="345.6"/>
  </clipPath>
 </defs>
</svg>
