<?xml version="1.0" encoding="utf-8" standalone="no"?>
<!DOCTYPE svg PUBLIC "-//W3C//DTD SVG 1.1//EN"
  "http://www.w3.org/Graphics/SVG/1.1/DTD/svg11.dtd">
<svg xmlns:xlink="http://www.w3.org/1999/xlink" width="460.8pt" height="345.6pt" viewBox="0 0 460.8 345.6" xmlns="http://www.w3.org/2000/svg" version="1.1">
 <metadata>
  <rdf:RDF xmlns:dc="http://purl.org/dc/elements/1.1/" xmlns:cc="http://creativecommons.org/ns#" xmlns:rdf="http://www.w3.org/1999/02/22-rdf-syntax-ns#">
   <cc:Work>
    <dc:type rdf:resource="http://purl.org/dc/dcmitype/StillImage"/>
    <dc:date>2023-04-25T12:20:15.046227</dc:date>
    <dc:format>image/svg+xml</dc:format>
    <dc:creator>
     <cc:Agent>
      <dc:title>Matplotlib v3.7.1, https://matplotlib.org/</dc:title>
     </cc:Agent>
    </dc:creator>
   </cc:Work>
  </rdf:RDF>
 </metadata>
 <defs>
  <style type="text/css">*{stroke-linejoin: round; stroke-linecap: butt}</style>
 </defs>
 <g id="figure_1">
  <g id="patch_1">
   <path d="M 0 345.6 
L 460.8 345.6 
L 460.8 0 
L 0 0 
z
" style="fill: #ffffff"/>
  </g>
  <g id="axes_1">
   <g id="patch_2">
    <path d="M 417.041886 112.880705 
Q 369.895227 210.346078 323.235423 306.804985 
" clip-path="url(#p6b8e8e03f4)" style="fill: none; stroke: #000000; stroke-linecap: round"/>
    <path d="M 326.777667 304.075057 
L 323.235423 306.804985 
L 323.176827 302.333233 
z
" clip-path="url(#p6b8e8e03f4)" style="stroke: #000000; stroke-linecap: round"/>
   </g>
   <g id="patch_3">
    <path d="M 412.347784 103.26297 
Q 246.297033 67.537462 81.339304 32.047116 
" clip-path="url(#p6b8e8e03f4)" style="fill: none; stroke: #000000; stroke-linecap: round"/>
    <path d="M 84.829152 34.843715 
L 81.339304 32.047116 
L 85.670492 30.933198 
z
" clip-path="url(#p6b8e8e03f4)" style="stroke: #000000; stroke-linecap: round"/>
   </g>
   <g id="patch_4">
    <path d="M 322.747574 307.813505 
Q 369.894233 210.348132 416.554037 113.889225 
" clip-path="url(#p6b8e8e03f4)" style="fill: none; stroke: #000000; stroke-linecap: round"/>
    <path d="M 413.011793 116.619153 
L 416.554037 113.889225 
L 416.612633 118.360978 
z
" clip-path="url(#p6b8e8e03f4)" style="stroke: #000000; stroke-linecap: round"/>
   </g>
   <g id="patch_5">
    <path d="M 313.308895 309.061703 
Q 195.376796 172.799457 78.176357 37.382594 
" clip-path="url(#p6b8e8e03f4)" style="fill: none; stroke: #000000; stroke-linecap: round"/>
    <path d="M 79.281761 41.715963 
L 78.176357 37.382594 
L 82.306294 39.098293 
z
" clip-path="url(#p6b8e8e03f4)" style="stroke: #000000; stroke-linecap: round"/>
   </g>
   <g id="patch_6">
    <path d="M 80.243734 31.811406 
Q 246.294485 67.536914 411.252214 103.02726 
" clip-path="url(#p6b8e8e03f4)" style="fill: none; stroke: #000000; stroke-linecap: round"/>
    <path d="M 407.762366 100.230661 
L 411.252214 103.02726 
L 406.921026 104.141178 
z
" clip-path="url(#p6b8e8e03f4)" style="stroke: #000000; stroke-linecap: round"/>
   </g>
   <g id="patch_7">
    <path d="M 47.875142 274.12828 
Q 230.399186 191.39446 411.904922 109.122215 
" clip-path="url(#p6b8e8e03f4)" style="fill: none; stroke: #000000; stroke-linecap: round"/>
    <path d="M 407.436027 108.95199 
L 411.904922 109.122215 
L 409.087406 112.595196 
z
" clip-path="url(#p6b8e8e03f4)" style="stroke: #000000; stroke-linecap: round"/>
   </g>
   <g id="PathCollection_1">
    <defs>
     <path id="m3bd02bf614" d="M 0 8.660254 
C 2.296726 8.660254 4.499694 7.747755 6.123724 6.123724 
C 7.747755 4.499694 8.660254 2.296726 8.660254 0 
C 8.660254 -2.296726 7.747755 -4.499694 6.123724 -6.123724 
C 4.499694 -7.747755 2.296726 -8.660254 0 -8.660254 
C -2.296726 -8.660254 -4.499694 -7.747755 -6.123724 -6.123724 
C -7.747755 -4.499694 -8.660254 -2.296726 -8.660254 0 
C -8.660254 2.296726 -7.747755 4.499694 -6.123724 6.123724 
C -4.499694 7.747755 -2.296726 8.660254 0 8.660254 
z
" style="stroke: #1f78b4"/>
    </defs>
    <g clip-path="url(#p6b8e8e03f4)">
     <use xlink:href="#m3bd02bf614" x="420.813223" y="105.084293" style="fill: #1f78b4; stroke: #1f78b4"/>
     <use xlink:href="#m3bd02bf614" x="318.976237" y="315.609917" style="fill: #1f78b4; stroke: #1f78b4"/>
     <use xlink:href="#m3bd02bf614" x="71.778295" y="29.990083" style="fill: #1f78b4; stroke: #1f78b4"/>
     <use xlink:href="#m3bd02bf614" x="39.986777" y="277.703889" style="fill: #1f78b4; stroke: #1f78b4"/>
    </g>
   </g>
  </g>
 </g>
 <defs>
  <clipPath id="p6b8e8e03f4">
   <rect x="0" y="0" width="460.8" height="345.6"/>
  </clipPath>
 </defs>
</svg>
