<?xml version="1.0" encoding="utf-8" standalone="no"?>
<!DOCTYPE svg PUBLIC "-//W3C//DTD SVG 1.1//EN"
  "http://www.w3.org/Graphics/SVG/1.1/DTD/svg11.dtd">
<svg xmlns:xlink="http://www.w3.org/1999/xlink" width="460.8pt" height="345.6pt" viewBox="0 0 460.8 345.6" xmlns="http://www.w3.org/2000/svg" version="1.1">
 <metadata>
  <rdf:RDF xmlns:dc="http://purl.org/dc/elements/1.1/" xmlns:cc="http://creativecommons.org/ns#" xmlns:rdf="http://www.w3.org/1999/02/22-rdf-syntax-ns#">
   <cc:Work>
    <dc:type rdf:resource="http://purl.org/dc/dcmitype/StillImage"/>
    <dc:date>2023-04-25T12:20:14.084339</dc:date>
    <dc:format>image/svg+xml</dc:format>
    <dc:creator>
     <cc:Agent>
      <dc:title>Matplotlib v3.7.1, https://matplotlib.org/</dc:title>
     </cc:Agent>
    </dc:creator>
   </cc:Work>
  </rdf:RDF>
 </metadata>
 <defs>
  <style type="text/css">*{stroke-linejoin: round; stroke-linecap: butt}</style>
 </defs>
 <g id="figure_1">
  <g id="patch_1">
   <path d="M 0 345.6 
L 460.8 345.6 
L 460.8 0 
L 0 0 
z
" style="fill: #ffffff"/>
  </g>
  <g id="axes_1">
   <g id="patch_2">
    <path d="M 215.572548 183.92059 
Q 174.840067 214.469952 135.002014 244.348493 
" clip-path="url(#pa88aaf2b9f)" style="fill: none; stroke: #000000; stroke-linecap: round"/>
    <path d="M 139.402014 243.548493 
L 135.002014 244.348493 
L 137.002013 240.348493 
z
" clip-path="url(#pa88aaf2b9f)" style="stroke: #000000; stroke-linecap: round"/>
   </g>
   <g id="patch_3">
    <path d="M 215.572746 183.920441 
Q 131.242665 247.168001 47.807012 309.744741 
" clip-path="url(#pa88aaf2b9f)" style="fill: none; stroke: #000000; stroke-linecap: round"/>
    <path d="M 52.207012 308.944741 
L 47.807012 309.744741 
L 49.807012 305.744741 
z
" clip-path="url(#pa88aaf2b9f)" style="stroke: #000000; stroke-linecap: round"/>
   </g>
   <g id="patch_4">
    <path d="M 229.425424 173.530932 
Q 321.654333 104.35925 412.988815 35.858389 
" clip-path="url(#pa88aaf2b9f)" style="fill: none; stroke: #000000; stroke-linecap: round"/>
    <path d="M 408.588815 36.658389 
L 412.988815 35.858389 
L 410.988815 39.858389 
z
" clip-path="url(#pa88aaf2b9f)" style="stroke: #000000; stroke-linecap: round"/>
   </g>
   <g id="patch_5">
    <path d="M 134.103716 245.022216 
Q 174.836197 214.472854 214.674251 184.594313 
" clip-path="url(#pa88aaf2b9f)" style="fill: none; stroke: #000000; stroke-linecap: round"/>
    <path d="M 210.274251 185.394313 
L 214.674251 184.594313 
L 212.674251 188.594313 
z
" clip-path="url(#pa88aaf2b9f)" style="stroke: #000000; stroke-linecap: round"/>
   </g>
   <g id="patch_6">
    <path d="M 120.251253 255.411564 
Q 83.583801 282.912151 47.810776 309.741919 
" clip-path="url(#pa88aaf2b9f)" style="fill: none; stroke: #000000; stroke-linecap: round"/>
    <path d="M 52.210776 308.941919 
L 47.810776 309.741919 
L 49.810776 305.741919 
z
" clip-path="url(#pa88aaf2b9f)" style="stroke: #000000; stroke-linecap: round"/>
   </g>
   <g id="patch_7">
    <path d="M 46.912964 310.415277 
Q 83.580416 282.91469 119.353441 256.084923 
" clip-path="url(#pa88aaf2b9f)" style="fill: none; stroke: #000000; stroke-linecap: round"/>
    <path d="M 114.953441 256.884922 
L 119.353441 256.084923 
L 117.353441 260.084922 
z
" clip-path="url(#pa88aaf2b9f)" style="stroke: #000000; stroke-linecap: round"/>
   </g>
   <g id="PathCollection_1">
    <defs>
     <path id="md523e06e88" d="M 0 8.660254 
C 2.296726 8.660254 4.499694 7.747755 6.123724 6.123724 
C 7.747755 4.499694 8.660254 2.296726 8.660254 0 
C 8.660254 -2.296726 7.747755 -4.499694 6.123724 -6.123724 
C 4.499694 -7.747755 2.296726 -8.660254 0 -8.660254 
C -2.296726 -8.660254 -4.499694 -7.747755 -6.123724 -6.123724 
C -7.747755 -4.499694 -8.660254 -2.296726 -8.660254 0 
C -8.660254 2.296726 -7.747755 4.499694 -6.123724 6.123724 
C -4.499694 7.747755 -2.296726 8.660254 0 8.660254 
z
" style="stroke: #1f78b4"/>
    </defs>
    <g clip-path="url(#pa88aaf2b9f)">
     <use xlink:href="#md523e06e88" x="222.498824" y="178.725882" style="fill: #1f78b4; stroke: #1f78b4"/>
     <use xlink:href="#md523e06e88" x="127.17744" y="250.216924" style="fill: #1f78b4; stroke: #1f78b4"/>
     <use xlink:href="#md523e06e88" x="39.986777" y="315.609917" style="fill: #1f78b4; stroke: #1f78b4"/>
     <use xlink:href="#md523e06e88" x="420.813223" y="29.990083" style="fill: #1f78b4; stroke: #1f78b4"/>
    </g>
   </g>
  </g>
 </g>
 <defs>
  <clipPath id="pa88aaf2b9f">
   <rect x="0" y="0" width="460.8" height="345.6"/>
  </clipPath>
 </defs>
</svg>
