<?xml version="1.0" encoding="utf-8" standalone="no"?>
<!DOCTYPE svg PUBLIC "-//W3C//DTD SVG 1.1//EN"
  "http://www.w3.org/Graphics/SVG/1.1/DTD/svg11.dtd">
<svg xmlns:xlink="http://www.w3.org/1999/xlink" width="460.8pt" height="345.6pt" viewBox="0 0 460.8 345.6" xmlns="http://www.w3.org/2000/svg" version="1.1">
 <metadata>
  <rdf:RDF xmlns:dc="http://purl.org/dc/elements/1.1/" xmlns:cc="http://creativecommons.org/ns#" xmlns:rdf="http://www.w3.org/1999/02/22-rdf-syntax-ns#">
   <cc:Work>
    <dc:type rdf:resource="http://purl.org/dc/dcmitype/StillImage"/>
    <dc:date>2023-04-25T12:20:15.156116</dc:date>
    <dc:format>image/svg+xml</dc:format>
    <dc:creator>
     <cc:Agent>
      <dc:title>Matplotlib v3.7.1, https://matplotlib.org/</dc:title>
     </cc:Agent>
    </dc:creator>
   </cc:Work>
  </rdf:RDF>
 </metadata>
 <defs>
  <style type="text/css">*{stroke-linejoin: round; stroke-linecap: butt}</style>
 </defs>
 <g id="figure_1">
  <g id="patch_1">
   <path d="M 0 345.6 
L 460.8 345.6 
L 460.8 0 
L 0 0 
z
" style="fill: #ffffff"/>
  </g>
  <g id="axes_1">
   <g id="patch_2">
    <path d="M 417.941152 39.292416 
Q 391.357298 114.907668 365.144259 189.46817 
" clip-path="url(#p72f2ece6bc)" style="fill: none; stroke: #000000; stroke-linecap: round"/>
    <path d="M 368.357721 186.35792 
L 365.144259 189.46817 
L 364.584136 185.03125 
z
" clip-path="url(#p72f2ece6bc)" style="stroke: #000000; stroke-linecap: round"/>
   </g>
   <g id="patch_3">
    <path d="M 412.149894 31.081366 
Q 303.166729 30.55658 195.301586 30.037179 
" clip-path="url(#p72f2ece6bc)" style="fill: none; stroke: #000000; stroke-linecap: round"/>
    <path d="M 199.291909 32.056416 
L 195.301586 30.037179 
L 199.31117 28.056463 
z
" clip-path="url(#p72f2ece6bc)" style="stroke: #000000; stroke-linecap: round"/>
   </g>
   <g id="patch_4">
    <path d="M 364.773225 190.52354 
Q 391.35708 114.908288 417.570118 40.347786 
" clip-path="url(#p72f2ece6bc)" style="fill: none; stroke: #000000; stroke-linecap: round"/>
    <path d="M 414.356656 43.458037 
L 417.570118 40.347786 
L 418.130242 44.784706 
z
" clip-path="url(#p72f2ece6bc)" style="stroke: #000000; stroke-linecap: round"/>
   </g>
   <g id="patch_5">
    <path d="M 355.643774 192.707858 
Q 273.711739 114.342078 192.587663 36.749087 
" clip-path="url(#p72f2ece6bc)" style="fill: none; stroke: #000000; stroke-linecap: round"/>
    <path d="M 194.095892 40.959223 
L 192.587663 36.749087 
L 196.860709 38.068585 
z
" clip-path="url(#p72f2ece6bc)" style="stroke: #000000; stroke-linecap: round"/>
   </g>
   <g id="patch_6">
    <path d="M 194.184401 30.031799 
Q 303.167565 30.556584 411.032708 31.075986 
" clip-path="url(#p72f2ece6bc)" style="fill: none; stroke: #000000; stroke-linecap: round"/>
    <path d="M 407.042385 29.056748 
L 411.032708 31.075986 
L 407.023124 33.056702 
z
" clip-path="url(#p72f2ece6bc)" style="stroke: #000000; stroke-linecap: round"/>
   </g>
   <g id="patch_7">
    <path d="M 43.919596 307.891522 
Q 112.755207 172.797482 181.083231 38.699612 
" clip-path="url(#p72f2ece6bc)" style="fill: none; stroke: #000000; stroke-linecap: round"/>
    <path d="M 177.485228 41.35562 
L 181.083231 38.699612 
L 181.049236 43.171619 
z
" clip-path="url(#p72f2ece6bc)" style="stroke: #000000; stroke-linecap: round"/>
   </g>
   <g id="PathCollection_1">
    <defs>
     <path id="me73247edad" d="M 0 8.660254 
C 2.296726 8.660254 4.499694 7.747755 6.123724 6.123724 
C 7.747755 4.499694 8.660254 2.296726 8.660254 0 
C 8.660254 -2.296726 7.747755 -4.499694 6.123724 -6.123724 
C 4.499694 -7.747755 2.296726 -8.660254 0 -8.660254 
C -2.296726 -8.660254 -4.499694 -7.747755 -6.123724 -6.123724 
C -7.747755 -4.499694 -8.660254 -2.296726 -8.660254 0 
C -8.660254 2.296726 -7.747755 4.499694 -6.123724 6.123724 
C -4.499694 7.747755 -2.296726 8.660254 0 8.660254 
z
" style="stroke: #1f78b4"/>
    </defs>
    <g clip-path="url(#p72f2ece6bc)">
     <use xlink:href="#me73247edad" x="420.813223" y="31.123082" style="fill: #1f78b4; stroke: #1f78b4"/>
     <use xlink:href="#me73247edad" x="361.901154" y="198.692874" style="fill: #1f78b4; stroke: #1f78b4"/>
     <use xlink:href="#me73247edad" x="185.521071" y="29.990083" style="fill: #1f78b4; stroke: #1f78b4"/>
     <use xlink:href="#me73247edad" x="39.986777" y="315.609917" style="fill: #1f78b4; stroke: #1f78b4"/>
    </g>
   </g>
  </g>
 </g>
 <defs>
  <clipPath id="p72f2ece6bc">
   <rect x="0" y="0" width="460.8" height="345.6"/>
  </clipPath>
 </defs>
</svg>
