<?xml version="1.0" encoding="utf-8" standalone="no"?>
<!DOCTYPE svg PUBLIC "-//W3C//DTD SVG 1.1//EN"
  "http://www.w3.org/Graphics/SVG/1.1/DTD/svg11.dtd">
<svg xmlns:xlink="http://www.w3.org/1999/xlink" width="460.8pt" height="345.6pt" viewBox="0 0 460.8 345.6" xmlns="http://www.w3.org/2000/svg" version="1.1">
 <metadata>
  <rdf:RDF xmlns:dc="http://purl.org/dc/elements/1.1/" xmlns:cc="http://creativecommons.org/ns#" xmlns:rdf="http://www.w3.org/1999/02/22-rdf-syntax-ns#">
   <cc:Work>
    <dc:type rdf:resource="http://purl.org/dc/dcmitype/StillImage"/>
    <dc:date>2023-04-25T12:20:15.493706</dc:date>
    <dc:format>image/svg+xml</dc:format>
    <dc:creator>
     <cc:Agent>
      <dc:title>Matplotlib v3.7.1, https://matplotlib.org/</dc:title>
     </cc:Agent>
    </dc:creator>
   </cc:Work>
  </rdf:RDF>
 </metadata>
 <defs>
  <style type="text/css">*{stroke-linejoin: round; stroke-linecap: butt}</style>
 </defs>
 <g id="figure_1">
  <g id="patch_1">
   <path d="M 0 345.6 
L 460.8 345.6 
L 460.8 0 
L 0 0 
z
" style="fill: #ffffff"/>
  </g>
  <g id="axes_1">
   <g id="patch_2">
    <path d="M 414.340158 188.729513 
Q 346.154477 249.293726 278.804701 309.115467 
" clip-path="url(#pfe08f69faa)" style="fill: none; stroke: #000000; stroke-linecap: round"/>
    <path d="M 283.123497 307.954433 
L 278.804701 309.115467 
L 280.467151 304.96381 
z
" clip-path="url(#pfe08f69faa)" style="stroke: #000000; stroke-linecap: round"/>
   </g>
   <g id="patch_3">
    <path d="M 420.749083 174.319201 
Q 420.246725 106.486542 419.752646 39.771885 
" clip-path="url(#pfe08f69faa)" style="fill: none; stroke: #000000; stroke-linecap: round"/>
    <path d="M 417.782324 43.786587 
L 419.752646 39.771885 
L 421.782214 43.756964 
z
" clip-path="url(#pfe08f69faa)" style="stroke: #000000; stroke-linecap: round"/>
   </g>
   <g id="patch_4">
    <path d="M 277.966047 309.86038 
Q 346.151728 249.296167 413.501504 189.474425 
" clip-path="url(#pfe08f69faa)" style="fill: none; stroke: #000000; stroke-linecap: round"/>
    <path d="M 409.182708 190.63546 
L 413.501504 189.474425 
L 411.839054 193.626083 
z
" clip-path="url(#pfe08f69faa)" style="stroke: #000000; stroke-linecap: round"/>
   </g>
   <g id="patch_5">
    <path d="M 262.997309 313.917079 
Q 155.737124 292.544533 49.573418 271.39047 
" clip-path="url(#pfe08f69faa)" style="fill: none; stroke: #000000; stroke-linecap: round"/>
    <path d="M 53.105464 274.133579 
L 49.573418 271.39047 
L 53.887133 270.210698 
z
" clip-path="url(#pfe08f69faa)" style="stroke: #000000; stroke-linecap: round"/>
   </g>
   <g id="patch_6">
    <path d="M 419.744344 38.650857 
Q 420.246702 106.483516 420.740781 173.198173 
" clip-path="url(#pfe08f69faa)" style="fill: none; stroke: #000000; stroke-linecap: round"/>
    <path d="M 422.711103 169.183471 
L 420.740781 173.198173 
L 418.711213 169.213094 
z
" clip-path="url(#pfe08f69faa)" style="stroke: #000000; stroke-linecap: round"/>
   </g>
   <g id="patch_7">
    <path d="M 48.432993 267.561787 
Q 230.399909 226.230131 411.276561 185.146117 
" clip-path="url(#pfe08f69faa)" style="fill: none; stroke: #000000; stroke-linecap: round"/>
    <path d="M 406.932923 184.08178 
L 411.276561 185.146117 
L 407.818909 187.982425 
z
" clip-path="url(#pfe08f69faa)" style="stroke: #000000; stroke-linecap: round"/>
   </g>
   <g id="PathCollection_1">
    <defs>
     <path id="m1e2650a72d" d="M 0 8.660254 
C 2.296726 8.660254 4.499694 7.747755 6.123724 6.123724 
C 7.747755 4.499694 8.660254 2.296726 8.660254 0 
C 8.660254 -2.296726 7.747755 -4.499694 6.123724 -6.123724 
C 4.499694 -7.747755 2.296726 -8.660254 0 -8.660254 
C -2.296726 -8.660254 -4.499694 -7.747755 -6.123724 -6.123724 
C -7.747755 -4.499694 -8.660254 -2.296726 -8.660254 0 
C -8.660254 2.296726 -7.747755 4.499694 -6.123724 6.123724 
C -4.499694 7.747755 -2.296726 8.660254 0 8.660254 
z
" style="stroke: #1f78b4"/>
    </defs>
    <g clip-path="url(#pfe08f69faa)">
     <use xlink:href="#m1e2650a72d" x="420.813223" y="182.979975" style="fill: #1f78b4; stroke: #1f78b4"/>
     <use xlink:href="#m1e2650a72d" x="271.492982" y="315.609917" style="fill: #1f78b4; stroke: #1f78b4"/>
     <use xlink:href="#m1e2650a72d" x="419.680204" y="29.990083" style="fill: #1f78b4; stroke: #1f78b4"/>
     <use xlink:href="#m1e2650a72d" x="39.986777" y="269.480246" style="fill: #1f78b4; stroke: #1f78b4"/>
    </g>
   </g>
  </g>
 </g>
 <defs>
  <clipPath id="pfe08f69faa">
   <rect x="0" y="0" width="460.8" height="345.6"/>
  </clipPath>
 </defs>
</svg>
