<?xml version="1.0" encoding="utf-8" standalone="no"?>
<!DOCTYPE svg PUBLIC "-//W3C//DTD SVG 1.1//EN"
  "http://www.w3.org/Graphics/SVG/1.1/DTD/svg11.dtd">
<svg xmlns:xlink="http://www.w3.org/1999/xlink" width="460.8pt" height="345.6pt" viewBox="0 0 460.8 345.6" xmlns="http://www.w3.org/2000/svg" version="1.1">
 <metadata>
  <rdf:RDF xmlns:dc="http://purl.org/dc/elements/1.1/" xmlns:cc="http://creativecommons.org/ns#" xmlns:rdf="http://www.w3.org/1999/02/22-rdf-syntax-ns#">
   <cc:Work>
    <dc:type rdf:resource="http://purl.org/dc/dcmitype/StillImage"/>
    <dc:date>2023-04-25T12:20:15.609159</dc:date>
    <dc:format>image/svg+xml</dc:format>
    <dc:creator>
     <cc:Agent>
      <dc:title>Matplotlib v3.7.1, https://matplotlib.org/</dc:title>
     </cc:Agent>
    </dc:creator>
   </cc:Work>
  </rdf:RDF>
 </metadata>
 <defs>
  <style type="text/css">*{stroke-linejoin: round; stroke-linecap: butt}</style>
 </defs>
 <g id="figure_1">
  <g id="patch_1">
   <path d="M 0 345.6 
L 460.8 345.6 
L 460.8 0 
L 0 0 
z
" style="fill: #ffffff"/>
  </g>
  <g id="axes_1">
   <g id="patch_2">
    <path d="M 417.231942 147.895339 
Q 380.938241 227.810302 345.106855 306.707294 
" clip-path="url(#p9963ae1011)" style="fill: none; stroke: #000000; stroke-linecap: round"/>
    <path d="M 348.581887 303.892306 
L 345.106855 306.707294 
L 344.939884 302.238276 
z
" clip-path="url(#p9963ae1011)" style="stroke: #000000; stroke-linecap: round"/>
   </g>
   <g id="patch_3">
    <path d="M 412.962087 136.358412 
Q 302.532327 85.000992 193.116331 34.115042 
" clip-path="url(#p9963ae1011)" style="fill: none; stroke: #000000; stroke-linecap: round"/>
    <path d="M 195.899891 37.615298 
L 193.116331 34.115042 
L 197.586672 33.988348 
z
" clip-path="url(#p9963ae1011)" style="stroke: #000000; stroke-linecap: round"/>
   </g>
   <g id="patch_4">
    <path d="M 344.644975 307.724307 
Q 380.938676 227.809345 416.770061 148.912353 
" clip-path="url(#p9963ae1011)" style="fill: none; stroke: #000000; stroke-linecap: round"/>
    <path d="M 413.295029 151.72734 
L 416.770061 148.912353 
L 416.937032 153.381371 
z
" clip-path="url(#p9963ae1011)" style="stroke: #000000; stroke-linecap: round"/>
   </g>
   <g id="patch_5">
    <path d="M 332.403873 315.460251 
Q 190.525629 313.008186 49.765252 310.575441 
" clip-path="url(#p9963ae1011)" style="fill: none; stroke: #000000; stroke-linecap: round"/>
    <path d="M 53.730094 312.644264 
L 49.765252 310.575441 
L 53.799215 308.644861 
z
" clip-path="url(#p9963ae1011)" style="stroke: #000000; stroke-linecap: round"/>
   </g>
   <g id="patch_6">
    <path d="M 192.097896 33.6414 
Q 302.527656 84.99882 411.943652 135.88477 
" clip-path="url(#p9963ae1011)" style="fill: none; stroke: #000000; stroke-linecap: round"/>
    <path d="M 409.160092 132.384513 
L 411.943652 135.88477 
L 407.473311 136.011464 
z
" clip-path="url(#p9963ae1011)" style="stroke: #000000; stroke-linecap: round"/>
   </g>
   <g id="patch_7">
    <path d="M 43.946794 302.708855 
Q 112.11546 170.200806 179.772666 38.686945 
" clip-path="url(#p9963ae1011)" style="fill: none; stroke: #000000; stroke-linecap: round"/>
    <path d="M 176.164357 41.328933 
L 179.772666 38.686945 
L 179.721272 43.158785 
z
" clip-path="url(#p9963ae1011)" style="stroke: #000000; stroke-linecap: round"/>
   </g>
   <g id="PathCollection_1">
    <defs>
     <path id="m5403df07a3" d="M 0 8.660254 
C 2.296726 8.660254 4.499694 7.747755 6.123724 6.123724 
C 7.747755 4.499694 8.660254 2.296726 8.660254 0 
C 8.660254 -2.296726 7.747755 -4.499694 6.123724 -6.123724 
C 4.499694 -7.747755 2.296726 -8.660254 0 -8.660254 
C -2.296726 -8.660254 -4.499694 -7.747755 -6.123724 -6.123724 
C -7.747755 -4.499694 -8.660254 -2.296726 -8.660254 0 
C -8.660254 2.296726 -7.747755 4.499694 -6.123724 6.123724 
C -4.499694 7.747755 -2.296726 8.660254 0 8.660254 
z
" style="stroke: #1f78b4"/>
    </defs>
    <g clip-path="url(#p9963ae1011)">
     <use xlink:href="#m5403df07a3" x="420.813223" y="140.009729" style="fill: #1f78b4; stroke: #1f78b4"/>
     <use xlink:href="#m5403df07a3" x="341.063693" y="315.609917" style="fill: #1f78b4; stroke: #1f78b4"/>
     <use xlink:href="#m5403df07a3" x="184.24676" y="29.990083" style="fill: #1f78b4; stroke: #1f78b4"/>
     <use xlink:href="#m5403df07a3" x="39.986777" y="310.406441" style="fill: #1f78b4; stroke: #1f78b4"/>
    </g>
   </g>
  </g>
 </g>
 <defs>
  <clipPath id="p9963ae1011">
   <rect x="0" y="0" width="460.8" height="345.6"/>
  </clipPath>
 </defs>
</svg>
