<?xml version="1.0" encoding="utf-8" standalone="no"?>
<!DOCTYPE svg PUBLIC "-//W3C//DTD SVG 1.1//EN"
  "http://www.w3.org/Graphics/SVG/1.1/DTD/svg11.dtd">
<svg xmlns:xlink="http://www.w3.org/1999/xlink" width="460.8pt" height="345.6pt" viewBox="0 0 460.8 345.6" xmlns="http://www.w3.org/2000/svg" version="1.1">
 <metadata>
  <rdf:RDF xmlns:dc="http://purl.org/dc/elements/1.1/" xmlns:cc="http://creativecommons.org/ns#" xmlns:rdf="http://www.w3.org/1999/02/22-rdf-syntax-ns#">
   <cc:Work>
    <dc:type rdf:resource="http://purl.org/dc/dcmitype/StillImage"/>
    <dc:date>2023-04-25T12:20:15.666823</dc:date>
    <dc:format>image/svg+xml</dc:format>
    <dc:creator>
     <cc:Agent>
      <dc:title>Matplotlib v3.7.1, https://matplotlib.org/</dc:title>
     </cc:Agent>
    </dc:creator>
   </cc:Work>
  </rdf:RDF>
 </metadata>
 <defs>
  <style type="text/css">*{stroke-linejoin: round; stroke-linecap: butt}</style>
 </defs>
 <g id="figure_1">
  <g id="patch_1">
   <path d="M 0 345.6 
L 460.8 345.6 
L 460.8 0 
L 0 0 
z
" style="fill: #ffffff"/>
  </g>
  <g id="axes_1">
   <g id="patch_2">
    <path d="M 419.165376 307.107667 
Q 400.258817 209.557195 381.564989 113.104331 
" clip-path="url(#pe172df35f5)" style="fill: none; stroke: #000000; stroke-linecap: round"/>
    <path d="M 380.362616 117.411801 
L 381.564989 113.104331 
L 384.289541 116.650712 
z
" clip-path="url(#pe172df35f5)" style="stroke: #000000; stroke-linecap: round"/>
   </g>
   <g id="patch_3">
    <path d="M 412.906294 312.067938 
Q 297.138382 260.208667 182.390807 208.806466 
" clip-path="url(#pe172df35f5)" style="fill: none; stroke: #000000; stroke-linecap: round"/>
    <path d="M 185.223646 212.266961 
L 182.390807 208.806466 
L 186.858906 208.616492 
z
" clip-path="url(#pe172df35f5)" style="stroke: #000000; stroke-linecap: round"/>
   </g>
   <g id="patch_4">
    <path d="M 381.352078 112.005791 
Q 400.258636 209.556263 418.952464 306.009127 
" clip-path="url(#pe172df35f5)" style="fill: none; stroke: #000000; stroke-linecap: round"/>
    <path d="M 420.154837 301.701657 
L 418.952464 306.009127 
L 416.227912 302.462746 
z
" clip-path="url(#pe172df35f5)" style="stroke: #000000; stroke-linecap: round"/>
   </g>
   <g id="patch_5">
    <path d="M 371.241878 101.672322 
Q 209.846251 66.746973 49.543365 32.058089 
" clip-path="url(#pe172df35f5)" style="fill: none; stroke: #000000; stroke-linecap: round"/>
    <path d="M 53.029876 34.858847 
L 49.543365 32.058089 
L 53.875878 30.949335 
z
" clip-path="url(#pe172df35f5)" style="stroke: #000000; stroke-linecap: round"/>
   </g>
   <g id="patch_6">
    <path d="M 181.243895 200.989672 
Q 276.587285 154.155838 370.927173 107.814938 
" clip-path="url(#pe172df35f5)" style="fill: none; stroke: #000000; stroke-linecap: round"/>
    <path d="M 366.455148 107.783388 
L 370.927173 107.814938 
L 368.218718 111.373628 
z
" clip-path="url(#pe172df35f5)" style="stroke: #000000; stroke-linecap: round"/>
   </g>
   <g id="patch_7">
    <path d="M 168.210985 197.924457 
Q 106.727501 117.399955 45.922511 37.764073 
" clip-path="url(#pe172df35f5)" style="fill: none; stroke: #000000; stroke-linecap: round"/>
    <path d="M 46.760356 42.157024 
L 45.922511 37.764073 
L 49.939578 39.729568 
z
" clip-path="url(#pe172df35f5)" style="stroke: #000000; stroke-linecap: round"/>
   </g>
   <g id="PathCollection_1">
    <defs>
     <path id="m13d122dc45" d="M 0 8.660254 
C 2.296726 8.660254 4.499694 7.747755 6.123724 6.123724 
C 7.747755 4.499694 8.660254 2.296726 8.660254 0 
C 8.660254 -2.296726 7.747755 -4.499694 6.123724 -6.123724 
C 4.499694 -7.747755 2.296726 -8.660254 0 -8.660254 
C -2.296726 -8.660254 -4.499694 -7.747755 -6.123724 -6.123724 
C -7.747755 -4.499694 -8.660254 -2.296726 -8.660254 0 
C -8.660254 2.296726 -7.747755 4.499694 -6.123724 6.123724 
C -4.499694 7.747755 -2.296726 8.660254 0 8.660254 
z
" style="stroke: #1f78b4"/>
    </defs>
    <g clip-path="url(#pe172df35f5)">
     <use xlink:href="#m13d122dc45" x="420.813223" y="315.609917" style="fill: #1f78b4; stroke: #1f78b4"/>
     <use xlink:href="#m13d122dc45" x="379.70423" y="103.503541" style="fill: #1f78b4; stroke: #1f78b4"/>
     <use xlink:href="#m13d122dc45" x="173.467862" y="204.809353" style="fill: #1f78b4; stroke: #1f78b4"/>
     <use xlink:href="#m13d122dc45" x="39.986777" y="29.990083" style="fill: #1f78b4; stroke: #1f78b4"/>
    </g>
   </g>
  </g>
 </g>
 <defs>
  <clipPath id="pe172df35f5">
   <rect x="0" y="0" width="460.8" height="345.6"/>
  </clipPath>
 </defs>
</svg>
