<?xml version="1.0" encoding="utf-8" standalone="no"?>
<!DOCTYPE svg PUBLIC "-//W3C//DTD SVG 1.1//EN"
  "http://www.w3.org/Graphics/SVG/1.1/DTD/svg11.dtd">
<svg xmlns:xlink="http://www.w3.org/1999/xlink" width="460.8pt" height="345.6pt" viewBox="0 0 460.8 345.6" xmlns="http://www.w3.org/2000/svg" version="1.1">
 <metadata>
  <rdf:RDF xmlns:dc="http://purl.org/dc/elements/1.1/" xmlns:cc="http://creativecommons.org/ns#" xmlns:rdf="http://www.w3.org/1999/02/22-rdf-syntax-ns#">
   <cc:Work>
    <dc:type rdf:resource="http://purl.org/dc/dcmitype/StillImage"/>
    <dc:date>2023-04-25T12:20:15.894984</dc:date>
    <dc:format>image/svg+xml</dc:format>
    <dc:creator>
     <cc:Agent>
      <dc:title>Matplotlib v3.7.1, https://matplotlib.org/</dc:title>
     </cc:Agent>
    </dc:creator>
   </cc:Work>
  </rdf:RDF>
 </metadata>
 <defs>
  <style type="text/css">*{stroke-linejoin: round; stroke-linecap: butt}</style>
 </defs>
 <g id="figure_1">
  <g id="patch_1">
   <path d="M 0 345.6 
L 460.8 345.6 
L 460.8 0 
L 0 0 
z
" style="fill: #ffffff"/>
  </g>
  <g id="axes_1">
   <g id="patch_2">
    <path d="M 246.662844 199.385865 
Q 147.098125 255.375972 48.507919 310.818063 
" clip-path="url(#p0e3831573d)" style="fill: none; stroke: #000000; stroke-linecap: round"/>
    <path d="M 52.974769 310.600682 
L 48.507919 310.818063 
L 51.014124 307.114154 
z
" clip-path="url(#p0e3831573d)" style="stroke: #000000; stroke-linecap: round"/>
   </g>
   <g id="patch_3">
    <path d="M 260.359966 189.04555 
Q 337.510277 112.567334 413.866569 36.876221 
" clip-path="url(#p0e3831573d)" style="fill: none; stroke: #000000; stroke-linecap: round"/>
    <path d="M 409.617782 38.271861 
L 413.866569 36.876221 
L 412.433808 41.112635 
z
" clip-path="url(#p0e3831573d)" style="stroke: #000000; stroke-linecap: round"/>
   </g>
   <g id="patch_4">
    <path d="M 47.534423 311.365507 
Q 147.099143 255.3754 245.689348 199.933309 
" clip-path="url(#p0e3831573d)" style="fill: none; stroke: #000000; stroke-linecap: round"/>
    <path d="M 241.222499 200.15069 
L 245.689348 199.933309 
L 243.183143 203.637217 
z
" clip-path="url(#p0e3831573d)" style="stroke: #000000; stroke-linecap: round"/>
   </g>
   <g id="patch_5">
    <path d="M 414.663748 36.085987 
Q 337.513436 112.564203 261.157145 188.255316 
" clip-path="url(#p0e3831573d)" style="fill: none; stroke: #000000; stroke-linecap: round"/>
    <path d="M 265.405932 186.859676 
L 261.157145 188.255316 
L 262.589906 184.018902 
z
" clip-path="url(#p0e3831573d)" style="stroke: #000000; stroke-linecap: round"/>
   </g>
   <g id="patch_6">
    <path d="M 66.207507 109.608623 
Q 156.268842 150.582446 245.312514 191.093279 
" clip-path="url(#p0e3831573d)" style="fill: none; stroke: #000000; stroke-linecap: round"/>
    <path d="M 242.499832 187.61638 
L 245.312514 191.093279 
L 240.843386 191.257284 
z
" clip-path="url(#p0e3831573d)" style="stroke: #000000; stroke-linecap: round"/>
   </g>
   <g id="patch_7">
    <path d="M 57.570906 114.647847 
Q 49.156223 210.815937 40.838995 305.870249 
" clip-path="url(#p0e3831573d)" style="fill: none; stroke: #000000; stroke-linecap: round"/>
    <path d="M 43.18005 302.059808 
L 40.838995 305.870249 
L 39.195275 301.711141 
z
" clip-path="url(#p0e3831573d)" style="stroke: #000000; stroke-linecap: round"/>
   </g>
   <g id="PathCollection_1">
    <defs>
     <path id="m2efdaf965a" d="M 0 8.660254 
C 2.296726 8.660254 4.499694 7.747755 6.123724 6.123724 
C 7.747755 4.499694 8.660254 2.296726 8.660254 0 
C 8.660254 -2.296726 7.747755 -4.499694 6.123724 -6.123724 
C 4.499694 -7.747755 2.296726 -8.660254 0 -8.660254 
C -2.296726 -8.660254 -4.499694 -7.747755 -6.123724 -6.123724 
C -7.747755 -4.499694 -8.660254 -2.296726 -8.660254 0 
C -8.660254 2.296726 -7.747755 4.499694 -6.123724 6.123724 
C -4.499694 7.747755 -2.296726 8.660254 0 8.660254 
z
" style="stroke: #1f78b4"/>
    </defs>
    <g clip-path="url(#p0e3831573d)">
     <use xlink:href="#m2efdaf965a" x="254.21049" y="195.141454" style="fill: #1f78b4; stroke: #1f78b4"/>
     <use xlink:href="#m2efdaf965a" x="39.986777" y="315.609917" style="fill: #1f78b4; stroke: #1f78b4"/>
     <use xlink:href="#m2efdaf965a" x="420.813223" y="29.990083" style="fill: #1f78b4; stroke: #1f78b4"/>
     <use xlink:href="#m2efdaf965a" x="58.325603" y="106.022714" style="fill: #1f78b4; stroke: #1f78b4"/>
    </g>
   </g>
  </g>
 </g>
 <defs>
  <clipPath id="p0e3831573d">
   <rect x="0" y="0" width="460.8" height="345.6"/>
  </clipPath>
 </defs>
</svg>
