<?xml version="1.0" encoding="utf-8" standalone="no"?>
<!DOCTYPE svg PUBLIC "-//W3C//DTD SVG 1.1//EN"
  "http://www.w3.org/Graphics/SVG/1.1/DTD/svg11.dtd">
<svg xmlns:xlink="http://www.w3.org/1999/xlink" width="460.8pt" height="345.6pt" viewBox="0 0 460.8 345.6" xmlns="http://www.w3.org/2000/svg" version="1.1">
 <metadata>
  <rdf:RDF xmlns:dc="http://purl.org/dc/elements/1.1/" xmlns:cc="http://creativecommons.org/ns#" xmlns:rdf="http://www.w3.org/1999/02/22-rdf-syntax-ns#">
   <cc:Work>
    <dc:type rdf:resource="http://purl.org/dc/dcmitype/StillImage"/>
    <dc:date>2023-04-25T12:20:16.009091</dc:date>
    <dc:format>image/svg+xml</dc:format>
    <dc:creator>
     <cc:Agent>
      <dc:title>Matplotlib v3.7.1, https://matplotlib.org/</dc:title>
     </cc:Agent>
    </dc:creator>
   </cc:Work>
  </rdf:RDF>
 </metadata>
 <defs>
  <style type="text/css">*{stroke-linejoin: round; stroke-linecap: butt}</style>
 </defs>
 <g id="figure_1">
  <g id="patch_1">
   <path d="M 0 345.6 
L 460.8 345.6 
L 460.8 0 
L 0 0 
z
" style="fill: #ffffff"/>
  </g>
  <g id="axes_1">
   <g id="patch_2">
    <path d="M 183.943576 312.438066 
Q 115.995949 285.692552 49.088664 259.356537 
" clip-path="url(#p7454d52520)" style="fill: none; stroke: #000000; stroke-linecap: round"/>
    <path d="M 52.07817 262.682624 
L 49.088664 259.356537 
L 53.543237 258.960584 
z
" clip-path="url(#p7454d52520)" style="stroke: #000000; stroke-linecap: round"/>
   </g>
   <g id="patch_3">
    <path d="M 193.578895 307.098328 
Q 218.463671 172.800026 243.144748 39.601045 
" clip-path="url(#p7454d52520)" style="fill: none; stroke: #000000; stroke-linecap: round"/>
    <path d="M 240.449449 43.169709 
L 243.144748 39.601045 
L 244.3825 43.898482 
z
" clip-path="url(#p7454d52520)" style="stroke: #000000; stroke-linecap: round"/>
   </g>
   <g id="patch_4">
    <path d="M 48.044943 258.945708 
Q 115.99257 285.691222 182.899855 312.027237 
" clip-path="url(#p7454d52520)" style="fill: none; stroke: #000000; stroke-linecap: round"/>
    <path d="M 179.910349 308.701149 
L 182.899855 312.027237 
L 178.445282 312.423189 
z
" clip-path="url(#p7454d52520)" style="stroke: #000000; stroke-linecap: round"/>
   </g>
   <g id="patch_5">
    <path d="M 239.106042 36.401576 
Q 142.4556 142.882623 46.556588 248.53581 
" clip-path="url(#p7454d52520)" style="fill: none; stroke: #000000; stroke-linecap: round"/>
    <path d="M 50.725907 246.918166 
L 46.556588 248.53581 
L 47.764064 244.229768 
z
" clip-path="url(#p7454d52520)" style="stroke: #000000; stroke-linecap: round"/>
   </g>
   <g id="patch_6">
    <path d="M 250.499929 36.622646 
Q 332.86939 134.629353 414.519517 231.780165 
" clip-path="url(#p7454d52520)" style="fill: none; stroke: #000000; stroke-linecap: round"/>
    <path d="M 413.477018 227.431234 
L 414.519517 231.780165 
L 410.414873 230.004805 
z
" clip-path="url(#p7454d52520)" style="stroke: #000000; stroke-linecap: round"/>
   </g>
   <g id="patch_7">
    <path d="M 412.597992 242.009636 
Q 306.408108 277.439093 201.278787 312.514701 
" clip-path="url(#p7454d52520)" style="fill: none; stroke: #000000; stroke-linecap: round"/>
    <path d="M 205.706152 313.145925 
L 201.278787 312.514701 
L 204.440185 309.351544 
z
" clip-path="url(#p7454d52520)" style="stroke: #000000; stroke-linecap: round"/>
   </g>
   <g id="PathCollection_1">
    <defs>
     <path id="m7cfe19920e" d="M 0 8.660254 
C 2.296726 8.660254 4.499694 7.747755 6.123724 6.123724 
C 7.747755 4.499694 8.660254 2.296726 8.660254 0 
C 8.660254 -2.296726 7.747755 -4.499694 6.123724 -6.123724 
C 4.499694 -7.747755 2.296726 -8.660254 0 -8.660254 
C -2.296726 -8.660254 -4.499694 -7.747755 -6.123724 -6.123724 
C -7.747755 -4.499694 -8.660254 -2.296726 -8.660254 0 
C -8.660254 2.296726 -7.747755 4.499694 -6.123724 6.123724 
C -4.499694 7.747755 -2.296726 8.660254 0 8.660254 
z
" style="stroke: #1f78b4"/>
    </defs>
    <g clip-path="url(#p7454d52520)">
     <use xlink:href="#m7cfe19920e" x="192.001742" y="315.609917" style="fill: #1f78b4; stroke: #1f78b4"/>
     <use xlink:href="#m7cfe19920e" x="39.986777" y="255.773856" style="fill: #1f78b4; stroke: #1f78b4"/>
     <use xlink:href="#m7cfe19920e" x="244.92561" y="29.990083" style="fill: #1f78b4; stroke: #1f78b4"/>
     <use xlink:href="#m7cfe19920e" x="420.813223" y="239.268686" style="fill: #1f78b4; stroke: #1f78b4"/>
    </g>
   </g>
  </g>
 </g>
 <defs>
  <clipPath id="p7454d52520">
   <rect x="0" y="0" width="460.8" height="345.6"/>
  </clipPath>
 </defs>
</svg>
