<?xml version="1.0" encoding="utf-8" standalone="no"?>
<!DOCTYPE svg PUBLIC "-//W3C//DTD SVG 1.1//EN"
  "http://www.w3.org/Graphics/SVG/1.1/DTD/svg11.dtd">
<svg xmlns:xlink="http://www.w3.org/1999/xlink" width="460.8pt" height="345.6pt" viewBox="0 0 460.8 345.6" xmlns="http://www.w3.org/2000/svg" version="1.1">
 <metadata>
  <rdf:RDF xmlns:dc="http://purl.org/dc/elements/1.1/" xmlns:cc="http://creativecommons.org/ns#" xmlns:rdf="http://www.w3.org/1999/02/22-rdf-syntax-ns#">
   <cc:Work>
    <dc:type rdf:resource="http://purl.org/dc/dcmitype/StillImage"/>
    <dc:date>2023-04-25T12:20:16.146495</dc:date>
    <dc:format>image/svg+xml</dc:format>
    <dc:creator>
     <cc:Agent>
      <dc:title>Matplotlib v3.7.1, https://matplotlib.org/</dc:title>
     </cc:Agent>
    </dc:creator>
   </cc:Work>
  </rdf:RDF>
 </metadata>
 <defs>
  <style type="text/css">*{stroke-linejoin: round; stroke-linecap: butt}</style>
 </defs>
 <g id="figure_1">
  <g id="patch_1">
   <path d="M 0 345.6 
L 460.8 345.6 
L 460.8 0 
L 0 0 
z
" style="fill: #ffffff"/>
  </g>
  <g id="axes_1">
   <g id="patch_2">
    <path d="M 402.907578 116.780148 
Q 410.985282 77.626884 418.837082 39.568595 
" clip-path="url(#p075dad3c92)" style="fill: none; stroke: #000000; stroke-linecap: round"/>
    <path d="M 416.070115 43.081983 
L 418.837082 39.568595 
L 419.987612 43.890201 
z
" clip-path="url(#p075dad3c92)" style="stroke: #000000; stroke-linecap: round"/>
   </g>
   <g id="patch_3">
    <path d="M 392.859884 127.73875 
Q 290.849754 158.196713 189.910923 188.33481 
" clip-path="url(#p075dad3c92)" style="fill: none; stroke: #000000; stroke-linecap: round"/>
    <path d="M 194.31592 189.106821 
L 189.910923 188.33481 
L 193.171531 185.274019 
z
" clip-path="url(#p075dad3c92)" style="stroke: #000000; stroke-linecap: round"/>
   </g>
   <g id="patch_4">
    <path d="M 419.063507 38.471092 
Q 410.985803 77.624356 403.134003 115.682646 
" clip-path="url(#p075dad3c92)" style="fill: none; stroke: #000000; stroke-linecap: round"/>
    <path d="M 405.90097 112.169258 
L 403.134003 115.682646 
L 401.983473 111.36104 
z
" clip-path="url(#p075dad3c92)" style="stroke: #000000; stroke-linecap: round"/>
   </g>
   <g id="patch_5">
    <path d="M 187.732234 186.310175 
Q 300.675295 110.562815 412.689814 35.438198 
" clip-path="url(#p075dad3c92)" style="fill: none; stroke: #000000; stroke-linecap: round"/>
    <path d="M 408.253763 36.005168 
L 412.689814 35.438198 
L 410.481759 39.32722 
z
" clip-path="url(#p075dad3c92)" style="stroke: #000000; stroke-linecap: round"/>
   </g>
   <g id="patch_6">
    <path d="M 174.059275 196.873775 
Q 110.26457 253.371097 47.306856 309.127171 
" clip-path="url(#p075dad3c92)" style="fill: none; stroke: #000000; stroke-linecap: round"/>
    <path d="M 51.627346 307.972456 
L 47.306856 309.127171 
L 48.975377 304.97795 
z
" clip-path="url(#p075dad3c92)" style="stroke: #000000; stroke-linecap: round"/>
   </g>
   <g id="patch_7">
    <path d="M 46.470247 309.868082 
Q 110.264951 253.37076 173.222666 197.614686 
" clip-path="url(#p075dad3c92)" style="fill: none; stroke: #000000; stroke-linecap: round"/>
    <path d="M 168.902176 198.769402 
L 173.222666 197.614686 
L 171.554144 201.763907 
z
" clip-path="url(#p075dad3c92)" style="stroke: #000000; stroke-linecap: round"/>
   </g>
   <g id="PathCollection_1">
    <defs>
     <path id="meb1b614be6" d="M 0 8.660254 
C 2.296726 8.660254 4.499694 7.747755 6.123724 6.123724 
C 7.747755 4.499694 8.660254 2.296726 8.660254 0 
C 8.660254 -2.296726 7.747755 -4.499694 6.123724 -6.123724 
C 4.499694 -7.747755 2.296726 -8.660254 0 -8.660254 
C -2.296726 -8.660254 -4.499694 -7.747755 -6.123724 -6.123724 
C -7.747755 -4.499694 -8.660254 -2.296726 -8.660254 0 
C -8.660254 2.296726 -7.747755 4.499694 -6.123724 6.123724 
C -4.499694 7.747755 -2.296726 8.660254 0 8.660254 
z
" style="stroke: #1f78b4"/>
    </defs>
    <g clip-path="url(#p075dad3c92)">
     <use xlink:href="#meb1b614be6" x="401.157862" y="125.261158" style="fill: #1f78b4; stroke: #1f78b4"/>
     <use xlink:href="#meb1b614be6" x="420.813223" y="29.990083" style="fill: #1f78b4; stroke: #1f78b4"/>
     <use xlink:href="#meb1b614be6" x="180.542745" y="191.13194" style="fill: #1f78b4; stroke: #1f78b4"/>
     <use xlink:href="#meb1b614be6" x="39.986777" y="315.609917" style="fill: #1f78b4; stroke: #1f78b4"/>
    </g>
   </g>
  </g>
 </g>
 <defs>
  <clipPath id="p075dad3c92">
   <rect x="0" y="0" width="460.8" height="345.6"/>
  </clipPath>
 </defs>
</svg>
