<?xml version="1.0" encoding="utf-8" standalone="no"?>
<!DOCTYPE svg PUBLIC "-//W3C//DTD SVG 1.1//EN"
  "http://www.w3.org/Graphics/SVG/1.1/DTD/svg11.dtd">
<svg xmlns:xlink="http://www.w3.org/1999/xlink" width="460.8pt" height="345.6pt" viewBox="0 0 460.8 345.6" xmlns="http://www.w3.org/2000/svg" version="1.1">
 <metadata>
  <rdf:RDF xmlns:dc="http://purl.org/dc/elements/1.1/" xmlns:cc="http://creativecommons.org/ns#" xmlns:rdf="http://www.w3.org/1999/02/22-rdf-syntax-ns#">
   <cc:Work>
    <dc:type rdf:resource="http://purl.org/dc/dcmitype/StillImage"/>
    <dc:date>2023-04-25T12:20:16.201983</dc:date>
    <dc:format>image/svg+xml</dc:format>
    <dc:creator>
     <cc:Agent>
      <dc:title>Matplotlib v3.7.1, https://matplotlib.org/</dc:title>
     </cc:Agent>
    </dc:creator>
   </cc:Work>
  </rdf:RDF>
 </metadata>
 <defs>
  <style type="text/css">*{stroke-linejoin: round; stroke-linecap: butt}</style>
 </defs>
 <g id="figure_1">
  <g id="patch_1">
   <path d="M 0 345.6 
L 460.8 345.6 
L 460.8 0 
L 0 0 
z
" style="fill: #ffffff"/>
  </g>
  <g id="axes_1">
   <g id="patch_2">
    <path d="M 211.971631 183.748246 
Q 312.732537 247.368243 412.548079 310.391341 
" clip-path="url(#p3986120caf)" style="fill: none; stroke: #000000; stroke-linecap: round"/>
    <path d="M 410.233608 306.564695 
L 412.548079 310.391341 
L 408.098079 309.94693 
z
" clip-path="url(#p3986120caf)" style="stroke: #000000; stroke-linecap: round"/>
   </g>
   <g id="patch_3">
    <path d="M 196.492713 182.041008 
Q 122.317411 208.591118 49.194742 234.764451 
" clip-path="url(#p3986120caf)" style="fill: none; stroke: #000000; stroke-linecap: round"/>
    <path d="M 53.634761 235.299462 
L 49.194742 234.764451 
L 52.286762 231.533443 
z
" clip-path="url(#p3986120caf)" style="stroke: #000000; stroke-linecap: round"/>
   </g>
   <g id="patch_4">
    <path d="M 413.487358 310.984398 
Q 312.726452 247.364401 212.910909 184.341303 
" clip-path="url(#p3986120caf)" style="fill: none; stroke: #000000; stroke-linecap: round"/>
    <path d="M 215.225381 188.167949 
L 212.910909 184.341303 
L 217.360909 184.785714 
z
" clip-path="url(#p3986120caf)" style="stroke: #000000; stroke-linecap: round"/>
   </g>
   <g id="patch_5">
    <path d="M 48.47367 239.788554 
Q 230.400823 276.835289 411.232427 313.658932 
" clip-path="url(#p3986120caf)" style="fill: none; stroke: #000000; stroke-linecap: round"/>
    <path d="M 407.711947 310.900993 
L 411.232427 313.658932 
L 406.913788 314.820552 
z
" clip-path="url(#p3986120caf)" style="stroke: #000000; stroke-linecap: round"/>
   </g>
   <g id="patch_6">
    <path d="M 343.210181 36.209253 
Q 276.941944 104.557421 211.451968 172.102901 
" clip-path="url(#p3986120caf)" style="fill: none; stroke: #000000; stroke-linecap: round"/>
    <path d="M 215.672254 170.623312 
L 211.451968 172.102901 
L 212.800468 167.838918 
z
" clip-path="url(#p3986120caf)" style="stroke: #000000; stroke-linecap: round"/>
   </g>
   <g id="patch_7">
    <path d="M 351.344606 38.388359 
Q 385.026858 172.800798 418.437345 306.128736 
" clip-path="url(#p3986120caf)" style="fill: none; stroke: #000000; stroke-linecap: round"/>
    <path d="M 419.405069 301.762558 
L 418.437345 306.128736 
L 415.525037 302.73485 
z
" clip-path="url(#p3986120caf)" style="stroke: #000000; stroke-linecap: round"/>
   </g>
   <g id="PathCollection_1">
    <defs>
     <path id="me3352e6a55" d="M 0 8.660254 
C 2.296726 8.660254 4.499694 7.747755 6.123724 6.123724 
C 7.747755 4.499694 8.660254 2.296726 8.660254 0 
C 8.660254 -2.296726 7.747755 -4.499694 6.123724 -6.123724 
C 4.499694 -7.747755 2.296726 -8.660254 0 -8.660254 
C -2.296726 -8.660254 -4.499694 -7.747755 -6.123724 -6.123724 
C -7.747755 -4.499694 -8.660254 -2.296726 -8.660254 0 
C -8.660254 2.296726 -7.747755 4.499694 -6.123724 6.123724 
C -4.499694 7.747755 -2.296726 8.660254 0 8.660254 
z
" style="stroke: #1f78b4"/>
    </defs>
    <g clip-path="url(#p3986120caf)">
     <use xlink:href="#me3352e6a55" x="204.645765" y="179.122727" style="fill: #1f78b4; stroke: #1f78b4"/>
     <use xlink:href="#me3352e6a55" x="420.813223" y="315.609917" style="fill: #1f78b4; stroke: #1f78b4"/>
     <use xlink:href="#me3352e6a55" x="39.986777" y="238.060326" style="fill: #1f78b4; stroke: #1f78b4"/>
     <use xlink:href="#me3352e6a55" x="349.240092" y="29.990083" style="fill: #1f78b4; stroke: #1f78b4"/>
    </g>
   </g>
  </g>
 </g>
 <defs>
  <clipPath id="p3986120caf">
   <rect x="0" y="0" width="460.8" height="345.6"/>
  </clipPath>
 </defs>
</svg>
