<?xml version="1.0" encoding="utf-8" standalone="no"?>
<!DOCTYPE svg PUBLIC "-//W3C//DTD SVG 1.1//EN"
  "http://www.w3.org/Graphics/SVG/1.1/DTD/svg11.dtd">
<svg xmlns:xlink="http://www.w3.org/1999/xlink" width="460.8pt" height="345.6pt" viewBox="0 0 460.8 345.6" xmlns="http://www.w3.org/2000/svg" version="1.1">
 <metadata>
  <rdf:RDF xmlns:dc="http://purl.org/dc/elements/1.1/" xmlns:cc="http://creativecommons.org/ns#" xmlns:rdf="http://www.w3.org/1999/02/22-rdf-syntax-ns#">
   <cc:Work>
    <dc:type rdf:resource="http://purl.org/dc/dcmitype/StillImage"/>
    <dc:date>2023-04-25T12:20:14.199896</dc:date>
    <dc:format>image/svg+xml</dc:format>
    <dc:creator>
     <cc:Agent>
      <dc:title>Matplotlib v3.7.1, https://matplotlib.org/</dc:title>
     </cc:Agent>
    </dc:creator>
   </cc:Work>
  </rdf:RDF>
 </metadata>
 <defs>
  <style type="text/css">*{stroke-linejoin: round; stroke-linecap: butt}</style>
 </defs>
 <g id="figure_1">
  <g id="patch_1">
   <path d="M 0 345.6 
L 460.8 345.6 
L 460.8 0 
L 0 0 
z
" style="fill: #ffffff"/>
  </g>
  <g id="axes_1">
   <g id="patch_2">
    <path d="M 184.334136 190.16869 
Q 298.249031 183.920365 411.04757 177.733272 
" clip-path="url(#p46df4872b4)" style="fill: none; stroke: #000000; stroke-linecap: round"/>
    <path d="M 406.944036 175.955348 
L 411.04757 177.733272 
L 407.16311 179.949344 
z
" clip-path="url(#p46df4872b4)" style="stroke: #000000; stroke-linecap: round"/>
   </g>
   <g id="patch_3">
    <path d="M 176.973398 182.077735 
Q 187.723343 110.315551 198.307656 39.659064 
" clip-path="url(#p46df4872b4)" style="fill: none; stroke: #000000; stroke-linecap: round"/>
    <path d="M 195.737139 43.318633 
L 198.307656 39.659064 
L 199.693 43.911219 
z
" clip-path="url(#p46df4872b4)" style="stroke: #000000; stroke-linecap: round"/>
   </g>
   <g id="patch_4">
    <path d="M 169.318895 196.510176 
Q 107.838973 253.125987 47.181486 308.984433 
" clip-path="url(#p46df4872b4)" style="fill: none; stroke: #000000; stroke-linecap: round"/>
    <path d="M 51.478731 307.746014 
L 47.181486 308.984433 
L 48.769099 304.803585 
z
" clip-path="url(#p46df4872b4)" style="stroke: #000000; stroke-linecap: round"/>
   </g>
   <g id="patch_5">
    <path d="M 412.16944 177.671737 
Q 298.254546 183.920062 185.456007 190.107154 
" clip-path="url(#p46df4872b4)" style="fill: none; stroke: #000000; stroke-linecap: round"/>
    <path d="M 189.55954 191.885078 
L 185.456007 190.107154 
L 189.340466 187.891082 
z
" clip-path="url(#p46df4872b4)" style="stroke: #000000; stroke-linecap: round"/>
   </g>
   <g id="patch_6">
    <path d="M 413.604984 172.39747 
Q 310.284592 103.593815 207.894778 35.409857 
" clip-path="url(#p46df4872b4)" style="fill: none; stroke: #000000; stroke-linecap: round"/>
    <path d="M 210.115572 39.291618 
L 207.894778 35.409857 
L 212.332664 35.962278 
z
" clip-path="url(#p46df4872b4)" style="stroke: #000000; stroke-linecap: round"/>
   </g>
   <g id="patch_7">
    <path d="M 46.358235 309.74255 
Q 107.838157 253.126739 168.495645 197.268293 
" clip-path="url(#p46df4872b4)" style="fill: none; stroke: #000000; stroke-linecap: round"/>
    <path d="M 164.198399 198.506711 
L 168.495645 197.268293 
L 166.908032 201.44914 
z
" clip-path="url(#p46df4872b4)" style="stroke: #000000; stroke-linecap: round"/>
   </g>
   <g id="PathCollection_1">
    <defs>
     <path id="m252234e293" d="M 0 8.660254 
C 2.296726 8.660254 4.499694 7.747755 6.123724 6.123724 
C 7.747755 4.499694 8.660254 2.296726 8.660254 0 
C 8.660254 -2.296726 7.747755 -4.499694 6.123724 -6.123724 
C 4.499694 -7.747755 2.296726 -8.660254 0 -8.660254 
C -2.296726 -8.660254 -4.499694 -7.747755 -6.123724 -6.123724 
C -7.747755 -4.499694 -8.660254 -2.296726 -8.660254 0 
C -8.660254 2.296726 -7.747755 4.499694 -6.123724 6.123724 
C -4.499694 7.747755 -2.296726 8.660254 0 8.660254 
z
" style="stroke: #1f78b4"/>
    </defs>
    <g clip-path="url(#p46df4872b4)">
     <use xlink:href="#m252234e293" x="175.690353" y="190.642808" style="fill: #1f78b4; stroke: #1f78b4"/>
     <use xlink:href="#m252234e293" x="420.813223" y="177.197618" style="fill: #1f78b4; stroke: #1f78b4"/>
     <use xlink:href="#m252234e293" x="199.756065" y="29.990083" style="fill: #1f78b4; stroke: #1f78b4"/>
     <use xlink:href="#m252234e293" x="39.986777" y="315.609917" style="fill: #1f78b4; stroke: #1f78b4"/>
    </g>
   </g>
  </g>
 </g>
 <defs>
  <clipPath id="p46df4872b4">
   <rect x="0" y="0" width="460.8" height="345.6"/>
  </clipPath>
 </defs>
</svg>
