<?xml version="1.0" encoding="utf-8" standalone="no"?>
<!DOCTYPE svg PUBLIC "-//W3C//DTD SVG 1.1//EN"
  "http://www.w3.org/Graphics/SVG/1.1/DTD/svg11.dtd">
<svg xmlns:xlink="http://www.w3.org/1999/xlink" width="460.8pt" height="345.6pt" viewBox="0 0 460.8 345.6" xmlns="http://www.w3.org/2000/svg" version="1.1">
 <metadata>
  <rdf:RDF xmlns:dc="http://purl.org/dc/elements/1.1/" xmlns:cc="http://creativecommons.org/ns#" xmlns:rdf="http://www.w3.org/1999/02/22-rdf-syntax-ns#">
   <cc:Work>
    <dc:type rdf:resource="http://purl.org/dc/dcmitype/StillImage"/>
    <dc:date>2023-04-25T12:20:16.310763</dc:date>
    <dc:format>image/svg+xml</dc:format>
    <dc:creator>
     <cc:Agent>
      <dc:title>Matplotlib v3.7.1, https://matplotlib.org/</dc:title>
     </cc:Agent>
    </dc:creator>
   </cc:Work>
  </rdf:RDF>
 </metadata>
 <defs>
  <style type="text/css">*{stroke-linejoin: round; stroke-linecap: butt}</style>
 </defs>
 <g id="figure_1">
  <g id="patch_1">
   <path d="M 0 345.6 
L 460.8 345.6 
L 460.8 0 
L 0 0 
z
" style="fill: #ffffff"/>
  </g>
  <g id="axes_1">
   <g id="patch_2">
    <path d="M 47.898125 218.004081 
Q 153.539381 265.045846 258.159288 311.632808 
" clip-path="url(#p169a1b421c)" style="fill: none; stroke: #000000; stroke-linecap: round"/>
    <path d="M 255.318778 308.178608 
L 258.159288 311.632808 
L 253.691622 311.832697 
z
" clip-path="url(#p169a1b421c)" style="stroke: #000000; stroke-linecap: round"/>
   </g>
   <g id="patch_3">
    <path d="M 45.39677 207.719158 
Q 112.431328 123.93179 178.767427 41.017436 
" clip-path="url(#p169a1b421c)" style="fill: none; stroke: #000000; stroke-linecap: round"/>
    <path d="M 174.706846 42.891383 
L 178.767427 41.017436 
L 177.830236 45.390269 
z
" clip-path="url(#p169a1b421c)" style="stroke: #000000; stroke-linecap: round"/>
   </g>
   <g id="patch_4">
    <path d="M 259.179297 312.087015 
Q 153.538041 265.04525 48.918134 218.458288 
" clip-path="url(#p169a1b421c)" style="fill: none; stroke: #000000; stroke-linecap: round"/>
    <path d="M 51.758645 221.912488 
L 48.918134 218.458288 
L 53.385801 218.2584 
z
" clip-path="url(#p169a1b421c)" style="stroke: #000000; stroke-linecap: round"/>
   </g>
   <g id="patch_5">
    <path d="M 187.300566 41.695343 
Q 225.984802 174.496013 264.356356 306.223264 
" clip-path="url(#p169a1b421c)" style="fill: none; stroke: #000000; stroke-linecap: round"/>
    <path d="M 265.157861 301.823538 
L 264.356356 306.223264 
L 261.317478 302.942224 
z
" clip-path="url(#p169a1b421c)" style="stroke: #000000; stroke-linecap: round"/>
   </g>
   <g id="patch_6">
    <path d="M 416.710733 37.612597 
Q 343.951984 172.799908 271.7231 307.002717 
" clip-path="url(#p169a1b421c)" style="fill: none; stroke: #000000; stroke-linecap: round"/>
    <path d="M 275.379934 304.428311 
L 271.7231 307.002717 
L 271.857675 302.532607 
z
" clip-path="url(#p169a1b421c)" style="stroke: #000000; stroke-linecap: round"/>
   </g>
   <g id="patch_7">
    <path d="M 412.155024 30.114465 
Q 302.846371 31.684783 194.655636 33.239041 
" clip-path="url(#p169a1b421c)" style="fill: none; stroke: #000000; stroke-linecap: round"/>
    <path d="M 198.683953 35.181377 
L 194.655636 33.239041 
L 198.626495 31.181789 
z
" clip-path="url(#p169a1b421c)" style="stroke: #000000; stroke-linecap: round"/>
   </g>
   <g id="PathCollection_1">
    <defs>
     <path id="m05745b70ea" d="M 0 8.660254 
C 2.296726 8.660254 4.499694 7.747755 6.123724 6.123724 
C 7.747755 4.499694 8.660254 2.296726 8.660254 0 
C 8.660254 -2.296726 7.747755 -4.499694 6.123724 -6.123724 
C 4.499694 -7.747755 2.296726 -8.660254 0 -8.660254 
C -2.296726 -8.660254 -4.499694 -7.747755 -6.123724 -6.123724 
C -7.747755 -4.499694 -8.660254 -2.296726 -8.660254 0 
C -8.660254 2.296726 -7.747755 4.499694 -6.123724 6.123724 
C -4.499694 7.747755 -2.296726 8.660254 0 8.660254 
z
" style="stroke: #1f78b4"/>
    </defs>
    <g clip-path="url(#p169a1b421c)">
     <use xlink:href="#m05745b70ea" x="39.986777" y="214.481179" style="fill: #1f78b4; stroke: #1f78b4"/>
     <use xlink:href="#m05745b70ea" x="267.090646" y="315.609917" style="fill: #1f78b4; stroke: #1f78b4"/>
     <use xlink:href="#m05745b70ea" x="184.878199" y="33.379502" style="fill: #1f78b4; stroke: #1f78b4"/>
     <use xlink:href="#m05745b70ea" x="420.813223" y="29.990083" style="fill: #1f78b4; stroke: #1f78b4"/>
    </g>
   </g>
  </g>
 </g>
 <defs>
  <clipPath id="p169a1b421c">
   <rect x="0" y="0" width="460.8" height="345.6"/>
  </clipPath>
 </defs>
</svg>
