<?xml version="1.0" encoding="utf-8" standalone="no"?>
<!DOCTYPE svg PUBLIC "-//W3C//DTD SVG 1.1//EN"
  "http://www.w3.org/Graphics/SVG/1.1/DTD/svg11.dtd">
<svg xmlns:xlink="http://www.w3.org/1999/xlink" width="460.8pt" height="345.6pt" viewBox="0 0 460.8 345.6" xmlns="http://www.w3.org/2000/svg" version="1.1">
 <metadata>
  <rdf:RDF xmlns:dc="http://purl.org/dc/elements/1.1/" xmlns:cc="http://creativecommons.org/ns#" xmlns:rdf="http://www.w3.org/1999/02/22-rdf-syntax-ns#">
   <cc:Work>
    <dc:type rdf:resource="http://purl.org/dc/dcmitype/StillImage"/>
    <dc:date>2023-04-25T12:20:16.366033</dc:date>
    <dc:format>image/svg+xml</dc:format>
    <dc:creator>
     <cc:Agent>
      <dc:title>Matplotlib v3.7.1, https://matplotlib.org/</dc:title>
     </cc:Agent>
    </dc:creator>
   </cc:Work>
  </rdf:RDF>
 </metadata>
 <defs>
  <style type="text/css">*{stroke-linejoin: round; stroke-linecap: butt}</style>
 </defs>
 <g id="figure_1">
  <g id="patch_1">
   <path d="M 0 345.6 
L 460.8 345.6 
L 460.8 0 
L 0 0 
z
" style="fill: #ffffff"/>
  </g>
  <g id="axes_1">
   <g id="patch_2">
    <path d="M 412.970301 185.355582 
Q 278.114576 248.643297 144.270971 311.456024 
" clip-path="url(#pc4751ec3e1)" style="fill: none; stroke: #000000; stroke-linecap: round"/>
    <path d="M 148.741725 311.567193 
L 144.270971 311.456024 
L 147.042359 307.946122 
z
" clip-path="url(#pc4751ec3e1)" style="stroke: #000000; stroke-linecap: round"/>
   </g>
   <g id="patch_3">
    <path d="M 415.257032 175.034526 
Q 357.354339 105.833215 300.16911 37.489368 
" clip-path="url(#pc4751ec3e1)" style="fill: none; stroke: #000000; stroke-linecap: round"/>
    <path d="M 301.202111 41.840564 
L 300.16911 37.489368 
L 304.269868 39.273685 
z
" clip-path="url(#pc4751ec3e1)" style="stroke: #000000; stroke-linecap: round"/>
   </g>
   <g id="patch_4">
    <path d="M 143.262629 311.929239 
Q 278.118354 248.641524 411.961959 185.828797 
" clip-path="url(#pc4751ec3e1)" style="fill: none; stroke: #000000; stroke-linecap: round"/>
    <path d="M 407.491205 185.717628 
L 411.961959 185.828797 
L 409.190571 189.338698 
z
" clip-path="url(#pc4751ec3e1)" style="stroke: #000000; stroke-linecap: round"/>
   </g>
   <g id="patch_5">
    <path d="M 286.823612 34.989495 
Q 166.93999 119.755249 47.969256 203.875529 
" clip-path="url(#pc4751ec3e1)" style="fill: none; stroke: #000000; stroke-linecap: round"/>
    <path d="M 52.389961 203.199238 
L 47.969256 203.875529 
L 50.080647 199.933191 
z
" clip-path="url(#pc4751ec3e1)" style="stroke: #000000; stroke-linecap: round"/>
   </g>
   <g id="patch_6">
    <path d="M 48.624755 208.888096 
Q 230.401419 195.597186 411.063025 182.387806 
" clip-path="url(#pc4751ec3e1)" style="fill: none; stroke: #000000; stroke-linecap: round"/>
    <path d="M 406.927831 180.684818 
L 411.063025 182.387806 
L 407.219519 184.674169 
z
" clip-path="url(#pc4751ec3e1)" style="stroke: #000000; stroke-linecap: round"/>
   </g>
   <g id="patch_7">
    <path d="M 45.779504 215.959297 
Q 87.703971 262.565608 128.880722 308.340702 
" clip-path="url(#pc4751ec3e1)" style="fill: none; stroke: #000000; stroke-linecap: round"/>
    <path d="M 127.692535 304.029297 
L 128.880722 308.340702 
L 124.718686 306.704408 
z
" clip-path="url(#pc4751ec3e1)" style="stroke: #000000; stroke-linecap: round"/>
   </g>
   <g id="PathCollection_1">
    <defs>
     <path id="m9782af0806" d="M 0 8.660254 
C 2.296726 8.660254 4.499694 7.747755 6.123724 6.123724 
C 7.747755 4.499694 8.660254 2.296726 8.660254 0 
C 8.660254 -2.296726 7.747755 -4.499694 6.123724 -6.123724 
C 4.499694 -7.747755 2.296726 -8.660254 0 -8.660254 
C -2.296726 -8.660254 -4.499694 -7.747755 -6.123724 -6.123724 
C -7.747755 -4.499694 -8.660254 -2.296726 -8.660254 0 
C -8.660254 2.296726 -7.747755 4.499694 -6.123724 6.123724 
C -4.499694 7.747755 -2.296726 8.660254 0 8.660254 
z
" style="stroke: #1f78b4"/>
    </defs>
    <g clip-path="url(#pc4751ec3e1)">
     <use xlink:href="#m9782af0806" x="420.813223" y="181.674903" style="fill: #1f78b4; stroke: #1f78b4"/>
     <use xlink:href="#m9782af0806" x="135.419707" y="315.609917" style="fill: #1f78b4; stroke: #1f78b4"/>
     <use xlink:href="#m9782af0806" x="293.894247" y="29.990083" style="fill: #1f78b4; stroke: #1f78b4"/>
     <use xlink:href="#m9782af0806" x="39.986777" y="209.519677" style="fill: #1f78b4; stroke: #1f78b4"/>
    </g>
   </g>
  </g>
 </g>
 <defs>
  <clipPath id="pc4751ec3e1">
   <rect x="0" y="0" width="460.8" height="345.6"/>
  </clipPath>
 </defs>
</svg>
