<?xml version="1.0" encoding="utf-8" standalone="no"?>
<!DOCTYPE svg PUBLIC "-//W3C//DTD SVG 1.1//EN"
  "http://www.w3.org/Graphics/SVG/1.1/DTD/svg11.dtd">
<svg xmlns:xlink="http://www.w3.org/1999/xlink" width="460.8pt" height="345.6pt" viewBox="0 0 460.8 345.6" xmlns="http://www.w3.org/2000/svg" version="1.1">
 <metadata>
  <rdf:RDF xmlns:dc="http://purl.org/dc/elements/1.1/" xmlns:cc="http://creativecommons.org/ns#" xmlns:rdf="http://www.w3.org/1999/02/22-rdf-syntax-ns#">
   <cc:Work>
    <dc:type rdf:resource="http://purl.org/dc/dcmitype/StillImage"/>
    <dc:date>2023-04-25T12:20:16.470579</dc:date>
    <dc:format>image/svg+xml</dc:format>
    <dc:creator>
     <cc:Agent>
      <dc:title>Matplotlib v3.7.1, https://matplotlib.org/</dc:title>
     </cc:Agent>
    </dc:creator>
   </cc:Work>
  </rdf:RDF>
 </metadata>
 <defs>
  <style type="text/css">*{stroke-linejoin: round; stroke-linecap: butt}</style>
 </defs>
 <g id="figure_1">
  <g id="patch_1">
   <path d="M 0 345.6 
L 460.8 345.6 
L 460.8 0 
L 0 0 
z
" style="fill: #ffffff"/>
  </g>
  <g id="axes_1">
   <g id="patch_2">
    <path d="M 420.169385 38.627557 
Q 410.259163 171.579125 400.432049 303.415752 
" clip-path="url(#p1ed908a405)" style="fill: none; stroke: #000000; stroke-linecap: round"/>
    <path d="M 402.723851 299.575486 
L 400.432049 303.415752 
L 398.734917 299.27815 
z
" clip-path="url(#p1ed908a405)" style="stroke: #000000; stroke-linecap: round"/>
   </g>
   <g id="patch_3">
    <path d="M 412.419305 32.127393 
Q 230.398419 78.474647 49.460996 124.546023 
" clip-path="url(#p1ed908a405)" style="fill: none; stroke: #000000; stroke-linecap: round"/>
    <path d="M 53.830815 125.49717 
L 49.460996 124.546023 
L 52.843805 121.620856 
z
" clip-path="url(#p1ed908a405)" style="stroke: #000000; stroke-linecap: round"/>
   </g>
   <g id="patch_4">
    <path d="M 392.01273 309.182376 
Q 219.844397 220.060546 48.668959 131.452682 
" clip-path="url(#p1ed908a405)" style="fill: none; stroke: #000000; stroke-linecap: round"/>
    <path d="M 51.301837 135.067644 
L 48.668959 131.452682 
L 53.140656 131.515357 
z
" clip-path="url(#p1ed908a405)" style="stroke: #000000; stroke-linecap: round"/>
   </g>
   <g id="patch_5">
    <path d="M 391.046774 313.224972 
Q 224.835714 314.387176 59.742659 315.541563 
" clip-path="url(#p1ed908a405)" style="fill: none; stroke: #000000; stroke-linecap: round"/>
    <path d="M 63.756546 317.513545 
L 59.742659 315.541563 
L 63.728577 313.513643 
z
" clip-path="url(#p1ed908a405)" style="stroke: #000000; stroke-linecap: round"/>
   </g>
   <g id="patch_6">
    <path d="M 40.444398 135.60858 
Q 44.976932 221.284723 49.450401 305.844394 
" clip-path="url(#p1ed908a405)" style="fill: none; stroke: #000000; stroke-linecap: round"/>
    <path d="M 51.236291 301.744321 
L 49.450401 305.844394 
L 47.241877 301.955638 
z
" clip-path="url(#p1ed908a405)" style="stroke: #000000; stroke-linecap: round"/>
   </g>
   <g id="patch_7">
    <path d="M 56.828157 310.325584 
Q 235.389724 172.800309 413.065519 35.957241 
" clip-path="url(#p1ed908a405)" style="fill: none; stroke: #000000; stroke-linecap: round"/>
    <path d="M 408.676114 36.813464 
L 413.065519 35.957241 
L 411.116854 39.982499 
z
" clip-path="url(#p1ed908a405)" style="stroke: #000000; stroke-linecap: round"/>
   </g>
   <g id="PathCollection_1">
    <defs>
     <path id="mbaf0a5b4da" d="M 0 8.660254 
C 2.296726 8.660254 4.499694 7.747755 6.123724 6.123724 
C 7.747755 4.499694 8.660254 2.296726 8.660254 0 
C 8.660254 -2.296726 7.747755 -4.499694 6.123724 -6.123724 
C 4.499694 -7.747755 2.296726 -8.660254 0 -8.660254 
C -2.296726 -8.660254 -4.499694 -7.747755 -6.123724 -6.123724 
C -7.747755 -4.499694 -8.660254 -2.296726 -8.660254 0 
C -8.660254 2.296726 -7.747755 4.499694 -6.123724 6.123724 
C -4.499694 7.747755 -2.296726 8.660254 0 8.660254 
z
" style="stroke: #1f78b4"/>
    </defs>
    <g clip-path="url(#p1ed908a405)">
     <use xlink:href="#mbaf0a5b4da" x="420.813223" y="29.990083" style="fill: #1f78b4; stroke: #1f78b4"/>
     <use xlink:href="#mbaf0a5b4da" x="399.705382" y="313.164428" style="fill: #1f78b4; stroke: #1f78b4"/>
     <use xlink:href="#mbaf0a5b4da" x="39.986777" y="126.958406" style="fill: #1f78b4; stroke: #1f78b4"/>
     <use xlink:href="#mbaf0a5b4da" x="49.967027" y="315.609917" style="fill: #1f78b4; stroke: #1f78b4"/>
    </g>
   </g>
  </g>
 </g>
 <defs>
  <clipPath id="p1ed908a405">
   <rect x="0" y="0" width="460.8" height="345.6"/>
  </clipPath>
 </defs>
</svg>
