<?xml version="1.0" encoding="utf-8" standalone="no"?>
<!DOCTYPE svg PUBLIC "-//W3C//DTD SVG 1.1//EN"
  "http://www.w3.org/Graphics/SVG/1.1/DTD/svg11.dtd">
<svg xmlns:xlink="http://www.w3.org/1999/xlink" width="460.8pt" height="345.6pt" viewBox="0 0 460.8 345.6" xmlns="http://www.w3.org/2000/svg" version="1.1">
 <metadata>
  <rdf:RDF xmlns:dc="http://purl.org/dc/elements/1.1/" xmlns:cc="http://creativecommons.org/ns#" xmlns:rdf="http://www.w3.org/1999/02/22-rdf-syntax-ns#">
   <cc:Work>
    <dc:type rdf:resource="http://purl.org/dc/dcmitype/StillImage"/>
    <dc:date>2023-04-25T12:20:16.525736</dc:date>
    <dc:format>image/svg+xml</dc:format>
    <dc:creator>
     <cc:Agent>
      <dc:title>Matplotlib v3.7.1, https://matplotlib.org/</dc:title>
     </cc:Agent>
    </dc:creator>
   </cc:Work>
  </rdf:RDF>
 </metadata>
 <defs>
  <style type="text/css">*{stroke-linejoin: round; stroke-linecap: butt}</style>
 </defs>
 <g id="figure_1">
  <g id="patch_1">
   <path d="M 0 345.6 
L 460.8 345.6 
L 460.8 0 
L 0 0 
z
" style="fill: #ffffff"/>
  </g>
  <g id="axes_1">
   <g id="patch_2">
    <path d="M 114.590562 31.26242 
Q 263.419467 53.373073 411.142475 75.31943 
" clip-path="url(#pd3c052f5e9)" style="fill: none; stroke: #000000; stroke-linecap: round"/>
    <path d="M 407.479803 72.753337 
L 411.142475 75.31943 
L 406.891997 76.709912 
z
" clip-path="url(#pd3c052f5e9)" style="stroke: #000000; stroke-linecap: round"/>
   </g>
   <g id="patch_3">
    <path d="M 103.256215 38.192355 
Q 73.007349 127.758581 43.116222 216.265551 
" clip-path="url(#pd3c052f5e9)" style="fill: none; stroke: #000000; stroke-linecap: round"/>
    <path d="M 46.290961 213.115784 
L 43.116222 216.265551 
L 42.501252 211.8359 
z
" clip-path="url(#pd3c052f5e9)" style="stroke: #000000; stroke-linecap: round"/>
   </g>
   <g id="patch_4">
    <path d="M 412.744718 79.908241 
Q 230.399845 151.144024 49.096357 221.972974 
" clip-path="url(#pd3c052f5e9)" style="fill: none; stroke: #000000; stroke-linecap: round"/>
    <path d="M 53.549902 222.380331 
L 49.096357 221.972974 
L 52.09437 218.654552 
z
" clip-path="url(#pd3c052f5e9)" style="stroke: #000000; stroke-linecap: round"/>
   </g>
   <g id="patch_5">
    <path d="M 417.719267 84.843567 
Q 375.12489 196.182627 332.929998 306.477458 
" clip-path="url(#pd3c052f5e9)" style="fill: none; stroke: #000000; stroke-linecap: round"/>
    <path d="M 336.227209 303.456135 
L 332.929998 306.477458 
L 332.491266 302.026895 
z
" clip-path="url(#pd3c052f5e9)" style="stroke: #000000; stroke-linecap: round"/>
   </g>
   <g id="patch_6">
    <path d="M 48.259159 228.106177 
Q 184.71388 270.571581 320.101066 312.704763 
" clip-path="url(#pd3c052f5e9)" style="fill: none; stroke: #000000; stroke-linecap: round"/>
    <path d="M 316.876037 309.606507 
L 320.101066 312.704763 
L 315.687444 313.425832 
z
" clip-path="url(#pd3c052f5e9)" style="stroke: #000000; stroke-linecap: round"/>
   </g>
   <g id="patch_7">
    <path d="M 321.16386 313.03551 
Q 184.70914 270.570106 49.321954 228.436924 
" clip-path="url(#pd3c052f5e9)" style="fill: none; stroke: #000000; stroke-linecap: round"/>
    <path d="M 52.546982 231.53518 
L 49.321954 228.436924 
L 53.735576 227.715854 
z
" clip-path="url(#pd3c052f5e9)" style="stroke: #000000; stroke-linecap: round"/>
   </g>
   <g id="PathCollection_1">
    <defs>
     <path id="mdc0877749e" d="M 0 8.660254 
C 2.296726 8.660254 4.499694 7.747755 6.123724 6.123724 
C 7.747755 4.499694 8.660254 2.296726 8.660254 0 
C 8.660254 -2.296726 7.747755 -4.499694 6.123724 -6.123724 
C 4.499694 -7.747755 2.296726 -8.660254 0 -8.660254 
C -2.296726 -8.660254 -4.499694 -7.747755 -6.123724 -6.123724 
C -7.747755 -4.499694 -8.660254 -2.296726 -8.660254 0 
C -8.660254 2.296726 -7.747755 4.499694 -6.123724 6.123724 
C -4.499694 7.747755 -2.296726 8.660254 0 8.660254 
z
" style="stroke: #1f78b4"/>
    </defs>
    <g clip-path="url(#pd3c052f5e9)">
     <use xlink:href="#mdc0877749e" x="106.026337" y="29.990083" style="fill: #1f78b4; stroke: #1f78b4"/>
     <use xlink:href="#mdc0877749e" x="420.813223" y="76.756157" style="fill: #1f78b4; stroke: #1f78b4"/>
     <use xlink:href="#mdc0877749e" x="39.986777" y="225.531769" style="fill: #1f78b4; stroke: #1f78b4"/>
     <use xlink:href="#mdc0877749e" x="329.436243" y="315.609917" style="fill: #1f78b4; stroke: #1f78b4"/>
    </g>
   </g>
  </g>
 </g>
 <defs>
  <clipPath id="pd3c052f5e9">
   <rect x="0" y="0" width="460.8" height="345.6"/>
  </clipPath>
 </defs>
</svg>
