<?xml version="1.0" encoding="utf-8" standalone="no"?>
<!DOCTYPE svg PUBLIC "-//W3C//DTD SVG 1.1//EN"
  "http://www.w3.org/Graphics/SVG/1.1/DTD/svg11.dtd">
<svg xmlns:xlink="http://www.w3.org/1999/xlink" width="460.8pt" height="345.6pt" viewBox="0 0 460.8 345.6" xmlns="http://www.w3.org/2000/svg" version="1.1">
 <metadata>
  <rdf:RDF xmlns:dc="http://purl.org/dc/elements/1.1/" xmlns:cc="http://creativecommons.org/ns#" xmlns:rdf="http://www.w3.org/1999/02/22-rdf-syntax-ns#">
   <cc:Work>
    <dc:type rdf:resource="http://purl.org/dc/dcmitype/StillImage"/>
    <dc:date>2023-04-25T12:20:16.578868</dc:date>
    <dc:format>image/svg+xml</dc:format>
    <dc:creator>
     <cc:Agent>
      <dc:title>Matplotlib v3.7.1, https://matplotlib.org/</dc:title>
     </cc:Agent>
    </dc:creator>
   </cc:Work>
  </rdf:RDF>
 </metadata>
 <defs>
  <style type="text/css">*{stroke-linejoin: round; stroke-linecap: butt}</style>
 </defs>
 <g id="figure_1">
  <g id="patch_1">
   <path d="M 0 345.6 
L 460.8 345.6 
L 460.8 0 
L 0 0 
z
" style="fill: #ffffff"/>
  </g>
  <g id="axes_1">
   <g id="patch_2">
    <path d="M 412.419305 220.53567 
Q 230.398419 267.001801 49.460827 313.19139 
" clip-path="url(#pc1557e23a7)" style="fill: none; stroke: #000000; stroke-linecap: round"/>
    <path d="M 53.831229 314.139857 
L 49.460827 313.19139 
L 52.841841 310.264149 
z
" clip-path="url(#pc1557e23a7)" style="stroke: #000000; stroke-linecap: round"/>
   </g>
   <g id="patch_3">
    <path d="M 414.354393 212.617408 
Q 315.46343 124.189344 217.405895 36.50653 
" clip-path="url(#pc1557e23a7)" style="fill: none; stroke: #000000; stroke-linecap: round"/>
    <path d="M 219.054516 40.663698 
L 217.405895 36.50653 
L 221.720802 37.681934 
z
" clip-path="url(#pc1557e23a7)" style="stroke: #000000; stroke-linecap: round"/>
   </g>
   <g id="patch_4">
    <path d="M 44.419452 308.168269 
Q 125.052821 172.799622 205.114036 38.391517 
" clip-path="url(#pc1557e23a7)" style="fill: none; stroke: #000000; stroke-linecap: round"/>
    <path d="M 201.348767 40.804555 
L 205.114036 38.391517 
L 204.785305 42.851555 
z
" clip-path="url(#pc1557e23a7)" style="stroke: #000000; stroke-linecap: round"/>
   </g>
   <g id="patch_5">
    <path d="M 43.431824 307.664372 
Q 71.608631 242.678282 99.340686 178.717957 
" clip-path="url(#pc1557e23a7)" style="fill: none; stroke: #000000; stroke-linecap: round"/>
    <path d="M 95.914542 181.592247 
L 99.340686 178.717957 
L 99.584432 183.183446 
z
" clip-path="url(#pc1557e23a7)" style="stroke: #000000; stroke-linecap: round"/>
   </g>
   <g id="patch_6">
    <path d="M 111.791753 171.061691 
Q 262.023359 194.071873 411.149819 216.912786 
" clip-path="url(#pc1557e23a7)" style="fill: none; stroke: #000000; stroke-linecap: round"/>
    <path d="M 407.498727 214.330244 
L 411.149819 216.912786 
L 406.89313 218.284135 
z
" clip-path="url(#pc1557e23a7)" style="stroke: #000000; stroke-linecap: round"/>
   </g>
   <g id="patch_7">
    <path d="M 108.488944 162.872635 
Q 156.672844 99.871228 204.177539 37.757896 
" clip-path="url(#pc1557e23a7)" style="fill: none; stroke: #000000; stroke-linecap: round"/>
    <path d="M 200.158898 39.720172 
L 204.177539 37.757896 
L 203.336174 42.150174 
z
" clip-path="url(#pc1557e23a7)" style="stroke: #000000; stroke-linecap: round"/>
   </g>
   <g id="PathCollection_1">
    <defs>
     <path id="m3b385cf4fb" d="M 0 8.660254 
C 2.296726 8.660254 4.499694 7.747755 6.123724 6.123724 
C 7.747755 4.499694 8.660254 2.296726 8.660254 0 
C 8.660254 -2.296726 7.747755 -4.499694 6.123724 -6.123724 
C 4.499694 -7.747755 2.296726 -8.660254 0 -8.660254 
C -2.296726 -8.660254 -4.499694 -7.747755 -6.123724 -6.123724 
C -7.747755 -4.499694 -8.660254 -2.296726 -8.660254 0 
C -8.660254 2.296726 -7.747755 4.499694 -6.123724 6.123724 
C -4.499694 7.747755 -2.296726 8.660254 0 8.660254 
z
" style="stroke: #1f78b4"/>
    </defs>
    <g clip-path="url(#pc1557e23a7)">
     <use xlink:href="#m3b385cf4fb" x="420.813223" y="218.392878" style="fill: #1f78b4; stroke: #1f78b4"/>
     <use xlink:href="#m3b385cf4fb" x="39.986777" y="315.609917" style="fill: #1f78b4; stroke: #1f78b4"/>
     <use xlink:href="#m3b385cf4fb" x="210.118415" y="29.990083" style="fill: #1f78b4; stroke: #1f78b4"/>
     <use xlink:href="#m3b385cf4fb" x="103.228957" y="169.750173" style="fill: #1f78b4; stroke: #1f78b4"/>
    </g>
   </g>
  </g>
 </g>
 <defs>
  <clipPath id="pc1557e23a7">
   <rect x="0" y="0" width="460.8" height="345.6"/>
  </clipPath>
 </defs>
</svg>
