<?xml version="1.0" encoding="utf-8" standalone="no"?>
<!DOCTYPE svg PUBLIC "-//W3C//DTD SVG 1.1//EN"
  "http://www.w3.org/Graphics/SVG/1.1/DTD/svg11.dtd">
<svg xmlns:xlink="http://www.w3.org/1999/xlink" width="460.8pt" height="345.6pt" viewBox="0 0 460.8 345.6" xmlns="http://www.w3.org/2000/svg" version="1.1">
 <metadata>
  <rdf:RDF xmlns:dc="http://purl.org/dc/elements/1.1/" xmlns:cc="http://creativecommons.org/ns#" xmlns:rdf="http://www.w3.org/1999/02/22-rdf-syntax-ns#">
   <cc:Work>
    <dc:type rdf:resource="http://purl.org/dc/dcmitype/StillImage"/>
    <dc:date>2023-04-25T12:20:16.632988</dc:date>
    <dc:format>image/svg+xml</dc:format>
    <dc:creator>
     <cc:Agent>
      <dc:title>Matplotlib v3.7.1, https://matplotlib.org/</dc:title>
     </cc:Agent>
    </dc:creator>
   </cc:Work>
  </rdf:RDF>
 </metadata>
 <defs>
  <style type="text/css">*{stroke-linejoin: round; stroke-linecap: butt}</style>
 </defs>
 <g id="figure_1">
  <g id="patch_1">
   <path d="M 0 345.6 
L 460.8 345.6 
L 460.8 0 
L 0 0 
z
" style="fill: #ffffff"/>
  </g>
  <g id="axes_1">
   <g id="patch_2">
    <path d="M 48.019316 226.446971 
Q 154.379188 269.407387 259.702397 311.949077 
" clip-path="url(#p37c3281715)" style="fill: none; stroke: #000000; stroke-linecap: round"/>
    <path d="M 256.742556 308.596565 
L 259.702397 311.949077 
L 255.244482 312.305442 
z
" clip-path="url(#p37c3281715)" style="stroke: #000000; stroke-linecap: round"/>
   </g>
   <g id="patch_3">
    <path d="M 45.343795 216.395138 
Q 116.010862 126.595834 185.986515 37.675135 
" clip-path="url(#p37c3281715)" style="fill: none; stroke: #000000; stroke-linecap: round"/>
    <path d="M 181.941142 39.58169 
L 185.986515 37.675135 
L 185.084536 42.055367 
z
" clip-path="url(#p37c3281715)" style="stroke: #000000; stroke-linecap: round"/>
   </g>
   <g id="patch_4">
    <path d="M 266.518951 307.246507 
Q 230.400064 172.80024 194.571251 39.433722 
" clip-path="url(#p37c3281715)" style="fill: none; stroke: #000000; stroke-linecap: round"/>
    <path d="M 193.677537 43.815648 
L 194.571251 39.433722 
L 197.540564 42.777849 
z
" clip-path="url(#p37c3281715)" style="stroke: #000000; stroke-linecap: round"/>
   </g>
   <g id="patch_5">
    <path d="M 194.281048 38.353493 
Q 230.399935 172.79976 266.228749 306.166278 
" clip-path="url(#p37c3281715)" style="fill: none; stroke: #000000; stroke-linecap: round"/>
    <path d="M 267.122463 301.784352 
L 266.228749 306.166278 
L 263.259436 302.822151 
z
" clip-path="url(#p37c3281715)" style="stroke: #000000; stroke-linecap: round"/>
   </g>
   <g id="patch_6">
    <path d="M 415.456205 129.204862 
Q 344.789138 219.004166 274.813484 307.924865 
" clip-path="url(#p37c3281715)" style="fill: none; stroke: #000000; stroke-linecap: round"/>
    <path d="M 278.858858 306.01831 
L 274.813484 307.924865 
L 275.715464 303.544633 
z
" clip-path="url(#p37c3281715)" style="stroke: #000000; stroke-linecap: round"/>
   </g>
   <g id="patch_7">
    <path d="M 412.780684 119.153029 
Q 306.420812 76.192613 201.097603 33.650923 
" clip-path="url(#p37c3281715)" style="fill: none; stroke: #000000; stroke-linecap: round"/>
    <path d="M 204.057444 37.003435 
L 201.097603 33.650923 
L 205.555518 33.294558 
z
" clip-path="url(#p37c3281715)" style="stroke: #000000; stroke-linecap: round"/>
   </g>
   <g id="PathCollection_1">
    <defs>
     <path id="m77cc6fbc85" d="M 0 8.660254 
C 2.296726 8.660254 4.499694 7.747755 6.123724 6.123724 
C 7.747755 4.499694 8.660254 2.296726 8.660254 0 
C 8.660254 -2.296726 7.747755 -4.499694 6.123724 -6.123724 
C 4.499694 -7.747755 2.296726 -8.660254 0 -8.660254 
C -2.296726 -8.660254 -4.499694 -7.747755 -6.123724 -6.123724 
C -7.747755 -4.499694 -8.660254 -2.296726 -8.660254 0 
C -8.660254 2.296726 -7.747755 4.499694 -6.123724 6.123724 
C -4.499694 7.747755 -2.296726 8.660254 0 8.660254 
z
" style="stroke: #1f78b4"/>
    </defs>
    <g clip-path="url(#p37c3281715)">
     <use xlink:href="#m77cc6fbc85" x="39.986777" y="223.202503" style="fill: #1f78b4; stroke: #1f78b4"/>
     <use xlink:href="#m77cc6fbc85" x="268.765775" y="315.609917" style="fill: #1f78b4; stroke: #1f78b4"/>
     <use xlink:href="#m77cc6fbc85" x="192.034225" y="29.990083" style="fill: #1f78b4; stroke: #1f78b4"/>
     <use xlink:href="#m77cc6fbc85" x="420.813223" y="122.397497" style="fill: #1f78b4; stroke: #1f78b4"/>
    </g>
   </g>
  </g>
 </g>
 <defs>
  <clipPath id="p37c3281715">
   <rect x="0" y="0" width="460.8" height="345.6"/>
  </clipPath>
 </defs>
</svg>
