<?xml version="1.0" encoding="utf-8" standalone="no"?>
<!DOCTYPE svg PUBLIC "-//W3C//DTD SVG 1.1//EN"
  "http://www.w3.org/Graphics/SVG/1.1/DTD/svg11.dtd">
<svg xmlns:xlink="http://www.w3.org/1999/xlink" width="460.8pt" height="345.6pt" viewBox="0 0 460.8 345.6" xmlns="http://www.w3.org/2000/svg" version="1.1">
 <metadata>
  <rdf:RDF xmlns:dc="http://purl.org/dc/elements/1.1/" xmlns:cc="http://creativecommons.org/ns#" xmlns:rdf="http://www.w3.org/1999/02/22-rdf-syntax-ns#">
   <cc:Work>
    <dc:type rdf:resource="http://purl.org/dc/dcmitype/StillImage"/>
    <dc:date>2023-04-25T12:20:14.257595</dc:date>
    <dc:format>image/svg+xml</dc:format>
    <dc:creator>
     <cc:Agent>
      <dc:title>Matplotlib v3.7.1, https://matplotlib.org/</dc:title>
     </cc:Agent>
    </dc:creator>
   </cc:Work>
  </rdf:RDF>
 </metadata>
 <defs>
  <style type="text/css">*{stroke-linejoin: round; stroke-linecap: butt}</style>
 </defs>
 <g id="figure_1">
  <g id="patch_1">
   <path d="M 0 345.6 
L 460.8 345.6 
L 460.8 0 
L 0 0 
z
" style="fill: #ffffff"/>
  </g>
  <g id="axes_1">
   <g id="patch_2">
    <path d="M 48.546259 314.302063 
Q 167.18497 296.174538 284.718475 278.215885 
" clip-path="url(#p551c47d2db)" style="fill: none; stroke: #000000; stroke-linecap: round"/>
    <path d="M 280.46228 276.843003 
L 284.718475 278.215885 
L 281.066452 280.797112 
z
" clip-path="url(#p551c47d2db)" style="stroke: #000000; stroke-linecap: round"/>
   </g>
   <g id="patch_3">
    <path d="M 46.916335 310.412749 
Q 230.400288 172.799784 412.989814 35.85764 
" clip-path="url(#p551c47d2db)" style="fill: none; stroke: #000000; stroke-linecap: round"/>
    <path d="M 408.589814 36.65764 
L 412.989814 35.85764 
L 410.989814 39.85764 
z
" clip-path="url(#p551c47d2db)" style="stroke: #000000; stroke-linecap: round"/>
   </g>
   <g id="patch_4">
    <path d="M 40.292004 306.953442 
Q 43.042593 228.944598 45.753785 152.053094 
" clip-path="url(#p551c47d2db)" style="fill: none; stroke: #000000; stroke-linecap: round"/>
    <path d="M 43.614075 155.980134 
L 45.753785 152.053094 
L 47.61159 156.121086 
z
" clip-path="url(#p551c47d2db)" style="stroke: #000000; stroke-linecap: round"/>
   </g>
   <g id="patch_5">
    <path d="M 285.82829 278.04631 
Q 167.189578 296.173834 49.656073 314.132487 
" clip-path="url(#p551c47d2db)" style="fill: none; stroke: #000000; stroke-linecap: round"/>
    <path d="M 53.912268 315.505369 
L 49.656073 314.132487 
L 53.308096 311.551261 
z
" clip-path="url(#p551c47d2db)" style="stroke: #000000; stroke-linecap: round"/>
   </g>
   <g id="patch_6">
    <path d="M 298.336638 269.031333 
Q 357.600496 153.364271 416.354536 38.692238 
" clip-path="url(#p551c47d2db)" style="fill: none; stroke: #000000; stroke-linecap: round"/>
    <path d="M 412.750587 41.340172 
L 416.354536 38.692238 
L 416.310514 43.164157 
z
" clip-path="url(#p551c47d2db)" style="stroke: #000000; stroke-linecap: round"/>
   </g>
   <g id="patch_7">
    <path d="M 53.717269 146.405345 
Q 170.246139 209.510586 285.79188 272.083421 
" clip-path="url(#p551c47d2db)" style="fill: none; stroke: #000000; stroke-linecap: round"/>
    <path d="M 283.226924 268.419953 
L 285.79188 272.083421 
L 281.322132 271.937305 
z
" clip-path="url(#p551c47d2db)" style="stroke: #000000; stroke-linecap: round"/>
   </g>
   <g id="PathCollection_1">
    <defs>
     <path id="mffac490713" d="M 0 8.660254 
C 2.296726 8.660254 4.499694 7.747755 6.123724 6.123724 
C 7.747755 4.499694 8.660254 2.296726 8.660254 0 
C 8.660254 -2.296726 7.747755 -4.499694 6.123724 -6.123724 
C 4.499694 -7.747755 2.296726 -8.660254 0 -8.660254 
C -2.296726 -8.660254 -4.499694 -7.747755 -6.123724 -6.123724 
C -7.747755 -4.499694 -8.660254 -2.296726 -8.660254 0 
C -8.660254 2.296726 -7.747755 4.499694 -6.123724 6.123724 
C -4.499694 7.747755 -2.296726 8.660254 0 8.660254 
z
" style="stroke: #1f78b4"/>
    </defs>
    <g clip-path="url(#p551c47d2db)">
     <use xlink:href="#mffac490713" x="39.986777" y="315.609917" style="fill: #1f78b4; stroke: #1f78b4"/>
     <use xlink:href="#mffac490713" x="294.387771" y="276.738455" style="fill: #1f78b4; stroke: #1f78b4"/>
     <use xlink:href="#mffac490713" x="420.813223" y="29.990083" style="fill: #1f78b4; stroke: #1f78b4"/>
     <use xlink:href="#mffac490713" x="46.098405" y="142.279412" style="fill: #1f78b4; stroke: #1f78b4"/>
    </g>
   </g>
  </g>
 </g>
 <defs>
  <clipPath id="p551c47d2db">
   <rect x="0" y="0" width="460.8" height="345.6"/>
  </clipPath>
 </defs>
</svg>
