<?xml version="1.0" encoding="utf-8" standalone="no"?>
<!DOCTYPE svg PUBLIC "-//W3C//DTD SVG 1.1//EN"
  "http://www.w3.org/Graphics/SVG/1.1/DTD/svg11.dtd">
<svg xmlns:xlink="http://www.w3.org/1999/xlink" width="460.8pt" height="345.6pt" viewBox="0 0 460.8 345.6" xmlns="http://www.w3.org/2000/svg" version="1.1">
 <metadata>
  <rdf:RDF xmlns:dc="http://purl.org/dc/elements/1.1/" xmlns:cc="http://creativecommons.org/ns#" xmlns:rdf="http://www.w3.org/1999/02/22-rdf-syntax-ns#">
   <cc:Work>
    <dc:type rdf:resource="http://purl.org/dc/dcmitype/StillImage"/>
    <dc:date>2023-04-25T12:20:14.311404</dc:date>
    <dc:format>image/svg+xml</dc:format>
    <dc:creator>
     <cc:Agent>
      <dc:title>Matplotlib v3.7.1, https://matplotlib.org/</dc:title>
     </cc:Agent>
    </dc:creator>
   </cc:Work>
  </rdf:RDF>
 </metadata>
 <defs>
  <style type="text/css">*{stroke-linejoin: round; stroke-linecap: butt}</style>
 </defs>
 <g id="figure_1">
  <g id="patch_1">
   <path d="M 0 345.6 
L 460.8 345.6 
L 460.8 0 
L 0 0 
z
" style="fill: #ffffff"/>
  </g>
  <g id="axes_1">
   <g id="patch_2">
    <path d="M 246.941946 311.321555 
Q 330.114212 263.928991 412.315076 217.089944 
" clip-path="url(#p488eb373c6)" style="fill: none; stroke: #000000; stroke-linecap: round"/>
    <path d="M 407.849527 217.332569 
L 412.315076 217.089944 
L 409.829846 220.807959 
z
" clip-path="url(#p488eb373c6)" style="stroke: #000000; stroke-linecap: round"/>
   </g>
   <g id="patch_3">
    <path d="M 240.552007 307.028596 
Q 258.320751 172.802134 275.942771 39.684037 
" clip-path="url(#p488eb373c6)" style="fill: none; stroke: #000000; stroke-linecap: round"/>
    <path d="M 273.435133 43.386975 
L 275.942771 39.684037 
L 277.400538 43.911911 
z
" clip-path="url(#p488eb373c6)" style="stroke: #000000; stroke-linecap: round"/>
   </g>
   <g id="patch_4">
    <path d="M 231.592343 311.893968 
Q 139.699967 268.248592 48.817501 225.082885 
" clip-path="url(#p488eb373c6)" style="fill: none; stroke: #000000; stroke-linecap: round"/>
    <path d="M 51.572607 228.605582 
L 48.817501 225.082885 
L 53.288722 224.992418 
z
" clip-path="url(#p488eb373c6)" style="stroke: #000000; stroke-linecap: round"/>
   </g>
   <g id="patch_5">
    <path d="M 413.287299 216.53596 
Q 330.115033 263.928523 247.914168 310.76757 
" clip-path="url(#p488eb373c6)" style="fill: none; stroke: #000000; stroke-linecap: round"/>
    <path d="M 252.379718 310.524946 
L 247.914168 310.76757 
L 250.399399 307.049556 
z
" clip-path="url(#p488eb373c6)" style="stroke: #000000; stroke-linecap: round"/>
   </g>
   <g id="patch_6">
    <path d="M 415.451928 205.44242 
Q 349.018674 121.117621 283.277312 37.671052 
" clip-path="url(#p488eb373c6)" style="fill: none; stroke: #000000; stroke-linecap: round"/>
    <path d="M 284.181674 42.050793 
L 283.277312 37.671052 
L 287.323722 39.575406 
z
" clip-path="url(#p488eb373c6)" style="stroke: #000000; stroke-linecap: round"/>
   </g>
   <g id="patch_7">
    <path d="M 46.730807 215.461931 
Q 158.60379 125.441465 269.605721 36.121904 
" clip-path="url(#p488eb373c6)" style="fill: none; stroke: #000000; stroke-linecap: round"/>
    <path d="M 265.235534 37.071358 
L 269.605721 36.121904 
L 267.743172 40.187726 
z
" clip-path="url(#p488eb373c6)" style="stroke: #000000; stroke-linecap: round"/>
   </g>
   <g id="PathCollection_1">
    <defs>
     <path id="m5b46d1daa3" d="M 0 8.660254 
C 2.296726 8.660254 4.499694 7.747755 6.123724 6.123724 
C 7.747755 4.499694 8.660254 2.296726 8.660254 0 
C 8.660254 -2.296726 7.747755 -4.499694 6.123724 -6.123724 
C 4.499694 -7.747755 2.296726 -8.660254 0 -8.660254 
C -2.296726 -8.660254 -4.499694 -7.747755 -6.123724 -6.123724 
C -7.747755 -4.499694 -8.660254 -2.296726 -8.660254 0 
C -8.660254 2.296726 -7.747755 4.499694 -6.123724 6.123724 
C -4.499694 7.747755 -2.296726 8.660254 0 8.660254 
z
" style="stroke: #1f78b4"/>
    </defs>
    <g clip-path="url(#p488eb373c6)">
     <use xlink:href="#m5b46d1daa3" x="239.416021" y="315.609917" style="fill: #1f78b4; stroke: #1f78b4"/>
     <use xlink:href="#m5b46d1daa3" x="420.813223" y="212.247598" style="fill: #1f78b4; stroke: #1f78b4"/>
     <use xlink:href="#m5b46d1daa3" x="277.226046" y="29.990083" style="fill: #1f78b4; stroke: #1f78b4"/>
     <use xlink:href="#m5b46d1daa3" x="39.986777" y="220.888628" style="fill: #1f78b4; stroke: #1f78b4"/>
    </g>
   </g>
  </g>
 </g>
 <defs>
  <clipPath id="p488eb373c6">
   <rect x="0" y="0" width="460.8" height="345.6"/>
  </clipPath>
 </defs>
</svg>
