<?xml version="1.0" encoding="utf-8" standalone="no"?>
<!DOCTYPE svg PUBLIC "-//W3C//DTD SVG 1.1//EN"
  "http://www.w3.org/Graphics/SVG/1.1/DTD/svg11.dtd">
<svg xmlns:xlink="http://www.w3.org/1999/xlink" width="460.8pt" height="345.6pt" viewBox="0 0 460.8 345.6" xmlns="http://www.w3.org/2000/svg" version="1.1">
 <metadata>
  <rdf:RDF xmlns:dc="http://purl.org/dc/elements/1.1/" xmlns:cc="http://creativecommons.org/ns#" xmlns:rdf="http://www.w3.org/1999/02/22-rdf-syntax-ns#">
   <cc:Work>
    <dc:type rdf:resource="http://purl.org/dc/dcmitype/StillImage"/>
    <dc:date>2023-04-25T12:20:17.687717</dc:date>
    <dc:format>image/svg+xml</dc:format>
    <dc:creator>
     <cc:Agent>
      <dc:title>Matplotlib v3.7.1, https://matplotlib.org/</dc:title>
     </cc:Agent>
    </dc:creator>
   </cc:Work>
  </rdf:RDF>
 </metadata>
 <defs>
  <style type="text/css">*{stroke-linejoin: round; stroke-linecap: butt}</style>
 </defs>
 <g id="figure_1">
  <g id="patch_1">
   <path d="M 0 345.6 
L 460.8 345.6 
L 460.8 0 
L 0 0 
z
" style="fill: #ffffff"/>
  </g>
  <g id="axes_1">
   <g id="patch_2">
    <path d="M 176.827174 165.460313 
Q 294.525797 180.488164 411.115389 195.374413 
" clip-path="url(#p3681a0e4d8)" style="fill: none; stroke: #000000; stroke-linecap: round"/>
    <path d="M 407.400906 192.883908 
L 411.115389 195.374413 
L 406.894295 196.851697 
z
" clip-path="url(#p3681a0e4d8)" style="stroke: #000000; stroke-linecap: round"/>
   </g>
   <g id="patch_3">
    <path d="M 163.545581 171.644688 
Q 119.515936 239.986214 76.091809 307.387874 
" clip-path="url(#p3681a0e4d8)" style="fill: none; stroke: #000000; stroke-linecap: round"/>
    <path d="M 79.939458 305.108489 
L 76.091809 307.387874 
L 76.57689 302.942124 
z
" clip-path="url(#p3681a0e4d8)" style="stroke: #000000; stroke-linecap: round"/>
   </g>
   <g id="patch_4">
    <path d="M 162.258136 158.099564 
Q 104.112261 97.177383 46.738313 37.063986 
" clip-path="url(#p3681a0e4d8)" style="fill: none; stroke: #000000; stroke-linecap: round"/>
    <path d="M 48.053243 41.33844 
L 46.738313 37.063986 
L 50.946834 38.576714 
z
" clip-path="url(#p3681a0e4d8)" style="stroke: #000000; stroke-linecap: round"/>
   </g>
   <g id="patch_5">
    <path d="M 412.222626 195.515786 
Q 294.524004 180.487935 177.934412 165.601686 
" clip-path="url(#p3681a0e4d8)" style="fill: none; stroke: #000000; stroke-linecap: round"/>
    <path d="M 181.648895 168.092191 
L 177.934412 165.601686 
L 182.155505 164.124402 
z
" clip-path="url(#p3681a0e4d8)" style="stroke: #000000; stroke-linecap: round"/>
   </g>
   <g id="patch_6">
    <path d="M 412.612334 199.40073 
Q 245.804372 256.111136 80.054941 312.461669 
" clip-path="url(#p3681a0e4d8)" style="fill: none; stroke: #000000; stroke-linecap: round"/>
    <path d="M 84.485824 313.067706 
L 80.054941 312.461669 
L 83.198301 309.280585 
z
" clip-path="url(#p3681a0e4d8)" style="stroke: #000000; stroke-linecap: round"/>
   </g>
   <g id="patch_7">
    <path d="M 69.866254 307.002447 
Q 55.390874 172.801335 41.035395 39.71181 
" clip-path="url(#p3681a0e4d8)" style="fill: none; stroke: #000000; stroke-linecap: round"/>
    <path d="M 39.475894 43.903224 
L 41.035395 39.71181 
L 43.452826 43.474259 
z
" clip-path="url(#p3681a0e4d8)" style="stroke: #000000; stroke-linecap: round"/>
   </g>
   <g id="patch_8">
    <path d="M 47.92163 33.46181 
Q 230.400162 113.301432 411.854409 192.6929 
" clip-path="url(#p3681a0e4d8)" style="fill: none; stroke: #000000; stroke-linecap: round"/>
    <path d="M 408.991501 189.257241 
L 411.854409 192.6929 
L 407.388137 192.921831 
z
" clip-path="url(#p3681a0e4d8)" style="stroke: #000000; stroke-linecap: round"/>
   </g>
   <g id="PathCollection_1">
    <defs>
     <path id="m8c978750d1" d="M 0 8.660254 
C 2.296726 8.660254 4.499694 7.747755 6.123724 6.123724 
C 7.747755 4.499694 8.660254 2.296726 8.660254 0 
C 8.660254 -2.296726 7.747755 -4.499694 6.123724 -6.123724 
C 4.499694 -7.747755 2.296726 -8.660254 0 -8.660254 
C -2.296726 -8.660254 -4.499694 -7.747755 -6.123724 -6.123724 
C -7.747755 -4.499694 -8.660254 -2.296726 -8.660254 0 
C -8.660254 2.296726 -7.747755 4.499694 -6.123724 6.123724 
C -4.499694 7.747755 -2.296726 8.660254 0 8.660254 
z
" style="stroke: #1f78b4"/>
    </defs>
    <g clip-path="url(#p3681a0e4d8)">
     <use xlink:href="#m8c978750d1" x="168.236578" y="164.363459" style="fill: #1f78b4; stroke: #1f78b4"/>
     <use xlink:href="#m8c978750d1" x="420.813223" y="196.61264" style="fill: #1f78b4; stroke: #1f78b4"/>
     <use xlink:href="#m8c978750d1" x="70.794684" y="315.609917" style="fill: #1f78b4; stroke: #1f78b4"/>
     <use xlink:href="#m8c978750d1" x="39.986777" y="29.990083" style="fill: #1f78b4; stroke: #1f78b4"/>
    </g>
   </g>
  </g>
 </g>
 <defs>
  <clipPath id="p3681a0e4d8">
   <rect x="0" y="0" width="460.8" height="345.6"/>
  </clipPath>
 </defs>
</svg>
