<?xml version="1.0" encoding="utf-8" standalone="no"?>
<!DOCTYPE svg PUBLIC "-//W3C//DTD SVG 1.1//EN"
  "http://www.w3.org/Graphics/SVG/1.1/DTD/svg11.dtd">
<svg xmlns:xlink="http://www.w3.org/1999/xlink" width="460.8pt" height="345.6pt" viewBox="0 0 460.8 345.6" xmlns="http://www.w3.org/2000/svg" version="1.1">
 <metadata>
  <rdf:RDF xmlns:dc="http://purl.org/dc/elements/1.1/" xmlns:cc="http://creativecommons.org/ns#" xmlns:rdf="http://www.w3.org/1999/02/22-rdf-syntax-ns#">
   <cc:Work>
    <dc:type rdf:resource="http://purl.org/dc/dcmitype/StillImage"/>
    <dc:date>2023-04-25T12:20:17.743784</dc:date>
    <dc:format>image/svg+xml</dc:format>
    <dc:creator>
     <cc:Agent>
      <dc:title>Matplotlib v3.7.1, https://matplotlib.org/</dc:title>
     </cc:Agent>
    </dc:creator>
   </cc:Work>
  </rdf:RDF>
 </metadata>
 <defs>
  <style type="text/css">*{stroke-linejoin: round; stroke-linecap: butt}</style>
 </defs>
 <g id="figure_1">
  <g id="patch_1">
   <path d="M 0 345.6 
L 460.8 345.6 
L 460.8 0 
L 0 0 
z
" style="fill: #ffffff"/>
  </g>
  <g id="axes_1">
   <g id="patch_2">
    <path d="M 45.298457 192.132955 
Q 90.570148 250.451779 135.156256 307.887438 
" clip-path="url(#p4a3499ab99)" style="fill: none; stroke: #000000; stroke-linecap: round"/>
    <path d="M 134.283296 303.501331 
L 135.156256 307.887438 
L 131.123594 305.954142 
z
" clip-path="url(#p4a3499ab99)" style="stroke: #000000; stroke-linecap: round"/>
   </g>
   <g id="patch_3">
    <path d="M 48.647998 185.153958 
Q 230.401953 182.289308 411.038012 179.442277 
" clip-path="url(#p4a3499ab99)" style="fill: none; stroke: #000000; stroke-linecap: round"/>
    <path d="M 407.00699 177.505563 
L 411.038012 179.442277 
L 407.070027 181.505066 
z
" clip-path="url(#p4a3499ab99)" style="stroke: #000000; stroke-linecap: round"/>
   </g>
   <g id="patch_4">
    <path d="M 47.595895 181.14587 
Q 182.545627 107.640326 316.513526 34.669574 
" clip-path="url(#p4a3499ab99)" style="fill: none; stroke: #000000; stroke-linecap: round"/>
    <path d="M 312.044146 34.826551 
L 316.513526 34.669574 
L 313.95748 38.339264 
z
" clip-path="url(#p4a3499ab99)" style="stroke: #000000; stroke-linecap: round"/>
   </g>
   <g id="patch_5">
    <path d="M 135.839376 308.76743 
Q 90.567686 250.448607 45.981577 193.012947 
" clip-path="url(#p4a3499ab99)" style="fill: none; stroke: #000000; stroke-linecap: round"/>
    <path d="M 46.854537 197.399055 
L 45.981577 193.012947 
L 50.014239 194.946244 
z
" clip-path="url(#p4a3499ab99)" style="stroke: #000000; stroke-linecap: round"/>
   </g>
   <g id="patch_6">
    <path d="M 148.93889 311.813727 
Q 280.982714 247.448783 412.021546 183.573724 
" clip-path="url(#p4a3499ab99)" style="fill: none; stroke: #000000; stroke-linecap: round"/>
    <path d="M 407.549637 183.528605 
L 412.021546 183.573724 
L 409.302305 187.124179 
z
" clip-path="url(#p4a3499ab99)" style="stroke: #000000; stroke-linecap: round"/>
   </g>
   <g id="patch_7">
    <path d="M 416.138493 171.995983 
Q 372.958681 104.638738 330.382255 38.222729 
" clip-path="url(#p4a3499ab99)" style="fill: none; stroke: #000000; stroke-linecap: round"/>
    <path d="M 330.857259 42.669567 
L 330.382255 38.222729 
L 334.224728 40.510829 
z
" clip-path="url(#p4a3499ab99)" style="stroke: #000000; stroke-linecap: round"/>
   </g>
   <g id="patch_8">
    <path d="M 329.779392 37.282308 
Q 372.959204 104.639554 415.53563 171.055563 
" clip-path="url(#p4a3499ab99)" style="fill: none; stroke: #000000; stroke-linecap: round"/>
    <path d="M 415.060626 166.608724 
L 415.53563 171.055563 
L 411.693157 168.767463 
z
" clip-path="url(#p4a3499ab99)" style="stroke: #000000; stroke-linecap: round"/>
   </g>
   <g id="PathCollection_1">
    <defs>
     <path id="mddf1b73e2f" d="M 0 8.660254 
C 2.296726 8.660254 4.499694 7.747755 6.123724 6.123724 
C 7.747755 4.499694 8.660254 2.296726 8.660254 0 
C 8.660254 -2.296726 7.747755 -4.499694 6.123724 -6.123724 
C 4.499694 -7.747755 2.296726 -8.660254 0 -8.660254 
C -2.296726 -8.660254 -4.499694 -7.747755 -6.123724 -6.123724 
C -7.747755 -4.499694 -8.660254 -2.296726 -8.660254 0 
C -8.660254 2.296726 -7.747755 4.499694 -6.123724 6.123724 
C -4.499694 7.747755 -2.296726 8.660254 0 8.660254 
z
" style="stroke: #1f78b4"/>
    </defs>
    <g clip-path="url(#p4a3499ab99)">
     <use xlink:href="#mddf1b73e2f" x="39.986777" y="185.290468" style="fill: #1f78b4; stroke: #1f78b4"/>
     <use xlink:href="#mddf1b73e2f" x="141.151056" y="315.609917" style="fill: #1f78b4; stroke: #1f78b4"/>
     <use xlink:href="#mddf1b73e2f" x="420.813223" y="179.288209" style="fill: #1f78b4; stroke: #1f78b4"/>
     <use xlink:href="#mddf1b73e2f" x="325.104662" y="29.990083" style="fill: #1f78b4; stroke: #1f78b4"/>
    </g>
   </g>
  </g>
 </g>
 <defs>
  <clipPath id="p4a3499ab99">
   <rect x="0" y="0" width="460.8" height="345.6"/>
  </clipPath>
 </defs>
</svg>
