<?xml version="1.0" encoding="utf-8" standalone="no"?>
<!DOCTYPE svg PUBLIC "-//W3C//DTD SVG 1.1//EN"
  "http://www.w3.org/Graphics/SVG/1.1/DTD/svg11.dtd">
<svg xmlns:xlink="http://www.w3.org/1999/xlink" width="460.8pt" height="345.6pt" viewBox="0 0 460.8 345.6" xmlns="http://www.w3.org/2000/svg" version="1.1">
 <metadata>
  <rdf:RDF xmlns:dc="http://purl.org/dc/elements/1.1/" xmlns:cc="http://creativecommons.org/ns#" xmlns:rdf="http://www.w3.org/1999/02/22-rdf-syntax-ns#">
   <cc:Work>
    <dc:type rdf:resource="http://purl.org/dc/dcmitype/StillImage"/>
    <dc:date>2023-04-25T12:20:17.855813</dc:date>
    <dc:format>image/svg+xml</dc:format>
    <dc:creator>
     <cc:Agent>
      <dc:title>Matplotlib v3.7.1, https://matplotlib.org/</dc:title>
     </cc:Agent>
    </dc:creator>
   </cc:Work>
  </rdf:RDF>
 </metadata>
 <defs>
  <style type="text/css">*{stroke-linejoin: round; stroke-linecap: butt}</style>
 </defs>
 <g id="figure_1">
  <g id="patch_1">
   <path d="M 0 345.6 
L 460.8 345.6 
L 460.8 0 
L 0 0 
z
" style="fill: #ffffff"/>
  </g>
  <g id="axes_1">
   <g id="patch_2">
    <path d="M 96.196871 38.5427 
Q 105.80107 98.378942 115.228084 157.111279 
" clip-path="url(#p00fd281ffb)" style="fill: none; stroke: #000000; stroke-linecap: round"/>
    <path d="M 116.56889 152.844871 
L 115.228084 157.111279 
L 112.619441 153.478789 
z
" clip-path="url(#p00fd281ffb)" style="stroke: #000000; stroke-linecap: round"/>
   </g>
   <g id="patch_3">
    <path d="M 103.484188 30.2501 
Q 257.822328 34.884075 411.042937 39.484495 
" clip-path="url(#p00fd281ffb)" style="fill: none; stroke: #000000; stroke-linecap: round"/>
    <path d="M 407.104762 37.365351 
L 411.042937 39.484495 
L 406.984716 41.363549 
z
" clip-path="url(#p00fd281ffb)" style="stroke: #000000; stroke-linecap: round"/>
   </g>
   <g id="patch_4">
    <path d="M 93.191605 38.492956 
Q 67.405497 172.799711 41.830195 306.008485 
" clip-path="url(#p00fd281ffb)" style="fill: none; stroke: #000000; stroke-linecap: round"/>
    <path d="M 44.548524 302.457332 
L 41.830195 306.008485 
L 40.62027 301.70313 
z
" clip-path="url(#p00fd281ffb)" style="stroke: #000000; stroke-linecap: round"/>
   </g>
   <g id="patch_5">
    <path d="M 115.404848 158.212557 
Q 105.800649 98.376315 96.373635 39.643978 
" clip-path="url(#p00fd281ffb)" style="fill: none; stroke: #000000; stroke-linecap: round"/>
    <path d="M 95.032829 43.910386 
L 96.373635 39.643978 
L 98.982278 43.276468 
z
" clip-path="url(#p00fd281ffb)" style="stroke: #000000; stroke-linecap: round"/>
   </g>
   <g id="patch_6">
    <path d="M 124.768661 163.427533 
Q 268.795406 103.271515 411.79049 43.546395 
" clip-path="url(#p00fd281ffb)" style="fill: none; stroke: #000000; stroke-linecap: round"/>
    <path d="M 407.328689 43.242525 
L 411.79049 43.546395 
L 408.870314 46.933513 
z
" clip-path="url(#p00fd281ffb)" style="stroke: #000000; stroke-linecap: round"/>
   </g>
   <g id="patch_7">
    <path d="M 43.957787 307.912853 
Q 78.382089 241.187752 112.293781 175.456247 
" clip-path="url(#p00fd281ffb)" style="fill: none; stroke: #000000; stroke-linecap: round"/>
    <path d="M 108.68242 178.094061 
L 112.293781 175.456247 
L 112.237216 179.928025 
z
" clip-path="url(#p00fd281ffb)" style="stroke: #000000; stroke-linecap: round"/>
   </g>
   <g id="patch_8">
    <path d="M 46.997689 310.531924 
Q 230.398939 177.694651 412.894715 45.513211 
" clip-path="url(#p00fd281ffb)" style="fill: none; stroke: #000000; stroke-linecap: round"/>
    <path d="M 408.482004 46.239831 
L 412.894715 45.513211 
L 410.828385 49.479352 
z
" clip-path="url(#p00fd281ffb)" style="stroke: #000000; stroke-linecap: round"/>
   </g>
   <g id="PathCollection_1">
    <defs>
     <path id="m82b1f25377" d="M 0 8.660254 
C 2.296726 8.660254 4.499694 7.747755 6.123724 6.123724 
C 7.747755 4.499694 8.660254 2.296726 8.660254 0 
C 8.660254 -2.296726 7.747755 -4.499694 6.123724 -6.123724 
C 4.499694 -7.747755 2.296726 -8.660254 0 -8.660254 
C -2.296726 -8.660254 -4.499694 -7.747755 -6.123724 -6.123724 
C -7.747755 -4.499694 -8.660254 -2.296726 -8.660254 0 
C -8.660254 2.296726 -7.747755 4.499694 -6.123724 6.123724 
C -4.499694 7.747755 -2.296726 8.660254 0 8.660254 
z
" style="stroke: #1f78b4"/>
    </defs>
    <g clip-path="url(#p00fd281ffb)">
     <use xlink:href="#m82b1f25377" x="94.824107" y="29.990083" style="fill: #1f78b4; stroke: #1f78b4"/>
     <use xlink:href="#m82b1f25377" x="116.777612" y="166.765174" style="fill: #1f78b4; stroke: #1f78b4"/>
     <use xlink:href="#m82b1f25377" x="420.813223" y="39.777846" style="fill: #1f78b4; stroke: #1f78b4"/>
     <use xlink:href="#m82b1f25377" x="39.986777" y="315.609917" style="fill: #1f78b4; stroke: #1f78b4"/>
    </g>
   </g>
  </g>
 </g>
 <defs>
  <clipPath id="p00fd281ffb">
   <rect x="0" y="0" width="460.8" height="345.6"/>
  </clipPath>
 </defs>
</svg>
