<?xml version="1.0" encoding="utf-8" standalone="no"?>
<!DOCTYPE svg PUBLIC "-//W3C//DTD SVG 1.1//EN"
  "http://www.w3.org/Graphics/SVG/1.1/DTD/svg11.dtd">
<svg xmlns:xlink="http://www.w3.org/1999/xlink" width="460.8pt" height="345.6pt" viewBox="0 0 460.8 345.6" xmlns="http://www.w3.org/2000/svg" version="1.1">
 <metadata>
  <rdf:RDF xmlns:dc="http://purl.org/dc/elements/1.1/" xmlns:cc="http://creativecommons.org/ns#" xmlns:rdf="http://www.w3.org/1999/02/22-rdf-syntax-ns#">
   <cc:Work>
    <dc:type rdf:resource="http://purl.org/dc/dcmitype/StillImage"/>
    <dc:date>2023-04-25T12:20:17.992233</dc:date>
    <dc:format>image/svg+xml</dc:format>
    <dc:creator>
     <cc:Agent>
      <dc:title>Matplotlib v3.7.1, https://matplotlib.org/</dc:title>
     </cc:Agent>
    </dc:creator>
   </cc:Work>
  </rdf:RDF>
 </metadata>
 <defs>
  <style type="text/css">*{stroke-linejoin: round; stroke-linecap: butt}</style>
 </defs>
 <g id="figure_1">
  <g id="patch_1">
   <path d="M 0 345.6 
L 460.8 345.6 
L 460.8 0 
L 0 0 
z
" style="fill: #ffffff"/>
  </g>
  <g id="axes_1">
   <g id="patch_2">
    <path d="M 275.16896 307.935105 
Q 345.980971 172.798673 416.274056 38.652551 
" clip-path="url(#pa96eed89a7)" style="fill: none; stroke: #000000; stroke-linecap: round"/>
    <path d="M 412.645966 41.26731 
L 416.274056 38.652551 
L 416.189009 43.123878 
z
" clip-path="url(#pa96eed89a7)" style="stroke: #000000; stroke-linecap: round"/>
   </g>
   <g id="patch_3">
    <path d="M 266.869005 308.076237 
Q 196.217261 183.665902 126.117623 60.22777 
" clip-path="url(#pa96eed89a7)" style="fill: none; stroke: #000000; stroke-linecap: round"/>
    <path d="M 126.353772 64.693667 
L 126.117623 60.22777 
L 129.83203 62.718389 
z
" clip-path="url(#pa96eed89a7)" style="stroke: #000000; stroke-linecap: round"/>
   </g>
   <g id="patch_4">
    <path d="M 262.53736 314.690296 
Q 155.566311 303.264829 49.706973 291.958104 
" clip-path="url(#pa96eed89a7)" style="fill: none; stroke: #000000; stroke-linecap: round"/>
    <path d="M 53.471941 294.371612 
L 49.706973 291.958104 
L 53.89676 290.394235 
z
" clip-path="url(#pa96eed89a7)" style="stroke: #000000; stroke-linecap: round"/>
   </g>
   <g id="patch_5">
    <path d="M 416.791592 37.664895 
Q 345.97958 172.801327 275.686496 306.947449 
" clip-path="url(#pa96eed89a7)" style="fill: none; stroke: #000000; stroke-linecap: round"/>
    <path d="M 279.314585 304.33269 
L 275.686496 306.947449 
L 275.771542 302.476122 
z
" clip-path="url(#pa96eed89a7)" style="stroke: #000000; stroke-linecap: round"/>
   </g>
   <g id="patch_6">
    <path d="M 129.922812 51.099236 
Q 271.051445 40.857901 411.064975 30.697487 
" clip-path="url(#pa96eed89a7)" style="fill: none; stroke: #000000; stroke-linecap: round"/>
    <path d="M 406.930712 28.992241 
L 411.064975 30.697487 
L 407.22022 32.98175 
z
" clip-path="url(#pa96eed89a7)" style="stroke: #000000; stroke-linecap: round"/>
   </g>
   <g id="patch_7">
    <path d="M 118.5018 59.926871 
Q 80.638213 171.322427 43.134431 281.659428 
" clip-path="url(#pa96eed89a7)" style="fill: none; stroke: #000000; stroke-linecap: round"/>
    <path d="M 46.315312 278.515863 
L 43.134431 281.659428 
L 42.528108 277.228584 
z
" clip-path="url(#pa96eed89a7)" style="stroke: #000000; stroke-linecap: round"/>
   </g>
   <g id="patch_8">
    <path d="M 47.13134 286.024678 
Q 230.401446 160.454 412.749242 35.515259 
" clip-path="url(#pa96eed89a7)" style="fill: none; stroke: #000000; stroke-linecap: round"/>
    <path d="M 408.319042 36.126266 
L 412.749242 35.515259 
L 410.579928 39.426023 
z
" clip-path="url(#pa96eed89a7)" style="stroke: #000000; stroke-linecap: round"/>
   </g>
   <g id="PathCollection_1">
    <defs>
     <path id="m4701e8b455" d="M 0 8.660254 
C 2.296726 8.660254 4.499694 7.747755 6.123724 6.123724 
C 7.747755 4.499694 8.660254 2.296726 8.660254 0 
C 8.660254 -2.296726 7.747755 -4.499694 6.123724 -6.123724 
C 4.499694 -7.747755 2.296726 -8.660254 0 -8.660254 
C -2.296726 -8.660254 -4.499694 -7.747755 -6.123724 -6.123724 
C -7.747755 -4.499694 -8.660254 -2.296726 -8.660254 0 
C -8.660254 2.296726 -7.747755 4.499694 -6.123724 6.123724 
C -4.499694 7.747755 -2.296726 8.660254 0 8.660254 
z
" style="stroke: #1f78b4"/>
    </defs>
    <g clip-path="url(#pa96eed89a7)">
     <use xlink:href="#m4701e8b455" x="271.147329" y="315.609917" style="fill: #1f78b4; stroke: #1f78b4"/>
     <use xlink:href="#m4701e8b455" x="420.813223" y="29.990083" style="fill: #1f78b4; stroke: #1f78b4"/>
     <use xlink:href="#m4701e8b455" x="121.289381" y="51.725741" style="fill: #1f78b4; stroke: #1f78b4"/>
     <use xlink:href="#m4701e8b455" x="39.986777" y="290.9199" style="fill: #1f78b4; stroke: #1f78b4"/>
    </g>
   </g>
  </g>
 </g>
 <defs>
  <clipPath id="pa96eed89a7">
   <rect x="0" y="0" width="460.8" height="345.6"/>
  </clipPath>
 </defs>
</svg>
