<?xml version="1.0" encoding="utf-8" standalone="no"?>
<!DOCTYPE svg PUBLIC "-//W3C//DTD SVG 1.1//EN"
  "http://www.w3.org/Graphics/SVG/1.1/DTD/svg11.dtd">
<svg xmlns:xlink="http://www.w3.org/1999/xlink" width="460.8pt" height="345.6pt" viewBox="0 0 460.8 345.6" xmlns="http://www.w3.org/2000/svg" version="1.1">
 <metadata>
  <rdf:RDF xmlns:dc="http://purl.org/dc/elements/1.1/" xmlns:cc="http://creativecommons.org/ns#" xmlns:rdf="http://www.w3.org/1999/02/22-rdf-syntax-ns#">
   <cc:Work>
    <dc:type rdf:resource="http://purl.org/dc/dcmitype/StillImage"/>
    <dc:date>2023-04-25T12:20:18.048557</dc:date>
    <dc:format>image/svg+xml</dc:format>
    <dc:creator>
     <cc:Agent>
      <dc:title>Matplotlib v3.7.1, https://matplotlib.org/</dc:title>
     </cc:Agent>
    </dc:creator>
   </cc:Work>
  </rdf:RDF>
 </metadata>
 <defs>
  <style type="text/css">*{stroke-linejoin: round; stroke-linecap: butt}</style>
 </defs>
 <g id="figure_1">
  <g id="patch_1">
   <path d="M 0 345.6 
L 460.8 345.6 
L 460.8 0 
L 0 0 
z
" style="fill: #ffffff"/>
  </g>
  <g id="axes_1">
   <g id="patch_2">
    <path d="M 227.533342 314.769351 
Q 138.068399 306.042779 49.716209 297.424747 
" clip-path="url(#p2577306c77)" style="fill: none; stroke: #000000; stroke-linecap: round"/>
    <path d="M 53.503153 299.803624 
L 49.716209 297.424747 
L 53.891477 295.822518 
z
" clip-path="url(#p2577306c77)" style="stroke: #000000; stroke-linecap: round"/>
   </g>
   <g id="patch_3">
    <path d="M 235.568385 306.967581 
Q 226.526116 172.800266 217.559026 39.748454 
" clip-path="url(#p2577306c77)" style="fill: none; stroke: #000000; stroke-linecap: round"/>
    <path d="M 215.832524 43.873886 
L 217.559026 39.748454 
L 219.823471 43.604915 
z
" clip-path="url(#p2577306c77)" style="stroke: #000000; stroke-linecap: round"/>
   </g>
   <g id="patch_4">
    <path d="M 242.814758 310.08314 
Q 328.48005 239.035893 413.284765 168.702374 
" clip-path="url(#p2577306c77)" style="fill: none; stroke: #000000; stroke-linecap: round"/>
    <path d="M 408.929116 169.716434 
L 413.284765 168.702374 
L 411.482624 172.795329 
z
" clip-path="url(#p2577306c77)" style="stroke: #000000; stroke-linecap: round"/>
   </g>
   <g id="patch_5">
    <path d="M 48.604275 297.316287 
Q 138.069217 306.042859 226.421407 314.660891 
" clip-path="url(#p2577306c77)" style="fill: none; stroke: #000000; stroke-linecap: round"/>
    <path d="M 222.634463 312.282014 
L 226.421407 314.660891 
L 222.246139 316.26312 
z
" clip-path="url(#p2577306c77)" style="stroke: #000000; stroke-linecap: round"/>
   </g>
   <g id="patch_6">
    <path d="M 212.109739 37.207673 
Q 128.442211 163.235697 45.393058 288.332264 
" clip-path="url(#p2577306c77)" style="fill: none; stroke: #000000; stroke-linecap: round"/>
    <path d="M 49.271666 286.105967 
L 45.393058 288.332264 
L 45.939186 283.893599 
z
" clip-path="url(#p2577306c77)" style="stroke: #000000; stroke-linecap: round"/>
   </g>
   <g id="patch_7">
    <path d="M 224.166587 34.709839 
Q 318.857691 96.224594 412.611232 157.130273 
" clip-path="url(#p2577306c77)" style="fill: none; stroke: #000000; stroke-linecap: round"/>
    <path d="M 410.346447 153.274011 
L 412.611232 157.130273 
L 408.167352 156.628344 
z
" clip-path="url(#p2577306c77)" style="stroke: #000000; stroke-linecap: round"/>
   </g>
   <g id="patch_8">
    <path d="M 413.547992 157.738826 
Q 318.856887 96.224071 225.103347 35.318392 
" clip-path="url(#p2577306c77)" style="fill: none; stroke: #000000; stroke-linecap: round"/>
    <path d="M 227.368132 39.174653 
L 225.103347 35.318392 
L 229.547227 35.820321 
z
" clip-path="url(#p2577306c77)" style="stroke: #000000; stroke-linecap: round"/>
   </g>
   <g id="PathCollection_1">
    <defs>
     <path id="ma6ffef3e8f" d="M 0 8.660254 
C 2.296726 8.660254 4.499694 7.747755 6.123724 6.123724 
C 7.747755 4.499694 8.660254 2.296726 8.660254 0 
C 8.660254 -2.296726 7.747755 -4.499694 6.123724 -6.123724 
C 4.499694 -7.747755 2.296726 -8.660254 0 -8.660254 
C -2.296726 -8.660254 -4.499694 -7.747755 -6.123724 -6.123724 
C -7.747755 -4.499694 -8.660254 -2.296726 -8.660254 0 
C -8.660254 2.296726 -7.747755 4.499694 -6.123724 6.123724 
C -4.499694 7.747755 -2.296726 8.660254 0 8.660254 
z
" style="stroke: #1f78b4"/>
    </defs>
    <g clip-path="url(#p2577306c77)">
     <use xlink:href="#ma6ffef3e8f" x="236.15084" y="315.609917" style="fill: #1f78b4; stroke: #1f78b4"/>
     <use xlink:href="#ma6ffef3e8f" x="39.986777" y="296.475721" style="fill: #1f78b4; stroke: #1f78b4"/>
     <use xlink:href="#ma6ffef3e8f" x="216.901356" y="29.990083" style="fill: #1f78b4; stroke: #1f78b4"/>
     <use xlink:href="#ma6ffef3e8f" x="420.813223" y="162.458582" style="fill: #1f78b4; stroke: #1f78b4"/>
    </g>
   </g>
  </g>
 </g>
 <defs>
  <clipPath id="p2577306c77">
   <rect x="0" y="0" width="460.8" height="345.6"/>
  </clipPath>
 </defs>
</svg>
