<?xml version="1.0" encoding="utf-8" standalone="no"?>
<!DOCTYPE svg PUBLIC "-//W3C//DTD SVG 1.1//EN"
  "http://www.w3.org/Graphics/SVG/1.1/DTD/svg11.dtd">
<svg xmlns:xlink="http://www.w3.org/1999/xlink" width="460.8pt" height="345.6pt" viewBox="0 0 460.8 345.6" xmlns="http://www.w3.org/2000/svg" version="1.1">
 <metadata>
  <rdf:RDF xmlns:dc="http://purl.org/dc/elements/1.1/" xmlns:cc="http://creativecommons.org/ns#" xmlns:rdf="http://www.w3.org/1999/02/22-rdf-syntax-ns#">
   <cc:Work>
    <dc:type rdf:resource="http://purl.org/dc/dcmitype/StillImage"/>
    <dc:date>2023-04-25T12:20:17.130598</dc:date>
    <dc:format>image/svg+xml</dc:format>
    <dc:creator>
     <cc:Agent>
      <dc:title>Matplotlib v3.7.1, https://matplotlib.org/</dc:title>
     </cc:Agent>
    </dc:creator>
   </cc:Work>
  </rdf:RDF>
 </metadata>
 <defs>
  <style type="text/css">*{stroke-linejoin: round; stroke-linecap: butt}</style>
 </defs>
 <g id="figure_1">
  <g id="patch_1">
   <path d="M 0 345.6 
L 460.8 345.6 
L 460.8 0 
L 0 0 
z
" style="fill: #ffffff"/>
  </g>
  <g id="axes_1">
   <g id="patch_2">
    <path d="M 265.436277 185.914981 
Q 263.57967 246.434403 261.757347 305.836317 
" clip-path="url(#p91bb1c0f59)" style="fill: none; stroke: #000000; stroke-linecap: round"/>
    <path d="M 263.87906 301.899525 
L 261.757347 305.836317 
L 259.880941 301.776871 
z
" clip-path="url(#p91bb1c0f59)" style="stroke: #000000; stroke-linecap: round"/>
   </g>
   <g id="patch_3">
    <path d="M 257.735646 180.660059 
Q 152.843329 225.492663 48.979076 269.885856 
" clip-path="url(#p91bb1c0f59)" style="fill: none; stroke: #000000; stroke-linecap: round"/>
    <path d="M 53.443236 270.15283 
L 48.979076 269.885856 
L 51.871151 266.474712 
z
" clip-path="url(#p91bb1c0f59)" style="stroke: #000000; stroke-linecap: round"/>
   </g>
   <g id="patch_4">
    <path d="M 271.98109 171.293621 
Q 343.257502 103.622689 413.723103 36.721553 
" clip-path="url(#p91bb1c0f59)" style="fill: none; stroke: #000000; stroke-linecap: round"/>
    <path d="M 409.445205 38.025237 
L 413.723103 36.721553 
L 412.199312 40.926082 
z
" clip-path="url(#p91bb1c0f59)" style="stroke: #000000; stroke-linecap: round"/>
   </g>
   <g id="patch_5">
    <path d="M 261.723179 306.950077 
Q 263.579785 246.430655 265.402109 187.028741 
" clip-path="url(#p91bb1c0f59)" style="fill: none; stroke: #000000; stroke-linecap: round"/>
    <path d="M 263.280396 190.965533 
L 265.402109 187.028741 
L 267.278515 191.088187 
z
" clip-path="url(#p91bb1c0f59)" style="stroke: #000000; stroke-linecap: round"/>
   </g>
   <g id="patch_6">
    <path d="M 252.944867 314.000157 
Q 150.72102 294.669398 49.595736 275.54638 
" clip-path="url(#p91bb1c0f59)" style="fill: none; stroke: #000000; stroke-linecap: round"/>
    <path d="M 53.154461 278.254788 
L 49.595736 275.54638 
L 53.897698 274.324445 
z
" clip-path="url(#p91bb1c0f59)" style="stroke: #000000; stroke-linecap: round"/>
   </g>
   <g id="patch_7">
    <path d="M 47.953073 270.324385 
Q 152.845391 225.491782 256.709643 181.098589 
" clip-path="url(#p91bb1c0f59)" style="fill: none; stroke: #000000; stroke-linecap: round"/>
    <path d="M 252.245483 180.831615 
L 256.709643 181.098589 
L 253.817568 184.509733 
z
" clip-path="url(#p91bb1c0f59)" style="stroke: #000000; stroke-linecap: round"/>
   </g>
   <g id="patch_8">
    <path d="M 48.499423 275.339064 
Q 150.723271 294.669823 251.848554 313.792842 
" clip-path="url(#p91bb1c0f59)" style="fill: none; stroke: #000000; stroke-linecap: round"/>
    <path d="M 248.289829 311.084433 
L 251.848554 313.792842 
L 247.546593 315.014777 
z
" clip-path="url(#p91bb1c0f59)" style="stroke: #000000; stroke-linecap: round"/>
   </g>
   <g id="PathCollection_1">
    <defs>
     <path id="m938c252059" d="M 0 8.660254 
C 2.296726 8.660254 4.499694 7.747755 6.123724 6.123724 
C 7.747755 4.499694 8.660254 2.296726 8.660254 0 
C 8.660254 -2.296726 7.747755 -4.499694 6.123724 -6.123724 
C 4.499694 -7.747755 2.296726 -8.660254 0 -8.660254 
C -2.296726 -8.660254 -4.499694 -7.747755 -6.123724 -6.123724 
C -7.747755 -4.499694 -8.660254 -2.296726 -8.660254 0 
C -8.660254 2.296726 -7.747755 4.499694 -6.123724 6.123724 
C -4.499694 7.747755 -2.296726 8.660254 0 8.660254 
z
" style="stroke: #1f78b4"/>
    </defs>
    <g clip-path="url(#p91bb1c0f59)">
     <use xlink:href="#m938c252059" x="265.701942" y="177.255141" style="fill: #1f78b4; stroke: #1f78b4"/>
     <use xlink:href="#m938c252059" x="261.457514" y="315.609917" style="fill: #1f78b4; stroke: #1f78b4"/>
     <use xlink:href="#m938c252059" x="39.986777" y="273.729304" style="fill: #1f78b4; stroke: #1f78b4"/>
     <use xlink:href="#m938c252059" x="420.813223" y="29.990083" style="fill: #1f78b4; stroke: #1f78b4"/>
    </g>
   </g>
  </g>
 </g>
 <defs>
  <clipPath id="p91bb1c0f59">
   <rect x="0" y="0" width="460.8" height="345.6"/>
  </clipPath>
 </defs>
</svg>
