<?xml version="1.0" encoding="utf-8" standalone="no"?>
<!DOCTYPE svg PUBLIC "-//W3C//DTD SVG 1.1//EN"
  "http://www.w3.org/Graphics/SVG/1.1/DTD/svg11.dtd">
<svg xmlns:xlink="http://www.w3.org/1999/xlink" width="460.8pt" height="345.6pt" viewBox="0 0 460.8 345.6" xmlns="http://www.w3.org/2000/svg" version="1.1">
 <metadata>
  <rdf:RDF xmlns:dc="http://purl.org/dc/elements/1.1/" xmlns:cc="http://creativecommons.org/ns#" xmlns:rdf="http://www.w3.org/1999/02/22-rdf-syntax-ns#">
   <cc:Work>
    <dc:type rdf:resource="http://purl.org/dc/dcmitype/StillImage"/>
    <dc:date>2023-04-25T12:20:18.157409</dc:date>
    <dc:format>image/svg+xml</dc:format>
    <dc:creator>
     <cc:Agent>
      <dc:title>Matplotlib v3.7.1, https://matplotlib.org/</dc:title>
     </cc:Agent>
    </dc:creator>
   </cc:Work>
  </rdf:RDF>
 </metadata>
 <defs>
  <style type="text/css">*{stroke-linejoin: round; stroke-linecap: butt}</style>
 </defs>
 <g id="figure_1">
  <g id="patch_1">
   <path d="M 0 345.6 
L 460.8 345.6 
L 460.8 0 
L 0 0 
z
" style="fill: #ffffff"/>
  </g>
  <g id="axes_1">
   <g id="patch_2">
    <path d="M 180.445697 307.440677 
Q 209.998386 223.271066 239.18069 140.156356 
" clip-path="url(#pa98afe1211)" style="fill: none; stroke: #000000; stroke-linecap: round"/>
    <path d="M 235.968497 143.267918 
L 239.18069 140.156356 
L 239.742624 144.593047 
z
" clip-path="url(#pa98afe1211)" style="stroke: #000000; stroke-linecap: round"/>
   </g>
   <g id="patch_3">
    <path d="M 173.817261 307.804358 
Q 108.781764 172.799321 44.231488 38.801537 
" clip-path="url(#pa98afe1211)" style="fill: none; stroke: #000000; stroke-linecap: round"/>
    <path d="M 44.165636 43.273188 
L 44.231488 38.801537 
L 47.769297 41.537209 
z
" clip-path="url(#pa98afe1211)" style="stroke: #000000; stroke-linecap: round"/>
   </g>
   <g id="patch_4">
    <path d="M 186.221452 315.067243 
Q 299.194987 307.974754 411.052685 300.952317 
" clip-path="url(#pa98afe1211)" style="fill: none; stroke: #000000; stroke-linecap: round"/>
    <path d="M 406.935231 299.206873 
L 411.052685 300.952317 
L 407.185858 303.199014 
z
" clip-path="url(#pa98afe1211)" style="stroke: #000000; stroke-linecap: round"/>
   </g>
   <g id="patch_5">
    <path d="M 234.669218 127.068165 
Q 141.203169 80.461472 48.73766 34.353696 
" clip-path="url(#pa98afe1211)" style="fill: none; stroke: #000000; stroke-linecap: round"/>
    <path d="M 51.424811 37.9285 
L 48.73766 34.353696 
L 53.209794 34.348858 
z
" clip-path="url(#pa98afe1211)" style="stroke: #000000; stroke-linecap: round"/>
   </g>
   <g id="patch_6">
    <path d="M 248.699034 136.896147 
Q 331.616442 215.636333 413.723122 293.606634 
" clip-path="url(#pa98afe1211)" style="fill: none; stroke: #000000; stroke-linecap: round"/>
    <path d="M 412.199788 289.40194 
L 413.723122 293.606634 
L 409.445367 292.302486 
z
" clip-path="url(#pa98afe1211)" style="stroke: #000000; stroke-linecap: round"/>
   </g>
   <g id="patch_7">
    <path d="M 47.736761 33.8546 
Q 141.20281 80.461293 233.668319 126.569068 
" clip-path="url(#pa98afe1211)" style="fill: none; stroke: #000000; stroke-linecap: round"/>
    <path d="M 230.981168 122.994264 
L 233.668319 126.569068 
L 229.196186 126.573906 
z
" clip-path="url(#pa98afe1211)" style="stroke: #000000; stroke-linecap: round"/>
   </g>
   <g id="patch_8">
    <path d="M 414.533392 294.376084 
Q 331.615984 215.635898 249.509303 137.665597 
" clip-path="url(#pa98afe1211)" style="fill: none; stroke: #000000; stroke-linecap: round"/>
    <path d="M 251.032638 141.870291 
L 249.509303 137.665597 
L 253.787059 138.969745 
z
" clip-path="url(#pa98afe1211)" style="stroke: #000000; stroke-linecap: round"/>
   </g>
   <g id="PathCollection_1">
    <defs>
     <path id="m3adb81458d" d="M 0 8.660254 
C 2.296726 8.660254 4.499694 7.747755 6.123724 6.123724 
C 7.747755 4.499694 8.660254 2.296726 8.660254 0 
C 8.660254 -2.296726 7.747755 -4.499694 6.123724 -6.123724 
C 4.499694 -7.747755 2.296726 -8.660254 0 -8.660254 
C -2.296726 -8.660254 -4.499694 -7.747755 -6.123724 -6.123724 
C -7.747755 -4.499694 -8.660254 -2.296726 -8.660254 0 
C -8.660254 2.296726 -7.747755 4.499694 -6.123724 6.123724 
C -4.499694 7.747755 -2.296726 8.660254 0 8.660254 
z
" style="stroke: #1f78b4"/>
    </defs>
    <g clip-path="url(#pa98afe1211)">
     <use xlink:href="#m3adb81458d" x="177.577406" y="315.609917" style="fill: #1f78b4; stroke: #1f78b4"/>
     <use xlink:href="#m3adb81458d" x="242.419203" y="130.932682" style="fill: #1f78b4; stroke: #1f78b4"/>
     <use xlink:href="#m3adb81458d" x="39.986777" y="29.990083" style="fill: #1f78b4; stroke: #1f78b4"/>
     <use xlink:href="#m3adb81458d" x="420.813223" y="300.339549" style="fill: #1f78b4; stroke: #1f78b4"/>
    </g>
   </g>
  </g>
 </g>
 <defs>
  <clipPath id="pa98afe1211">
   <rect x="0" y="0" width="460.8" height="345.6"/>
  </clipPath>
 </defs>
</svg>
