<?xml version="1.0" encoding="utf-8" standalone="no"?>
<!DOCTYPE svg PUBLIC "-//W3C//DTD SVG 1.1//EN"
  "http://www.w3.org/Graphics/SVG/1.1/DTD/svg11.dtd">
<svg xmlns:xlink="http://www.w3.org/1999/xlink" width="460.8pt" height="345.6pt" viewBox="0 0 460.8 345.6" xmlns="http://www.w3.org/2000/svg" version="1.1">
 <metadata>
  <rdf:RDF xmlns:dc="http://purl.org/dc/elements/1.1/" xmlns:cc="http://creativecommons.org/ns#" xmlns:rdf="http://www.w3.org/1999/02/22-rdf-syntax-ns#">
   <cc:Work>
    <dc:type rdf:resource="http://purl.org/dc/dcmitype/StillImage"/>
    <dc:date>2023-04-25T12:20:18.211398</dc:date>
    <dc:format>image/svg+xml</dc:format>
    <dc:creator>
     <cc:Agent>
      <dc:title>Matplotlib v3.7.1, https://matplotlib.org/</dc:title>
     </cc:Agent>
    </dc:creator>
   </cc:Work>
  </rdf:RDF>
 </metadata>
 <defs>
  <style type="text/css">*{stroke-linejoin: round; stroke-linecap: butt}</style>
 </defs>
 <g id="figure_1">
  <g id="patch_1">
   <path d="M 0 345.6 
L 460.8 345.6 
L 460.8 0 
L 0 0 
z
" style="fill: #ffffff"/>
  </g>
  <g id="axes_1">
   <g id="patch_2">
    <path d="M 48.642187 151.339937 
Q 230.39898 157.318316 411.038342 163.25994 
" clip-path="url(#pdafbb9f94d)" style="fill: none; stroke: #000000; stroke-linecap: round"/>
    <path d="M 407.106253 161.129524 
L 411.038342 163.25994 
L 406.974755 165.127362 
z
" clip-path="url(#pdafbb9f94d)" style="stroke: #000000; stroke-linecap: round"/>
   </g>
   <g id="patch_3">
    <path d="M 44.521852 158.434792 
Q 90.549998 233.332567 135.992764 307.277803 
" clip-path="url(#pdafbb9f94d)" style="fill: none; stroke: #000000; stroke-linecap: round"/>
    <path d="M 135.602401 302.822736 
L 135.992764 307.277803 
L 132.194493 304.917053 
z
" clip-path="url(#pdafbb9f94d)" style="stroke: #000000; stroke-linecap: round"/>
   </g>
   <g id="patch_4">
    <path d="M 41.746927 142.576099 
Q 52.552783 90.521215 63.131396 39.561027 
" clip-path="url(#pdafbb9f94d)" style="fill: none; stroke: #000000; stroke-linecap: round"/>
    <path d="M 60.360133 43.071027 
L 63.131396 39.561027 
L 64.276638 43.884038 
z
" clip-path="url(#pdafbb9f94d)" style="stroke: #000000; stroke-linecap: round"/>
   </g>
   <g id="patch_5">
    <path d="M 413.203588 167.717608 
Q 280.963507 239.595536 149.705733 310.93954 
" clip-path="url(#pdafbb9f94d)" style="fill: none; stroke: #000000; stroke-linecap: round"/>
    <path d="M 154.175251 310.786519 
L 149.705733 310.93954 
L 152.265027 307.272114 
z
" clip-path="url(#pdafbb9f94d)" style="stroke: #000000; stroke-linecap: round"/>
   </g>
   <g id="patch_6">
    <path d="M 412.707288 160.537043 
Q 242.966159 96.78594 74.271678 33.427936 
" clip-path="url(#pdafbb9f94d)" style="fill: none; stroke: #000000; stroke-linecap: round"/>
    <path d="M 77.313086 36.70663 
L 74.271678 33.427936 
L 78.719479 32.962026 
z
" clip-path="url(#pdafbb9f94d)" style="stroke: #000000; stroke-linecap: round"/>
   </g>
   <g id="patch_7">
    <path d="M 148.72287 311.473767 
Q 280.96295 239.595839 412.220724 168.251835 
" clip-path="url(#pdafbb9f94d)" style="fill: none; stroke: #000000; stroke-linecap: round"/>
    <path d="M 407.751207 168.404856 
L 412.220724 168.251835 
L 409.661431 171.919261 
z
" clip-path="url(#pdafbb9f94d)" style="stroke: #000000; stroke-linecap: round"/>
   </g>
   <g id="patch_8">
    <path d="M 67.345766 38.362209 
Q 103.115716 172.800019 138.598193 306.157385 
" clip-path="url(#pdafbb9f94d)" style="fill: none; stroke: #000000; stroke-linecap: round"/>
    <path d="M 139.50245 301.777622 
L 138.598193 306.157385 
L 135.636937 302.806122 
z
" clip-path="url(#pdafbb9f94d)" style="stroke: #000000; stroke-linecap: round"/>
   </g>
   <g id="PathCollection_1">
    <defs>
     <path id="mc873725ce0" d="M 0 8.660254 
C 2.296726 8.660254 4.499694 7.747755 6.123724 6.123724 
C 7.747755 4.499694 8.660254 2.296726 8.660254 0 
C 8.660254 -2.296726 7.747755 -4.499694 6.123724 -6.123724 
C 4.499694 -7.747755 2.296726 -8.660254 0 -8.660254 
C -2.296726 -8.660254 -4.499694 -7.747755 -6.123724 -6.123724 
C -7.747755 -4.499694 -8.660254 -2.296726 -8.660254 0 
C -8.660254 2.296726 -7.747755 4.499694 -6.123724 6.123724 
C -4.499694 7.747755 -2.296726 8.660254 0 8.660254 
z
" style="stroke: #1f78b4"/>
    </defs>
    <g clip-path="url(#pdafbb9f94d)">
     <use xlink:href="#mc873725ce0" x="39.986777" y="151.055242" style="fill: #1f78b4; stroke: #1f78b4"/>
     <use xlink:href="#mc873725ce0" x="420.813223" y="163.581457" style="fill: #1f78b4; stroke: #1f78b4"/>
     <use xlink:href="#mc873725ce0" x="141.113234" y="315.609917" style="fill: #1f78b4; stroke: #1f78b4"/>
     <use xlink:href="#mc873725ce0" x="65.118189" y="29.990083" style="fill: #1f78b4; stroke: #1f78b4"/>
    </g>
   </g>
  </g>
 </g>
 <defs>
  <clipPath id="pdafbb9f94d">
   <rect x="0" y="0" width="460.8" height="345.6"/>
  </clipPath>
 </defs>
</svg>
