<?xml version="1.0" encoding="utf-8" standalone="no"?>
<!DOCTYPE svg PUBLIC "-//W3C//DTD SVG 1.1//EN"
  "http://www.w3.org/Graphics/SVG/1.1/DTD/svg11.dtd">
<svg xmlns:xlink="http://www.w3.org/1999/xlink" width="460.8pt" height="345.6pt" viewBox="0 0 460.8 345.6" xmlns="http://www.w3.org/2000/svg" version="1.1">
 <metadata>
  <rdf:RDF xmlns:dc="http://purl.org/dc/elements/1.1/" xmlns:cc="http://creativecommons.org/ns#" xmlns:rdf="http://www.w3.org/1999/02/22-rdf-syntax-ns#">
   <cc:Work>
    <dc:type rdf:resource="http://purl.org/dc/dcmitype/StillImage"/>
    <dc:date>2023-04-25T12:20:18.487363</dc:date>
    <dc:format>image/svg+xml</dc:format>
    <dc:creator>
     <cc:Agent>
      <dc:title>Matplotlib v3.7.1, https://matplotlib.org/</dc:title>
     </cc:Agent>
    </dc:creator>
   </cc:Work>
  </rdf:RDF>
 </metadata>
 <defs>
  <style type="text/css">*{stroke-linejoin: round; stroke-linecap: butt}</style>
 </defs>
 <g id="figure_1">
  <g id="patch_1">
   <path d="M 0 345.6 
L 460.8 345.6 
L 460.8 0 
L 0 0 
z
" style="fill: #ffffff"/>
  </g>
  <g id="axes_1">
   <g id="patch_2">
    <path d="M 412.760482 250.588955 
Q 334.608674 281.506553 257.496501 312.012863 
" clip-path="url(#p3407ae7849)" style="fill: none; stroke: #000000; stroke-linecap: round"/>
    <path d="M 261.95175 312.401144 
L 257.496501 312.012863 
L 260.480276 308.681633 
z
" clip-path="url(#p3407ae7849)" style="stroke: #000000; stroke-linecap: round"/>
   </g>
   <g id="patch_3">
    <path d="M 413.206824 243.262558 
Q 323.866485 194.628827 235.508113 146.529644 
" clip-path="url(#p3407ae7849)" style="fill: none; stroke: #000000; stroke-linecap: round"/>
    <path d="M 238.065075 150.198696 
L 235.508113 146.529644 
L 239.977533 146.685505 
z
" clip-path="url(#p3407ae7849)" style="stroke: #000000; stroke-linecap: round"/>
   </g>
   <g id="patch_4">
    <path d="M 256.456805 312.424176 
Q 334.608613 281.506578 411.720786 251.000269 
" clip-path="url(#p3407ae7849)" style="fill: none; stroke: #000000; stroke-linecap: round"/>
    <path d="M 407.265537 250.611987 
L 411.720786 251.000269 
L 408.737011 254.331498 
z
" clip-path="url(#p3407ae7849)" style="stroke: #000000; stroke-linecap: round"/>
   </g>
   <g id="patch_5">
    <path d="M 247.341722 307.017135 
Q 237.663513 228.734678 228.122485 151.561806 
" clip-path="url(#p3407ae7849)" style="fill: none; stroke: #000000; stroke-linecap: round"/>
    <path d="M 226.628388 155.776978 
L 228.122485 151.561806 
L 230.598164 155.286187 
z
" clip-path="url(#p3407ae7849)" style="stroke: #000000; stroke-linecap: round"/>
   </g>
   <g id="patch_6">
    <path d="M 234.528931 145.996611 
Q 323.86927 194.630343 412.227642 242.729526 
" clip-path="url(#p3407ae7849)" style="fill: none; stroke: #000000; stroke-linecap: round"/>
    <path d="M 409.67068 239.060474 
L 412.227642 242.729526 
L 407.758223 242.573664 
z
" clip-path="url(#p3407ae7849)" style="stroke: #000000; stroke-linecap: round"/>
   </g>
   <g id="patch_7">
    <path d="M 219.491996 137.409383 
Q 133.454884 85.923156 48.377146 35.011038 
" clip-path="url(#p3407ae7849)" style="fill: none; stroke: #000000; stroke-linecap: round"/>
    <path d="M 50.782514 38.78121 
L 48.377146 35.011038 
L 52.836505 35.348847 
z
" clip-path="url(#p3407ae7849)" style="stroke: #000000; stroke-linecap: round"/>
   </g>
   <g id="patch_8">
    <path d="M 47.417313 34.436656 
Q 133.454426 85.922882 218.532163 136.835001 
" clip-path="url(#p3407ae7849)" style="fill: none; stroke: #000000; stroke-linecap: round"/>
    <path d="M 216.126795 133.064828 
L 218.532163 136.835001 
L 214.072804 136.497192 
z
" clip-path="url(#p3407ae7849)" style="stroke: #000000; stroke-linecap: round"/>
   </g>
   <g id="PathCollection_1">
    <defs>
     <path id="mf08f468f7d" d="M 0 8.660254 
C 2.296726 8.660254 4.499694 7.747755 6.123724 6.123724 
C 7.747755 4.499694 8.660254 2.296726 8.660254 0 
C 8.660254 -2.296726 7.747755 -4.499694 6.123724 -6.123724 
C 4.499694 -7.747755 2.296726 -8.660254 0 -8.660254 
C -2.296726 -8.660254 -4.499694 -7.747755 -6.123724 -6.123724 
C -7.747755 -4.499694 -8.660254 -2.296726 -8.660254 0 
C -8.660254 2.296726 -7.747755 4.499694 -6.123724 6.123724 
C -4.499694 7.747755 -2.296726 8.660254 0 8.660254 
z
" style="stroke: #1f78b4"/>
    </defs>
    <g clip-path="url(#p3407ae7849)">
     <use xlink:href="#mf08f468f7d" x="420.813223" y="247.403214" style="fill: #1f78b4; stroke: #1f78b4"/>
     <use xlink:href="#mf08f468f7d" x="248.404064" y="315.609917" style="fill: #1f78b4; stroke: #1f78b4"/>
     <use xlink:href="#mf08f468f7d" x="226.922532" y="141.855956" style="fill: #1f78b4; stroke: #1f78b4"/>
     <use xlink:href="#mf08f468f7d" x="39.986777" y="29.990083" style="fill: #1f78b4; stroke: #1f78b4"/>
    </g>
   </g>
  </g>
 </g>
 <defs>
  <clipPath id="p3407ae7849">
   <rect x="0" y="0" width="460.8" height="345.6"/>
  </clipPath>
 </defs>
</svg>
