<?xml version="1.0" encoding="utf-8" standalone="no"?>
<!DOCTYPE svg PUBLIC "-//W3C//DTD SVG 1.1//EN"
  "http://www.w3.org/Graphics/SVG/1.1/DTD/svg11.dtd">
<svg xmlns:xlink="http://www.w3.org/1999/xlink" width="460.8pt" height="345.6pt" viewBox="0 0 460.8 345.6" xmlns="http://www.w3.org/2000/svg" version="1.1">
 <metadata>
  <rdf:RDF xmlns:dc="http://purl.org/dc/elements/1.1/" xmlns:cc="http://creativecommons.org/ns#" xmlns:rdf="http://www.w3.org/1999/02/22-rdf-syntax-ns#">
   <cc:Work>
    <dc:type rdf:resource="http://purl.org/dc/dcmitype/StillImage"/>
    <dc:date>2023-04-25T12:20:18.545027</dc:date>
    <dc:format>image/svg+xml</dc:format>
    <dc:creator>
     <cc:Agent>
      <dc:title>Matplotlib v3.7.1, https://matplotlib.org/</dc:title>
     </cc:Agent>
    </dc:creator>
   </cc:Work>
  </rdf:RDF>
 </metadata>
 <defs>
  <style type="text/css">*{stroke-linejoin: round; stroke-linecap: butt}</style>
 </defs>
 <g id="figure_1">
  <g id="patch_1">
   <path d="M 0 345.6 
L 460.8 345.6 
L 460.8 0 
L 0 0 
z
" style="fill: #ffffff"/>
  </g>
  <g id="axes_1">
   <g id="patch_2">
    <path d="M 273.897989 51.284516 
Q 190.599604 145.656153 108.04108 239.189575 
" clip-path="url(#p2afc2c8b7c)" style="fill: none; stroke: #000000; stroke-linecap: round"/>
    <path d="M 112.187535 237.51419 
L 108.04108 239.189575 
L 109.188645 234.86718 
z
" clip-path="url(#p2afc2c8b7c)" style="stroke: #000000; stroke-linecap: round"/>
   </g>
   <g id="patch_3">
    <path d="M 270.987357 44.25907 
Q 159.810221 37.391619 49.748992 30.593098 
" clip-path="url(#p2afc2c8b7c)" style="fill: none; stroke: #000000; stroke-linecap: round"/>
    <path d="M 53.618077 32.835905 
L 49.748992 30.593098 
L 53.864688 28.843514 
z
" clip-path="url(#p2afc2c8b7c)" style="stroke: #000000; stroke-linecap: round"/>
   </g>
   <g id="patch_4">
    <path d="M 107.30155 240.027414 
Q 190.599935 145.655778 273.158459 52.122356 
" clip-path="url(#p2afc2c8b7c)" style="fill: none; stroke: #000000; stroke-linecap: round"/>
    <path d="M 269.012004 53.797741 
L 273.158459 52.122356 
L 272.010893 56.444751 
z
" clip-path="url(#p2afc2c8b7c)" style="stroke: #000000; stroke-linecap: round"/>
   </g>
   <g id="patch_5">
    <path d="M 99.202547 238.189815 
Q 70.779682 138.256422 42.662676 39.398412 
" clip-path="url(#p2afc2c8b7c)" style="fill: none; stroke: #000000; stroke-linecap: round"/>
    <path d="M 41.833244 43.792959 
L 42.662676 39.398412 
L 45.680654 42.698686 
z
" clip-path="url(#p2afc2c8b7c)" style="stroke: #000000; stroke-linecap: round"/>
   </g>
   <g id="patch_6">
    <path d="M 48.627405 30.523817 
Q 159.804541 37.391268 269.86577 44.189789 
" clip-path="url(#p2afc2c8b7c)" style="fill: none; stroke: #000000; stroke-linecap: round"/>
    <path d="M 265.996685 41.946983 
L 269.86577 44.189789 
L 265.750074 45.939373 
z
" clip-path="url(#p2afc2c8b7c)" style="stroke: #000000; stroke-linecap: round"/>
   </g>
   <g id="patch_7">
    <path d="M 416.80835 307.927895 
Q 350.220319 180.200815 284.149135 53.465133 
" clip-path="url(#p2afc2c8b7c)" style="fill: none; stroke: #000000; stroke-linecap: round"/>
    <path d="M 284.224793 57.936629 
L 284.149135 53.465133 
L 287.771726 56.087504 
z
" clip-path="url(#p2afc2c8b7c)" style="stroke: #000000; stroke-linecap: round"/>
   </g>
   <g id="patch_8">
    <path d="M 412.351877 313.778699 
Q 261.194068 281.064885 111.128994 248.587563 
" clip-path="url(#p2afc2c8b7c)" style="fill: none; stroke: #000000; stroke-linecap: round"/>
    <path d="M 114.615436 251.388406 
L 111.128994 248.587563 
L 115.461534 247.478915 
z
" clip-path="url(#p2afc2c8b7c)" style="stroke: #000000; stroke-linecap: round"/>
   </g>
   <g id="PathCollection_1">
    <defs>
     <path id="m038a35a37e" d="M 0 8.660254 
C 2.296726 8.660254 4.499694 7.747755 6.123724 6.123724 
C 7.747755 4.499694 8.660254 2.296726 8.660254 0 
C 8.660254 -2.296726 7.747755 -4.499694 6.123724 -6.123724 
C 4.499694 -7.747755 2.296726 -8.660254 0 -8.660254 
C -2.296726 -8.660254 -4.499694 -7.747755 -6.123724 -6.123724 
C -7.747755 -4.499694 -8.660254 -2.296726 -8.660254 0 
C -8.660254 2.296726 -7.747755 4.499694 -6.123724 6.123724 
C -4.499694 7.747755 -2.296726 8.660254 0 8.660254 
z
" style="stroke: #1f78b4"/>
    </defs>
    <g clip-path="url(#p2afc2c8b7c)">
     <use xlink:href="#m038a35a37e" x="279.627985" y="44.792805" style="fill: #1f78b4; stroke: #1f78b4"/>
     <use xlink:href="#m038a35a37e" x="101.571554" y="246.519126" style="fill: #1f78b4; stroke: #1f78b4"/>
     <use xlink:href="#m038a35a37e" x="39.986777" y="29.990083" style="fill: #1f78b4; stroke: #1f78b4"/>
     <use xlink:href="#m038a35a37e" x="420.813223" y="315.609917" style="fill: #1f78b4; stroke: #1f78b4"/>
    </g>
   </g>
  </g>
 </g>
 <defs>
  <clipPath id="p2afc2c8b7c">
   <rect x="0" y="0" width="460.8" height="345.6"/>
  </clipPath>
 </defs>
</svg>
