<?xml version="1.0" encoding="utf-8" standalone="no"?>
<!DOCTYPE svg PUBLIC "-//W3C//DTD SVG 1.1//EN"
  "http://www.w3.org/Graphics/SVG/1.1/DTD/svg11.dtd">
<svg xmlns:xlink="http://www.w3.org/1999/xlink" width="460.8pt" height="345.6pt" viewBox="0 0 460.8 345.6" xmlns="http://www.w3.org/2000/svg" version="1.1">
 <metadata>
  <rdf:RDF xmlns:dc="http://purl.org/dc/elements/1.1/" xmlns:cc="http://creativecommons.org/ns#" xmlns:rdf="http://www.w3.org/1999/02/22-rdf-syntax-ns#">
   <cc:Work>
    <dc:type rdf:resource="http://purl.org/dc/dcmitype/StillImage"/>
    <dc:date>2023-04-25T12:20:18.671580</dc:date>
    <dc:format>image/svg+xml</dc:format>
    <dc:creator>
     <cc:Agent>
      <dc:title>Matplotlib v3.7.1, https://matplotlib.org/</dc:title>
     </cc:Agent>
    </dc:creator>
   </cc:Work>
  </rdf:RDF>
 </metadata>
 <defs>
  <style type="text/css">*{stroke-linejoin: round; stroke-linecap: butt}</style>
 </defs>
 <g id="figure_1">
  <g id="patch_1">
   <path d="M 0 345.6 
L 460.8 345.6 
L 460.8 0 
L 0 0 
z
" style="fill: #ffffff"/>
  </g>
  <g id="axes_1">
   <g id="patch_2">
    <path d="M 48.647998 167.182032 
Q 230.399113 167.123524 411.032194 167.065375 
" clip-path="url(#pf4d7d630c4)" style="fill: none; stroke: #000000; stroke-linecap: round"/>
    <path d="M 407.03155 165.066663 
L 411.032194 167.065375 
L 407.032838 169.066663 
z
" clip-path="url(#pf4d7d630c4)" style="stroke: #000000; stroke-linecap: round"/>
   </g>
   <g id="patch_3">
    <path d="M 45.052111 174.212455 
Q 93.477399 241.397609 141.248952 307.675774 
" clip-path="url(#pf4d7d630c4)" style="fill: none; stroke: #000000; stroke-linecap: round"/>
    <path d="M 140.532553 303.261391 
L 141.248952 307.675774 
L 137.287607 305.600263 
z
" clip-path="url(#pf4d7d630c4)" style="stroke: #000000; stroke-linecap: round"/>
   </g>
   <g id="patch_4">
    <path d="M 412.152002 167.065015 
Q 230.400887 167.123523 49.767806 167.181671 
" clip-path="url(#pf4d7d630c4)" style="fill: none; stroke: #000000; stroke-linecap: round"/>
    <path d="M 53.76845 169.180383 
L 49.767806 167.181671 
L 53.767162 165.180384 
z
" clip-path="url(#pf4d7d630c4)" style="stroke: #000000; stroke-linecap: round"/>
   </g>
   <g id="patch_5">
    <path d="M 413.204081 171.189811 
Q 283.890357 241.336122 155.559389 310.949336 
" clip-path="url(#pf4d7d630c4)" style="fill: none; stroke: #000000; stroke-linecap: round"/>
    <path d="M 160.029033 310.800079 
L 155.559389 310.949336 
L 158.12177 307.284066 
z
" clip-path="url(#pf4d7d630c4)" style="stroke: #000000; stroke-linecap: round"/>
   </g>
   <g id="patch_6">
    <path d="M 141.90234 308.582283 
Q 93.477052 241.397128 45.705498 175.118964 
" clip-path="url(#pf4d7d630c4)" style="fill: none; stroke: #000000; stroke-linecap: round"/>
    <path d="M 46.421897 179.533346 
L 45.705498 175.118964 
L 49.666844 177.194474 
z
" clip-path="url(#pf4d7d630c4)" style="stroke: #000000; stroke-linecap: round"/>
   </g>
   <g id="patch_7">
    <path d="M 358.781444 37.799949 
Q 387.924151 98.527736 416.583139 158.247547 
" clip-path="url(#pf4d7d630c4)" style="fill: none; stroke: #000000; stroke-linecap: round"/>
    <path d="M 416.655658 153.775999 
L 416.583139 158.247547 
L 413.049412 155.506604 
z
" clip-path="url(#pf4d7d630c4)" style="stroke: #000000; stroke-linecap: round"/>
   </g>
   <g id="patch_8">
    <path d="M 349.933191 36.991552 
Q 251.000044 172.800787 152.725201 307.706343 
" clip-path="url(#pf4d7d630c4)" style="fill: none; stroke: #000000; stroke-linecap: round"/>
    <path d="M 156.696972 305.650854 
L 152.725201 307.706343 
L 153.463872 303.295633 
z
" clip-path="url(#pf4d7d630c4)" style="stroke: #000000; stroke-linecap: round"/>
   </g>
   <g id="PathCollection_1">
    <defs>
     <path id="ma1d7cb6649" d="M 0 8.660254 
C 2.296726 8.660254 4.499694 7.747755 6.123724 6.123724 
C 7.747755 4.499694 8.660254 2.296726 8.660254 0 
C 8.660254 -2.296726 7.747755 -4.499694 6.123724 -6.123724 
C 4.499694 -7.747755 2.296726 -8.660254 0 -8.660254 
C -2.296726 -8.660254 -4.499694 -7.747755 -6.123724 -6.123724 
C -7.747755 -4.499694 -8.660254 -2.296726 -8.660254 0 
C -8.660254 2.296726 -7.747755 4.499694 -6.123724 6.123724 
C -4.499694 7.747755 -2.296726 8.660254 0 8.660254 
z
" style="stroke: #1f78b4"/>
    </defs>
    <g clip-path="url(#pf4d7d630c4)">
     <use xlink:href="#ma1d7cb6649" x="39.986777" y="167.18482" style="fill: #1f78b4; stroke: #1f78b4"/>
     <use xlink:href="#ma1d7cb6649" x="420.813223" y="167.062227" style="fill: #1f78b4; stroke: #1f78b4"/>
     <use xlink:href="#ma1d7cb6649" x="146.967673" y="315.609917" style="fill: #1f78b4; stroke: #1f78b4"/>
     <use xlink:href="#ma1d7cb6649" x="355.033561" y="29.990083" style="fill: #1f78b4; stroke: #1f78b4"/>
    </g>
   </g>
  </g>
 </g>
 <defs>
  <clipPath id="pf4d7d630c4">
   <rect x="0" y="0" width="460.8" height="345.6"/>
  </clipPath>
 </defs>
</svg>
