<?xml version="1.0" encoding="utf-8" standalone="no"?>
<!DOCTYPE svg PUBLIC "-//W3C//DTD SVG 1.1//EN"
  "http://www.w3.org/Graphics/SVG/1.1/DTD/svg11.dtd">
<svg xmlns:xlink="http://www.w3.org/1999/xlink" width="460.8pt" height="345.6pt" viewBox="0 0 460.8 345.6" xmlns="http://www.w3.org/2000/svg" version="1.1">
 <metadata>
  <rdf:RDF xmlns:dc="http://purl.org/dc/elements/1.1/" xmlns:cc="http://creativecommons.org/ns#" xmlns:rdf="http://www.w3.org/1999/02/22-rdf-syntax-ns#">
   <cc:Work>
    <dc:type rdf:resource="http://purl.org/dc/dcmitype/StillImage"/>
    <dc:date>2023-04-25T12:20:18.734780</dc:date>
    <dc:format>image/svg+xml</dc:format>
    <dc:creator>
     <cc:Agent>
      <dc:title>Matplotlib v3.7.1, https://matplotlib.org/</dc:title>
     </cc:Agent>
    </dc:creator>
   </cc:Work>
  </rdf:RDF>
 </metadata>
 <defs>
  <style type="text/css">*{stroke-linejoin: round; stroke-linecap: butt}</style>
 </defs>
 <g id="figure_1">
  <g id="patch_1">
   <path d="M 0 345.6 
L 460.8 345.6 
L 460.8 0 
L 0 0 
z
" style="fill: #ffffff"/>
  </g>
  <g id="axes_1">
   <g id="patch_2">
    <path d="M 267.319191 188.736647 
Q 299.827627 248.373047 331.800951 307.027788 
" clip-path="url(#p0bb7978ff8)" style="fill: none; stroke: #000000; stroke-linecap: round"/>
    <path d="M 331.642518 302.558459 
L 331.800951 307.027788 
L 328.130428 304.472936 
z
" clip-path="url(#p0bb7978ff8)" style="stroke: #000000; stroke-linecap: round"/>
   </g>
   <g id="patch_3">
    <path d="M 269.425442 175.138122 
Q 341.992755 105.561812 413.753043 36.759264 
" clip-path="url(#p0bb7978ff8)" style="fill: none; stroke: #000000; stroke-linecap: round"/>
    <path d="M 409.48159 38.08391 
L 413.753043 36.759264 
L 412.249888 40.971214 
z
" clip-path="url(#p0bb7978ff8)" style="stroke: #000000; stroke-linecap: round"/>
   </g>
   <g id="patch_4">
    <path d="M 332.333813 308.005319 
Q 299.825377 248.368919 267.852054 189.714178 
" clip-path="url(#p0bb7978ff8)" style="fill: none; stroke: #000000; stroke-linecap: round"/>
    <path d="M 268.010486 194.183507 
L 267.852054 189.714178 
L 271.522576 192.269029 
z
" clip-path="url(#p0bb7978ff8)" style="stroke: #000000; stroke-linecap: round"/>
   </g>
   <g id="patch_5">
    <path d="M 338.930583 307.307522 
Q 378.645588 172.802047 418.043987 39.368842 
" clip-path="url(#p0bb7978ff8)" style="fill: none; stroke: #000000; stroke-linecap: round"/>
    <path d="M 414.993131 42.638747 
L 418.043987 39.368842 
L 418.829398 43.771469 
z
" clip-path="url(#p0bb7978ff8)" style="stroke: #000000; stroke-linecap: round"/>
   </g>
   <g id="patch_6">
    <path d="M 412.419305 32.117467 
Q 230.401261 78.248772 49.466985 124.105404 
" clip-path="url(#p0bb7978ff8)" style="fill: none; stroke: #000000; stroke-linecap: round"/>
    <path d="M 53.835745 125.061403 
L 49.466985 124.105404 
L 52.853041 121.183995 
z
" clip-path="url(#p0bb7978ff8)" style="stroke: #000000; stroke-linecap: round"/>
   </g>
   <g id="patch_7">
    <path d="M 48.401926 128.567668 
Q 151.581651 153.820403 253.675393 178.807349 
" clip-path="url(#p0bb7978ff8)" style="fill: none; stroke: #000000; stroke-linecap: round"/>
    <path d="M 250.265524 175.913771 
L 253.675393 178.807349 
L 249.31461 179.799098 
z
" clip-path="url(#p0bb7978ff8)" style="stroke: #000000; stroke-linecap: round"/>
   </g>
   <g id="patch_8">
    <path d="M 47.286436 131.163799 
Q 188.232367 221.058625 328.235668 310.352246 
" clip-path="url(#p0bb7978ff8)" style="fill: none; stroke: #000000; stroke-linecap: round"/>
    <path d="M 325.938683 306.515078 
L 328.235668 310.352246 
L 323.787743 309.887533 
z
" clip-path="url(#p0bb7978ff8)" style="stroke: #000000; stroke-linecap: round"/>
   </g>
   <g id="PathCollection_1">
    <defs>
     <path id="m79f1b76d1a" d="M 0 8.660254 
C 2.296726 8.660254 4.499694 7.747755 6.123724 6.123724 
C 7.747755 4.499694 8.660254 2.296726 8.660254 0 
C 8.660254 -2.296726 7.747755 -4.499694 6.123724 -6.123724 
C 4.499694 -7.747755 2.296726 -8.660254 0 -8.660254 
C -2.296726 -8.660254 -4.499694 -7.747755 -6.123724 -6.123724 
C -7.747755 -4.499694 -8.660254 -2.296726 -8.660254 0 
C -8.660254 2.296726 -7.747755 4.499694 -6.123724 6.123724 
C -4.499694 7.747755 -2.296726 8.660254 0 8.660254 
z
" style="stroke: #1f78b4"/>
    </defs>
    <g clip-path="url(#p0bb7978ff8)">
     <use xlink:href="#m79f1b76d1a" x="263.173843" y="181.132049" style="fill: #1f78b4; stroke: #1f78b4"/>
     <use xlink:href="#m79f1b76d1a" x="336.479161" y="315.609917" style="fill: #1f78b4; stroke: #1f78b4"/>
     <use xlink:href="#m79f1b76d1a" x="420.813223" y="29.990083" style="fill: #1f78b4; stroke: #1f78b4"/>
     <use xlink:href="#m79f1b76d1a" x="39.986777" y="126.508101" style="fill: #1f78b4; stroke: #1f78b4"/>
    </g>
   </g>
  </g>
 </g>
 <defs>
  <clipPath id="p0bb7978ff8">
   <rect x="0" y="0" width="460.8" height="345.6"/>
  </clipPath>
 </defs>
</svg>
