<?xml version="1.0" encoding="utf-8" standalone="no"?>
<!DOCTYPE svg PUBLIC "-//W3C//DTD SVG 1.1//EN"
  "http://www.w3.org/Graphics/SVG/1.1/DTD/svg11.dtd">
<svg xmlns:xlink="http://www.w3.org/1999/xlink" width="460.8pt" height="345.6pt" viewBox="0 0 460.8 345.6" xmlns="http://www.w3.org/2000/svg" version="1.1">
 <metadata>
  <rdf:RDF xmlns:dc="http://purl.org/dc/elements/1.1/" xmlns:cc="http://creativecommons.org/ns#" xmlns:rdf="http://www.w3.org/1999/02/22-rdf-syntax-ns#">
   <cc:Work>
    <dc:type rdf:resource="http://purl.org/dc/dcmitype/StillImage"/>
    <dc:date>2023-04-25T12:20:18.925400</dc:date>
    <dc:format>image/svg+xml</dc:format>
    <dc:creator>
     <cc:Agent>
      <dc:title>Matplotlib v3.7.1, https://matplotlib.org/</dc:title>
     </cc:Agent>
    </dc:creator>
   </cc:Work>
  </rdf:RDF>
 </metadata>
 <defs>
  <style type="text/css">*{stroke-linejoin: round; stroke-linecap: butt}</style>
 </defs>
 <g id="figure_1">
  <g id="patch_1">
   <path d="M 0 345.6 
L 460.8 345.6 
L 460.8 0 
L 0 0 
z
" style="fill: #ffffff"/>
  </g>
  <g id="axes_1">
   <g id="patch_2">
    <path d="M 48.390237 253.503552 
Q 168.842521 283.510035 288.209927 313.246259 
" clip-path="url(#pdb28321979)" style="fill: none; stroke: #000000; stroke-linecap: round"/>
    <path d="M 284.812005 310.338661 
L 288.209927 313.246259 
L 283.845096 314.220038 
z
" clip-path="url(#pdb28321979)" style="stroke: #000000; stroke-linecap: round"/>
   </g>
   <g id="patch_3">
    <path d="M 42.803187 243.223771 
Q 78.074608 140.701693 112.982307 39.236831 
" clip-path="url(#pdb28321979)" style="fill: none; stroke: #000000; stroke-linecap: round"/>
    <path d="M 109.78981 42.368598 
L 112.982307 39.236831 
L 113.572222 43.669889 
z
" clip-path="url(#pdb28321979)" style="stroke: #000000; stroke-linecap: round"/>
   </g>
   <g id="patch_4">
    <path d="M 289.294683 313.516488 
Q 168.842399 283.510005 49.474993 253.773781 
" clip-path="url(#pdb28321979)" style="fill: none; stroke: #000000; stroke-linecap: round"/>
    <path d="M 52.872915 256.681379 
L 49.474993 253.773781 
L 53.839824 252.800002 
z
" clip-path="url(#pdb28321979)" style="stroke: #000000; stroke-linecap: round"/>
   </g>
   <g id="patch_5">
    <path d="M 302.062101 308.132363 
Q 359.25511 210.133283 415.884577 113.099822 
" clip-path="url(#pdb28321979)" style="fill: none; stroke: #000000; stroke-linecap: round"/>
    <path d="M 412.141034 115.546429 
L 415.884577 113.099822 
L 415.595737 117.56262 
z
" clip-path="url(#pdb28321979)" style="stroke: #000000; stroke-linecap: round"/>
   </g>
   <g id="patch_6">
    <path d="M 113.347123 38.176435 
Q 78.075702 140.698513 43.168003 242.163374 
" clip-path="url(#pdb28321979)" style="fill: none; stroke: #000000; stroke-linecap: round"/>
    <path d="M 46.360501 239.031608 
L 43.168003 242.163374 
L 42.578088 237.730317 
z
" clip-path="url(#pdb28321979)" style="stroke: #000000; stroke-linecap: round"/>
   </g>
   <g id="patch_7">
    <path d="M 124.572824 32.051061 
Q 268.486913 67.322024 411.315104 102.326852 
" clip-path="url(#pdb28321979)" style="fill: none; stroke: #000000; stroke-linecap: round"/>
    <path d="M 407.906159 99.432186 
L 411.315104 102.326852 
L 406.954004 103.317209 
z
" clip-path="url(#pdb28321979)" style="stroke: #000000; stroke-linecap: round"/>
   </g>
   <g id="patch_8">
    <path d="M 416.449265 112.132239 
Q 359.256256 210.131319 302.62679 307.16478 
" clip-path="url(#pdb28321979)" style="fill: none; stroke: #000000; stroke-linecap: round"/>
    <path d="M 306.370332 304.718172 
L 302.62679 307.16478 
L 302.915629 302.701981 
z
" clip-path="url(#pdb28321979)" style="stroke: #000000; stroke-linecap: round"/>
   </g>
   <g id="PathCollection_1">
    <defs>
     <path id="m844f32af28" d="M 0 8.660254 
C 2.296726 8.660254 4.499694 7.747755 6.123724 6.123724 
C 7.747755 4.499694 8.660254 2.296726 8.660254 0 
C 8.660254 -2.296726 7.747755 -4.499694 6.123724 -6.123724 
C 4.499694 -7.747755 2.296726 -8.660254 0 -8.660254 
C -2.296726 -8.660254 -4.499694 -7.747755 -6.123724 -6.123724 
C -7.747755 -4.499694 -8.660254 -2.296726 -8.660254 0 
C -8.660254 2.296726 -7.747755 4.499694 -6.123724 6.123724 
C -4.499694 7.747755 -2.296726 8.660254 0 8.660254 
z
" style="stroke: #1f78b4"/>
    </defs>
    <g clip-path="url(#pdb28321979)">
     <use xlink:href="#m844f32af28" x="39.986777" y="251.410123" style="fill: #1f78b4; stroke: #1f78b4"/>
     <use xlink:href="#m844f32af28" x="297.698143" y="315.609917" style="fill: #1f78b4; stroke: #1f78b4"/>
     <use xlink:href="#m844f32af28" x="116.163534" y="29.990083" style="fill: #1f78b4; stroke: #1f78b4"/>
     <use xlink:href="#m844f32af28" x="420.813223" y="104.654684" style="fill: #1f78b4; stroke: #1f78b4"/>
    </g>
   </g>
  </g>
 </g>
 <defs>
  <clipPath id="pdb28321979">
   <rect x="0" y="0" width="460.8" height="345.6"/>
  </clipPath>
 </defs>
</svg>
