<?xml version="1.0" encoding="utf-8" standalone="no"?>
<!DOCTYPE svg PUBLIC "-//W3C//DTD SVG 1.1//EN"
  "http://www.w3.org/Graphics/SVG/1.1/DTD/svg11.dtd">
<svg xmlns:xlink="http://www.w3.org/1999/xlink" width="460.8pt" height="345.6pt" viewBox="0 0 460.8 345.6" xmlns="http://www.w3.org/2000/svg" version="1.1">
 <metadata>
  <rdf:RDF xmlns:dc="http://purl.org/dc/elements/1.1/" xmlns:cc="http://creativecommons.org/ns#" xmlns:rdf="http://www.w3.org/1999/02/22-rdf-syntax-ns#">
   <cc:Work>
    <dc:type rdf:resource="http://purl.org/dc/dcmitype/StillImage"/>
    <dc:date>2023-04-25T12:20:18.985866</dc:date>
    <dc:format>image/svg+xml</dc:format>
    <dc:creator>
     <cc:Agent>
      <dc:title>Matplotlib v3.7.1, https://matplotlib.org/</dc:title>
     </cc:Agent>
    </dc:creator>
   </cc:Work>
  </rdf:RDF>
 </metadata>
 <defs>
  <style type="text/css">*{stroke-linejoin: round; stroke-linecap: butt}</style>
 </defs>
 <g id="figure_1">
  <g id="patch_1">
   <path d="M 0 345.6 
L 460.8 345.6 
L 460.8 0 
L 0 0 
z
" style="fill: #ffffff"/>
  </g>
  <g id="axes_1">
   <g id="patch_2">
    <path d="M 261.775295 313.850769 
Q 155.119777 291.72099 49.558976 269.818352 
" clip-path="url(#pa5257d5ee9)" style="fill: none; stroke: #000000; stroke-linecap: round"/>
    <path d="M 53.069235 272.589288 
L 49.558976 269.818352 
L 53.88188 268.672707 
z
" clip-path="url(#pa5257d5ee9)" style="stroke: #000000; stroke-linecap: round"/>
   </g>
   <g id="patch_3">
    <path d="M 275.461704 308.691661 
Q 345.532554 215.612186 414.93098 123.425934 
" clip-path="url(#pa5257d5ee9)" style="fill: none; stroke: #000000; stroke-linecap: round"/>
    <path d="M 410.927399 125.418756 
L 414.93098 123.425934 
L 414.123088 127.824492 
z
" clip-path="url(#pa5257d5ee9)" style="stroke: #000000; stroke-linecap: round"/>
   </g>
   <g id="patch_4">
    <path d="M 48.465076 269.591381 
Q 155.120594 291.72116 260.681395 313.623797 
" clip-path="url(#pa5257d5ee9)" style="fill: none; stroke: #000000; stroke-linecap: round"/>
    <path d="M 257.171136 310.852862 
L 260.681395 313.623797 
L 256.358491 314.769443 
z
" clip-path="url(#pa5257d5ee9)" style="stroke: #000000; stroke-linecap: round"/>
   </g>
   <g id="patch_5">
    <path d="M 41.823716 259.365348 
Q 65.787437 148.910952 89.514109 39.549171 
" clip-path="url(#pa5257d5ee9)" style="fill: none; stroke: #000000; stroke-linecap: round"/>
    <path d="M 86.711487 43.034183 
L 89.514109 39.549171 
L 90.620546 43.882276 
z
" clip-path="url(#pa5257d5ee9)" style="stroke: #000000; stroke-linecap: round"/>
   </g>
   <g id="patch_6">
    <path d="M 415.605113 122.530441 
Q 345.534263 215.609915 276.135837 307.796167 
" clip-path="url(#pa5257d5ee9)" style="fill: none; stroke: #000000; stroke-linecap: round"/>
    <path d="M 280.139419 305.803346 
L 276.135837 307.796167 
L 276.943729 303.39761 
z
" clip-path="url(#pa5257d5ee9)" style="stroke: #000000; stroke-linecap: round"/>
   </g>
   <g id="patch_7">
    <path d="M 96.180327 37.331492 
Q 180.920057 172.79881 265.066865 307.318266 
" clip-path="url(#pa5257d5ee9)" style="fill: none; stroke: #000000; stroke-linecap: round"/>
    <path d="M 264.641149 302.866439 
L 265.066865 307.318266 
L 261.249974 304.987743 
z
" clip-path="url(#pa5257d5ee9)" style="stroke: #000000; stroke-linecap: round"/>
   </g>
   <g id="patch_8">
    <path d="M 99.969849 32.169961 
Q 256.199609 72.800872 411.347329 113.150375 
" clip-path="url(#pa5257d5ee9)" style="fill: none; stroke: #000000; stroke-linecap: round"/>
    <path d="M 407.979504 110.207969 
L 411.347329 113.150375 
L 406.972709 114.079191 
z
" clip-path="url(#pa5257d5ee9)" style="stroke: #000000; stroke-linecap: round"/>
   </g>
   <g id="PathCollection_1">
    <defs>
     <path id="mf6fa008b61" d="M 0 8.660254 
C 2.296726 8.660254 4.499694 7.747755 6.123724 6.123724 
C 7.747755 4.499694 8.660254 2.296726 8.660254 0 
C 8.660254 -2.296726 7.747755 -4.499694 6.123724 -6.123724 
C 4.499694 -7.747755 2.296726 -8.660254 0 -8.660254 
C -2.296726 -8.660254 -4.499694 -7.747755 -6.123724 -6.123724 
C -7.747755 -4.499694 -8.660254 -2.296726 -8.660254 0 
C -8.660254 2.296726 -7.747755 4.499694 -6.123724 6.123724 
C -4.499694 7.747755 -2.296726 8.660254 0 8.660254 
z
" style="stroke: #1f78b4"/>
    </defs>
    <g clip-path="url(#pa5257d5ee9)">
     <use xlink:href="#mf6fa008b61" x="270.253594" y="315.609917" style="fill: #1f78b4; stroke: #1f78b4"/>
     <use xlink:href="#mf6fa008b61" x="39.986777" y="267.832232" style="fill: #1f78b4; stroke: #1f78b4"/>
     <use xlink:href="#mf6fa008b61" x="420.813223" y="115.612184" style="fill: #1f78b4; stroke: #1f78b4"/>
     <use xlink:href="#mf6fa008b61" x="91.588009" y="29.990083" style="fill: #1f78b4; stroke: #1f78b4"/>
    </g>
   </g>
  </g>
 </g>
 <defs>
  <clipPath id="pa5257d5ee9">
   <rect x="0" y="0" width="460.8" height="345.6"/>
  </clipPath>
 </defs>
</svg>
