<?xml version="1.0" encoding="utf-8" standalone="no"?>
<!DOCTYPE svg PUBLIC "-//W3C//DTD SVG 1.1//EN"
  "http://www.w3.org/Graphics/SVG/1.1/DTD/svg11.dtd">
<svg xmlns:xlink="http://www.w3.org/1999/xlink" width="460.8pt" height="345.6pt" viewBox="0 0 460.8 345.6" xmlns="http://www.w3.org/2000/svg" version="1.1">
 <metadata>
  <rdf:RDF xmlns:dc="http://purl.org/dc/elements/1.1/" xmlns:cc="http://creativecommons.org/ns#" xmlns:rdf="http://www.w3.org/1999/02/22-rdf-syntax-ns#">
   <cc:Work>
    <dc:type rdf:resource="http://purl.org/dc/dcmitype/StillImage"/>
    <dc:date>2023-04-25T12:20:19.047709</dc:date>
    <dc:format>image/svg+xml</dc:format>
    <dc:creator>
     <cc:Agent>
      <dc:title>Matplotlib v3.7.1, https://matplotlib.org/</dc:title>
     </cc:Agent>
    </dc:creator>
   </cc:Work>
  </rdf:RDF>
 </metadata>
 <defs>
  <style type="text/css">*{stroke-linejoin: round; stroke-linecap: butt}</style>
 </defs>
 <g id="figure_1">
  <g id="patch_1">
   <path d="M 0 345.6 
L 460.8 345.6 
L 460.8 0 
L 0 0 
z
" style="fill: #ffffff"/>
  </g>
  <g id="axes_1">
   <g id="patch_2">
    <path d="M 279.140548 36.892031 
Q 347.362245 126.931119 414.908744 216.07908 
" clip-path="url(#pfe14660407)" style="fill: none; stroke: #000000; stroke-linecap: round"/>
    <path d="M 414.087179 211.683056 
L 414.908744 216.07908 
L 410.898985 214.098718 
z
" clip-path="url(#pfe14660407)" style="stroke: #000000; stroke-linecap: round"/>
   </g>
   <g id="patch_3">
    <path d="M 266.690115 34.773947 
Q 156.94814 107.478308 48.138214 179.565184 
" clip-path="url(#pfe14660407)" style="fill: none; stroke: #000000; stroke-linecap: round"/>
    <path d="M 52.577399 179.023303 
L 48.138214 179.565184 
L 50.36822 175.688707 
z
" clip-path="url(#pfe14660407)" style="stroke: #000000; stroke-linecap: round"/>
   </g>
   <g id="patch_4">
    <path d="M 415.583687 216.969872 
Q 347.361991 126.930784 279.815492 37.782823 
" clip-path="url(#pfe14660407)" style="fill: none; stroke: #000000; stroke-linecap: round"/>
    <path d="M 280.637057 42.178847 
L 279.815492 37.782823 
L 283.82525 39.763186 
z
" clip-path="url(#pfe14660407)" style="stroke: #000000; stroke-linecap: round"/>
   </g>
   <g id="patch_5">
    <path d="M 412.53606 226.420879 
Q 271.869642 269.7409 132.271737 312.731858 
" clip-path="url(#pfe14660407)" style="fill: none; stroke: #000000; stroke-linecap: round"/>
    <path d="M 136.683206 313.465983 
L 132.271737 312.731858 
L 135.505918 309.643158 
z
" clip-path="url(#pfe14660407)" style="stroke: #000000; stroke-linecap: round"/>
   </g>
   <g id="patch_6">
    <path d="M 48.601511 185.845638 
Q 230.400886 204.418767 411.088017 222.878267 
" clip-path="url(#pfe14660407)" style="fill: none; stroke: #000000; stroke-linecap: round"/>
    <path d="M 407.311997 220.482088 
L 411.088017 222.878267 
L 406.905462 224.461375 
z
" clip-path="url(#pfe14660407)" style="stroke: #000000; stroke-linecap: round"/>
   </g>
   <g id="patch_7">
    <path d="M 44.626305 192.273613 
Q 81.454859 250.285112 117.684186 307.352721 
" clip-path="url(#pfe14660407)" style="fill: none; stroke: #000000; stroke-linecap: round"/>
    <path d="M 117.228805 302.903831 
L 117.684186 307.352721 
L 113.851845 305.047691 
z
" clip-path="url(#pfe14660407)" style="stroke: #000000; stroke-linecap: round"/>
   </g>
   <g id="patch_8">
    <path d="M 126.974115 307.952537 
Q 198.419087 172.799147 269.341555 38.634184 
" clip-path="url(#pfe14660407)" style="fill: none; stroke: #000000; stroke-linecap: round"/>
    <path d="M 265.704035 41.235807 
L 269.341555 38.634184 
L 269.240341 43.105175 
z
" clip-path="url(#pfe14660407)" style="stroke: #000000; stroke-linecap: round"/>
   </g>
   <g id="PathCollection_1">
    <defs>
     <path id="md421ff229e" d="M 0 8.660254 
C 2.296726 8.660254 4.499694 7.747755 6.123724 6.123724 
C 7.747755 4.499694 8.660254 2.296726 8.660254 0 
C 8.660254 -2.296726 7.747755 -4.499694 6.123724 -6.123724 
C 4.499694 -7.747755 2.296726 -8.660254 0 -8.660254 
C -2.296726 -8.660254 -4.499694 -7.747755 -6.123724 -6.123724 
C -7.747755 -4.499694 -8.660254 -2.296726 -8.660254 0 
C -8.660254 2.296726 -7.747755 4.499694 -6.123724 6.123724 
C -4.499694 7.747755 -2.296726 8.660254 0 8.660254 
z
" style="stroke: #1f78b4"/>
    </defs>
    <g clip-path="url(#pfe14660407)">
     <use xlink:href="#md421ff229e" x="273.911012" y="29.990083" style="fill: #1f78b4; stroke: #1f78b4"/>
     <use xlink:href="#md421ff229e" x="420.813223" y="223.871821" style="fill: #1f78b4; stroke: #1f78b4"/>
     <use xlink:href="#md421ff229e" x="39.986777" y="184.965533" style="fill: #1f78b4; stroke: #1f78b4"/>
     <use xlink:href="#md421ff229e" x="122.92626" y="315.609917" style="fill: #1f78b4; stroke: #1f78b4"/>
    </g>
   </g>
  </g>
 </g>
 <defs>
  <clipPath id="pfe14660407">
   <rect x="0" y="0" width="460.8" height="345.6"/>
  </clipPath>
 </defs>
</svg>
