<?xml version="1.0" encoding="utf-8" standalone="no"?>
<!DOCTYPE svg PUBLIC "-//W3C//DTD SVG 1.1//EN"
  "http://www.w3.org/Graphics/SVG/1.1/DTD/svg11.dtd">
<svg xmlns:xlink="http://www.w3.org/1999/xlink" width="460.8pt" height="345.6pt" viewBox="0 0 460.8 345.6" xmlns="http://www.w3.org/2000/svg" version="1.1">
 <metadata>
  <rdf:RDF xmlns:dc="http://purl.org/dc/elements/1.1/" xmlns:cc="http://creativecommons.org/ns#" xmlns:rdf="http://www.w3.org/1999/02/22-rdf-syntax-ns#">
   <cc:Work>
    <dc:type rdf:resource="http://purl.org/dc/dcmitype/StillImage"/>
    <dc:date>2023-04-25T12:20:19.112465</dc:date>
    <dc:format>image/svg+xml</dc:format>
    <dc:creator>
     <cc:Agent>
      <dc:title>Matplotlib v3.7.1, https://matplotlib.org/</dc:title>
     </cc:Agent>
    </dc:creator>
   </cc:Work>
  </rdf:RDF>
 </metadata>
 <defs>
  <style type="text/css">*{stroke-linejoin: round; stroke-linecap: butt}</style>
 </defs>
 <g id="figure_1">
  <g id="patch_1">
   <path d="M 0 345.6 
L 460.8 345.6 
L 460.8 0 
L 0 0 
z
" style="fill: #ffffff"/>
  </g>
  <g id="axes_1">
   <g id="patch_2">
    <path d="M 260.482996 310.444889 
Q 337.172934 253.455028 412.965491 197.13203 
" clip-path="url(#p18cf652d20)" style="fill: none; stroke: #000000; stroke-linecap: round"/>
    <path d="M 408.562 197.912586 
L 412.965491 197.13203 
L 410.94784 201.123156 
z
" clip-path="url(#p18cf652d20)" style="stroke: #000000; stroke-linecap: round"/>
   </g>
   <g id="patch_3">
    <path d="M 247.345308 309.549849 
Q 169.580453 233.38322 92.614333 157.99891 
" clip-path="url(#p18cf652d20)" style="fill: none; stroke: #000000; stroke-linecap: round"/>
    <path d="M 94.072518 162.22664 
L 92.614333 157.99891 
L 96.871428 159.369 
z
" clip-path="url(#p18cf652d20)" style="stroke: #000000; stroke-linecap: round"/>
   </g>
   <g id="patch_4">
    <path d="M 413.862764 196.465248 
Q 337.172825 253.455109 261.380269 309.778107 
" clip-path="url(#p18cf652d20)" style="fill: none; stroke: #000000; stroke-linecap: round"/>
    <path d="M 265.78376 308.997552 
L 261.380269 309.778107 
L 263.397919 305.786981 
z
" clip-path="url(#p18cf652d20)" style="stroke: #000000; stroke-linecap: round"/>
   </g>
   <g id="patch_5">
    <path d="M 412.837694 187.921952 
Q 230.39898 110.644719 48.989753 33.803555 
" clip-path="url(#p18cf652d20)" style="fill: none; stroke: #000000; stroke-linecap: round"/>
    <path d="M 51.892893 37.205287 
L 48.989753 33.803555 
L 53.453022 33.522082 
z
" clip-path="url(#p18cf652d20)" style="stroke: #000000; stroke-linecap: round"/>
   </g>
   <g id="patch_6">
    <path d="M 94.229383 152.187452 
Q 253.221983 171.228935 411.104483 190.137469 
" clip-path="url(#p18cf652d20)" style="fill: none; stroke: #000000; stroke-linecap: round"/>
    <path d="M 407.370692 187.676005 
L 411.104483 190.137469 
L 406.895037 191.647624 
z
" clip-path="url(#p18cf652d20)" style="stroke: #000000; stroke-linecap: round"/>
   </g>
   <g id="patch_7">
    <path d="M 82.577505 143.055745 
Q 62.808716 90.575515 43.434045 39.141549 
" clip-path="url(#p18cf652d20)" style="fill: none; stroke: #000000; stroke-linecap: round"/>
    <path d="M 42.972468 43.589801 
L 43.434045 39.141549 
L 46.7157 42.179762 
z
" clip-path="url(#p18cf652d20)" style="stroke: #000000; stroke-linecap: round"/>
   </g>
   <g id="patch_8">
    <path d="M 43.038623 38.091821 
Q 62.807412 90.572052 82.182083 142.006017 
" clip-path="url(#p18cf652d20)" style="fill: none; stroke: #000000; stroke-linecap: round"/>
    <path d="M 82.64366 137.557765 
L 82.182083 142.006017 
L 78.900428 138.967804 
z
" clip-path="url(#p18cf652d20)" style="stroke: #000000; stroke-linecap: round"/>
   </g>
   <g id="PathCollection_1">
    <defs>
     <path id="m1d7ed3e9d5" d="M 0 8.660254 
C 2.296726 8.660254 4.499694 7.747755 6.123724 6.123724 
C 7.747755 4.499694 8.660254 2.296726 8.660254 0 
C 8.660254 -2.296726 7.747755 -4.499694 6.123724 -6.123724 
C 4.499694 -7.747755 2.296726 -8.660254 0 -8.660254 
C -2.296726 -8.660254 -4.499694 -7.747755 -6.123724 -6.123724 
C -7.747755 -4.499694 -8.660254 -2.296726 -8.660254 0 
C -8.660254 2.296726 -7.747755 4.499694 -6.123724 6.123724 
C -4.499694 7.747755 -2.296726 8.660254 0 8.660254 
z
" style="stroke: #1f78b4"/>
    </defs>
    <g clip-path="url(#p18cf652d20)">
     <use xlink:href="#m1d7ed3e9d5" x="253.532536" y="315.609917" style="fill: #1f78b4; stroke: #1f78b4"/>
     <use xlink:href="#m1d7ed3e9d5" x="420.813223" y="191.30022" style="fill: #1f78b4; stroke: #1f78b4"/>
     <use xlink:href="#m1d7ed3e9d5" x="85.629351" y="151.157484" style="fill: #1f78b4; stroke: #1f78b4"/>
     <use xlink:href="#m1d7ed3e9d5" x="39.986777" y="29.990083" style="fill: #1f78b4; stroke: #1f78b4"/>
    </g>
   </g>
  </g>
 </g>
 <defs>
  <clipPath id="p18cf652d20">
   <rect x="0" y="0" width="460.8" height="345.6"/>
  </clipPath>
 </defs>
</svg>
