<?xml version="1.0" encoding="utf-8" standalone="no"?>
<!DOCTYPE svg PUBLIC "-//W3C//DTD SVG 1.1//EN"
  "http://www.w3.org/Graphics/SVG/1.1/DTD/svg11.dtd">
<svg xmlns:xlink="http://www.w3.org/1999/xlink" width="460.8pt" height="345.6pt" viewBox="0 0 460.8 345.6" xmlns="http://www.w3.org/2000/svg" version="1.1">
 <metadata>
  <rdf:RDF xmlns:dc="http://purl.org/dc/elements/1.1/" xmlns:cc="http://creativecommons.org/ns#" xmlns:rdf="http://www.w3.org/1999/02/22-rdf-syntax-ns#">
   <cc:Work>
    <dc:type rdf:resource="http://purl.org/dc/dcmitype/StillImage"/>
    <dc:date>2023-04-25T12:20:17.239628</dc:date>
    <dc:format>image/svg+xml</dc:format>
    <dc:creator>
     <cc:Agent>
      <dc:title>Matplotlib v3.7.1, https://matplotlib.org/</dc:title>
     </cc:Agent>
    </dc:creator>
   </cc:Work>
  </rdf:RDF>
 </metadata>
 <defs>
  <style type="text/css">*{stroke-linejoin: round; stroke-linecap: butt}</style>
 </defs>
 <g id="figure_1">
  <g id="patch_1">
   <path d="M 0 345.6 
L 460.8 345.6 
L 460.8 0 
L 0 0 
z
" style="fill: #ffffff"/>
  </g>
  <g id="axes_1">
   <g id="patch_2">
    <path d="M 259.320074 154.602601 
Q 334.323553 94.989726 408.451778 36.072504 
" clip-path="url(#p875766e011)" style="fill: none; stroke: #000000; stroke-linecap: round"/>
    <path d="M 404.075957 36.995645 
L 408.451778 36.072504 
L 406.564799 40.127045 
z
" clip-path="url(#p875766e011)" style="stroke: #000000; stroke-linecap: round"/>
   </g>
   <g id="patch_3">
    <path d="M 258.899049 165.873976 
Q 336.677691 237.802566 413.635497 308.972058 
" clip-path="url(#p875766e011)" style="fill: none; stroke: #000000; stroke-linecap: round"/>
    <path d="M 412.0567 304.787873 
L 413.635497 308.972058 
L 409.340871 307.724584 
z
" clip-path="url(#p875766e011)" style="stroke: #000000; stroke-linecap: round"/>
   </g>
   <g id="patch_4">
    <path d="M 243.940993 158.955585 
Q 146.263243 147.178498 49.695488 135.535244 
" clip-path="url(#p875766e011)" style="fill: none; stroke: #000000; stroke-linecap: round"/>
    <path d="M 53.427319 137.999679 
L 49.695488 135.535244 
L 53.906135 134.02844 
z
" clip-path="url(#p875766e011)" style="stroke: #000000; stroke-linecap: round"/>
   </g>
   <g id="patch_5">
    <path d="M 409.32341 35.379729 
Q 334.319932 94.992604 260.191706 153.909827 
" clip-path="url(#p875766e011)" style="fill: none; stroke: #000000; stroke-linecap: round"/>
    <path d="M 264.567527 152.986685 
L 260.191706 153.909827 
L 262.078686 149.855285 
z
" clip-path="url(#p875766e011)" style="stroke: #000000; stroke-linecap: round"/>
   </g>
   <g id="patch_6">
    <path d="M 416.247297 38.649851 
Q 418.458883 172.80027 420.652039 305.832807 
" clip-path="url(#p875766e011)" style="fill: none; stroke: #000000; stroke-linecap: round"/>
    <path d="M 422.585833 301.800383 
L 420.652039 305.832807 
L 418.586376 301.866318 
z
" clip-path="url(#p875766e011)" style="stroke: #000000; stroke-linecap: round"/>
   </g>
   <g id="patch_7">
    <path d="M 414.453125 309.728189 
Q 336.674484 237.799599 259.716677 166.630107 
" clip-path="url(#p875766e011)" style="fill: none; stroke: #000000; stroke-linecap: round"/>
    <path d="M 261.295474 170.814292 
L 259.716677 166.630107 
L 264.011303 167.877581 
z
" clip-path="url(#p875766e011)" style="stroke: #000000; stroke-linecap: round"/>
   </g>
   <g id="patch_8">
    <path d="M 48.584735 135.401319 
Q 146.262485 147.178406 242.83024 158.82166 
" clip-path="url(#p875766e011)" style="fill: none; stroke: #000000; stroke-linecap: round"/>
    <path d="M 239.098409 156.357225 
L 242.83024 158.82166 
L 238.619593 160.328464 
z
" clip-path="url(#p875766e011)" style="stroke: #000000; stroke-linecap: round"/>
   </g>
   <g id="PathCollection_1">
    <defs>
     <path id="m1b6f366ee3" d="M 0 8.660254 
C 2.296726 8.660254 4.499694 7.747755 6.123724 6.123724 
C 7.747755 4.499694 8.660254 2.296726 8.660254 0 
C 8.660254 -2.296726 7.747755 -4.499694 6.123724 -6.123724 
C 4.499694 -7.747755 2.296726 -8.660254 0 -8.660254 
C -2.296726 -8.660254 -4.499694 -7.747755 -6.123724 -6.123724 
C -7.747755 -4.499694 -8.660254 -2.296726 -8.660254 0 
C -8.660254 2.296726 -7.747755 4.499694 -6.123724 6.123724 
C -4.499694 7.747755 -2.296726 8.660254 0 8.660254 
z
" style="stroke: #1f78b4"/>
    </defs>
    <g clip-path="url(#p875766e011)">
     <use xlink:href="#m1b6f366ee3" x="252.538951" y="159.992248" style="fill: #1f78b4; stroke: #1f78b4"/>
     <use xlink:href="#m1b6f366ee3" x="416.104533" y="29.990083" style="fill: #1f78b4; stroke: #1f78b4"/>
     <use xlink:href="#m1b6f366ee3" x="420.813223" y="315.609917" style="fill: #1f78b4; stroke: #1f78b4"/>
     <use xlink:href="#m1b6f366ee3" x="39.986777" y="134.364656" style="fill: #1f78b4; stroke: #1f78b4"/>
    </g>
   </g>
  </g>
 </g>
 <defs>
  <clipPath id="p875766e011">
   <rect x="0" y="0" width="460.8" height="345.6"/>
  </clipPath>
 </defs>
</svg>
