<?xml version="1.0" encoding="utf-8" standalone="no"?>
<!DOCTYPE svg PUBLIC "-//W3C//DTD SVG 1.1//EN"
  "http://www.w3.org/Graphics/SVG/1.1/DTD/svg11.dtd">
<svg xmlns:xlink="http://www.w3.org/1999/xlink" width="460.8pt" height="345.6pt" viewBox="0 0 460.8 345.6" xmlns="http://www.w3.org/2000/svg" version="1.1">
 <metadata>
  <rdf:RDF xmlns:dc="http://purl.org/dc/elements/1.1/" xmlns:cc="http://creativecommons.org/ns#" xmlns:rdf="http://www.w3.org/1999/02/22-rdf-syntax-ns#">
   <cc:Work>
    <dc:type rdf:resource="http://purl.org/dc/dcmitype/StillImage"/>
    <dc:date>2023-04-25T12:20:17.295731</dc:date>
    <dc:format>image/svg+xml</dc:format>
    <dc:creator>
     <cc:Agent>
      <dc:title>Matplotlib v3.7.1, https://matplotlib.org/</dc:title>
     </cc:Agent>
    </dc:creator>
   </cc:Work>
  </rdf:RDF>
 </metadata>
 <defs>
  <style type="text/css">*{stroke-linejoin: round; stroke-linecap: butt}</style>
 </defs>
 <g id="figure_1">
  <g id="patch_1">
   <path d="M 0 345.6 
L 460.8 345.6 
L 460.8 0 
L 0 0 
z
" style="fill: #ffffff"/>
  </g>
  <g id="axes_1">
   <g id="patch_2">
    <path d="M 229.835377 306.993731 
Q 243.598792 172.801068 257.248136 39.720605 
" clip-path="url(#p8d5eaa440b)" style="fill: none; stroke: #000000; stroke-linecap: round"/>
    <path d="M 254.850456 43.495672 
L 257.248136 39.720605 
L 258.829581 43.90379 
z
" clip-path="url(#p8d5eaa440b)" style="stroke: #000000; stroke-linecap: round"/>
   </g>
   <g id="patch_3">
    <path d="M 237.497253 314.208106 
Q 324.882546 299.873504 411.164551 285.719884 
" clip-path="url(#p8d5eaa440b)" style="fill: none; stroke: #000000; stroke-linecap: round"/>
    <path d="M 406.893555 284.393764 
L 411.164551 285.719884 
L 407.541057 288.341009 
z
" clip-path="url(#p8d5eaa440b)" style="stroke: #000000; stroke-linecap: round"/>
   </g>
   <g id="patch_4">
    <path d="M 220.494721 313.731943 
Q 134.467272 294.628421 49.531271 275.76727 
" clip-path="url(#p8d5eaa440b)" style="fill: none; stroke: #000000; stroke-linecap: round"/>
    <path d="M 53.002586 278.58684 
L 49.531271 275.76727 
L 53.869715 274.68196 
z
" clip-path="url(#p8d5eaa440b)" style="stroke: #000000; stroke-linecap: round"/>
   </g>
   <g id="patch_5">
    <path d="M 257.362427 38.606269 
Q 243.599011 172.798932 229.949668 305.879395 
" clip-path="url(#p8d5eaa440b)" style="fill: none; stroke: #000000; stroke-linecap: round"/>
    <path d="M 232.347348 302.104328 
L 229.949668 305.879395 
L 228.368223 301.69621 
z
" clip-path="url(#p8d5eaa440b)" style="stroke: #000000; stroke-linecap: round"/>
   </g>
   <g id="patch_6">
    <path d="M 262.912108 37.284556 
Q 339.529181 157.062819 415.543803 275.899248 
" clip-path="url(#p8d5eaa440b)" style="fill: none; stroke: #000000; stroke-linecap: round"/>
    <path d="M 415.073211 271.45194 
L 415.543803 275.899248 
L 411.703602 273.607336 
z
" clip-path="url(#p8d5eaa440b)" style="stroke: #000000; stroke-linecap: round"/>
   </g>
   <g id="patch_7">
    <path d="M 412.267631 285.538935 
Q 324.882338 299.873538 238.600333 314.027158 
" clip-path="url(#p8d5eaa440b)" style="fill: none; stroke: #000000; stroke-linecap: round"/>
    <path d="M 242.871329 315.353278 
L 238.600333 314.027158 
L 242.223827 311.406033 
z
" clip-path="url(#p8d5eaa440b)" style="stroke: #000000; stroke-linecap: round"/>
   </g>
   <g id="patch_8">
    <path d="M 45.764975 267.197196 
Q 149.115133 151.820418 251.719317 37.27642 
" clip-path="url(#p8d5eaa440b)" style="fill: none; stroke: #000000; stroke-linecap: round"/>
    <path d="M 247.560718 38.921429 
L 251.719317 37.27642 
L 250.540165 41.590304 
z
" clip-path="url(#p8d5eaa440b)" style="stroke: #000000; stroke-linecap: round"/>
   </g>
   <g id="PathCollection_1">
    <defs>
     <path id="m6ce321881d" d="M 0 8.660254 
C 2.296726 8.660254 4.499694 7.747755 6.123724 6.123724 
C 7.747755 4.499694 8.660254 2.296726 8.660254 0 
C 8.660254 -2.296726 7.747755 -4.499694 6.123724 -6.123724 
C 4.499694 -7.747755 2.296726 -8.660254 0 -8.660254 
C -2.296726 -8.660254 -4.499694 -7.747755 -6.123724 -6.123724 
C -7.747755 -4.499694 -8.660254 -2.296726 -8.660254 0 
C -8.660254 2.296726 -7.747755 4.499694 -6.123724 6.123724 
C -4.499694 7.747755 -2.296726 8.660254 0 8.660254 
z
" style="stroke: #1f78b4"/>
    </defs>
    <g clip-path="url(#p8d5eaa440b)">
     <use xlink:href="#m6ce321881d" x="228.951661" y="315.609917" style="fill: #1f78b4; stroke: #1f78b4"/>
     <use xlink:href="#m6ce321881d" x="258.246143" y="29.990083" style="fill: #1f78b4; stroke: #1f78b4"/>
     <use xlink:href="#m6ce321881d" x="420.813223" y="284.137125" style="fill: #1f78b4; stroke: #1f78b4"/>
     <use xlink:href="#m6ce321881d" x="39.986777" y="273.64779" style="fill: #1f78b4; stroke: #1f78b4"/>
    </g>
   </g>
  </g>
 </g>
 <defs>
  <clipPath id="p8d5eaa440b">
   <rect x="0" y="0" width="460.8" height="345.6"/>
  </clipPath>
 </defs>
</svg>
