<?xml version="1.0" encoding="utf-8" standalone="no"?>
<!DOCTYPE svg PUBLIC "-//W3C//DTD SVG 1.1//EN"
  "http://www.w3.org/Graphics/SVG/1.1/DTD/svg11.dtd">
<svg xmlns:xlink="http://www.w3.org/1999/xlink" width="460.8pt" height="345.6pt" viewBox="0 0 460.8 345.6" xmlns="http://www.w3.org/2000/svg" version="1.1">
 <metadata>
  <rdf:RDF xmlns:dc="http://purl.org/dc/elements/1.1/" xmlns:cc="http://creativecommons.org/ns#" xmlns:rdf="http://www.w3.org/1999/02/22-rdf-syntax-ns#">
   <cc:Work>
    <dc:type rdf:resource="http://purl.org/dc/dcmitype/StillImage"/>
    <dc:date>2023-04-25T12:20:17.462385</dc:date>
    <dc:format>image/svg+xml</dc:format>
    <dc:creator>
     <cc:Agent>
      <dc:title>Matplotlib v3.7.1, https://matplotlib.org/</dc:title>
     </cc:Agent>
    </dc:creator>
   </cc:Work>
  </rdf:RDF>
 </metadata>
 <defs>
  <style type="text/css">*{stroke-linejoin: round; stroke-linecap: butt}</style>
 </defs>
 <g id="figure_1">
  <g id="patch_1">
   <path d="M 0 345.6 
L 460.8 345.6 
L 460.8 0 
L 0 0 
z
" style="fill: #ffffff"/>
  </g>
  <g id="axes_1">
   <g id="patch_2">
    <path d="M 233.352057 128.284004 
Q 282.610409 218.149621 331.331365 307.034826 
" clip-path="url(#pce397d11ca)" style="fill: none; stroke: #000000; stroke-linecap: round"/>
    <path d="M 331.16253 302.565879 
L 331.331365 307.034826 
L 327.654906 304.488525 
z
" clip-path="url(#pce397d11ca)" style="stroke: #000000; stroke-linecap: round"/>
   </g>
   <g id="patch_3">
    <path d="M 237.713247 119.168046 
Q 325.001165 103.573385 411.188476 88.175357 
" clip-path="url(#pce397d11ca)" style="fill: none; stroke: #000000; stroke-linecap: round"/>
    <path d="M 406.899079 86.910023 
L 411.188476 88.175357 
L 407.602571 90.847674 
z
" clip-path="url(#pce397d11ca)" style="stroke: #000000; stroke-linecap: round"/>
   </g>
   <g id="patch_4">
    <path d="M 221.380599 116.947122 
Q 134.58774 75.340137 48.803058 34.216454 
" clip-path="url(#pce397d11ca)" style="fill: none; stroke: #000000; stroke-linecap: round"/>
    <path d="M 51.545462 37.749049 
L 48.803058 34.216454 
L 53.274576 34.142088 
z
" clip-path="url(#pce397d11ca)" style="stroke: #000000; stroke-linecap: round"/>
   </g>
   <g id="patch_5">
    <path d="M 331.869567 308.016709 
Q 282.611215 218.151092 233.890259 129.265887 
" clip-path="url(#pce397d11ca)" style="fill: none; stroke: #000000; stroke-linecap: round"/>
    <path d="M 234.059093 133.734834 
L 233.890259 129.265887 
L 237.566718 131.812188 
z
" clip-path="url(#pce397d11ca)" style="stroke: #000000; stroke-linecap: round"/>
   </g>
   <g id="patch_6">
    <path d="M 339.03684 307.487283 
Q 378.422046 201.033936 417.419306 95.629159 
" clip-path="url(#pce397d11ca)" style="fill: none; stroke: #000000; stroke-linecap: round"/>
    <path d="M 414.155611 98.686657 
L 417.419306 95.629159 
L 417.907088 100.074614 
z
" clip-path="url(#pce397d11ca)" style="stroke: #000000; stroke-linecap: round"/>
   </g>
   <g id="patch_7">
    <path d="M 417.808042 94.578456 
Q 378.422836 201.031803 339.425575 306.43658 
" clip-path="url(#pce397d11ca)" style="fill: none; stroke: #000000; stroke-linecap: round"/>
    <path d="M 342.689271 303.379082 
L 339.425575 306.43658 
L 338.937794 301.991125 
z
" clip-path="url(#pce397d11ca)" style="stroke: #000000; stroke-linecap: round"/>
   </g>
   <g id="patch_8">
    <path d="M 47.796143 33.733757 
Q 134.589002 75.340741 220.373684 116.464424 
" clip-path="url(#pce397d11ca)" style="fill: none; stroke: #000000; stroke-linecap: round"/>
    <path d="M 217.63128 112.93183 
L 220.373684 116.464424 
L 215.902166 116.53879 
z
" clip-path="url(#pce397d11ca)" style="stroke: #000000; stroke-linecap: round"/>
   </g>
   <g id="PathCollection_1">
    <defs>
     <path id="m1a9f2ee980" d="M 0 8.660254 
C 2.296726 8.660254 4.499694 7.747755 6.123724 6.123724 
C 7.747755 4.499694 8.660254 2.296726 8.660254 0 
C 8.660254 -2.296726 7.747755 -4.499694 6.123724 -6.123724 
C 4.499694 -7.747755 2.296726 -8.660254 0 -8.660254 
C -2.296726 -8.660254 -4.499694 -7.747755 -6.123724 -6.123724 
C -7.747755 -4.499694 -8.660254 -2.296726 -8.660254 0 
C -8.660254 2.296726 -7.747755 4.499694 -6.123724 6.123724 
C -4.499694 7.747755 -2.296726 8.660254 0 8.660254 
z
" style="stroke: #1f78b4"/>
    </defs>
    <g clip-path="url(#pce397d11ca)">
     <use xlink:href="#m1a9f2ee980" x="229.189965" y="120.690796" style="fill: #1f78b4; stroke: #1f78b4"/>
     <use xlink:href="#m1a9f2ee980" x="336.031659" y="315.609917" style="fill: #1f78b4; stroke: #1f78b4"/>
     <use xlink:href="#m1a9f2ee980" x="420.813223" y="86.455821" style="fill: #1f78b4; stroke: #1f78b4"/>
     <use xlink:href="#m1a9f2ee980" x="39.986777" y="29.990083" style="fill: #1f78b4; stroke: #1f78b4"/>
    </g>
   </g>
  </g>
 </g>
 <defs>
  <clipPath id="pce397d11ca">
   <rect x="0" y="0" width="460.8" height="345.6"/>
  </clipPath>
 </defs>
</svg>
