<?xml version="1.0" encoding="utf-8" standalone="no"?>
<!DOCTYPE svg PUBLIC "-//W3C//DTD SVG 1.1//EN"
  "http://www.w3.org/Graphics/SVG/1.1/DTD/svg11.dtd">
<svg xmlns:xlink="http://www.w3.org/1999/xlink" width="460.8pt" height="345.6pt" viewBox="0 0 460.8 345.6" xmlns="http://www.w3.org/2000/svg" version="1.1">
 <metadata>
  <rdf:RDF xmlns:dc="http://purl.org/dc/elements/1.1/" xmlns:cc="http://creativecommons.org/ns#" xmlns:rdf="http://www.w3.org/1999/02/22-rdf-syntax-ns#">
   <cc:Work>
    <dc:type rdf:resource="http://purl.org/dc/dcmitype/StillImage"/>
    <dc:date>2023-04-25T12:20:19.489259</dc:date>
    <dc:format>image/svg+xml</dc:format>
    <dc:creator>
     <cc:Agent>
      <dc:title>Matplotlib v3.7.1, https://matplotlib.org/</dc:title>
     </cc:Agent>
    </dc:creator>
   </cc:Work>
  </rdf:RDF>
 </metadata>
 <defs>
  <style type="text/css">*{stroke-linejoin: round; stroke-linecap: butt}</style>
 </defs>
 <g id="figure_1">
  <g id="patch_1">
   <path d="M 0 345.6 
L 460.8 345.6 
L 460.8 0 
L 0 0 
z
" style="fill: #ffffff"/>
  </g>
  <g id="axes_1">
   <g id="patch_2">
    <path d="M 293.653548 36.030208 
Q 354.129871 94.862467 413.804808 152.915124 
" clip-path="url(#pa882888e86)" style="fill: none; stroke: #000000; stroke-linecap: round"/>
    <path d="M 412.33227 148.692372 
L 413.804808 152.915124 
L 409.543084 151.559502 
z
" clip-path="url(#pa882888e86)" style="stroke: #000000; stroke-linecap: round"/>
   </g>
   <g id="patch_3">
    <path d="M 286.647747 38.614986 
Q 274.250023 172.799199 261.955159 305.87012 
" clip-path="url(#pa882888e86)" style="fill: none; stroke: #000000; stroke-linecap: round"/>
    <path d="M 264.314682 302.071087 
L 261.955159 305.87012 
L 260.331647 301.703081 
z
" clip-path="url(#pa882888e86)" style="stroke: #000000; stroke-linecap: round"/>
   </g>
   <g id="patch_4">
    <path d="M 279.722901 33.912142 
Q 163.715945 92.834967 48.70581 151.251482 
" clip-path="url(#pa882888e86)" style="fill: none; stroke: #000000; stroke-linecap: round"/>
    <path d="M 53.177857 151.223219 
L 48.70581 151.251482 
L 51.366428 147.656887 
z
" clip-path="url(#pa882888e86)" style="stroke: #000000; stroke-linecap: round"/>
   </g>
   <g id="patch_5">
    <path d="M 414.604306 153.692888 
Q 354.127983 94.860629 294.453046 36.807973 
" clip-path="url(#pa882888e86)" style="fill: none; stroke: #000000; stroke-linecap: round"/>
    <path d="M 295.925583 41.030725 
L 294.453046 36.807973 
L 298.71477 38.163594 
z
" clip-path="url(#pa882888e86)" style="stroke: #000000; stroke-linecap: round"/>
   </g>
   <g id="patch_6">
    <path d="M 414.614119 165.781521 
Q 340.933472 237.67222 268.053054 308.782129 
" clip-path="url(#pa882888e86)" style="fill: none; stroke: #000000; stroke-linecap: round"/>
    <path d="M 272.312762 307.420186 
L 268.053054 308.782129 
L 269.519325 304.557197 
z
" clip-path="url(#pa882888e86)" style="stroke: #000000; stroke-linecap: round"/>
   </g>
   <g id="patch_7">
    <path d="M 412.152002 159.640837 
Q 230.398047 157.706534 49.762064 155.784129 
" clip-path="url(#pa882888e86)" style="fill: none; stroke: #000000; stroke-linecap: round"/>
    <path d="M 53.740554 157.826583 
L 49.762064 155.784129 
L 53.783121 153.826809 
z
" clip-path="url(#pa882888e86)" style="stroke: #000000; stroke-linecap: round"/>
   </g>
   <g id="patch_8">
    <path d="M 261.85215 306.985014 
Q 274.249875 172.800801 286.544739 39.72988 
" clip-path="url(#pa882888e86)" style="fill: none; stroke: #000000; stroke-linecap: round"/>
    <path d="M 284.185215 43.528913 
L 286.544739 39.72988 
L 288.16825 43.896919 
z
" clip-path="url(#pa882888e86)" style="stroke: #000000; stroke-linecap: round"/>
   </g>
   <g id="patch_9">
    <path d="M 254.035559 310.531579 
Q 150.52062 235.644716 47.911523 161.413175 
" clip-path="url(#pa882888e86)" style="fill: none; stroke: #000000; stroke-linecap: round"/>
    <path d="M 49.980088 165.378152 
L 47.911523 161.413175 
L 52.324643 162.13731 
z
" clip-path="url(#pa882888e86)" style="stroke: #000000; stroke-linecap: round"/>
   </g>
   <g id="PathCollection_1">
    <defs>
     <path id="mf18e3daff2" d="M 0 8.660254 
C 2.296726 8.660254 4.499694 7.747755 6.123724 6.123724 
C 7.747755 4.499694 8.660254 2.296726 8.660254 0 
C 8.660254 -2.296726 7.747755 -4.499694 6.123724 -6.123724 
C 4.499694 -7.747755 2.296726 -8.660254 0 -8.660254 
C -2.296726 -8.660254 -4.499694 -7.747755 -6.123724 -6.123724 
C -7.747755 -4.499694 -8.660254 -2.296726 -8.660254 0 
C -8.660254 2.296726 -7.747755 4.499694 -6.123724 6.123724 
C -4.499694 7.747755 -2.296726 8.660254 0 8.660254 
z
" style="stroke: #1f78b4"/>
    </defs>
    <g clip-path="url(#pa882888e86)">
     <use xlink:href="#mf18e3daff2" x="287.444631" y="29.990083" style="fill: #1f78b4; stroke: #1f78b4"/>
     <use xlink:href="#mf18e3daff2" x="420.813223" y="159.733013" style="fill: #1f78b4; stroke: #1f78b4"/>
     <use xlink:href="#mf18e3daff2" x="261.055267" y="315.609917" style="fill: #1f78b4; stroke: #1f78b4"/>
     <use xlink:href="#mf18e3daff2" x="39.986777" y="155.680096" style="fill: #1f78b4; stroke: #1f78b4"/>
    </g>
   </g>
  </g>
 </g>
 <defs>
  <clipPath id="pa882888e86">
   <rect x="0" y="0" width="460.8" height="345.6"/>
  </clipPath>
 </defs>
</svg>
