<?xml version="1.0" encoding="utf-8" standalone="no"?>
<!DOCTYPE svg PUBLIC "-//W3C//DTD SVG 1.1//EN"
  "http://www.w3.org/Graphics/SVG/1.1/DTD/svg11.dtd">
<svg xmlns:xlink="http://www.w3.org/1999/xlink" width="460.8pt" height="345.6pt" viewBox="0 0 460.8 345.6" xmlns="http://www.w3.org/2000/svg" version="1.1">
 <metadata>
  <rdf:RDF xmlns:dc="http://purl.org/dc/elements/1.1/" xmlns:cc="http://creativecommons.org/ns#" xmlns:rdf="http://www.w3.org/1999/02/22-rdf-syntax-ns#">
   <cc:Work>
    <dc:type rdf:resource="http://purl.org/dc/dcmitype/StillImage"/>
    <dc:date>2023-04-25T12:20:20.262142</dc:date>
    <dc:format>image/svg+xml</dc:format>
    <dc:creator>
     <cc:Agent>
      <dc:title>Matplotlib v3.7.1, https://matplotlib.org/</dc:title>
     </cc:Agent>
    </dc:creator>
   </cc:Work>
  </rdf:RDF>
 </metadata>
 <defs>
  <style type="text/css">*{stroke-linejoin: round; stroke-linecap: butt}</style>
 </defs>
 <g id="figure_1">
  <g id="patch_1">
   <path d="M 0 345.6 
L 460.8 345.6 
L 460.8 0 
L 0 0 
z
" style="fill: #ffffff"/>
  </g>
  <g id="axes_1">
   <g id="patch_2">
    <path d="M 249.309567 280.778236 
Q 331.490583 224.353932 412.749899 168.562454 
" clip-path="url(#p2df06beb13)" style="fill: none; stroke: #000000; stroke-linecap: round"/>
    <path d="M 408.320291 169.177734 
L 412.749899 168.562454 
L 410.584358 172.475309 
z
" clip-path="url(#p2df06beb13)" style="stroke: #000000; stroke-linecap: round"/>
   </g>
   <g id="patch_3">
    <path d="M 239.2856 277.513938 
Q 197.003678 157.832966 155.094186 39.206175 
" clip-path="url(#p2df06beb13)" style="fill: none; stroke: #000000; stroke-linecap: round"/>
    <path d="M 154.540857 43.643947 
L 155.094186 39.206175 
L 158.312406 42.311502 
z
" clip-path="url(#p2df06beb13)" style="stroke: #000000; stroke-linecap: round"/>
   </g>
   <g id="patch_4">
    <path d="M 233.603246 286.948059 
Q 141.077346 300.645056 49.657427 314.17833 
" clip-path="url(#p2df06beb13)" style="fill: none; stroke: #000000; stroke-linecap: round"/>
    <path d="M 53.907183 315.571017 
L 49.657427 314.17833 
L 53.32143 311.614137 
z
" clip-path="url(#p2df06beb13)" style="stroke: #000000; stroke-linecap: round"/>
   </g>
   <g id="patch_5">
    <path d="M 413.674166 167.927866 
Q 331.49315 224.35217 250.233834 280.143648 
" clip-path="url(#p2df06beb13)" style="fill: none; stroke: #000000; stroke-linecap: round"/>
    <path d="M 254.663442 279.528368 
L 250.233834 280.143648 
L 252.399375 276.230793 
z
" clip-path="url(#p2df06beb13)" style="stroke: #000000; stroke-linecap: round"/>
   </g>
   <g id="patch_6">
    <path d="M 413.05212 159.187615 
Q 286.325366 96.508005 160.600766 34.324064 
" clip-path="url(#p2df06beb13)" style="fill: none; stroke: #000000; stroke-linecap: round"/>
    <path d="M 163.299499 37.890132 
L 160.600766 34.324064 
L 165.07286 34.304718 
z
" clip-path="url(#p2df06beb13)" style="stroke: #000000; stroke-linecap: round"/>
   </g>
   <g id="patch_7">
    <path d="M 159.599349 33.828759 
Q 286.326103 96.508369 412.050703 158.69231 
" clip-path="url(#p2df06beb13)" style="fill: none; stroke: #000000; stroke-linecap: round"/>
    <path d="M 409.35197 155.126242 
L 412.050703 158.69231 
L 407.578608 158.711656 
z
" clip-path="url(#p2df06beb13)" style="stroke: #000000; stroke-linecap: round"/>
   </g>
   <g id="patch_8">
    <path d="M 148.679111 38.057135 
Q 95.912678 172.799575 43.553931 306.500962 
" clip-path="url(#p2df06beb13)" style="fill: none; stroke: #000000; stroke-linecap: round"/>
    <path d="M 46.874807 303.505668 
L 43.553931 306.500962 
L 43.150222 302.047085 
z
" clip-path="url(#p2df06beb13)" style="stroke: #000000; stroke-linecap: round"/>
   </g>
   <g id="patch_9">
    <path d="M 48.026227 312.388795 
Q 230.399534 239.318291 411.735011 166.663608 
" clip-path="url(#p2df06beb13)" style="fill: none; stroke: #000000; stroke-linecap: round"/>
    <path d="M 407.278111 166.29477 
L 411.735011 166.663608 
L 408.765801 170.007825 
z
" clip-path="url(#p2df06beb13)" style="stroke: #000000; stroke-linecap: round"/>
   </g>
   <g id="PathCollection_1">
    <defs>
     <path id="mb40463e369" d="M 0 8.660254 
C 2.296726 8.660254 4.499694 7.747755 6.123724 6.123724 
C 7.747755 4.499694 8.660254 2.296726 8.660254 0 
C 8.660254 -2.296726 7.747755 -4.499694 6.123724 -6.123724 
C 4.499694 -7.747755 2.296726 -8.660254 0 -8.660254 
C -2.296726 -8.660254 -4.499694 -7.747755 -6.123724 -6.123724 
C -7.747755 -4.499694 -8.660254 -2.296726 -8.660254 0 
C -8.660254 2.296726 -7.747755 4.499694 -6.123724 6.123724 
C -4.499694 7.747755 -2.296726 8.660254 0 8.660254 
z
" style="stroke: #1f78b4"/>
    </defs>
    <g clip-path="url(#p2df06beb13)">
     <use xlink:href="#mb40463e369" x="242.17051" y="285.679811" style="fill: #1f78b4; stroke: #1f78b4"/>
     <use xlink:href="#mb40463e369" x="420.813223" y="163.026291" style="fill: #1f78b4; stroke: #1f78b4"/>
     <use xlink:href="#mb40463e369" x="151.838246" y="29.990083" style="fill: #1f78b4; stroke: #1f78b4"/>
     <use xlink:href="#mb40463e369" x="39.986777" y="315.609917" style="fill: #1f78b4; stroke: #1f78b4"/>
    </g>
   </g>
  </g>
 </g>
 <defs>
  <clipPath id="p2df06beb13">
   <rect x="0" y="0" width="460.8" height="345.6"/>
  </clipPath>
 </defs>
</svg>
