<?xml version="1.0" encoding="utf-8" standalone="no"?>
<!DOCTYPE svg PUBLIC "-//W3C//DTD SVG 1.1//EN"
  "http://www.w3.org/Graphics/SVG/1.1/DTD/svg11.dtd">
<svg xmlns:xlink="http://www.w3.org/1999/xlink" width="460.8pt" height="345.6pt" viewBox="0 0 460.8 345.6" xmlns="http://www.w3.org/2000/svg" version="1.1">
 <metadata>
  <rdf:RDF xmlns:dc="http://purl.org/dc/elements/1.1/" xmlns:cc="http://creativecommons.org/ns#" xmlns:rdf="http://www.w3.org/1999/02/22-rdf-syntax-ns#">
   <cc:Work>
    <dc:type rdf:resource="http://purl.org/dc/dcmitype/StillImage"/>
    <dc:date>2023-04-25T12:20:20.320805</dc:date>
    <dc:format>image/svg+xml</dc:format>
    <dc:creator>
     <cc:Agent>
      <dc:title>Matplotlib v3.7.1, https://matplotlib.org/</dc:title>
     </cc:Agent>
    </dc:creator>
   </cc:Work>
  </rdf:RDF>
 </metadata>
 <defs>
  <style type="text/css">*{stroke-linejoin: round; stroke-linecap: butt}</style>
 </defs>
 <g id="figure_1">
  <g id="patch_1">
   <path d="M 0 345.6 
L 460.8 345.6 
L 460.8 0 
L 0 0 
z
" style="fill: #ffffff"/>
  </g>
  <g id="axes_1">
   <g id="patch_2">
    <path d="M 48.001053 215.983777 
Q 165.579963 264.155819 282.124301 311.903997 
" clip-path="url(#pc550d4187a)" style="fill: none; stroke: #000000; stroke-linecap: round"/>
    <path d="M 279.181134 308.536837 
L 282.124301 311.903997 
L 277.664673 312.238235 
z
" clip-path="url(#pc550d4187a)" style="stroke: #000000; stroke-linecap: round"/>
   </g>
   <g id="patch_3">
    <path d="M 48.572456 211.577453 
Q 230.400222 187.797115 411.119396 164.161764 
" clip-path="url(#pc550d4187a)" style="fill: none; stroke: #000000; stroke-linecap: round"/>
    <path d="M 406.893811 162.697374 
L 411.119396 164.161764 
L 407.412534 166.663598 
z
" clip-path="url(#pc550d4187a)" style="stroke: #000000; stroke-linecap: round"/>
   </g>
   <g id="patch_4">
    <path d="M 45.061613 205.683093 
Q 106.054928 121.344497 166.393064 37.911848 
" clip-path="url(#pc550d4187a)" style="fill: none; stroke: #000000; stroke-linecap: round"/>
    <path d="M 162.428419 39.981049 
L 166.393064 37.911848 
L 165.669638 42.325084 
z
" clip-path="url(#pc550d4187a)" style="stroke: #000000; stroke-linecap: round"/>
   </g>
   <g id="patch_5">
    <path d="M 283.15548 312.326471 
Q 165.57657 264.154429 49.032232 216.406251 
" clip-path="url(#pc550d4187a)" style="fill: none; stroke: #000000; stroke-linecap: round"/>
    <path d="M 51.975399 219.773411 
L 49.032232 216.406251 
L 53.49186 216.072014 
z
" clip-path="url(#pc550d4187a)" style="stroke: #000000; stroke-linecap: round"/>
   </g>
   <g id="patch_6">
    <path d="M 296.774003 309.008289 
Q 355.991488 239.251939 414.485415 170.347917 
" clip-path="url(#pc550d4187a)" style="fill: none; stroke: #000000; stroke-linecap: round"/>
    <path d="M 410.372044 172.102961 
L 414.485415 170.347917 
L 413.421428 174.69164 
z
" clip-path="url(#pc550d4187a)" style="stroke: #000000; stroke-linecap: round"/>
   </g>
   <g id="patch_7">
    <path d="M 415.208976 169.495585 
Q 355.991491 239.251935 297.497564 308.155957 
" clip-path="url(#pc550d4187a)" style="fill: none; stroke: #000000; stroke-linecap: round"/>
    <path d="M 301.610935 306.400913 
L 297.497564 308.155957 
L 298.561552 303.812234 
z
" clip-path="url(#pc550d4187a)" style="stroke: #000000; stroke-linecap: round"/>
   </g>
   <g id="patch_8">
    <path d="M 413.174439 158.811689 
Q 296.468022 96.442226 180.747663 34.599725 
" clip-path="url(#pc550d4187a)" style="fill: none; stroke: #000000; stroke-linecap: round"/>
    <path d="M 183.332832 38.248957 
L 180.747663 34.599725 
L 185.218151 34.721129 
z
" clip-path="url(#pc550d4187a)" style="stroke: #000000; stroke-linecap: round"/>
   </g>
   <g id="patch_9">
    <path d="M 179.760835 34.07235 
Q 296.467252 96.441814 412.187611 158.284315 
" clip-path="url(#pc550d4187a)" style="fill: none; stroke: #000000; stroke-linecap: round"/>
    <path d="M 409.602442 154.635082 
L 412.187611 158.284315 
L 407.717123 158.16291 
z
" clip-path="url(#pc550d4187a)" style="stroke: #000000; stroke-linecap: round"/>
   </g>
   <g id="PathCollection_1">
    <defs>
     <path id="mfffc06ad7e" d="M 0 8.660254 
C 2.296726 8.660254 4.499694 7.747755 6.123724 6.123724 
C 7.747755 4.499694 8.660254 2.296726 8.660254 0 
C 8.660254 -2.296726 7.747755 -4.499694 6.123724 -6.123724 
C 4.499694 -7.747755 2.296726 -8.660254 0 -8.660254 
C -2.296726 -8.660254 -4.499694 -7.747755 -6.123724 -6.123724 
C -7.747755 -4.499694 -8.660254 -2.296726 -8.660254 0 
C -8.660254 2.296726 -7.747755 4.499694 -6.123724 6.123724 
C -4.499694 7.747755 -2.296726 8.660254 0 8.660254 
z
" style="stroke: #1f78b4"/>
    </defs>
    <g clip-path="url(#pc550d4187a)">
     <use xlink:href="#mfffc06ad7e" x="39.986777" y="212.700331" style="fill: #1f78b4; stroke: #1f78b4"/>
     <use xlink:href="#mfffc06ad7e" x="291.169756" y="315.609917" style="fill: #1f78b4; stroke: #1f78b4"/>
     <use xlink:href="#mfffc06ad7e" x="420.813223" y="162.893957" style="fill: #1f78b4; stroke: #1f78b4"/>
     <use xlink:href="#mfffc06ad7e" x="172.122051" y="29.990083" style="fill: #1f78b4; stroke: #1f78b4"/>
    </g>
   </g>
  </g>
 </g>
 <defs>
  <clipPath id="pc550d4187a">
   <rect x="0" y="0" width="460.8" height="345.6"/>
  </clipPath>
 </defs>
</svg>
