<?xml version="1.0" encoding="utf-8" standalone="no"?>
<!DOCTYPE svg PUBLIC "-//W3C//DTD SVG 1.1//EN"
  "http://www.w3.org/Graphics/SVG/1.1/DTD/svg11.dtd">
<svg xmlns:xlink="http://www.w3.org/1999/xlink" width="460.8pt" height="345.6pt" viewBox="0 0 460.8 345.6" xmlns="http://www.w3.org/2000/svg" version="1.1">
 <metadata>
  <rdf:RDF xmlns:dc="http://purl.org/dc/elements/1.1/" xmlns:cc="http://creativecommons.org/ns#" xmlns:rdf="http://www.w3.org/1999/02/22-rdf-syntax-ns#">
   <cc:Work>
    <dc:type rdf:resource="http://purl.org/dc/dcmitype/StillImage"/>
    <dc:date>2023-04-25T12:20:20.438142</dc:date>
    <dc:format>image/svg+xml</dc:format>
    <dc:creator>
     <cc:Agent>
      <dc:title>Matplotlib v3.7.1, https://matplotlib.org/</dc:title>
     </cc:Agent>
    </dc:creator>
   </cc:Work>
  </rdf:RDF>
 </metadata>
 <defs>
  <style type="text/css">*{stroke-linejoin: round; stroke-linecap: butt}</style>
 </defs>
 <g id="figure_1">
  <g id="patch_1">
   <path d="M 0 345.6 
L 460.8 345.6 
L 460.8 0 
L 0 0 
z
" style="fill: #ffffff"/>
  </g>
  <g id="axes_1">
   <g id="patch_2">
    <path d="M 279.647742 184.136159 
Q 347.060851 246.921017 413.655803 308.943891 
" clip-path="url(#p0bb3d9fb8a)" style="fill: none; stroke: #000000; stroke-linecap: round"/>
    <path d="M 412.091761 304.754168 
L 413.655803 308.943891 
L 409.3656 307.681291 
z
" clip-path="url(#p0bb3d9fb8a)" style="stroke: #000000; stroke-linecap: round"/>
   </g>
   <g id="patch_3">
    <path d="M 264.664178 178.676929 
Q 156.650284 184.19115 49.75297 189.64837 
" clip-path="url(#p0bb3d9fb8a)" style="fill: none; stroke: #000000; stroke-linecap: round"/>
    <path d="M 53.849738 191.44183 
L 49.75297 189.64837 
L 53.645799 187.447032 
z
" clip-path="url(#p0bb3d9fb8a)" style="stroke: #000000; stroke-linecap: round"/>
   </g>
   <g id="patch_4">
    <path d="M 278.10998 171.026309 
Q 322.64246 104.113942 366.555496 38.132322 
" clip-path="url(#p0bb3d9fb8a)" style="fill: none; stroke: #000000; stroke-linecap: round"/>
    <path d="M 362.674336 40.354168 
L 366.555496 38.132322 
L 366.004276 42.570357 
z
" clip-path="url(#p0bb3d9fb8a)" style="stroke: #000000; stroke-linecap: round"/>
   </g>
   <g id="patch_5">
    <path d="M 414.477533 309.709204 
Q 347.064424 246.924346 280.469472 184.901472 
" clip-path="url(#p0bb3d9fb8a)" style="fill: none; stroke: #000000; stroke-linecap: round"/>
    <path d="M 282.033514 189.091195 
L 280.469472 184.901472 
L 284.759675 186.164072 
z
" clip-path="url(#p0bb3d9fb8a)" style="stroke: #000000; stroke-linecap: round"/>
   </g>
   <g id="patch_6">
    <path d="M 412.587823 312.900066 
Q 230.399295 252.878198 49.272658 193.20617 
" clip-path="url(#p0bb3d9fb8a)" style="fill: none; stroke: #000000; stroke-linecap: round"/>
    <path d="M 52.445983 196.357361 
L 49.272658 193.20617 
L 53.697606 192.558225 
z
" clip-path="url(#p0bb3d9fb8a)" style="stroke: #000000; stroke-linecap: round"/>
   </g>
   <g id="patch_7">
    <path d="M 48.212177 192.856796 
Q 230.400705 252.878663 411.527342 312.550691 
" clip-path="url(#p0bb3d9fb8a)" style="fill: none; stroke: #000000; stroke-linecap: round"/>
    <path d="M 408.354017 309.3995 
L 411.527342 312.550691 
L 407.102394 313.198637 
z
" clip-path="url(#p0bb3d9fb8a)" style="stroke: #000000; stroke-linecap: round"/>
   </g>
   <g id="patch_8">
    <path d="M 373.434323 38.527822 
Q 396.393961 172.800767 419.165158 305.971673 
" clip-path="url(#p0bb3d9fb8a)" style="fill: none; stroke: #000000; stroke-linecap: round"/>
    <path d="M 420.462361 301.691806 
L 419.165158 305.971673 
L 416.519586 302.36599 
z
" clip-path="url(#p0bb3d9fb8a)" style="stroke: #000000; stroke-linecap: round"/>
   </g>
   <g id="patch_9">
    <path d="M 364.175745 33.752312 
Q 205.980522 110.068554 48.79228 185.89901 
" clip-path="url(#p0bb3d9fb8a)" style="fill: none; stroke: #000000; stroke-linecap: round"/>
    <path d="M 53.263967 185.962352 
L 48.79228 185.89901 
L 51.525966 182.359665 
z
" clip-path="url(#p0bb3d9fb8a)" style="stroke: #000000; stroke-linecap: round"/>
   </g>
   <g id="PathCollection_1">
    <defs>
     <path id="m1ba9e45518" d="M 0 8.660254 
C 2.296726 8.660254 4.499694 7.747755 6.123724 6.123724 
C 7.747755 4.499694 8.660254 2.296726 8.660254 0 
C 8.660254 -2.296726 7.747755 -4.499694 6.123724 -6.123724 
C 4.499694 -7.747755 2.296726 -8.660254 0 -8.660254 
C -2.296726 -8.660254 -4.499694 -7.747755 -6.123724 -6.123724 
C -7.747755 -4.499694 -8.660254 -2.296726 -8.660254 0 
C -8.660254 2.296726 -7.747755 4.499694 -6.123724 6.123724 
C -4.499694 7.747755 -2.296726 8.660254 0 8.660254 
z
" style="stroke: #1f78b4"/>
    </defs>
    <g clip-path="url(#p0bb3d9fb8a)">
     <use xlink:href="#m1ba9e45518" x="273.312052" y="178.235446" style="fill: #1f78b4; stroke: #1f78b4"/>
     <use xlink:href="#m1ba9e45518" x="420.813223" y="315.609917" style="fill: #1f78b4; stroke: #1f78b4"/>
     <use xlink:href="#m1ba9e45518" x="39.986777" y="190.146944" style="fill: #1f78b4; stroke: #1f78b4"/>
     <use xlink:href="#m1ba9e45518" x="371.974436" y="29.990083" style="fill: #1f78b4; stroke: #1f78b4"/>
    </g>
   </g>
  </g>
 </g>
 <defs>
  <clipPath id="p0bb3d9fb8a">
   <rect x="0" y="0" width="460.8" height="345.6"/>
  </clipPath>
 </defs>
</svg>
