<?xml version="1.0" encoding="utf-8" standalone="no"?>
<!DOCTYPE svg PUBLIC "-//W3C//DTD SVG 1.1//EN"
  "http://www.w3.org/Graphics/SVG/1.1/DTD/svg11.dtd">
<svg xmlns:xlink="http://www.w3.org/1999/xlink" width="460.8pt" height="345.6pt" viewBox="0 0 460.8 345.6" xmlns="http://www.w3.org/2000/svg" version="1.1">
 <metadata>
  <rdf:RDF xmlns:dc="http://purl.org/dc/elements/1.1/" xmlns:cc="http://creativecommons.org/ns#" xmlns:rdf="http://www.w3.org/1999/02/22-rdf-syntax-ns#">
   <cc:Work>
    <dc:type rdf:resource="http://purl.org/dc/dcmitype/StillImage"/>
    <dc:date>2023-04-25T12:20:20.685648</dc:date>
    <dc:format>image/svg+xml</dc:format>
    <dc:creator>
     <cc:Agent>
      <dc:title>Matplotlib v3.7.1, https://matplotlib.org/</dc:title>
     </cc:Agent>
    </dc:creator>
   </cc:Work>
  </rdf:RDF>
 </metadata>
 <defs>
  <style type="text/css">*{stroke-linejoin: round; stroke-linecap: butt}</style>
 </defs>
 <g id="figure_1">
  <g id="patch_1">
   <path d="M 0 345.6 
L 460.8 345.6 
L 460.8 0 
L 0 0 
z
" style="fill: #ffffff"/>
  </g>
  <g id="axes_1">
   <g id="patch_2">
    <path d="M 209.463014 173.752137 
Q 271.203681 105.090269 332.19679 37.25976 
" clip-path="url(#p084922fdf4)" style="fill: none; stroke: #000000; stroke-linecap: round"/>
    <path d="M 328.035068 38.896851 
L 332.19679 37.25976 
L 331.009429 41.571393 
z
" clip-path="url(#p084922fdf4)" style="stroke: #000000; stroke-linecap: round"/>
   </g>
   <g id="patch_3">
    <path d="M 212.026878 182.471704 
Q 312.241838 209.847165 411.378281 236.928009 
" clip-path="url(#p084922fdf4)" style="fill: none; stroke: #000000; stroke-linecap: round"/>
    <path d="M 408.046683 233.944647 
L 411.378281 236.928009 
L 406.992632 237.803271 
z
" clip-path="url(#p084922fdf4)" style="stroke: #000000; stroke-linecap: round"/>
   </g>
   <g id="patch_4">
    <path d="M 332.94476 36.427942 
Q 271.204093 105.08981 210.210984 172.920319 
" clip-path="url(#p084922fdf4)" style="fill: none; stroke: #000000; stroke-linecap: round"/>
    <path d="M 214.372706 171.283229 
L 210.210984 172.920319 
L 211.398345 168.608687 
z
" clip-path="url(#p084922fdf4)" style="stroke: #000000; stroke-linecap: round"/>
   </g>
   <g id="patch_5">
    <path d="M 341.893568 38.055985 
Q 379.774063 134.749272 417.246737 230.401559 
" clip-path="url(#p084922fdf4)" style="fill: none; stroke: #000000; stroke-linecap: round"/>
    <path d="M 417.649868 225.94763 
L 417.246737 230.401559 
L 413.925472 227.406696 
z
" clip-path="url(#p084922fdf4)" style="stroke: #000000; stroke-linecap: round"/>
   </g>
   <g id="patch_6">
    <path d="M 412.460444 237.223621 
Q 312.245483 209.84816 213.10904 182.767315 
" clip-path="url(#p084922fdf4)" style="fill: none; stroke: #000000; stroke-linecap: round"/>
    <path d="M 216.440639 185.750678 
L 213.10904 182.767315 
L 217.494689 181.892054 
z
" clip-path="url(#p084922fdf4)" style="stroke: #000000; stroke-linecap: round"/>
   </g>
   <g id="patch_7">
    <path d="M 417.653331 231.439426 
Q 379.772836 134.746139 342.300162 39.093852 
" clip-path="url(#p084922fdf4)" style="fill: none; stroke: #000000; stroke-linecap: round"/>
    <path d="M 341.897031 43.547781 
L 342.300162 39.093852 
L 345.621427 42.088714 
z
" clip-path="url(#p084922fdf4)" style="stroke: #000000; stroke-linecap: round"/>
   </g>
   <g id="patch_8">
    <path d="M 46.658054 310.090713 
Q 121.829821 247.900467 196.140143 186.422903 
" clip-path="url(#p084922fdf4)" style="fill: none; stroke: #000000; stroke-linecap: round"/>
    <path d="M 191.783264 187.431667 
L 196.140143 186.422903 
L 194.333027 190.513664 
z
" clip-path="url(#p084922fdf4)" style="stroke: #000000; stroke-linecap: round"/>
   </g>
   <g id="patch_9">
    <path d="M 46.247898 309.623912 
Q 189.361123 172.799142 331.666223 36.746988 
" clip-path="url(#p084922fdf4)" style="fill: none; stroke: #000000; stroke-linecap: round"/>
    <path d="M 327.392892 38.065564 
L 331.666223 36.746988 
L 330.157085 40.956798 
z
" clip-path="url(#p084922fdf4)" style="stroke: #000000; stroke-linecap: round"/>
   </g>
   <g id="PathCollection_1">
    <defs>
     <path id="m1455e47c3e" d="M 0 8.660254 
C 2.296726 8.660254 4.499694 7.747755 6.123724 6.123724 
C 7.747755 4.499694 8.660254 2.296726 8.660254 0 
C 8.660254 -2.296726 7.747755 -4.499694 6.123724 -6.123724 
C 4.499694 -7.747755 2.296726 -8.660254 0 -8.660254 
C -2.296726 -8.660254 -4.499694 -7.747755 -6.123724 -6.123724 
C -7.747755 -4.499694 -8.660254 -2.296726 -8.660254 0 
C -8.660254 2.296726 -7.747755 4.499694 -6.123724 6.123724 
C -4.499694 7.747755 -2.296726 8.660254 0 8.660254 
z
" style="stroke: #1f78b4"/>
    </defs>
    <g clip-path="url(#p084922fdf4)">
     <use xlink:href="#m1455e47c3e" x="203.674098" y="180.189997" style="fill: #1f78b4; stroke: #1f78b4"/>
     <use xlink:href="#m1455e47c3e" x="338.733676" y="29.990083" style="fill: #1f78b4; stroke: #1f78b4"/>
     <use xlink:href="#m1455e47c3e" x="420.813223" y="239.505328" style="fill: #1f78b4; stroke: #1f78b4"/>
     <use xlink:href="#m1455e47c3e" x="39.986777" y="315.609917" style="fill: #1f78b4; stroke: #1f78b4"/>
    </g>
   </g>
  </g>
 </g>
 <defs>
  <clipPath id="p084922fdf4">
   <rect x="0" y="0" width="460.8" height="345.6"/>
  </clipPath>
 </defs>
</svg>
