<?xml version="1.0" encoding="utf-8" standalone="no"?>
<!DOCTYPE svg PUBLIC "-//W3C//DTD SVG 1.1//EN"
  "http://www.w3.org/Graphics/SVG/1.1/DTD/svg11.dtd">
<svg xmlns:xlink="http://www.w3.org/1999/xlink" width="460.8pt" height="345.6pt" viewBox="0 0 460.8 345.6" xmlns="http://www.w3.org/2000/svg" version="1.1">
 <metadata>
  <rdf:RDF xmlns:dc="http://purl.org/dc/elements/1.1/" xmlns:cc="http://creativecommons.org/ns#" xmlns:rdf="http://www.w3.org/1999/02/22-rdf-syntax-ns#">
   <cc:Work>
    <dc:type rdf:resource="http://purl.org/dc/dcmitype/StillImage"/>
    <dc:date>2023-04-25T12:20:20.814595</dc:date>
    <dc:format>image/svg+xml</dc:format>
    <dc:creator>
     <cc:Agent>
      <dc:title>Matplotlib v3.7.1, https://matplotlib.org/</dc:title>
     </cc:Agent>
    </dc:creator>
   </cc:Work>
  </rdf:RDF>
 </metadata>
 <defs>
  <style type="text/css">*{stroke-linejoin: round; stroke-linecap: butt}</style>
 </defs>
 <g id="figure_1">
  <g id="patch_1">
   <path d="M 0 345.6 
L 460.8 345.6 
L 460.8 0 
L 0 0 
z
" style="fill: #ffffff"/>
  </g>
  <g id="axes_1">
   <g id="patch_2">
    <path d="M 49.917476 146.076943 
Q 45.205409 226.51948 40.558722 305.845897 
" clip-path="url(#p2c1c7642fe)" style="fill: none; stroke: #000000; stroke-linecap: round"/>
    <path d="M 42.789206 301.969695 
L 40.558722 305.845897 
L 38.796051 301.735789 
z
" clip-path="url(#p2c1c7642fe)" style="stroke: #000000; stroke-linecap: round"/>
   </g>
   <g id="patch_3">
    <path d="M 58.919187 139.102864 
Q 230.079454 172.725128 400.142653 206.131887 
" clip-path="url(#p2c1c7642fe)" style="fill: none; stroke: #000000; stroke-linecap: round"/>
    <path d="M 396.603171 203.398378 
L 400.142653 206.131887 
L 395.832157 207.323367 
z
" clip-path="url(#p2c1c7642fe)" style="stroke: #000000; stroke-linecap: round"/>
   </g>
   <g id="patch_4">
    <path d="M 40.49305 306.967017 
Q 45.205117 226.52448 49.851804 147.198063 
" clip-path="url(#p2c1c7642fe)" style="fill: none; stroke: #000000; stroke-linecap: round"/>
    <path d="M 47.62132 151.074265 
L 49.851804 147.198063 
L 51.614476 151.308171 
z
" clip-path="url(#p2c1c7642fe)" style="stroke: #000000; stroke-linecap: round"/>
   </g>
   <g id="patch_5">
    <path d="M 48.300192 313.190811 
Q 224.861947 261.813403 400.350193 210.748373 
" clip-path="url(#p2c1c7642fe)" style="fill: none; stroke: #000000; stroke-linecap: round"/>
    <path d="M 395.950694 209.945622 
L 400.350193 210.748373 
L 397.068293 213.786322 
z
" clip-path="url(#p2c1c7642fe)" style="stroke: #000000; stroke-linecap: round"/>
   </g>
   <g id="patch_6">
    <path d="M 401.242276 206.347893 
Q 230.082008 172.725629 60.018809 139.31887 
" clip-path="url(#p2c1c7642fe)" style="fill: none; stroke: #000000; stroke-linecap: round"/>
    <path d="M 63.558291 142.052379 
L 60.018809 139.31887 
L 64.329305 138.12739 
z
" clip-path="url(#p2c1c7642fe)" style="stroke: #000000; stroke-linecap: round"/>
   </g>
   <g id="patch_7">
    <path d="M 410.275298 199.375621 
Q 415.275329 119.005626 420.205939 39.751507 
" clip-path="url(#p2c1c7642fe)" style="fill: none; stroke: #000000; stroke-linecap: round"/>
    <path d="M 417.961428 43.619603 
L 420.205939 39.751507 
L 421.953709 43.867974 
z
" clip-path="url(#p2c1c7642fe)" style="stroke: #000000; stroke-linecap: round"/>
   </g>
   <g id="patch_8">
    <path d="M 412.496754 32.402555 
Q 235.619042 83.711902 59.815097 134.709765 
" clip-path="url(#p2c1c7642fe)" style="fill: none; stroke: #000000; stroke-linecap: round"/>
    <path d="M 64.213925 135.516186 
L 59.815097 134.709765 
L 63.099531 131.674556 
z
" clip-path="url(#p2c1c7642fe)" style="stroke: #000000; stroke-linecap: round"/>
   </g>
   <g id="patch_9">
    <path d="M 420.275638 38.631176 
Q 415.275607 119.001171 410.344997 198.25529 
" clip-path="url(#p2c1c7642fe)" style="fill: none; stroke: #000000; stroke-linecap: round"/>
    <path d="M 412.589508 194.387194 
L 410.344997 198.25529 
L 408.597227 194.138823 
z
" clip-path="url(#p2c1c7642fe)" style="stroke: #000000; stroke-linecap: round"/>
   </g>
   <g id="PathCollection_1">
    <defs>
     <path id="mf2845f3abc" d="M 0 8.660254 
C 2.296726 8.660254 4.499694 7.747755 6.123724 6.123724 
C 7.747755 4.499694 8.660254 2.296726 8.660254 0 
C 8.660254 -2.296726 7.747755 -4.499694 6.123724 -6.123724 
C 4.499694 -7.747755 2.296726 -8.660254 0 -8.660254 
C -2.296726 -8.660254 -4.499694 -7.747755 -6.123724 -6.123724 
C -7.747755 -4.499694 -8.660254 -2.296726 -8.660254 0 
C -8.660254 2.296726 -7.747755 4.499694 -6.123724 6.123724 
C -4.499694 7.747755 -2.296726 8.660254 0 8.660254 
z
" style="stroke: #1f78b4"/>
    </defs>
    <g clip-path="url(#p2c1c7642fe)">
     <use xlink:href="#mf2845f3abc" x="50.423749" y="137.434043" style="fill: #1f78b4; stroke: #1f78b4"/>
     <use xlink:href="#mf2845f3abc" x="39.986777" y="315.609917" style="fill: #1f78b4; stroke: #1f78b4"/>
     <use xlink:href="#mf2845f3abc" x="409.737713" y="208.016714" style="fill: #1f78b4; stroke: #1f78b4"/>
     <use xlink:href="#mf2845f3abc" x="420.813223" y="29.990083" style="fill: #1f78b4; stroke: #1f78b4"/>
    </g>
   </g>
  </g>
 </g>
 <defs>
  <clipPath id="p2c1c7642fe">
   <rect x="0" y="0" width="460.8" height="345.6"/>
  </clipPath>
 </defs>
</svg>
