<?xml version="1.0" encoding="utf-8" standalone="no"?>
<!DOCTYPE svg PUBLIC "-//W3C//DTD SVG 1.1//EN"
  "http://www.w3.org/Graphics/SVG/1.1/DTD/svg11.dtd">
<svg xmlns:xlink="http://www.w3.org/1999/xlink" width="460.8pt" height="345.6pt" viewBox="0 0 460.8 345.6" xmlns="http://www.w3.org/2000/svg" version="1.1">
 <metadata>
  <rdf:RDF xmlns:dc="http://purl.org/dc/elements/1.1/" xmlns:cc="http://creativecommons.org/ns#" xmlns:rdf="http://www.w3.org/1999/02/22-rdf-syntax-ns#">
   <cc:Work>
    <dc:type rdf:resource="http://purl.org/dc/dcmitype/StillImage"/>
    <dc:date>2023-04-25T12:20:20.878502</dc:date>
    <dc:format>image/svg+xml</dc:format>
    <dc:creator>
     <cc:Agent>
      <dc:title>Matplotlib v3.7.1, https://matplotlib.org/</dc:title>
     </cc:Agent>
    </dc:creator>
   </cc:Work>
  </rdf:RDF>
 </metadata>
 <defs>
  <style type="text/css">*{stroke-linejoin: round; stroke-linecap: butt}</style>
 </defs>
 <g id="figure_1">
  <g id="patch_1">
   <path d="M 0 345.6 
L 460.8 345.6 
L 460.8 0 
L 0 0 
z
" style="fill: #ffffff"/>
  </g>
  <g id="axes_1">
   <g id="patch_2">
    <path d="M 132.824229 307.533311 
Q 87.968707 191.650287 43.516769 76.809912 
" clip-path="url(#p5ee13c8a68)" style="fill: none; stroke: #000000; stroke-linecap: round"/>
    <path d="M 43.095529 81.262165 
L 43.516769 76.809912 
L 46.825827 79.818257 
z
" clip-path="url(#p5ee13c8a68)" style="stroke: #000000; stroke-linecap: round"/>
   </g>
   <g id="patch_3">
    <path d="M 142.064066 309.480091 
Q 278.381532 172.800325 413.909478 36.912177 
" clip-path="url(#p5ee13c8a68)" style="fill: none; stroke: #000000; stroke-linecap: round"/>
    <path d="M 409.668718 38.33202 
L 413.909478 36.912177 
L 412.500896 41.156691 
z
" clip-path="url(#p5ee13c8a68)" style="stroke: #000000; stroke-linecap: round"/>
   </g>
   <g id="patch_4">
    <path d="M 43.113036 75.766879 
Q 87.968558 191.649903 132.420496 306.490278 
" clip-path="url(#p5ee13c8a68)" style="fill: none; stroke: #000000; stroke-linecap: round"/>
    <path d="M 132.841737 302.038025 
L 132.420496 306.490278 
L 129.111438 303.481933 
z
" clip-path="url(#p5ee13c8a68)" style="stroke: #000000; stroke-linecap: round"/>
   </g>
   <g id="patch_5">
    <path d="M 48.607322 66.836876 
Q 230.401019 48.840077 411.082121 30.95342 
" clip-path="url(#p5ee13c8a68)" style="fill: none; stroke: #000000; stroke-linecap: round"/>
    <path d="M 406.90455 29.357206 
L 411.082121 30.95342 
L 407.298607 33.337748 
z
" clip-path="url(#p5ee13c8a68)" style="stroke: #000000; stroke-linecap: round"/>
   </g>
   <g id="patch_6">
    <path d="M 414.699645 36.119909 
Q 278.38218 172.799675 142.854234 308.687823 
" clip-path="url(#p5ee13c8a68)" style="fill: none; stroke: #000000; stroke-linecap: round"/>
    <path d="M 147.094994 307.26798 
L 142.854234 308.687823 
L 144.262816 304.443309 
z
" clip-path="url(#p5ee13c8a68)" style="stroke: #000000; stroke-linecap: round"/>
   </g>
   <g id="patch_7">
    <path d="M 419.628652 38.56574 
Q 405.797764 138.693963 392.11986 237.714668 
" clip-path="url(#p5ee13c8a68)" style="fill: none; stroke: #000000; stroke-linecap: round"/>
    <path d="M 394.648378 234.025956 
L 392.11986 237.714668 
L 390.686001 233.478626 
z
" clip-path="url(#p5ee13c8a68)" style="stroke: #000000; stroke-linecap: round"/>
   </g>
   <g id="patch_8">
    <path d="M 383.076276 243.456329 
Q 215.385891 157.547906 48.690561 72.149254 
" clip-path="url(#p5ee13c8a68)" style="fill: none; stroke: #000000; stroke-linecap: round"/>
    <path d="M 51.338673 75.753073 
L 48.690561 72.149254 
L 53.162483 72.193056 
z
" clip-path="url(#p5ee13c8a68)" style="stroke: #000000; stroke-linecap: round"/>
   </g>
   <g id="patch_9">
    <path d="M 391.966062 238.828082 
Q 405.79695 138.699859 419.474855 39.679155 
" clip-path="url(#p5ee13c8a68)" style="fill: none; stroke: #000000; stroke-linecap: round"/>
    <path d="M 416.946336 43.367867 
L 419.474855 39.679155 
L 420.908713 43.915197 
z
" clip-path="url(#p5ee13c8a68)" style="stroke: #000000; stroke-linecap: round"/>
   </g>
   <g id="PathCollection_1">
    <defs>
     <path id="mf53036dd1b" d="M 0 8.660254 
C 2.296726 8.660254 4.499694 7.747755 6.123724 6.123724 
C 7.747755 4.499694 8.660254 2.296726 8.660254 0 
C 8.660254 -2.296726 7.747755 -4.499694 6.123724 -6.123724 
C 4.499694 -7.747755 2.296726 -8.660254 0 -8.660254 
C -2.296726 -8.660254 -4.499694 -7.747755 -6.123724 -6.123724 
C -7.747755 -4.499694 -8.660254 -2.296726 -8.660254 0 
C -8.660254 2.296726 -7.747755 4.499694 -6.123724 6.123724 
C -4.499694 7.747755 -2.296726 8.660254 0 8.660254 
z
" style="stroke: #1f78b4"/>
    </defs>
    <g clip-path="url(#p5ee13c8a68)">
     <use xlink:href="#mf53036dd1b" x="135.950488" y="315.609917" style="fill: #1f78b4; stroke: #1f78b4"/>
     <use xlink:href="#mf53036dd1b" x="39.986777" y="67.690273" style="fill: #1f78b4; stroke: #1f78b4"/>
     <use xlink:href="#mf53036dd1b" x="420.813223" y="29.990083" style="fill: #1f78b4; stroke: #1f78b4"/>
     <use xlink:href="#mf53036dd1b" x="390.781491" y="247.40374" style="fill: #1f78b4; stroke: #1f78b4"/>
    </g>
   </g>
  </g>
 </g>
 <defs>
  <clipPath id="p5ee13c8a68">
   <rect x="0" y="0" width="460.8" height="345.6"/>
  </clipPath>
 </defs>
</svg>
