<?xml version="1.0" encoding="utf-8" standalone="no"?>
<!DOCTYPE svg PUBLIC "-//W3C//DTD SVG 1.1//EN"
  "http://www.w3.org/Graphics/SVG/1.1/DTD/svg11.dtd">
<svg xmlns:xlink="http://www.w3.org/1999/xlink" width="460.8pt" height="345.6pt" viewBox="0 0 460.8 345.6" xmlns="http://www.w3.org/2000/svg" version="1.1">
 <metadata>
  <rdf:RDF xmlns:dc="http://purl.org/dc/elements/1.1/" xmlns:cc="http://creativecommons.org/ns#" xmlns:rdf="http://www.w3.org/1999/02/22-rdf-syntax-ns#">
   <cc:Work>
    <dc:type rdf:resource="http://purl.org/dc/dcmitype/StillImage"/>
    <dc:date>2023-04-25T12:20:19.603767</dc:date>
    <dc:format>image/svg+xml</dc:format>
    <dc:creator>
     <cc:Agent>
      <dc:title>Matplotlib v3.7.1, https://matplotlib.org/</dc:title>
     </cc:Agent>
    </dc:creator>
   </cc:Work>
  </rdf:RDF>
 </metadata>
 <defs>
  <style type="text/css">*{stroke-linejoin: round; stroke-linecap: butt}</style>
 </defs>
 <g id="figure_1">
  <g id="patch_1">
   <path d="M 0 345.6 
L 460.8 345.6 
L 460.8 0 
L 0 0 
z
" style="fill: #ffffff"/>
  </g>
  <g id="axes_1">
   <g id="patch_2">
    <path d="M 259.568757 106.449246 
Q 230.378414 172.832401 201.63811 238.192099 
" clip-path="url(#pda403b7db3)" style="fill: none; stroke: #000000; stroke-linecap: round"/>
    <path d="M 205.079037 235.335524 
L 201.63811 238.192099 
L 201.417406 233.725413 
z
" clip-path="url(#pda403b7db3)" style="stroke: #000000; stroke-linecap: round"/>
   </g>
   <g id="patch_3">
    <path d="M 254.771704 95.981308 
Q 151.516905 64.256965 49.330834 32.860981 
" clip-path="url(#pda403b7db3)" style="fill: none; stroke: #000000; stroke-linecap: round"/>
    <path d="M 52.567045 35.947555 
L 49.330834 32.860981 
L 53.741819 32.123957 
z
" clip-path="url(#pda403b7db3)" style="stroke: #000000; stroke-linecap: round"/>
   </g>
   <g id="patch_4">
    <path d="M 268.144247 105.531483 
Q 341.933708 207.068645 415.065899 307.701376 
" clip-path="url(#pda403b7db3)" style="fill: none; stroke: #000000; stroke-linecap: round"/>
    <path d="M 414.332269 303.289825 
L 415.065899 307.701376 
L 411.09648 305.64135 
z
" clip-path="url(#pda403b7db3)" style="stroke: #000000; stroke-linecap: round"/>
   </g>
   <g id="patch_5">
    <path d="M 201.185022 239.22249 
Q 230.375365 172.839334 259.115668 107.479636 
" clip-path="url(#pda403b7db3)" style="fill: none; stroke: #000000; stroke-linecap: round"/>
    <path d="M 255.674741 110.336211 
L 259.115668 107.479636 
L 259.336372 111.946323 
z
" clip-path="url(#pda403b7db3)" style="stroke: #000000; stroke-linecap: round"/>
   </g>
   <g id="patch_6">
    <path d="M 192.611024 240.137937 
Q 118.843181 138.567222 45.732342 37.901133 
" clip-path="url(#pda403b7db3)" style="fill: none; stroke: #000000; stroke-linecap: round"/>
    <path d="M 46.464664 42.312902 
L 45.732342 37.901133 
L 49.70115 39.962336 
z
" clip-path="url(#pda403b7db3)" style="stroke: #000000; stroke-linecap: round"/>
   </g>
   <g id="patch_7">
    <path d="M 205.976982 249.685675 
Q 309.25645 281.377817 411.467074 312.741976 
" clip-path="url(#pda403b7db3)" style="fill: none; stroke: #000000; stroke-linecap: round"/>
    <path d="M 408.229777 309.656541 
L 411.467074 312.741976 
L 407.056348 313.480552 
z
" clip-path="url(#pda403b7db3)" style="stroke: #000000; stroke-linecap: round"/>
   </g>
   <g id="patch_8">
    <path d="M 48.268027 32.534441 
Q 151.522826 64.258784 253.708897 95.654768 
" clip-path="url(#pda403b7db3)" style="fill: none; stroke: #000000; stroke-linecap: round"/>
    <path d="M 250.472686 92.568194 
L 253.708897 95.654768 
L 249.297911 96.391792 
z
" clip-path="url(#pda403b7db3)" style="stroke: #000000; stroke-linecap: round"/>
   </g>
   <g id="patch_9">
    <path d="M 412.537066 313.070311 
Q 309.257598 281.378169 207.046974 250.014011 
" clip-path="url(#pda403b7db3)" style="fill: none; stroke: #000000; stroke-linecap: round"/>
    <path d="M 210.284271 253.099445 
L 207.046974 250.014011 
L 211.4577 249.275434 
z
" clip-path="url(#pda403b7db3)" style="stroke: #000000; stroke-linecap: round"/>
   </g>
   <g id="PathCollection_1">
    <defs>
     <path id="m9761c47781" d="M 0 8.660254 
C 2.296726 8.660254 4.499694 7.747755 6.123724 6.123724 
C 7.747755 4.499694 8.660254 2.296726 8.660254 0 
C 8.660254 -2.296726 7.747755 -4.499694 6.123724 -6.123724 
C 4.499694 -7.747755 2.296726 -8.660254 0 -8.660254 
C -2.296726 -8.660254 -4.499694 -7.747755 -6.123724 -6.123724 
C -7.747755 -4.499694 -8.660254 -2.296726 -8.660254 0 
C -8.660254 2.296726 -7.747755 4.499694 -6.123724 6.123724 
C -4.499694 7.747755 -2.296726 8.660254 0 8.660254 
z
" style="stroke: #1f78b4"/>
    </defs>
    <g clip-path="url(#pda403b7db3)">
     <use xlink:href="#m9761c47781" x="263.052954" y="98.525667" style="fill: #1f78b4; stroke: #1f78b4"/>
     <use xlink:href="#m9761c47781" x="197.700825" y="247.146069" style="fill: #1f78b4; stroke: #1f78b4"/>
     <use xlink:href="#m9761c47781" x="39.986777" y="29.990083" style="fill: #1f78b4; stroke: #1f78b4"/>
     <use xlink:href="#m9761c47781" x="420.813223" y="315.609917" style="fill: #1f78b4; stroke: #1f78b4"/>
    </g>
   </g>
  </g>
 </g>
 <defs>
  <clipPath id="pda403b7db3">
   <rect x="0" y="0" width="460.8" height="345.6"/>
  </clipPath>
 </defs>
</svg>
