<?xml version="1.0" encoding="utf-8" standalone="no"?>
<!DOCTYPE svg PUBLIC "-//W3C//DTD SVG 1.1//EN"
  "http://www.w3.org/Graphics/SVG/1.1/DTD/svg11.dtd">
<svg xmlns:xlink="http://www.w3.org/1999/xlink" width="460.8pt" height="345.6pt" viewBox="0 0 460.8 345.6" xmlns="http://www.w3.org/2000/svg" version="1.1">
 <metadata>
  <rdf:RDF xmlns:dc="http://purl.org/dc/elements/1.1/" xmlns:cc="http://creativecommons.org/ns#" xmlns:rdf="http://www.w3.org/1999/02/22-rdf-syntax-ns#">
   <cc:Work>
    <dc:type rdf:resource="http://purl.org/dc/dcmitype/StillImage"/>
    <dc:date>2023-04-25T12:20:19.774576</dc:date>
    <dc:format>image/svg+xml</dc:format>
    <dc:creator>
     <cc:Agent>
      <dc:title>Matplotlib v3.7.1, https://matplotlib.org/</dc:title>
     </cc:Agent>
    </dc:creator>
   </cc:Work>
  </rdf:RDF>
 </metadata>
 <defs>
  <style type="text/css">*{stroke-linejoin: round; stroke-linecap: butt}</style>
 </defs>
 <g id="figure_1">
  <g id="patch_1">
   <path d="M 0 345.6 
L 460.8 345.6 
L 460.8 0 
L 0 0 
z
" style="fill: #ffffff"/>
  </g>
  <g id="axes_1">
   <g id="patch_2">
    <path d="M 204.240574 171.469819 
Q 225.759745 104.851118 246.935254 39.296323 
" clip-path="url(#p86c98efc46)" style="fill: none; stroke: #000000; stroke-linecap: round"/>
    <path d="M 243.802555 42.487906 
L 246.935254 39.296323 
L 247.608901 43.717431 
z
" clip-path="url(#p86c98efc46)" style="stroke: #000000; stroke-linecap: round"/>
   </g>
   <g id="patch_3">
    <path d="M 209.772046 176.892608 
Q 311.198109 142.039941 411.566821 107.550607 
" clip-path="url(#p86c98efc46)" style="fill: none; stroke: #000000; stroke-linecap: round"/>
    <path d="M 407.133981 106.959063 
L 411.566821 107.550607 
L 408.433881 110.741953 
z
" clip-path="url(#p86c98efc46)" style="stroke: #000000; stroke-linecap: round"/>
   </g>
   <g id="patch_4">
    <path d="M 194.949258 185.28395 
Q 120.78192 247.659888 47.470238 309.316205 
" clip-path="url(#p86c98efc46)" style="fill: none; stroke: #000000; stroke-linecap: round"/>
    <path d="M 51.81882 308.272257 
L 47.470238 309.316205 
L 49.244228 305.21097 
z
" clip-path="url(#p86c98efc46)" style="stroke: #000000; stroke-linecap: round"/>
   </g>
   <g id="patch_5">
    <path d="M 247.280335 38.228028 
Q 225.761163 104.846729 204.585654 170.401524 
" clip-path="url(#p86c98efc46)" style="fill: none; stroke: #000000; stroke-linecap: round"/>
    <path d="M 207.718353 167.209941 
L 204.585654 170.401524 
L 203.912007 165.980415 
z
" clip-path="url(#p86c98efc46)" style="stroke: #000000; stroke-linecap: round"/>
   </g>
   <g id="patch_6">
    <path d="M 257.880577 33.446151 
Q 335.377754 67.181894 411.849815 100.471387 
" clip-path="url(#p86c98efc46)" style="fill: none; stroke: #000000; stroke-linecap: round"/>
    <path d="M 408.980525 97.041056 
L 411.849815 100.471387 
L 407.383976 100.708621 
z
" clip-path="url(#p86c98efc46)" style="stroke: #000000; stroke-linecap: round"/>
   </g>
   <g id="patch_7">
    <path d="M 412.62073 107.188457 
Q 311.194667 142.041123 210.825955 176.530457 
" clip-path="url(#p86c98efc46)" style="fill: none; stroke: #000000; stroke-linecap: round"/>
    <path d="M 215.258795 177.122001 
L 210.825955 176.530457 
L 213.958895 173.339111 
z
" clip-path="url(#p86c98efc46)" style="stroke: #000000; stroke-linecap: round"/>
   </g>
   <g id="patch_8">
    <path d="M 412.874001 100.917232 
Q 335.376825 67.181489 258.904763 33.891995 
" clip-path="url(#p86c98efc46)" style="fill: none; stroke: #000000; stroke-linecap: round"/>
    <path d="M 261.774054 37.322327 
L 258.904763 33.891995 
L 263.370603 33.654762 
z
" clip-path="url(#p86c98efc46)" style="stroke: #000000; stroke-linecap: round"/>
   </g>
   <g id="patch_9">
    <path d="M 46.617071 310.033732 
Q 120.784409 247.657794 194.096092 186.001476 
" clip-path="url(#p86c98efc46)" style="fill: none; stroke: #000000; stroke-linecap: round"/>
    <path d="M 189.747509 187.045425 
L 194.096092 186.001476 
L 192.322101 190.106712 
z
" clip-path="url(#p86c98efc46)" style="stroke: #000000; stroke-linecap: round"/>
   </g>
   <g id="PathCollection_1">
    <defs>
     <path id="me99bc6595b" d="M 0 8.660254 
C 2.296726 8.660254 4.499694 7.747755 6.123724 6.123724 
C 7.747755 4.499694 8.660254 2.296726 8.660254 0 
C 8.660254 -2.296726 7.747755 -4.499694 6.123724 -6.123724 
C 4.499694 -7.747755 2.296726 -8.660254 0 -8.660254 
C -2.296726 -8.660254 -4.499694 -7.747755 -6.123724 -6.123724 
C -7.747755 -4.499694 -8.660254 -2.296726 -8.660254 0 
C -8.660254 2.296726 -7.747755 4.499694 -6.123724 6.123724 
C -4.499694 7.747755 -2.296726 8.660254 0 8.660254 
z
" style="stroke: #1f78b4"/>
    </defs>
    <g clip-path="url(#p86c98efc46)">
     <use xlink:href="#me99bc6595b" x="201.579553" y="179.707764" style="fill: #1f78b4; stroke: #1f78b4"/>
     <use xlink:href="#me99bc6595b" x="249.941355" y="29.990083" style="fill: #1f78b4; stroke: #1f78b4"/>
     <use xlink:href="#me99bc6595b" x="420.813223" y="104.3733" style="fill: #1f78b4; stroke: #1f78b4"/>
     <use xlink:href="#me99bc6595b" x="39.986777" y="315.609917" style="fill: #1f78b4; stroke: #1f78b4"/>
    </g>
   </g>
  </g>
 </g>
 <defs>
  <clipPath id="p86c98efc46">
   <rect x="0" y="0" width="460.8" height="345.6"/>
  </clipPath>
 </defs>
</svg>
