<?xml version="1.0" encoding="utf-8" standalone="no"?>
<!DOCTYPE svg PUBLIC "-//W3C//DTD SVG 1.1//EN"
  "http://www.w3.org/Graphics/SVG/1.1/DTD/svg11.dtd">
<svg xmlns:xlink="http://www.w3.org/1999/xlink" width="460.8pt" height="345.6pt" viewBox="0 0 460.8 345.6" xmlns="http://www.w3.org/2000/svg" version="1.1">
 <metadata>
  <rdf:RDF xmlns:dc="http://purl.org/dc/elements/1.1/" xmlns:cc="http://creativecommons.org/ns#" xmlns:rdf="http://www.w3.org/1999/02/22-rdf-syntax-ns#">
   <cc:Work>
    <dc:type rdf:resource="http://purl.org/dc/dcmitype/StillImage"/>
    <dc:date>2023-04-25T12:20:19.835701</dc:date>
    <dc:format>image/svg+xml</dc:format>
    <dc:creator>
     <cc:Agent>
      <dc:title>Matplotlib v3.7.1, https://matplotlib.org/</dc:title>
     </cc:Agent>
    </dc:creator>
   </cc:Work>
  </rdf:RDF>
 </metadata>
 <defs>
  <style type="text/css">*{stroke-linejoin: round; stroke-linecap: butt}</style>
 </defs>
 <g id="figure_1">
  <g id="patch_1">
   <path d="M 0 345.6 
L 460.8 345.6 
L 460.8 0 
L 0 0 
z
" style="fill: #ffffff"/>
  </g>
  <g id="axes_1">
   <g id="patch_2">
    <path d="M 225.343531 117.679437 
Q 217.167134 212.330351 209.08696 305.867379 
" clip-path="url(#p0b6d4743c8)" style="fill: none; stroke: #000000; stroke-linecap: round"/>
    <path d="M 211.423797 302.054349 
L 209.08696 305.867379 
L 207.438638 301.710092 
z
" clip-path="url(#p0b6d4743c8)" style="stroke: #000000; stroke-linecap: round"/>
   </g>
   <g id="patch_3">
    <path d="M 218.634542 113.462413 
Q 133.038394 164.096286 48.404524 214.16093 
" clip-path="url(#p0b6d4743c8)" style="fill: none; stroke: #000000; stroke-linecap: round"/>
    <path d="M 52.865541 213.845768 
L 48.404524 214.16093 
L 50.829004 210.403019 
z
" clip-path="url(#p0b6d4743c8)" style="stroke: #000000; stroke-linecap: round"/>
   </g>
   <g id="patch_4">
    <path d="M 234.114103 105.794439 
Q 323.451125 69.521448 411.752244 33.669059 
" clip-path="url(#p0b6d4743c8)" style="fill: none; stroke: #000000; stroke-linecap: round"/>
    <path d="M 407.293691 33.32077 
L 411.752244 33.669059 
L 408.798481 37.026928 
z
" clip-path="url(#p0b6d4743c8)" style="stroke: #000000; stroke-linecap: round"/>
   </g>
   <g id="patch_5">
    <path d="M 208.990552 306.983415 
Q 217.166949 212.332501 225.247123 118.795473 
" clip-path="url(#p0b6d4743c8)" style="fill: none; stroke: #000000; stroke-linecap: round"/>
    <path d="M 222.910286 122.608503 
L 225.247123 118.795473 
L 226.895445 122.95276 
z
" clip-path="url(#p0b6d4743c8)" style="stroke: #000000; stroke-linecap: round"/>
   </g>
   <g id="patch_6">
    <path d="M 200.730509 311.30135 
Q 124.115037 267.374567 48.46949 224.003882 
" clip-path="url(#p0b6d4743c8)" style="fill: none; stroke: #000000; stroke-linecap: round"/>
    <path d="M 50.944822 227.728494 
L 48.46949 224.003882 
L 52.934378 224.258383 
z
" clip-path="url(#p0b6d4743c8)" style="stroke: #000000; stroke-linecap: round"/>
   </g>
   <g id="patch_7">
    <path d="M 47.440964 214.730918 
Q 133.037112 164.097044 217.670983 114.032401 
" clip-path="url(#p0b6d4743c8)" style="fill: none; stroke: #000000; stroke-linecap: round"/>
    <path d="M 213.209966 114.347563 
L 217.670983 114.032401 
L 215.246502 117.790312 
z
" clip-path="url(#p0b6d4743c8)" style="stroke: #000000; stroke-linecap: round"/>
   </g>
   <g id="patch_8">
    <path d="M 47.501621 223.448964 
Q 124.117094 267.375746 199.762641 310.746431 
" clip-path="url(#p0b6d4743c8)" style="fill: none; stroke: #000000; stroke-linecap: round"/>
    <path d="M 197.287308 307.02182 
L 199.762641 310.746431 
L 195.297752 310.49193 
z
" clip-path="url(#p0b6d4743c8)" style="stroke: #000000; stroke-linecap: round"/>
   </g>
   <g id="patch_9">
    <path d="M 415.641417 36.939253 
Q 314.528083 172.80162 214.082254 307.767083 
" clip-path="url(#p0b6d4743c8)" style="fill: none; stroke: #000000; stroke-linecap: round"/>
    <path d="M 218.074825 305.752294 
L 214.082254 307.767083 
L 214.865966 303.364152 
z
" clip-path="url(#p0b6d4743c8)" style="stroke: #000000; stroke-linecap: round"/>
   </g>
   <g id="PathCollection_1">
    <defs>
     <path id="m1e8124feb4" d="M 0 8.660254 
C 2.296726 8.660254 4.499694 7.747755 6.123724 6.123724 
C 7.747755 4.499694 8.660254 2.296726 8.660254 0 
C 8.660254 -2.296726 7.747755 -4.499694 6.123724 -6.123724 
C 4.499694 -7.747755 2.296726 -8.660254 0 -8.660254 
C -2.296726 -8.660254 -4.499694 -7.747755 -6.123724 -6.123724 
C -7.747755 -4.499694 -8.660254 -2.296726 -8.660254 0 
C -8.660254 2.296726 -7.747755 4.499694 -6.123724 6.123724 
C -4.499694 7.747755 -2.296726 8.660254 0 8.660254 
z
" style="stroke: #1f78b4"/>
    </defs>
    <g clip-path="url(#p0b6d4743c8)">
     <use xlink:href="#m1e8124feb4" x="226.088729" y="109.052934" style="fill: #1f78b4; stroke: #1f78b4"/>
     <use xlink:href="#m1e8124feb4" x="208.245354" y="315.609917" style="fill: #1f78b4; stroke: #1f78b4"/>
     <use xlink:href="#m1e8124feb4" x="39.986777" y="219.140396" style="fill: #1f78b4; stroke: #1f78b4"/>
     <use xlink:href="#m1e8124feb4" x="420.813223" y="29.990083" style="fill: #1f78b4; stroke: #1f78b4"/>
    </g>
   </g>
  </g>
 </g>
 <defs>
  <clipPath id="p0b6d4743c8">
   <rect x="0" y="0" width="460.8" height="345.6"/>
  </clipPath>
 </defs>
</svg>
