<?xml version="1.0" encoding="utf-8" standalone="no"?>
<!DOCTYPE svg PUBLIC "-//W3C//DTD SVG 1.1//EN"
  "http://www.w3.org/Graphics/SVG/1.1/DTD/svg11.dtd">
<svg xmlns:xlink="http://www.w3.org/1999/xlink" width="460.8pt" height="345.6pt" viewBox="0 0 460.8 345.6" xmlns="http://www.w3.org/2000/svg" version="1.1">
 <metadata>
  <rdf:RDF xmlns:dc="http://purl.org/dc/elements/1.1/" xmlns:cc="http://creativecommons.org/ns#" xmlns:rdf="http://www.w3.org/1999/02/22-rdf-syntax-ns#">
   <cc:Work>
    <dc:type rdf:resource="http://purl.org/dc/dcmitype/StillImage"/>
    <dc:date>2023-04-25T12:20:19.952501</dc:date>
    <dc:format>image/svg+xml</dc:format>
    <dc:creator>
     <cc:Agent>
      <dc:title>Matplotlib v3.7.1, https://matplotlib.org/</dc:title>
     </cc:Agent>
    </dc:creator>
   </cc:Work>
  </rdf:RDF>
 </metadata>
 <defs>
  <style type="text/css">*{stroke-linejoin: round; stroke-linecap: butt}</style>
 </defs>
 <g id="figure_1">
  <g id="patch_1">
   <path d="M 0 345.6 
L 460.8 345.6 
L 460.8 0 
L 0 0 
z
" style="fill: #ffffff"/>
  </g>
  <g id="axes_1">
   <g id="patch_2">
    <path d="M 240.037007 147.611792 
Q 326.603316 101.480115 412.182949 55.874244 
" clip-path="url(#p1ad7833751)" style="fill: none; stroke: #000000; stroke-linecap: round"/>
    <path d="M 407.712321 55.990402 
L 412.182949 55.874244 
L 409.593499 59.52044 
z
" clip-path="url(#p1ad7833751)" style="stroke: #000000; stroke-linecap: round"/>
   </g>
   <g id="patch_3">
    <path d="M 225.073045 147.056441 
Q 136.188652 90.837402 48.249153 35.216004 
" clip-path="url(#p1ad7833751)" style="fill: none; stroke: #000000; stroke-linecap: round"/>
    <path d="M 50.560614 39.04447 
L 48.249153 35.216004 
L 52.698802 35.663915 
z
" clip-path="url(#p1ad7833751)" style="stroke: #000000; stroke-linecap: round"/>
   </g>
   <g id="patch_4">
    <path d="M 228.151129 159.237141 
Q 186.360298 233.647591 145.116948 307.083225 
" clip-path="url(#p1ad7833751)" style="fill: none; stroke: #000000; stroke-linecap: round"/>
    <path d="M 148.819478 304.574985 
L 145.116948 307.083225 
L 145.331874 302.616257 
z
" clip-path="url(#p1ad7833751)" style="stroke: #000000; stroke-linecap: round"/>
   </g>
   <g id="patch_5">
    <path d="M 413.168393 55.349095 
Q 326.602085 101.480771 241.022452 147.086642 
" clip-path="url(#p1ad7833751)" style="fill: none; stroke: #000000; stroke-linecap: round"/>
    <path d="M 245.493079 146.970484 
L 241.022452 147.086642 
L 243.611902 143.440446 
z
" clip-path="url(#p1ad7833751)" style="stroke: #000000; stroke-linecap: round"/>
   </g>
   <g id="patch_6">
    <path d="M 412.163623 50.791681 
Q 230.398315 40.632508 49.749297 30.535727 
" clip-path="url(#p1ad7833751)" style="fill: none; stroke: #000000; stroke-linecap: round"/>
    <path d="M 53.631455 32.755828 
L 49.749297 30.535727 
L 53.854673 28.762062 
z
" clip-path="url(#p1ad7833751)" style="stroke: #000000; stroke-linecap: round"/>
   </g>
   <g id="patch_7">
    <path d="M 47.305909 34.619406 
Q 136.190302 90.838446 224.129801 146.459843 
" clip-path="url(#p1ad7833751)" style="fill: none; stroke: #000000; stroke-linecap: round"/>
    <path d="M 221.818341 142.631378 
L 224.129801 146.459843 
L 219.680153 146.011933 
z
" clip-path="url(#p1ad7833751)" style="stroke: #000000; stroke-linecap: round"/>
   </g>
   <g id="patch_8">
    <path d="M 42.857566 38.161732 
Q 90.15688 172.798358 137.085619 306.38015 
" clip-path="url(#p1ad7833751)" style="fill: none; stroke: #000000; stroke-linecap: round"/>
    <path d="M 137.646755 301.943358 
L 137.085619 306.38015 
L 133.872867 303.269166 
z
" clip-path="url(#p1ad7833751)" style="stroke: #000000; stroke-linecap: round"/>
   </g>
   <g id="patch_9">
    <path d="M 146.630235 309.670693 
Q 280.570357 183.442824 413.696831 57.981753 
" clip-path="url(#p1ad7833751)" style="fill: none; stroke: #000000; stroke-linecap: round"/>
    <path d="M 409.41415 59.269634 
L 413.696831 57.981753 
L 412.157528 62.180627 
z
" clip-path="url(#p1ad7833751)" style="stroke: #000000; stroke-linecap: round"/>
   </g>
   <g id="PathCollection_1">
    <defs>
     <path id="md9c589a3b6" d="M 0 8.660254 
C 2.296726 8.660254 4.499694 7.747755 6.123724 6.123724 
C 7.747755 4.499694 8.660254 2.296726 8.660254 0 
C 8.660254 -2.296726 7.747755 -4.499694 6.123724 -6.123724 
C 4.499694 -7.747755 2.296726 -8.660254 0 -8.660254 
C -2.296726 -8.660254 -4.499694 -7.747755 -6.123724 -6.123724 
C -7.747755 -4.499694 -8.660254 -2.296726 -8.660254 0 
C -8.660254 2.296726 -7.747755 4.499694 -6.123724 6.123724 
C -4.499694 7.747755 -2.296726 8.660254 0 8.660254 
z
" style="stroke: #1f78b4"/>
    </defs>
    <g clip-path="url(#p1ad7833751)">
     <use xlink:href="#md9c589a3b6" x="232.392178" y="151.685765" style="fill: #1f78b4; stroke: #1f78b4"/>
     <use xlink:href="#md9c589a3b6" x="420.813223" y="51.275122" style="fill: #1f78b4; stroke: #1f78b4"/>
     <use xlink:href="#md9c589a3b6" x="39.986777" y="29.990083" style="fill: #1f78b4; stroke: #1f78b4"/>
     <use xlink:href="#md9c589a3b6" x="140.328137" y="315.609917" style="fill: #1f78b4; stroke: #1f78b4"/>
    </g>
   </g>
  </g>
 </g>
 <defs>
  <clipPath id="p1ad7833751">
   <rect x="0" y="0" width="460.8" height="345.6"/>
  </clipPath>
 </defs>
</svg>
