<?xml version="1.0" encoding="utf-8" standalone="no"?>
<!DOCTYPE svg PUBLIC "-//W3C//DTD SVG 1.1//EN"
  "http://www.w3.org/Graphics/SVG/1.1/DTD/svg11.dtd">
<svg xmlns:xlink="http://www.w3.org/1999/xlink" width="460.8pt" height="345.6pt" viewBox="0 0 460.8 345.6" xmlns="http://www.w3.org/2000/svg" version="1.1">
 <metadata>
  <rdf:RDF xmlns:dc="http://purl.org/dc/elements/1.1/" xmlns:cc="http://creativecommons.org/ns#" xmlns:rdf="http://www.w3.org/1999/02/22-rdf-syntax-ns#">
   <cc:Work>
    <dc:type rdf:resource="http://purl.org/dc/dcmitype/StillImage"/>
    <dc:date>2023-04-25T12:20:21.114335</dc:date>
    <dc:format>image/svg+xml</dc:format>
    <dc:creator>
     <cc:Agent>
      <dc:title>Matplotlib v3.7.1, https://matplotlib.org/</dc:title>
     </cc:Agent>
    </dc:creator>
   </cc:Work>
  </rdf:RDF>
 </metadata>
 <defs>
  <style type="text/css">*{stroke-linejoin: round; stroke-linecap: butt}</style>
 </defs>
 <g id="figure_1">
  <g id="patch_1">
   <path d="M 0 345.6 
L 460.8 345.6 
L 460.8 0 
L 0 0 
z
" style="fill: #ffffff"/>
  </g>
  <g id="axes_1">
   <g id="patch_2">
    <path d="M 134.92258 315.47663 
Q 273.538274 313.34339 411.036067 311.227355 
" clip-path="url(#p9290d60176)" style="fill: none; stroke: #000000; stroke-linecap: round"/>
    <path d="M 407.005765 309.289143 
L 411.036067 311.227355 
L 407.067316 313.288669 
z
" clip-path="url(#p9290d60176)" style="stroke: #000000; stroke-linecap: round"/>
   </g>
   <g id="patch_3">
    <path d="M 133.126523 310.3298 
Q 273.527641 202.339836 413.042545 95.031506 
" clip-path="url(#p9290d60176)" style="fill: none; stroke: #000000; stroke-linecap: round"/>
    <path d="M 408.652586 95.884887 
L 413.042545 95.031506 
L 411.091275 99.055502 
z
" clip-path="url(#p9290d60176)" style="stroke: #000000; stroke-linecap: round"/>
   </g>
   <g id="patch_4">
    <path d="M 123.756473 307.316238 
Q 83.123645 172.798073 42.814107 39.35018 
" clip-path="url(#p9290d60176)" style="fill: none; stroke: #000000; stroke-linecap: round"/>
    <path d="M 42.056177 43.757622 
L 42.814107 39.35018 
L 45.885303 42.600989 
z
" clip-path="url(#p9290d60176)" style="stroke: #000000; stroke-linecap: round"/>
   </g>
   <g id="patch_5">
    <path d="M 412.152322 311.210176 
Q 273.536628 313.343415 136.038835 315.459451 
" clip-path="url(#p9290d60176)" style="fill: none; stroke: #000000; stroke-linecap: round"/>
    <path d="M 140.069137 317.397663 
L 136.038835 315.459451 
L 140.007586 313.398137 
z
" clip-path="url(#p9290d60176)" style="stroke: #000000; stroke-linecap: round"/>
   </g>
   <g id="patch_6">
    <path d="M 420.81238 302.414957 
Q 420.802421 200.074384 420.792571 98.851845 
" clip-path="url(#p9290d60176)" style="fill: none; stroke: #000000; stroke-linecap: round"/>
    <path d="M 418.79296 102.852039 
L 420.792571 98.851845 
L 422.79296 102.85165 
z
" clip-path="url(#p9290d60176)" style="stroke: #000000; stroke-linecap: round"/>
   </g>
   <g id="patch_7">
    <path d="M 413.842988 305.93218 
Q 230.398963 170.53272 47.854478 35.797208 
" clip-path="url(#p9290d60176)" style="fill: none; stroke: #000000; stroke-linecap: round"/>
    <path d="M 49.885065 39.781767 
L 47.854478 35.797208 
L 52.260478 36.563474 
z
" clip-path="url(#p9290d60176)" style="stroke: #000000; stroke-linecap: round"/>
   </g>
   <g id="patch_8">
    <path d="M 413.926774 94.351399 
Q 273.525656 202.341363 134.010752 309.649693 
" clip-path="url(#p9290d60176)" style="fill: none; stroke: #000000; stroke-linecap: round"/>
    <path d="M 138.400711 308.796312 
L 134.010752 309.649693 
L 135.962022 305.625697 
z
" clip-path="url(#p9290d60176)" style="stroke: #000000; stroke-linecap: round"/>
   </g>
   <g id="patch_9">
    <path d="M 420.792462 97.733213 
Q 420.802421 200.073786 420.812271 301.296325 
" clip-path="url(#p9290d60176)" style="fill: none; stroke: #000000; stroke-linecap: round"/>
    <path d="M 422.811882 297.29613 
L 420.812271 301.296325 
L 418.811882 297.296519 
z
" clip-path="url(#p9290d60176)" style="stroke: #000000; stroke-linecap: round"/>
   </g>
   <g id="patch_10">
    <path d="M 412.23548 87.743812 
Q 230.389637 59.53075 49.64861 31.489099 
" clip-path="url(#p9290d60176)" style="fill: none; stroke: #000000; stroke-linecap: round"/>
    <path d="M 53.294692 34.07871 
L 49.64861 31.489099 
L 53.907948 30.126 
z
" clip-path="url(#p9290d60176)" style="stroke: #000000; stroke-linecap: round"/>
   </g>
   <g id="PathCollection_1">
    <defs>
     <path id="m89159229de" d="M 0 8.660254 
C 2.296726 8.660254 4.499694 7.747755 6.123724 6.123724 
C 7.747755 4.499694 8.660254 2.296726 8.660254 0 
C 8.660254 -2.296726 7.747755 -4.499694 6.123724 -6.123724 
C 4.499694 -7.747755 2.296726 -8.660254 0 -8.660254 
C -2.296726 -8.660254 -4.499694 -7.747755 -6.123724 -6.123724 
C -7.747755 -4.499694 -8.660254 -2.296726 -8.660254 0 
C -8.660254 2.296726 -7.747755 4.499694 -6.123724 6.123724 
C -4.499694 7.747755 -2.296726 8.660254 0 8.660254 
z
" style="stroke: #1f78b4"/>
    </defs>
    <g clip-path="url(#p9290d60176)">
     <use xlink:href="#m89159229de" x="126.261678" y="315.609917" style="fill: #1f78b4; stroke: #1f78b4"/>
     <use xlink:href="#m89159229de" x="420.813223" y="311.076888" style="fill: #1f78b4; stroke: #1f78b4"/>
     <use xlink:href="#m89159229de" x="420.791619" y="89.071282" style="fill: #1f78b4; stroke: #1f78b4"/>
     <use xlink:href="#m89159229de" x="39.986777" y="29.990083" style="fill: #1f78b4; stroke: #1f78b4"/>
    </g>
   </g>
  </g>
 </g>
 <defs>
  <clipPath id="p9290d60176">
   <rect x="0" y="0" width="460.8" height="345.6"/>
  </clipPath>
 </defs>
</svg>
