<?xml version="1.0" encoding="utf-8" standalone="no"?>
<!DOCTYPE svg PUBLIC "-//W3C//DTD SVG 1.1//EN"
  "http://www.w3.org/Graphics/SVG/1.1/DTD/svg11.dtd">
<svg xmlns:xlink="http://www.w3.org/1999/xlink" width="460.8pt" height="345.6pt" viewBox="0 0 460.8 345.6" xmlns="http://www.w3.org/2000/svg" version="1.1">
 <metadata>
  <rdf:RDF xmlns:dc="http://purl.org/dc/elements/1.1/" xmlns:cc="http://creativecommons.org/ns#" xmlns:rdf="http://www.w3.org/1999/02/22-rdf-syntax-ns#">
   <cc:Work>
    <dc:type rdf:resource="http://purl.org/dc/dcmitype/StillImage"/>
    <dc:date>2023-04-25T12:20:21.768968</dc:date>
    <dc:format>image/svg+xml</dc:format>
    <dc:creator>
     <cc:Agent>
      <dc:title>Matplotlib v3.7.1, https://matplotlib.org/</dc:title>
     </cc:Agent>
    </dc:creator>
   </cc:Work>
  </rdf:RDF>
 </metadata>
 <defs>
  <style type="text/css">*{stroke-linejoin: round; stroke-linecap: butt}</style>
 </defs>
 <g id="figure_1">
  <g id="patch_1">
   <path d="M 0 345.6 
L 460.8 345.6 
L 460.8 0 
L 0 0 
z
" style="fill: #ffffff"/>
  </g>
  <g id="axes_1">
   <g id="patch_2">
    <path d="M 130.003471 134.223169 
Q 86.920149 221.037553 44.333834 306.850446 
" clip-path="url(#p0a66144716)" style="fill: none; stroke: #000000; stroke-linecap: round"/>
    <path d="M 47.903507 304.156483 
L 44.333834 306.850446 
L 44.320468 302.37833 
z
" clip-path="url(#p0a66144716)" style="stroke: #000000; stroke-linecap: round"/>
   </g>
   <g id="patch_3">
    <path d="M 141.658287 130.214404 
Q 269.409408 191.519933 396.15255 252.34175 
" clip-path="url(#p0a66144716)" style="fill: none; stroke: #000000; stroke-linecap: round"/>
    <path d="M 393.411582 248.808042 
L 396.15255 252.34175 
L 391.681002 252.414299 
z
" clip-path="url(#p0a66144716)" style="stroke: #000000; stroke-linecap: round"/>
   </g>
   <g id="patch_4">
    <path d="M 142.062006 123.70803 
Q 277.335205 78.228313 411.54866 33.104888 
" clip-path="url(#p0a66144716)" style="fill: none; stroke: #000000; stroke-linecap: round"/>
    <path d="M 407.119852 32.483873 
L 411.54866 33.104888 
L 408.394562 36.275325 
z
" clip-path="url(#p0a66144716)" style="stroke: #000000; stroke-linecap: round"/>
   </g>
   <g id="patch_5">
    <path d="M 43.835285 307.855042 
Q 86.918607 221.040658 129.504922 135.227765 
" clip-path="url(#p0a66144716)" style="fill: none; stroke: #000000; stroke-linecap: round"/>
    <path d="M 125.935249 137.921728 
L 129.504922 135.227765 
L 129.518288 139.699881 
z
" clip-path="url(#p0a66144716)" style="stroke: #000000; stroke-linecap: round"/>
   </g>
   <g id="patch_6">
    <path d="M 48.538218 314.226659 
Q 222.479203 286.09043 395.3165 258.13273 
" clip-path="url(#p0a66144716)" style="fill: none; stroke: #000000; stroke-linecap: round"/>
    <path d="M 391.048463 256.79712 
L 395.3165 258.13273 
L 391.68719 260.745794 
z
" clip-path="url(#p0a66144716)" style="stroke: #000000; stroke-linecap: round"/>
   </g>
   <g id="patch_7">
    <path d="M 396.415621 257.954939 
Q 222.474636 286.091168 49.637339 314.048868 
" clip-path="url(#p0a66144716)" style="fill: none; stroke: #000000; stroke-linecap: round"/>
    <path d="M 53.905376 315.384478 
L 49.637339 314.048868 
L 53.266649 311.435804 
z
" clip-path="url(#p0a66144716)" style="stroke: #000000; stroke-linecap: round"/>
   </g>
   <g id="patch_8">
    <path d="M 405.571303 247.931736 
Q 412.890267 143.279105 420.13123 39.741783 
" clip-path="url(#p0a66144716)" style="fill: none; stroke: #000000; stroke-linecap: round"/>
    <path d="M 417.857042 43.592506 
L 420.13123 39.741783 
L 421.847296 43.871567 
z
" clip-path="url(#p0a66144716)" style="stroke: #000000; stroke-linecap: round"/>
   </g>
   <g id="patch_9">
    <path d="M 412.603196 32.750346 
Q 277.329998 78.230063 143.116543 123.353488 
" clip-path="url(#p0a66144716)" style="fill: none; stroke: #000000; stroke-linecap: round"/>
    <path d="M 147.545351 123.974503 
L 143.116543 123.353488 
L 146.27064 120.183051 
z
" clip-path="url(#p0a66144716)" style="stroke: #000000; stroke-linecap: round"/>
   </g>
   <g id="patch_10">
    <path d="M 420.208982 38.630027 
Q 412.890018 143.282659 405.649055 246.819981 
" clip-path="url(#p0a66144716)" style="fill: none; stroke: #000000; stroke-linecap: round"/>
    <path d="M 407.923243 242.969258 
L 405.649055 246.819981 
L 403.93299 242.690196 
z
" clip-path="url(#p0a66144716)" style="stroke: #000000; stroke-linecap: round"/>
   </g>
   <g id="PathCollection_1">
    <defs>
     <path id="ma1d96dac35" d="M 0 8.660254 
C 2.296726 8.660254 4.499694 7.747755 6.123724 6.123724 
C 7.747755 4.499694 8.660254 2.296726 8.660254 0 
C 8.660254 -2.296726 7.747755 -4.499694 6.123724 -6.123724 
C 4.499694 -7.747755 2.296726 -8.660254 0 -8.660254 
C -2.296726 -8.660254 -4.499694 -7.747755 -6.123724 -6.123724 
C -7.747755 -4.499694 -8.660254 -2.296726 -8.660254 0 
C -8.660254 2.296726 -7.747755 4.499694 -6.123724 6.123724 
C -4.499694 7.747755 -2.296726 8.660254 0 8.660254 
z
" style="stroke: #1f78b4"/>
    </defs>
    <g clip-path="url(#p0a66144716)">
     <use xlink:href="#ma1d96dac35" x="133.851979" y="126.468293" style="fill: #1f78b4; stroke: #1f78b4"/>
     <use xlink:href="#ma1d96dac35" x="39.986777" y="315.609917" style="fill: #1f78b4; stroke: #1f78b4"/>
     <use xlink:href="#ma1d96dac35" x="404.967062" y="256.571681" style="fill: #1f78b4; stroke: #1f78b4"/>
     <use xlink:href="#ma1d96dac35" x="420.813223" y="29.990083" style="fill: #1f78b4; stroke: #1f78b4"/>
    </g>
   </g>
  </g>
 </g>
 <defs>
  <clipPath id="p0a66144716">
   <rect x="0" y="0" width="460.8" height="345.6"/>
  </clipPath>
 </defs>
</svg>
