<?xml version="1.0" encoding="utf-8" standalone="no"?>
<!DOCTYPE svg PUBLIC "-//W3C//DTD SVG 1.1//EN"
  "http://www.w3.org/Graphics/SVG/1.1/DTD/svg11.dtd">
<svg xmlns:xlink="http://www.w3.org/1999/xlink" width="460.8pt" height="345.6pt" viewBox="0 0 460.8 345.6" xmlns="http://www.w3.org/2000/svg" version="1.1">
 <metadata>
  <rdf:RDF xmlns:dc="http://purl.org/dc/elements/1.1/" xmlns:cc="http://creativecommons.org/ns#" xmlns:rdf="http://www.w3.org/1999/02/22-rdf-syntax-ns#">
   <cc:Work>
    <dc:type rdf:resource="http://purl.org/dc/dcmitype/StillImage"/>
    <dc:date>2023-04-25T12:20:21.331046</dc:date>
    <dc:format>image/svg+xml</dc:format>
    <dc:creator>
     <cc:Agent>
      <dc:title>Matplotlib v3.7.1, https://matplotlib.org/</dc:title>
     </cc:Agent>
    </dc:creator>
   </cc:Work>
  </rdf:RDF>
 </metadata>
 <defs>
  <style type="text/css">*{stroke-linejoin: round; stroke-linecap: butt}</style>
 </defs>
 <g id="figure_1">
  <g id="patch_1">
   <path d="M 0 345.6 
L 460.8 345.6 
L 460.8 0 
L 0 0 
z
" style="fill: #ffffff"/>
  </g>
  <g id="axes_1">
   <g id="patch_2">
    <path d="M 412.152002 190.601012 
Q 230.398047 193.617706 49.761973 196.615845 
" clip-path="url(#pb24e0d791c)" style="fill: none; stroke: #000000; stroke-linecap: round"/>
    <path d="M 53.794613 198.549188 
L 49.761973 196.615845 
L 53.728232 194.549739 
z
" clip-path="url(#pb24e0d791c)" style="stroke: #000000; stroke-linecap: round"/>
   </g>
   <g id="patch_3">
    <path d="M 414.305552 196.172922 
Q 349.564585 253.034708 285.66365 309.158695 
" clip-path="url(#pb24e0d791c)" style="fill: none; stroke: #000000; stroke-linecap: round"/>
    <path d="M 289.988855 308.021765 
L 285.66365 309.158695 
L 287.349229 305.016374 
z
" clip-path="url(#pb24e0d791c)" style="stroke: #000000; stroke-linecap: round"/>
   </g>
   <g id="patch_4">
    <path d="M 416.497528 182.9476 
Q 374.70371 110.222994 333.46697 38.467751 
" clip-path="url(#pb24e0d791c)" style="fill: none; stroke: #000000; stroke-linecap: round"/>
    <path d="M 333.725989 42.932379 
L 333.46697 38.467751 
L 337.194084 40.939313 
z
" clip-path="url(#pb24e0d791c)" style="stroke: #000000; stroke-linecap: round"/>
   </g>
   <g id="patch_5">
    <path d="M 48.647998 196.634335 
Q 230.401953 193.617641 411.038027 190.619501 
" clip-path="url(#pb24e0d791c)" style="fill: none; stroke: #000000; stroke-linecap: round"/>
    <path d="M 407.005387 188.686158 
L 411.038027 190.619501 
L 407.071768 192.685607 
z
" clip-path="url(#pb24e0d791c)" style="stroke: #000000; stroke-linecap: round"/>
   </g>
   <g id="patch_6">
    <path d="M 47.736485 200.642083 
Q 159.151973 256.193672 269.5669 311.246383 
" clip-path="url(#pb24e0d791c)" style="fill: none; stroke: #000000; stroke-linecap: round"/>
    <path d="M 266.879606 307.671687 
L 269.5669 311.246383 
L 265.094766 311.2514 
z
" clip-path="url(#pb24e0d791c)" style="stroke: #000000; stroke-linecap: round"/>
   </g>
   <g id="patch_7">
    <path d="M 47.484266 192.445257 
Q 184.288531 113.385441 320.124783 34.885044 
" clip-path="url(#pb24e0d791c)" style="fill: none; stroke: #000000; stroke-linecap: round"/>
    <path d="M 315.660793 35.154849 
L 320.124783 34.885044 
L 317.662233 38.618119 
z
" clip-path="url(#pb24e0d791c)" style="stroke: #000000; stroke-linecap: round"/>
   </g>
   <g id="patch_8">
    <path d="M 284.826171 309.894251 
Q 349.567138 253.032465 413.468073 196.908478 
" clip-path="url(#pb24e0d791c)" style="fill: none; stroke: #000000; stroke-linecap: round"/>
    <path d="M 409.142869 198.045408 
L 413.468073 196.908478 
L 411.782494 201.050799 
z
" clip-path="url(#pb24e0d791c)" style="stroke: #000000; stroke-linecap: round"/>
   </g>
   <g id="patch_9">
    <path d="M 279.819829 307.080895 
Q 303.456825 172.799498 326.899998 39.619206 
" clip-path="url(#pb24e0d791c)" style="fill: none; stroke: #000000; stroke-linecap: round"/>
    <path d="M 324.236839 43.211918 
L 326.899998 39.619206 
L 328.176273 43.90536 
z
" clip-path="url(#pb24e0d791c)" style="stroke: #000000; stroke-linecap: round"/>
   </g>
   <g id="patch_10">
    <path d="M 332.910667 37.499739 
Q 374.704486 110.224344 415.941225 181.979588 
" clip-path="url(#pb24e0d791c)" style="fill: none; stroke: #000000; stroke-linecap: round"/>
    <path d="M 415.682207 177.514959 
L 415.941225 181.979588 
L 412.214111 179.508025 
z
" clip-path="url(#pb24e0d791c)" style="stroke: #000000; stroke-linecap: round"/>
   </g>
   <g id="PathCollection_1">
    <defs>
     <path id="m7a0e45ba5a" d="M 0 8.660254 
C 2.296726 8.660254 4.499694 7.747755 6.123724 6.123724 
C 7.747755 4.499694 8.660254 2.296726 8.660254 0 
C 8.660254 -2.296726 7.747755 -4.499694 6.123724 -6.123724 
C 4.499694 -7.747755 2.296726 -8.660254 0 -8.660254 
C -2.296726 -8.660254 -4.499694 -7.747755 -6.123724 -6.123724 
C -7.747755 -4.499694 -8.660254 -2.296726 -8.660254 0 
C -8.660254 2.296726 -7.747755 4.499694 -6.123724 6.123724 
C -4.499694 7.747755 -2.296726 8.660254 0 8.660254 
z
" style="stroke: #1f78b4"/>
    </defs>
    <g clip-path="url(#pb24e0d791c)">
     <use xlink:href="#m7a0e45ba5a" x="420.813223" y="190.457256" style="fill: #1f78b4; stroke: #1f78b4"/>
     <use xlink:href="#m7a0e45ba5a" x="39.986777" y="196.778091" style="fill: #1f78b4; stroke: #1f78b4"/>
     <use xlink:href="#m7a0e45ba5a" x="278.3185" y="315.609917" style="fill: #1f78b4; stroke: #1f78b4"/>
     <use xlink:href="#m7a0e45ba5a" x="328.594973" y="29.990083" style="fill: #1f78b4; stroke: #1f78b4"/>
    </g>
   </g>
  </g>
 </g>
 <defs>
  <clipPath id="pb24e0d791c">
   <rect x="0" y="0" width="460.8" height="345.6"/>
  </clipPath>
 </defs>
</svg>
