<?xml version="1.0" encoding="utf-8" standalone="no"?>
<!DOCTYPE svg PUBLIC "-//W3C//DTD SVG 1.1//EN"
  "http://www.w3.org/Graphics/SVG/1.1/DTD/svg11.dtd">
<svg xmlns:xlink="http://www.w3.org/1999/xlink" width="460.8pt" height="345.6pt" viewBox="0 0 460.8 345.6" xmlns="http://www.w3.org/2000/svg" version="1.1">
 <metadata>
  <rdf:RDF xmlns:dc="http://purl.org/dc/elements/1.1/" xmlns:cc="http://creativecommons.org/ns#" xmlns:rdf="http://www.w3.org/1999/02/22-rdf-syntax-ns#">
   <cc:Work>
    <dc:type rdf:resource="http://purl.org/dc/dcmitype/StillImage"/>
    <dc:date>2023-04-25T12:20:21.461508</dc:date>
    <dc:format>image/svg+xml</dc:format>
    <dc:creator>
     <cc:Agent>
      <dc:title>Matplotlib v3.7.1, https://matplotlib.org/</dc:title>
     </cc:Agent>
    </dc:creator>
   </cc:Work>
  </rdf:RDF>
 </metadata>
 <defs>
  <style type="text/css">*{stroke-linejoin: round; stroke-linecap: butt}</style>
 </defs>
 <g id="figure_1">
  <g id="patch_1">
   <path d="M 0 345.6 
L 460.8 345.6 
L 460.8 0 
L 0 0 
z
" style="fill: #ffffff"/>
  </g>
  <g id="axes_1">
   <g id="patch_2">
    <path d="M 187.339063 312.92389 
Q 299.959636 276.193551 411.517279 239.809879 
" clip-path="url(#pc41af0c227)" style="fill: none; stroke: #000000; stroke-linecap: round"/>
    <path d="M 407.094285 239.148723 
L 411.517279 239.809879 
L 408.334558 242.951581 
z
" clip-path="url(#pc41af0c227)" style="stroke: #000000; stroke-linecap: round"/>
   </g>
   <g id="patch_3">
    <path d="M 185.24458 309.501213 
Q 297.863126 197.479828 409.689004 86.246907 
" clip-path="url(#pc41af0c227)" style="fill: none; stroke: #000000; stroke-linecap: round"/>
    <path d="M 405.442619 87.649838 
L 409.689004 86.246907 
L 408.263517 90.485774 
z
" clip-path="url(#pc41af0c227)" style="stroke: #000000; stroke-linecap: round"/>
   </g>
   <g id="patch_4">
    <path d="M 175.309958 307.821791 
Q 109.544948 172.799803 44.269514 38.78296 
" clip-path="url(#pc41af0c227)" style="fill: none; stroke: #000000; stroke-linecap: round"/>
    <path d="M 44.223012 43.254854 
L 44.269514 38.78296 
L 47.819128 41.503298 
z
" clip-path="url(#pc41af0c227)" style="stroke: #000000; stroke-linecap: round"/>
   </g>
   <g id="patch_5">
    <path d="M 412.577471 239.464105 
Q 299.956898 276.194444 188.399256 312.578116 
" clip-path="url(#pc41af0c227)" style="fill: none; stroke: #000000; stroke-linecap: round"/>
    <path d="M 192.82225 313.239272 
L 188.399256 312.578116 
L 191.581977 309.436415 
z
" clip-path="url(#pc41af0c227)" style="stroke: #000000; stroke-linecap: round"/>
   </g>
   <g id="patch_6">
    <path d="M 420.582824 228.125569 
Q 418.717318 158.067595 416.881572 89.12726 
" clip-path="url(#pc41af0c227)" style="fill: none; stroke: #000000; stroke-linecap: round"/>
    <path d="M 414.988755 93.17908 
L 416.881572 89.12726 
L 418.987338 93.072605 
z
" clip-path="url(#pc41af0c227)" style="stroke: #000000; stroke-linecap: round"/>
   </g>
   <g id="patch_7">
    <path d="M 413.203784 232.646168 
Q 230.400857 133.384546 48.58046 34.656435 
" clip-path="url(#pc41af0c227)" style="fill: none; stroke: #000000; stroke-linecap: round"/>
    <path d="M 51.141291 38.322788 
L 48.58046 34.656435 
L 53.050041 34.807582 
z
" clip-path="url(#pc41af0c227)" style="stroke: #000000; stroke-linecap: round"/>
   </g>
   <g id="patch_8">
    <path d="M 410.479992 85.460114 
Q 297.861446 197.481499 186.035568 308.714419 
" clip-path="url(#pc41af0c227)" style="fill: none; stroke: #000000; stroke-linecap: round"/>
    <path d="M 190.281953 307.311489 
L 186.035568 308.714419 
L 187.461055 304.475553 
z
" clip-path="url(#pc41af0c227)" style="stroke: #000000; stroke-linecap: round"/>
   </g>
   <g id="patch_9">
    <path d="M 408.032389 78.225761 
Q 228.304366 54.670791 49.684896 31.261108 
" clip-path="url(#pc41af0c227)" style="fill: none; stroke: #000000; stroke-linecap: round"/>
    <path d="M 53.391084 33.763941 
L 49.684896 31.261108 
L 53.910875 29.797857 
z
" clip-path="url(#pc41af0c227)" style="stroke: #000000; stroke-linecap: round"/>
   </g>
   <g id="patch_10">
    <path d="M 48.575648 31.115731 
Q 228.303671 54.6707 406.923141 78.080384 
" clip-path="url(#pc41af0c227)" style="fill: none; stroke: #000000; stroke-linecap: round"/>
    <path d="M 403.216953 75.577551 
L 406.923141 78.080384 
L 402.697162 79.543635 
z
" clip-path="url(#pc41af0c227)" style="stroke: #000000; stroke-linecap: round"/>
   </g>
   <g id="PathCollection_1">
    <defs>
     <path id="m5b0d6df618" d="M 0 8.660254 
C 2.296726 8.660254 4.499694 7.747755 6.123724 6.123724 
C 7.747755 4.499694 8.660254 2.296726 8.660254 0 
C 8.660254 -2.296726 7.747755 -4.499694 6.123724 -6.123724 
C 4.499694 -7.747755 2.296726 -8.660254 0 -8.660254 
C -2.296726 -8.660254 -4.499694 -7.747755 -6.123724 -6.123724 
C -7.747755 -4.499694 -8.660254 -2.296726 -8.660254 0 
C -8.660254 2.296726 -7.747755 4.499694 -6.123724 6.123724 
C -4.499694 7.747755 -2.296726 8.660254 0 8.660254 
z
" style="stroke: #1f78b4"/>
    </defs>
    <g clip-path="url(#pc41af0c227)">
     <use xlink:href="#m5b0d6df618" x="179.103312" y="315.609917" style="fill: #1f78b4; stroke: #1f78b4"/>
     <use xlink:href="#m5b0d6df618" x="420.813223" y="236.778078" style="fill: #1f78b4; stroke: #1f78b4"/>
     <use xlink:href="#m5b0d6df618" x="416.62126" y="79.351409" style="fill: #1f78b4; stroke: #1f78b4"/>
     <use xlink:href="#m5b0d6df618" x="39.986777" y="29.990083" style="fill: #1f78b4; stroke: #1f78b4"/>
    </g>
   </g>
  </g>
 </g>
 <defs>
  <clipPath id="pc41af0c227">
   <rect x="0" y="0" width="460.8" height="345.6"/>
  </clipPath>
 </defs>
</svg>
