<?xml version="1.0" encoding="utf-8" standalone="no"?>
<!DOCTYPE svg PUBLIC "-//W3C//DTD SVG 1.1//EN"
  "http://www.w3.org/Graphics/SVG/1.1/DTD/svg11.dtd">
<svg xmlns:xlink="http://www.w3.org/1999/xlink" width="460.8pt" height="345.6pt" viewBox="0 0 460.8 345.6" xmlns="http://www.w3.org/2000/svg" version="1.1">
 <metadata>
  <rdf:RDF xmlns:dc="http://purl.org/dc/elements/1.1/" xmlns:cc="http://creativecommons.org/ns#" xmlns:rdf="http://www.w3.org/1999/02/22-rdf-syntax-ns#">
   <cc:Work>
    <dc:type rdf:resource="http://purl.org/dc/dcmitype/StillImage"/>
    <dc:date>2023-04-25T12:20:21.647891</dc:date>
    <dc:format>image/svg+xml</dc:format>
    <dc:creator>
     <cc:Agent>
      <dc:title>Matplotlib v3.7.1, https://matplotlib.org/</dc:title>
     </cc:Agent>
    </dc:creator>
   </cc:Work>
  </rdf:RDF>
 </metadata>
 <defs>
  <style type="text/css">*{stroke-linejoin: round; stroke-linecap: butt}</style>
 </defs>
 <g id="figure_1">
  <g id="patch_1">
   <path d="M 0 345.6 
L 460.8 345.6 
L 460.8 0 
L 0 0 
z
" style="fill: #ffffff"/>
  </g>
  <g id="axes_1">
   <g id="patch_2">
    <path d="M 240.726083 145.81135 
Q 275.199676 226.727093 309.235052 306.614262 
" clip-path="url(#p8da697a111)" style="fill: none; stroke: #000000; stroke-linecap: round"/>
    <path d="M 309.507209 302.150415 
L 309.235052 306.614262 
L 305.827269 303.718228 
z
" clip-path="url(#p8da697a111)" style="stroke: #000000; stroke-linecap: round"/>
   </g>
   <g id="patch_3">
    <path d="M 229.072131 135.249654 
Q 138.659637 106.843214 49.313771 78.771895 
" clip-path="url(#p8da697a111)" style="fill: none; stroke: #000000; stroke-linecap: round"/>
    <path d="M 52.530371 81.8789 
L 49.313771 78.771895 
L 53.729335 78.062818 
z
" clip-path="url(#p8da697a111)" style="stroke: #000000; stroke-linecap: round"/>
   </g>
   <g id="patch_4">
    <path d="M 244.798791 133.455626 
Q 329.074134 83.91654 412.385632 34.944025 
" clip-path="url(#p8da697a111)" style="fill: none; stroke: #000000; stroke-linecap: round"/>
    <path d="M 407.923762 35.246874 
L 412.385632 34.944025 
L 409.950789 38.69523 
z
" clip-path="url(#p8da697a111)" style="stroke: #000000; stroke-linecap: round"/>
   </g>
   <g id="patch_5">
    <path d="M 309.673493 307.643362 
Q 275.1999 226.727619 241.164524 146.84045 
" clip-path="url(#p8da697a111)" style="fill: none; stroke: #000000; stroke-linecap: round"/>
    <path d="M 240.892367 151.304297 
L 241.164524 146.84045 
L 244.572307 149.736483 
z
" clip-path="url(#p8da697a111)" style="stroke: #000000; stroke-linecap: round"/>
   </g>
   <g id="patch_6">
    <path d="M 306.561002 309.897051 
Q 176.526952 195.725493 47.333054 82.291599 
" clip-path="url(#p8da697a111)" style="fill: none; stroke: #000000; stroke-linecap: round"/>
    <path d="M 49.019296 86.43365 
L 47.333054 82.291599 
L 51.65844 83.427835 
z
" clip-path="url(#p8da697a111)" style="stroke: #000000; stroke-linecap: round"/>
   </g>
   <g id="patch_7">
    <path d="M 48.246633 78.436614 
Q 138.659127 106.843054 228.004993 134.914373 
" clip-path="url(#p8da697a111)" style="fill: none; stroke: #000000; stroke-linecap: round"/>
    <path d="M 224.788392 131.807368 
L 228.004993 134.914373 
L 223.589429 135.62345 
z
" clip-path="url(#p8da697a111)" style="stroke: #000000; stroke-linecap: round"/>
   </g>
   <g id="patch_8">
    <path d="M 48.584078 74.806361 
Q 230.400488 52.91572 411.10688 31.158724 
" clip-path="url(#p8da697a111)" style="fill: none; stroke: #000000; stroke-linecap: round"/>
    <path d="M 406.896488 29.65121 
L 411.10688 31.158724 
L 407.374633 33.622529 
z
" clip-path="url(#p8da697a111)" style="stroke: #000000; stroke-linecap: round"/>
   </g>
   <g id="patch_9">
    <path d="M 413.346419 34.379251 
Q 329.071076 83.918337 245.759578 132.890852 
" clip-path="url(#p8da697a111)" style="fill: none; stroke: #000000; stroke-linecap: round"/>
    <path d="M 250.221448 132.588003 
L 245.759578 132.890852 
L 248.194421 129.139647 
z
" clip-path="url(#p8da697a111)" style="stroke: #000000; stroke-linecap: round"/>
   </g>
   <g id="patch_10">
    <path d="M 417.756901 38.092 
Q 366.940189 172.800576 316.518093 306.463074 
" clip-path="url(#p8da697a111)" style="fill: none; stroke: #000000; stroke-linecap: round"/>
    <path d="M 319.801196 303.426425 
L 316.518093 306.463074 
L 316.058636 302.014603 
z
" clip-path="url(#p8da697a111)" style="stroke: #000000; stroke-linecap: round"/>
   </g>
   <g id="PathCollection_1">
    <defs>
     <path id="m9f3c1682b6" d="M 0 8.660254 
C 2.296726 8.660254 4.499694 7.747755 6.123724 6.123724 
C 7.747755 4.499694 8.660254 2.296726 8.660254 0 
C 8.660254 -2.296726 7.747755 -4.499694 6.123724 -6.123724 
C 4.499694 -7.747755 2.296726 -8.660254 0 -8.660254 
C -2.296726 -8.660254 -4.499694 -7.747755 -6.123724 -6.123724 
C -7.747755 -4.499694 -8.660254 -2.296726 -8.660254 0 
C -8.660254 2.296726 -7.747755 4.499694 -6.123724 6.123724 
C -4.499694 7.747755 -2.296726 8.660254 0 8.660254 
z
" style="stroke: #1f78b4"/>
    </defs>
    <g clip-path="url(#p8da697a111)">
     <use xlink:href="#m9f3c1682b6" x="237.331987" y="137.844794" style="fill: #1f78b4; stroke: #1f78b4"/>
     <use xlink:href="#m9f3c1682b6" x="313.067589" y="315.609917" style="fill: #1f78b4; stroke: #1f78b4"/>
     <use xlink:href="#m9f3c1682b6" x="39.986777" y="75.841474" style="fill: #1f78b4; stroke: #1f78b4"/>
     <use xlink:href="#m9f3c1682b6" x="420.813223" y="29.990083" style="fill: #1f78b4; stroke: #1f78b4"/>
    </g>
   </g>
  </g>
 </g>
 <defs>
  <clipPath id="p8da697a111">
   <rect x="0" y="0" width="460.8" height="345.6"/>
  </clipPath>
 </defs>
</svg>
